<?xml version="1.0" encoding="UTF-8" standalone="no"?>
<!DOCTYPE svg PUBLIC "-//W3C//DTD SVG 1.1//EN" "http://www.w3.org/Graphics/SVG/1.1/DTD/svg11.dtd">
<svg width="100%" height="100%" viewBox="0 0 500 500" version="1.1" xmlns="http://www.w3.org/2000/svg" xmlns:xlink="http://www.w3.org/1999/xlink" xml:space="preserve" xmlns:serif="http://www.serif.com/" style="fill-rule:evenodd;clip-rule:evenodd;stroke-linejoin:round;stroke-miterlimit:1.41421;">
    <g transform="matrix(0.298629,0,0,0.298629,-4821.04,-683.744)">
        <g>
            <rect x="16476.2" y="2576.45" width="1009.87" height="1009.87" style="fill:url(#_Linear1);"/>
        </g>
    </g>
    <g transform="matrix(4.53227,0,0,4.53227,304.387,375.379)">
        <g transform="matrix(1,0,0,1,-12,-12)">
            <g transform="matrix(1,0,0,1,20.0408,12.5)">
                <g id="Layer-1" serif:id="Layer 1">
                    <path d="M0,-1L-0.32,2.5C-0.32,3.5 -2.489,8.5 -2.489,9.5L-3.842,9.481C-4.393,7.849 -5.231,7.827 -5.83,8.275C-6.047,8.438 -6.838,9.62 -6.838,9.62L-11,9.5C-11,9.5 -12.861,2.326 -15.861,0.326C-15.861,0.326 -16.59,-5.5 -11.59,-0.5L-12.918,-9.167C-12.918,-10.267 -12.752,-10.472 -11.652,-10.472C-10.552,-10.472 -9.618,-10.117 -9.618,-9.017L-8.696,-3.908C-8.696,-3.908 -6.401,-4.236 -6.401,-3.236C-6.401,-3.236 -4.353,-3.535 -4.353,-2.535C-4.353,-2.535 -2.163,-2.759 -2.163,-1.759C-2.163,-1.759 0,-2 0,-1" style="fill:rgb(231,231,231);fill-rule:nonzero;stroke:black;stroke-width:1px;"/>
                </g>
            </g>
            <g transform="matrix(1,0,0,0.876519,0.324812,1.11684)">
                <path d="M10.766,19.419L10.766,13.709" style="fill:none;stroke:rgb(51,51,51);stroke-width:0.8px;stroke-linecap:round;stroke-miterlimit:1.5;"/>
            </g>
            <g transform="matrix(1,0,0,0.876519,2.82116,1.11684)">
                <path d="M10.766,19.419L10.766,13.709" style="fill:none;stroke:rgb(51,51,51);stroke-width:0.8px;stroke-linecap:round;stroke-miterlimit:1.5;"/>
            </g>
            <g transform="matrix(1,0,0,0.876519,5.30613,1.11684)">
                <path d="M10.766,19.419L10.766,13.709" style="fill:none;stroke:rgb(51,51,51);stroke-width:0.8px;stroke-linecap:round;stroke-miterlimit:1.5;"/>
            </g>
        </g>
    </g>
    <defs>
        <linearGradient id="_Linear1" x1="0" y1="0" x2="1" y2="0" gradientUnits="userSpaceOnUse" gradientTransform="matrix(1009.87,0,0,1009.87,16476.2,3081.39)"><stop offset="0" style="stop-color:rgb(220,150,180);stop-opacity:1"/><stop offset="1" style="stop-color:rgb(176,92,250);stop-opacity:1"/></linearGradient>
    </defs>
</svg>
