<?xml version="1.0" encoding="UTF-8" standalone="no"?><!DOCTYPE svg PUBLIC "-//W3C//DTD SVG 1.1//EN" "http://www.w3.org/Graphics/SVG/1.1/DTD/svg11.dtd"><svg width="100%" height="100%" viewBox="0 0 300 75" version="1.1" xmlns="http://www.w3.org/2000/svg" xmlns:xlink="http://www.w3.org/1999/xlink" xml:space="preserve" xmlns:serif="http://www.serif.com/" style="fill-rule:evenodd;clip-rule:evenodd;stroke-linejoin:round;stroke-miterlimit:1.41421;"><g transform="matrix(0.446932,0,0,0.446932,-529.459,-874.894)"><path d="M1189.73,2017.55l0,-56.875l19.922,0c6.901,0 12.135,1.322 15.703,3.965c3.568,2.643 5.352,6.517 5.352,11.621c0,2.786 -0.717,5.241 -2.149,7.363c-1.432,2.123 -3.424,3.679 -5.976,4.668c2.916,0.729 5.214,2.201 6.894,4.414c1.68,2.214 2.52,4.922 2.52,8.125c0,5.469 -1.745,9.61 -5.235,12.422c-3.489,2.813 -8.463,4.245 -14.922,4.297l-22.109,0Zm11.719,-24.766l0,15.352l10.039,0c2.76,0 4.915,-0.658 6.465,-1.973c1.549,-1.315 2.324,-3.131 2.324,-5.449c0,-5.208 -2.695,-7.852 -8.086,-7.93l-10.742,0Zm0,-8.281l8.672,0c5.911,-0.104 8.867,-2.461 8.867,-7.07c0,-2.578 -0.749,-4.434 -2.246,-5.567c-1.498,-1.132 -3.861,-1.699 -7.09,-1.699l-8.203,0l0,14.336Z" style="fill:url(#_Linear1);fill-rule:nonzero;"/><rect x="1240.63" y="1957.55" width="11.328" height="60" style="fill:url(#_Linear2);fill-rule:nonzero;"/><path d="M1286.57,2013.26c-2.786,3.385 -6.641,5.078 -11.563,5.078c-4.531,0 -7.988,-1.302 -10.371,-3.906c-2.382,-2.604 -3.6,-6.419 -3.652,-11.445l0,-27.696l11.289,0l0,27.305c0,4.401 2.005,6.602 6.016,6.602c3.828,0 6.458,-1.329 7.89,-3.985l0,-29.922l11.328,0l0,42.266l-10.625,0l-0.312,-4.297Z" style="fill:url(#_Linear3);fill-rule:nonzero;"/><path d="M1329.77,1985.87c-1.536,-0.208 -2.891,-0.312 -4.062,-0.312c-4.271,0 -7.071,1.445 -8.399,4.336l0,27.656l-11.289,0l0,-42.266l10.664,0l0.313,5.039c2.265,-3.88 5.403,-5.82 9.414,-5.82c1.25,0 2.422,0.169 3.515,0.508l-0.156,10.859Z" style="fill:url(#_Linear4);fill-rule:nonzero;"/><path d="M1358.95,1985.87c-1.537,-0.208 -2.891,-0.312 -4.063,-0.312c-4.271,0 -7.07,1.445 -8.398,4.336l0,27.656l-11.289,0l0,-42.266l10.664,0l0.312,5.039c2.266,-3.88 5.404,-5.82 9.414,-5.82c1.25,0 2.422,0.169 3.516,0.508l-0.156,10.859Z" style="fill:url(#_Linear5);fill-rule:nonzero;"/><path d="M1383.83,2018.34c-6.198,0 -11.244,-1.901 -15.137,-5.703c-3.893,-3.802 -5.84,-8.867 -5.84,-15.195l0,-1.094c0,-4.245 0.82,-8.04 2.461,-11.387c1.641,-3.346 3.965,-5.924 6.973,-7.734c3.007,-1.81 6.438,-2.715 10.293,-2.715c5.781,0 10.332,1.823 13.652,5.469c3.32,3.646 4.98,8.815 4.98,15.508l0,4.609l-26.914,0c0.365,2.76 1.465,4.974 3.301,6.641c1.836,1.666 4.16,2.5 6.973,2.5c4.349,0 7.747,-1.576 10.195,-4.727l5.547,6.211c-1.693,2.396 -3.984,4.264 -6.875,5.605c-2.891,1.342 -6.094,2.012 -9.609,2.012Zm-1.289,-34.687c-2.24,0 -4.056,0.755 -5.45,2.265c-1.393,1.511 -2.285,3.672 -2.675,6.485l15.703,0l0,-0.899c-0.052,-2.5 -0.729,-4.433 -2.032,-5.801c-1.302,-1.367 -3.151,-2.05 -5.546,-2.05Z" style="fill:url(#_Linear6);fill-rule:nonzero;"/><path d="M1405.86,1996.11c0,-6.589 1.478,-11.836 4.433,-15.743c2.956,-3.906 6.999,-5.859 12.129,-5.859c4.115,0 7.513,1.536 10.196,4.609l0,-21.562l11.328,0l0,60l-10.196,0l-0.546,-4.492c-2.813,3.515 -6.433,5.273 -10.86,5.273c-4.974,0 -8.965,-1.959 -11.972,-5.879c-3.008,-3.919 -4.512,-9.368 -4.512,-16.347Zm11.289,0.82c0,3.958 0.69,6.992 2.07,9.101c1.38,2.11 3.386,3.165 6.016,3.165c3.489,0 5.95,-1.472 7.383,-4.415l0,-16.679c-1.407,-2.943 -3.841,-4.414 -7.305,-4.414c-5.443,0 -8.164,4.414 -8.164,13.242Z" style="fill:url(#_Linear7);fill-rule:nonzero;"/><path d="M1502.85,2002.63c0,-2.214 -0.781,-3.913 -2.344,-5.098c-1.562,-1.185 -4.375,-2.435 -8.437,-3.75c-4.063,-1.315 -7.279,-2.61 -9.649,-3.886c-6.458,-3.49 -9.687,-8.19 -9.687,-14.102c0,-3.073 0.866,-5.814 2.598,-8.223c1.731,-2.408 4.218,-4.29 7.46,-5.644c3.243,-1.354 6.882,-2.031 10.918,-2.031c4.063,0 7.683,0.735 10.86,2.207c3.177,1.471 5.644,3.548 7.402,6.23c1.758,2.682 2.637,5.729 2.637,9.141l-11.719,0c0,-2.604 -0.82,-4.629 -2.461,-6.074c-1.64,-1.446 -3.945,-2.168 -6.914,-2.168c-2.864,0 -5.091,0.605 -6.68,1.816c-1.588,1.211 -2.382,2.806 -2.382,4.785c0,1.849 0.931,3.399 2.793,4.649c1.862,1.25 4.602,2.421 8.222,3.515c6.667,2.005 11.524,4.492 14.571,7.461c3.046,2.969 4.57,6.667 4.57,11.094c0,4.922 -1.862,8.782 -5.586,11.582c-3.724,2.799 -8.737,4.199 -15.039,4.199c-4.375,0 -8.36,-0.801 -11.953,-2.402c-3.594,-1.602 -6.335,-3.796 -8.223,-6.582c-1.888,-2.787 -2.832,-6.016 -2.832,-9.688l11.758,0c0,6.276 3.75,9.414 11.25,9.414c2.786,0 4.961,-0.566 6.523,-1.699c1.563,-1.133 2.344,-2.715 2.344,-4.746Z" style="fill:url(#_Linear8);fill-rule:nonzero;"/><path d="M1532.82,1979.9c2.995,-3.594 6.758,-5.391 11.289,-5.391c9.167,0 13.815,5.326 13.945,15.977l0,27.07l-11.289,0l0,-26.758c0,-2.422 -0.521,-4.212 -1.562,-5.371c-1.042,-1.159 -2.774,-1.738 -5.196,-1.738c-3.307,0 -5.703,1.276 -7.187,3.828l0,30.039l-11.289,0l0,-60l11.289,0l0,22.344Z" style="fill:url(#_Linear9);fill-rule:nonzero;"/><path d="M1591.06,2017.55c-0.521,-1.016 -0.898,-2.279 -1.133,-3.789c-2.734,3.047 -6.289,4.57 -10.664,4.57c-4.14,0 -7.571,-1.198 -10.293,-3.594c-2.721,-2.395 -4.082,-5.416 -4.082,-9.062c0,-4.479 1.66,-7.917 4.981,-10.313c3.32,-2.395 8.118,-3.606 14.394,-3.632l5.196,0l0,-2.422c0,-1.953 -0.502,-3.516 -1.504,-4.688c-1.003,-1.172 -2.585,-1.758 -4.746,-1.758c-1.901,0 -3.392,0.456 -4.473,1.368c-1.081,0.911 -1.621,2.161 -1.621,3.75l-11.289,0c0,-2.448 0.755,-4.714 2.265,-6.797c1.511,-2.084 3.646,-3.718 6.407,-4.903c2.76,-1.185 5.859,-1.777 9.297,-1.777c5.208,0 9.342,1.309 12.402,3.926c3.06,2.617 4.59,6.295 4.59,11.035l0,18.32c0.026,4.011 0.586,7.045 1.679,9.102l0,0.664l-11.406,0Zm-9.336,-7.852c1.667,0 3.203,-0.371 4.61,-1.113c1.406,-0.742 2.448,-1.738 3.125,-2.988l0,-7.266l-4.219,0c-5.651,0 -8.659,1.953 -9.024,5.86l-0.039,0.664c0,1.406 0.495,2.565 1.485,3.476c0.989,0.912 2.343,1.367 4.062,1.367Z" style="fill:url(#_Linear10);fill-rule:nonzero;"/><path d="M1607.7,1996.11c0,-6.589 1.478,-11.836 4.433,-15.743c2.956,-3.906 6.999,-5.859 12.129,-5.859c4.115,0 7.513,1.536 10.196,4.609l0,-21.562l11.328,0l0,60l-10.196,0l-0.546,-4.492c-2.813,3.515 -6.433,5.273 -10.86,5.273c-4.974,0 -8.965,-1.959 -11.972,-5.879c-3.008,-3.919 -4.512,-9.368 -4.512,-16.347Zm11.289,0.82c0,3.958 0.69,6.992 2.07,9.101c1.38,2.11 3.386,3.165 6.016,3.165c3.489,0 5.95,-1.472 7.383,-4.415l0,-16.679c-1.407,-2.943 -3.842,-4.414 -7.305,-4.414c-5.443,0 -8.164,4.414 -8.164,13.242Z" style="fill:url(#_Linear11);fill-rule:nonzero;"/><path d="M1652.78,1996.03c0,-4.192 0.807,-7.929 2.422,-11.21c1.614,-3.282 3.939,-5.821 6.972,-7.618c3.034,-1.797 6.556,-2.695 10.567,-2.695c5.703,0 10.358,1.745 13.965,5.234c3.606,3.49 5.618,8.23 6.035,14.219l0.078,2.891c0,6.484 -1.81,11.686 -5.43,15.605c-3.619,3.92 -8.476,5.879 -14.57,5.879c-6.094,0 -10.957,-1.953 -14.59,-5.859c-3.633,-3.906 -5.449,-9.219 -5.449,-15.938l0,-0.508Zm11.289,0.821c0,4.01 0.755,7.077 2.266,9.199c1.51,2.122 3.671,3.184 6.484,3.184c2.734,0 4.87,-1.049 6.406,-3.145c1.537,-2.096 2.305,-5.449 2.305,-10.059c0,-3.932 -0.768,-6.979 -2.305,-9.14c-1.536,-2.162 -3.698,-3.242 -6.484,-3.242c-2.761,0 -4.896,1.074 -6.406,3.222c-1.511,2.149 -2.266,5.476 -2.266,9.981Z" style="fill:url(#_Linear12);fill-rule:nonzero;"/><path d="M1736.53,2002.2l5.547,-26.914l10.898,0l-10.781,42.266l-9.453,0l-8.008,-26.602l-8.008,26.602l-9.414,0l-10.781,-42.266l10.898,0l5.508,26.875l7.735,-26.875l8.164,0l7.695,26.914Z" style="fill:url(#_Linear13);fill-rule:nonzero;"/><path d="M1236.02,2108.17l-11.719,0l0,-24.375l-22.851,0l0,24.375l-11.719,0l0,-56.875l11.719,0l0,23.047l22.851,0l0,-23.047l11.719,0l0,56.875Z" style="fill:url(#_Linear14);fill-rule:nonzero;"/><path d="M1243.75,2086.64c0,-4.192 0.808,-7.929 2.422,-11.211c1.615,-3.281 3.939,-5.82 6.973,-7.617c3.034,-1.797 6.556,-2.695 10.566,-2.695c5.704,0 10.358,1.745 13.965,5.234c3.607,3.49 5.619,8.229 6.035,14.219l0.079,2.891c0,6.484 -1.81,11.686 -5.43,15.605c-3.62,3.919 -8.477,5.879 -14.57,5.879c-6.094,0 -10.957,-1.953 -14.59,-5.859c-3.633,-3.907 -5.45,-9.219 -5.45,-15.938l0,-0.508Zm11.29,0.821c0,4.01 0.755,7.077 2.265,9.199c1.511,2.122 3.672,3.183 6.485,3.183c2.734,0 4.869,-1.048 6.406,-3.144c1.536,-2.096 2.304,-5.449 2.304,-10.059c0,-3.932 -0.768,-6.979 -2.304,-9.14c-1.537,-2.162 -3.698,-3.242 -6.485,-3.242c-2.76,0 -4.895,1.074 -6.406,3.222c-1.51,2.149 -2.265,5.475 -2.265,9.981Z" style="fill:url(#_Linear15);fill-rule:nonzero;"/><path d="M1306.57,2094.38l7.852,-28.477l11.796,0l-14.257,42.266l-10.782,0l-14.257,-42.266l11.796,0l7.852,28.477Z" style="fill:url(#_Linear16);fill-rule:nonzero;"/><path d="M1350.63,2108.95c-6.197,0 -11.243,-1.901 -15.136,-5.703c-3.893,-3.802 -5.84,-8.867 -5.84,-15.195l0,-1.094c0,-4.245 0.82,-8.04 2.461,-11.387c1.64,-3.346 3.965,-5.924 6.973,-7.734c3.007,-1.81 6.438,-2.715 10.292,-2.715c5.782,0 10.333,1.823 13.653,5.469c3.32,3.646 4.98,8.815 4.98,15.507l0,4.61l-26.914,0c0.365,2.76 1.465,4.974 3.301,6.64c1.836,1.667 4.16,2.5 6.973,2.5c4.349,0 7.747,-1.575 10.195,-4.726l5.547,6.211c-1.693,2.396 -3.985,4.264 -6.875,5.605c-2.891,1.341 -6.094,2.012 -9.61,2.012Zm-1.289,-34.687c-2.239,0 -4.056,0.755 -5.449,2.265c-1.393,1.511 -2.285,3.672 -2.676,6.485l15.704,0l0,-0.899c-0.053,-2.5 -0.73,-4.433 -2.032,-5.801c-1.302,-1.367 -3.151,-2.05 -5.547,-2.05Z" style="fill:url(#_Linear17);fill-rule:nonzero;"/><path d="M1398.17,2076.49c-1.537,-0.208 -2.891,-0.312 -4.063,-0.312c-4.271,0 -7.07,1.445 -8.398,4.336l0,27.656l-11.289,0l0,-42.266l10.664,0l0.312,5.039c2.266,-3.88 5.404,-5.82 9.414,-5.82c1.25,0 2.422,0.169 3.516,0.508l-0.156,10.859Z" style="fill:url(#_Linear18);fill-rule:nonzero;"/><path d="M1458.48,2083.52l-22.5,0l0,15.235l26.406,0l0,9.414l-38.125,0l0,-56.875l38.047,0l0,9.492l-26.328,0l0,13.555l22.5,0l0,9.179Z" style="fill:url(#_Linear19);fill-rule:nonzero;"/><path d="M1471.6,2108.17l0,-33.985l-6.289,0l0,-8.281l6.289,0l0,-3.594c0,-4.739 1.361,-8.418 4.082,-11.035c2.721,-2.617 6.53,-3.926 11.426,-3.926c1.562,0 3.476,0.261 5.742,0.782l-0.117,8.75c-0.938,-0.235 -2.083,-0.352 -3.438,-0.352c-4.244,0 -6.367,1.992 -6.367,5.977l0,3.398l8.399,0l0,8.281l-8.399,0l0,33.985l-11.328,0Z" style="fill:url(#_Linear20);fill-rule:nonzero;"/><path d="M1500.28,2108.17l0,-33.985l-6.289,0l0,-8.281l6.289,0l0,-3.594c0,-4.739 1.361,-8.418 4.082,-11.035c2.721,-2.617 6.53,-3.926 11.426,-3.926c1.562,0 3.476,0.261 5.742,0.782l-0.117,8.75c-0.938,-0.235 -2.084,-0.352 -3.438,-0.352c-4.245,0 -6.367,1.992 -6.367,5.977l0,3.398l8.398,0l0,8.281l-8.398,0l0,33.985l-11.328,0Z" style="fill:url(#_Linear21);fill-rule:nonzero;"/><path d="M1545.32,2108.95c-6.198,0 -11.244,-1.901 -15.137,-5.703c-3.893,-3.802 -5.84,-8.867 -5.84,-15.195l0,-1.094c0,-4.245 0.821,-8.04 2.461,-11.387c1.641,-3.346 3.965,-5.924 6.973,-7.734c3.008,-1.81 6.439,-2.715 10.293,-2.715c5.781,0 10.332,1.823 13.652,5.469c3.321,3.646 4.981,8.815 4.981,15.507l0,4.61l-26.914,0c0.364,2.76 1.465,4.974 3.301,6.64c1.835,1.667 4.16,2.5 6.972,2.5c4.349,0 7.748,-1.575 10.195,-4.726l5.547,6.211c-1.692,2.396 -3.984,4.264 -6.875,5.605c-2.89,1.341 -6.093,2.012 -9.609,2.012Zm-1.289,-34.687c-2.24,0 -4.056,0.755 -5.449,2.265c-1.394,1.511 -2.285,3.672 -2.676,6.485l15.703,0l0,-0.899c-0.052,-2.5 -0.729,-4.433 -2.031,-5.801c-1.302,-1.367 -3.151,-2.05 -5.547,-2.05Z" style="fill:url(#_Linear22);fill-rule:nonzero;"/><path d="M1586.68,2099.85c2.084,0 3.776,-0.572 5.078,-1.718c1.302,-1.146 1.979,-2.67 2.032,-4.571l10.585,0c-0.026,2.865 -0.807,5.489 -2.343,7.872c-1.537,2.382 -3.64,4.231 -6.309,5.546c-2.669,1.316 -5.618,1.973 -8.848,1.973c-6.041,0 -10.807,-1.921 -14.296,-5.762c-3.49,-3.841 -5.235,-9.147 -5.235,-15.918l0,-0.742c0,-6.51 1.732,-11.706 5.196,-15.586c3.463,-3.88 8.216,-5.82 14.257,-5.82c5.287,0 9.525,1.504 12.715,4.512c3.19,3.007 4.811,7.011 4.863,12.011l-10.585,0c-0.053,-2.187 -0.73,-3.964 -2.032,-5.332c-1.302,-1.367 -3.021,-2.05 -5.156,-2.05c-2.63,0 -4.616,0.957 -5.957,2.871c-1.341,1.914 -2.012,5.019 -2.012,9.316l0,1.172c0,4.349 0.664,7.474 1.992,9.375c1.329,1.901 3.347,2.851 6.055,2.851Z" style="fill:url(#_Linear23);fill-rule:nonzero;"/><path d="M1624.34,2055.51l0,10.39l7.227,0l0,8.281l-7.227,0l0,21.094c0,1.563 0.3,2.682 0.899,3.36c0.599,0.677 1.745,1.015 3.437,1.015c1.25,0 2.357,-0.091 3.321,-0.273l0,8.554c-2.214,0.678 -4.493,1.016 -6.836,1.016c-7.917,0 -11.953,-3.997 -12.11,-11.992l0,-22.774l-6.172,0l0,-8.281l6.172,0l0,-10.39l11.289,0Z" style="fill:url(#_Linear24);fill-rule:nonzero;"/></g><defs><linearGradient id="_Linear1" x1="0" y1="0" x2="1" y2="0" gradientUnits="userSpaceOnUse" gradientTransform="matrix(527.164,0,0,225.969,1184.65,2070.54)"><stop offset="0" style="stop-color:#dc96b4;stop-opacity:1"/><stop offset="1" style="stop-color:#b05cfa;stop-opacity:1"/></linearGradient><linearGradient id="_Linear2" x1="0" y1="0" x2="1" y2="0" gradientUnits="userSpaceOnUse" gradientTransform="matrix(527.164,0,0,225.969,1184.65,2070.54)"><stop offset="0" style="stop-color:#dc96b4;stop-opacity:1"/><stop offset="1" style="stop-color:#b05cfa;stop-opacity:1"/></linearGradient><linearGradient id="_Linear3" x1="0" y1="0" x2="1" y2="0" gradientUnits="userSpaceOnUse" gradientTransform="matrix(527.164,0,0,225.969,1184.65,2070.54)"><stop offset="0" style="stop-color:#dc96b4;stop-opacity:1"/><stop offset="1" style="stop-color:#b05cfa;stop-opacity:1"/></linearGradient><linearGradient id="_Linear4" x1="0" y1="0" x2="1" y2="0" gradientUnits="userSpaceOnUse" gradientTransform="matrix(527.164,0,0,225.969,1184.65,2070.54)"><stop offset="0" style="stop-color:#dc96b4;stop-opacity:1"/><stop offset="1" style="stop-color:#b05cfa;stop-opacity:1"/></linearGradient><linearGradient id="_Linear5" x1="0" y1="0" x2="1" y2="0" gradientUnits="userSpaceOnUse" gradientTransform="matrix(527.164,0,0,225.969,1184.65,2070.54)"><stop offset="0" style="stop-color:#dc96b4;stop-opacity:1"/><stop offset="1" style="stop-color:#b05cfa;stop-opacity:1"/></linearGradient><linearGradient id="_Linear6" x1="0" y1="0" x2="1" y2="0" gradientUnits="userSpaceOnUse" gradientTransform="matrix(527.164,0,0,225.969,1184.65,2070.54)"><stop offset="0" style="stop-color:#dc96b4;stop-opacity:1"/><stop offset="1" style="stop-color:#b05cfa;stop-opacity:1"/></linearGradient><linearGradient id="_Linear7" x1="0" y1="0" x2="1" y2="0" gradientUnits="userSpaceOnUse" gradientTransform="matrix(527.164,0,0,225.969,1184.65,2070.54)"><stop offset="0" style="stop-color:#dc96b4;stop-opacity:1"/><stop offset="1" style="stop-color:#b05cfa;stop-opacity:1"/></linearGradient><linearGradient id="_Linear8" x1="0" y1="0" x2="1" y2="0" gradientUnits="userSpaceOnUse" gradientTransform="matrix(527.164,0,0,225.969,1184.65,2070.54)"><stop offset="0" style="stop-color:#dc96b4;stop-opacity:1"/><stop offset="1" style="stop-color:#b05cfa;stop-opacity:1"/></linearGradient><linearGradient id="_Linear9" x1="0" y1="0" x2="1" y2="0" gradientUnits="userSpaceOnUse" gradientTransform="matrix(527.164,0,0,225.969,1184.65,2070.54)"><stop offset="0" style="stop-color:#dc96b4;stop-opacity:1"/><stop offset="1" style="stop-color:#b05cfa;stop-opacity:1"/></linearGradient><linearGradient id="_Linear10" x1="0" y1="0" x2="1" y2="0" gradientUnits="userSpaceOnUse" gradientTransform="matrix(527.164,0,0,225.969,1184.65,2070.54)"><stop offset="0" style="stop-color:#dc96b4;stop-opacity:1"/><stop offset="1" style="stop-color:#b05cfa;stop-opacity:1"/></linearGradient><linearGradient id="_Linear11" x1="0" y1="0" x2="1" y2="0" gradientUnits="userSpaceOnUse" gradientTransform="matrix(527.164,0,0,225.969,1184.65,2070.54)"><stop offset="0" style="stop-color:#dc96b4;stop-opacity:1"/><stop offset="1" style="stop-color:#b05cfa;stop-opacity:1"/></linearGradient><linearGradient id="_Linear12" x1="0" y1="0" x2="1" y2="0" gradientUnits="userSpaceOnUse" gradientTransform="matrix(527.164,0,0,225.969,1184.65,2070.54)"><stop offset="0" style="stop-color:#dc96b4;stop-opacity:1"/><stop offset="1" style="stop-color:#b05cfa;stop-opacity:1"/></linearGradient><linearGradient id="_Linear13" x1="0" y1="0" x2="1" y2="0" gradientUnits="userSpaceOnUse" gradientTransform="matrix(527.164,0,0,225.969,1184.65,2070.54)"><stop offset="0" style="stop-color:#dc96b4;stop-opacity:1"/><stop offset="1" style="stop-color:#b05cfa;stop-opacity:1"/></linearGradient><linearGradient id="_Linear14" x1="0" y1="0" x2="1" y2="0" gradientUnits="userSpaceOnUse" gradientTransform="matrix(527.164,0,0,225.969,1184.65,2070.54)"><stop offset="0" style="stop-color:#dc96b4;stop-opacity:1"/><stop offset="1" style="stop-color:#b05cfa;stop-opacity:1"/></linearGradient><linearGradient id="_Linear15" x1="0" y1="0" x2="1" y2="0" gradientUnits="userSpaceOnUse" gradientTransform="matrix(527.164,0,0,225.969,1184.65,2070.54)"><stop offset="0" style="stop-color:#dc96b4;stop-opacity:1"/><stop offset="1" style="stop-color:#b05cfa;stop-opacity:1"/></linearGradient><linearGradient id="_Linear16" x1="0" y1="0" x2="1" y2="0" gradientUnits="userSpaceOnUse" gradientTransform="matrix(527.164,0,0,225.969,1184.65,2070.54)"><stop offset="0" style="stop-color:#dc96b4;stop-opacity:1"/><stop offset="1" style="stop-color:#b05cfa;stop-opacity:1"/></linearGradient><linearGradient id="_Linear17" x1="0" y1="0" x2="1" y2="0" gradientUnits="userSpaceOnUse" gradientTransform="matrix(527.164,0,0,225.969,1184.65,2070.54)"><stop offset="0" style="stop-color:#dc96b4;stop-opacity:1"/><stop offset="1" style="stop-color:#b05cfa;stop-opacity:1"/></linearGradient><linearGradient id="_Linear18" x1="0" y1="0" x2="1" y2="0" gradientUnits="userSpaceOnUse" gradientTransform="matrix(527.164,0,0,225.969,1184.65,2070.54)"><stop offset="0" style="stop-color:#dc96b4;stop-opacity:1"/><stop offset="1" style="stop-color:#b05cfa;stop-opacity:1"/></linearGradient><linearGradient id="_Linear19" x1="0" y1="0" x2="1" y2="0" gradientUnits="userSpaceOnUse" gradientTransform="matrix(527.164,0,0,225.969,1184.65,2070.54)"><stop offset="0" style="stop-color:#dc96b4;stop-opacity:1"/><stop offset="1" style="stop-color:#b05cfa;stop-opacity:1"/></linearGradient><linearGradient id="_Linear20" x1="0" y1="0" x2="1" y2="0" gradientUnits="userSpaceOnUse" gradientTransform="matrix(527.164,0,0,225.969,1184.65,2070.54)"><stop offset="0" style="stop-color:#dc96b4;stop-opacity:1"/><stop offset="1" style="stop-color:#b05cfa;stop-opacity:1"/></linearGradient><linearGradient id="_Linear21" x1="0" y1="0" x2="1" y2="0" gradientUnits="userSpaceOnUse" gradientTransform="matrix(527.164,0,0,225.969,1184.65,2070.54)"><stop offset="0" style="stop-color:#dc96b4;stop-opacity:1"/><stop offset="1" style="stop-color:#b05cfa;stop-opacity:1"/></linearGradient><linearGradient id="_Linear22" x1="0" y1="0" x2="1" y2="0" gradientUnits="userSpaceOnUse" gradientTransform="matrix(527.164,0,0,225.969,1184.65,2070.54)"><stop offset="0" style="stop-color:#dc96b4;stop-opacity:1"/><stop offset="1" style="stop-color:#b05cfa;stop-opacity:1"/></linearGradient><linearGradient id="_Linear23" x1="0" y1="0" x2="1" y2="0" gradientUnits="userSpaceOnUse" gradientTransform="matrix(527.164,0,0,225.969,1184.65,2070.54)"><stop offset="0" style="stop-color:#dc96b4;stop-opacity:1"/><stop offset="1" style="stop-color:#b05cfa;stop-opacity:1"/></linearGradient><linearGradient id="_Linear24" x1="0" y1="0" x2="1" y2="0" gradientUnits="userSpaceOnUse" gradientTransform="matrix(527.164,0,0,225.969,1184.65,2070.54)"><stop offset="0" style="stop-color:#dc96b4;stop-opacity:1"/><stop offset="1" style="stop-color:#b05cfa;stop-opacity:1"/></linearGradient></defs></svg>