<?xml version="1.0" encoding="UTF-8" standalone="no"?><!DOCTYPE svg PUBLIC "-//W3C//DTD SVG 1.1//EN" "http://www.w3.org/Graphics/SVG/1.1/DTD/svg11.dtd"><svg width="100%" height="100%" viewBox="0 0 160 70" version="1.1" xmlns="http://www.w3.org/2000/svg" xmlns:xlink="http://www.w3.org/1999/xlink" xml:space="preserve" xmlns:serif="http://www.serif.com/" style="fill-rule:evenodd;clip-rule:evenodd;stroke-linejoin:round;stroke-miterlimit:1.41421;"><g transform="matrix(0.429941,0,0,0.429941,-508.675,-838.879)"><path d="M1236.1,1998.61c-0.443,6.119 -2.702,10.937 -6.778,14.453c-4.075,3.515 -9.446,5.273 -16.113,5.273c-7.292,0 -13.027,-2.454 -17.207,-7.363c-4.18,-4.909 -6.27,-11.647 -6.27,-20.215l0,-3.477c0,-5.468 0.964,-10.286 2.891,-14.453c1.927,-4.166 4.681,-7.363 8.262,-9.589c3.58,-2.227 7.741,-3.34 12.48,-3.34c6.563,0 11.849,1.757 15.86,5.273c4.01,3.516 6.328,8.451 6.953,14.805l-11.719,0c-0.287,-3.672 -1.309,-6.335 -3.067,-7.988c-1.757,-1.654 -4.433,-2.481 -8.027,-2.481c-3.906,0 -6.829,1.4 -8.769,4.199c-1.94,2.8 -2.937,7.142 -2.989,13.028l0,4.296c0,6.146 0.931,10.638 2.793,13.477c1.862,2.839 4.798,4.258 8.809,4.258c3.62,0 6.322,-0.827 8.105,-2.481c1.784,-1.653 2.806,-4.212 3.067,-7.675l11.719,0Z" style="fill:url(#_Linear1);fill-rule:nonzero;"/><path d="M1241.29,1996.03c0,-4.192 0.807,-7.929 2.422,-11.21c1.614,-3.282 3.939,-5.821 6.972,-7.618c3.034,-1.797 6.556,-2.695 10.567,-2.695c5.703,0 10.358,1.745 13.965,5.234c3.606,3.49 5.618,8.23 6.035,14.219l0.078,2.891c0,6.484 -1.81,11.686 -5.43,15.605c-3.62,3.92 -8.476,5.879 -14.57,5.879c-6.094,0 -10.957,-1.953 -14.59,-5.859c-3.633,-3.906 -5.449,-9.219 -5.449,-15.938l0,-0.508Zm11.289,0.821c0,4.01 0.755,7.077 2.266,9.199c1.51,2.122 3.671,3.184 6.484,3.184c2.734,0 4.87,-1.049 6.406,-3.145c1.537,-2.096 2.305,-5.449 2.305,-10.059c0,-3.932 -0.768,-6.979 -2.305,-9.14c-1.536,-2.162 -3.698,-3.242 -6.484,-3.242c-2.761,0 -4.896,1.074 -6.406,3.222c-1.511,2.149 -2.266,5.476 -2.266,9.981Z" style="fill:url(#_Linear2);fill-rule:nonzero;"/><rect x="1288.87" y="1957.55" width="11.328" height="60" style="fill:url(#_Linear3);fill-rule:nonzero;"/><path d="M1307.74,1996.11c0,-6.589 1.478,-11.836 4.434,-15.743c2.955,-3.906 6.998,-5.859 12.129,-5.859c4.114,0 7.513,1.536 10.195,4.609l0,-21.562l11.328,0l0,60l-10.195,0l-0.547,-4.492c-2.813,3.515 -6.432,5.273 -10.859,5.273c-4.974,0 -8.965,-1.959 -11.973,-5.879c-3.008,-3.919 -4.512,-9.368 -4.512,-16.347Zm11.289,0.82c0,3.958 0.69,6.992 2.071,9.101c1.38,2.11 3.385,3.165 6.015,3.165c3.49,0 5.951,-1.472 7.383,-4.415l0,-16.679c-1.406,-2.943 -3.841,-4.414 -7.305,-4.414c-5.442,0 -8.164,4.414 -8.164,13.242Z" style="fill:url(#_Linear4);fill-rule:nonzero;"/><path d="M1418.05,1970.17l-17.422,0l0,47.383l-11.719,0l0,-47.383l-17.187,0l0,-9.492l46.328,0l0,9.492Z" style="fill:url(#_Linear5);fill-rule:nonzero;"/><path d="M1439.77,2001.58l7.813,-26.289l12.109,0l-16.992,48.828l-0.937,2.227c-2.526,5.521 -6.693,8.281 -12.5,8.281c-1.641,0 -3.308,-0.247 -5,-0.742l0,-8.555l1.718,0.039c2.136,0 3.731,-0.325 4.785,-0.976c1.055,-0.651 1.882,-1.732 2.481,-3.242l1.328,-3.477l-14.805,-42.383l12.149,0l7.851,26.289Z" style="fill:url(#_Linear6);fill-rule:nonzero;"/><path d="M1502.19,1996.81c0,6.51 -1.478,11.725 -4.433,15.644c-2.956,3.92 -6.947,5.879 -11.973,5.879c-4.271,0 -7.721,-1.484 -10.352,-4.453l0,19.922l-11.289,0l0,-58.516l10.469,0l0.391,4.141c2.734,-3.281 6.302,-4.922 10.703,-4.922c5.208,0 9.258,1.927 12.148,5.781c2.891,3.854 4.336,9.167 4.336,15.938l0,0.586Zm-11.289,-0.821c0,-3.932 -0.696,-6.966 -2.09,-9.101c-1.393,-2.136 -3.418,-3.203 -6.074,-3.203c-3.542,0 -5.976,1.354 -7.305,4.062l0,17.305c1.381,2.786 3.842,4.18 7.383,4.18c5.391,0 8.086,-4.414 8.086,-13.243Z" style="fill:url(#_Linear7);fill-rule:nonzero;"/><path d="M1528.64,2018.34c-6.198,0 -11.244,-1.901 -15.137,-5.703c-3.893,-3.802 -5.84,-8.867 -5.84,-15.195l0,-1.094c0,-4.245 0.82,-8.04 2.461,-11.387c1.641,-3.346 3.965,-5.924 6.973,-7.734c3.007,-1.81 6.438,-2.715 10.293,-2.715c5.781,0 10.332,1.823 13.652,5.469c3.32,3.646 4.98,8.815 4.98,15.508l0,4.609l-26.914,0c0.365,2.76 1.465,4.974 3.301,6.641c1.836,1.666 4.16,2.5 6.973,2.5c4.349,0 7.747,-1.576 10.195,-4.727l5.547,6.211c-1.693,2.396 -3.984,4.264 -6.875,5.605c-2.891,1.342 -6.094,2.012 -9.609,2.012Zm-1.289,-34.687c-2.24,0 -4.056,0.755 -5.45,2.265c-1.393,1.511 -2.285,3.672 -2.675,6.485l15.703,0l0,-0.899c-0.052,-2.5 -0.73,-4.433 -2.032,-5.801c-1.302,-1.367 -3.151,-2.05 -5.546,-2.05Z" style="fill:url(#_Linear8);fill-rule:nonzero;"/><path d="M1266.29,2088.13l0,20.039l-11.719,0l0,-56.875l22.188,0c4.27,0 8.027,0.781 11.269,2.344c3.242,1.562 5.736,3.782 7.481,6.66c1.744,2.877 2.617,6.152 2.617,9.824c0,5.573 -1.908,9.967 -5.723,13.184c-3.815,3.216 -9.095,4.824 -15.84,4.824l-10.273,0Zm0,-9.492l10.469,0c3.099,0 5.462,-0.73 7.089,-2.188c1.628,-1.458 2.442,-3.542 2.442,-6.25c0,-2.786 -0.82,-5.039 -2.461,-6.758c-1.641,-1.719 -3.906,-2.604 -6.797,-2.656l-10.742,0l0,17.852Z" style="fill:url(#_Linear9);fill-rule:nonzero;"/><path d="M1329.18,2076.49c-1.536,-0.208 -2.89,-0.312 -4.062,-0.312c-4.271,0 -7.07,1.445 -8.398,4.336l0,27.656l-11.29,0l0,-42.266l10.665,0l0.312,5.039c2.266,-3.88 5.404,-5.82 9.414,-5.82c1.25,0 2.422,0.169 3.516,0.508l-0.157,10.859Z" style="fill:url(#_Linear10);fill-rule:nonzero;"/><path d="M1359.11,2108.17c-0.52,-1.016 -0.898,-2.279 -1.132,-3.789c-2.735,3.047 -6.29,4.57 -10.665,4.57c-4.14,0 -7.571,-1.198 -10.293,-3.594c-2.721,-2.396 -4.082,-5.416 -4.082,-9.062c0,-4.479 1.661,-7.917 4.981,-10.313c3.32,-2.396 8.118,-3.606 14.394,-3.633l5.196,0l0,-2.421c0,-1.954 -0.502,-3.516 -1.504,-4.688c-1.003,-1.172 -2.585,-1.758 -4.746,-1.758c-1.901,0 -3.392,0.456 -4.473,1.367c-1.081,0.912 -1.621,2.162 -1.621,3.75l-11.289,0c0,-2.447 0.755,-4.713 2.266,-6.796c1.51,-2.084 3.645,-3.718 6.406,-4.903c2.76,-1.185 5.859,-1.777 9.297,-1.777c5.208,0 9.342,1.309 12.402,3.926c3.06,2.617 4.59,6.295 4.59,11.035l0,18.32c0.026,4.011 0.586,7.044 1.68,9.102l0,0.664l-11.407,0Zm-9.336,-7.852c1.667,0 3.204,-0.371 4.61,-1.113c1.406,-0.742 2.448,-1.738 3.125,-2.988l0,-7.266l-4.219,0c-5.651,0 -8.659,1.953 -9.023,5.859l-0.039,0.664c0,1.407 0.494,2.566 1.484,3.477c0.989,0.912 2.344,1.367 4.062,1.367Z" style="fill:url(#_Linear11);fill-rule:nonzero;"/><path d="M1395.08,2099.85c2.083,0 3.776,-0.572 5.078,-1.718c1.302,-1.146 1.979,-2.67 2.031,-4.571l10.586,0c-0.026,2.865 -0.807,5.489 -2.344,7.872c-1.536,2.382 -3.639,4.231 -6.308,5.546c-2.669,1.316 -5.619,1.973 -8.848,1.973c-6.041,0 -10.807,-1.921 -14.297,-5.762c-3.489,-3.841 -5.234,-9.147 -5.234,-15.918l0,-0.742c0,-6.51 1.732,-11.706 5.195,-15.586c3.464,-3.88 8.216,-5.82 14.258,-5.82c5.287,0 9.525,1.504 12.715,4.512c3.19,3.007 4.811,7.011 4.863,12.011l-10.586,0c-0.052,-2.187 -0.729,-3.964 -2.031,-5.332c-1.302,-1.367 -3.021,-2.05 -5.156,-2.05c-2.63,0 -4.616,0.957 -5.957,2.871c-1.341,1.914 -2.012,5.019 -2.012,9.316l0,1.172c0,4.349 0.664,7.474 1.992,9.375c1.328,1.901 3.347,2.851 6.055,2.851Z" style="fill:url(#_Linear12);fill-rule:nonzero;"/><path d="M1432.74,2055.51l0,10.39l7.227,0l0,8.281l-7.227,0l0,21.094c0,1.563 0.3,2.682 0.899,3.36c0.599,0.677 1.744,1.015 3.437,1.015c1.25,0 2.357,-0.091 3.32,-0.273l0,8.554c-2.213,0.678 -4.492,1.016 -6.836,1.016c-7.916,0 -11.953,-3.997 -12.109,-11.992l0,-22.774l-6.172,0l0,-8.281l6.172,0l0,-10.39l11.289,0Z" style="fill:url(#_Linear13);fill-rule:nonzero;"/><path d="M1458.17,2108.17l-11.328,0l0,-42.266l11.328,0l0,42.266Zm-11.992,-53.203c0,-1.693 0.566,-3.086 1.699,-4.18c1.133,-1.094 2.676,-1.641 4.629,-1.641c1.927,0 3.463,0.547 4.609,1.641c1.146,1.094 1.719,2.487 1.719,4.18c0,1.718 -0.58,3.125 -1.738,4.218c-1.159,1.094 -2.689,1.641 -4.59,1.641c-1.901,0 -3.431,-0.547 -4.59,-1.641c-1.159,-1.093 -1.738,-2.5 -1.738,-4.218Z" style="fill:url(#_Linear14);fill-rule:nonzero;"/><path d="M1485.04,2099.85c2.083,0 3.776,-0.572 5.078,-1.718c1.302,-1.146 1.979,-2.67 2.031,-4.571l10.586,0c-0.026,2.865 -0.807,5.489 -2.344,7.872c-1.536,2.382 -3.639,4.231 -6.308,5.546c-2.669,1.316 -5.619,1.973 -8.848,1.973c-6.042,0 -10.807,-1.921 -14.297,-5.762c-3.489,-3.841 -5.234,-9.147 -5.234,-15.918l0,-0.742c0,-6.51 1.732,-11.706 5.195,-15.586c3.464,-3.88 8.216,-5.82 14.258,-5.82c5.286,0 9.525,1.504 12.715,4.512c3.19,3.007 4.811,7.011 4.863,12.011l-10.586,0c-0.052,-2.187 -0.729,-3.964 -2.031,-5.332c-1.302,-1.367 -3.021,-2.05 -5.156,-2.05c-2.63,0 -4.616,0.957 -5.957,2.871c-1.341,1.914 -2.012,5.019 -2.012,9.316l0,1.172c0,4.349 0.664,7.474 1.992,9.375c1.328,1.901 3.347,2.851 6.055,2.851Z" style="fill:url(#_Linear15);fill-rule:nonzero;"/><path d="M1528.64,2108.95c-6.198,0 -11.244,-1.901 -15.137,-5.703c-3.893,-3.802 -5.84,-8.867 -5.84,-15.195l0,-1.094c0,-4.245 0.82,-8.04 2.461,-11.387c1.641,-3.346 3.965,-5.924 6.973,-7.734c3.007,-1.81 6.438,-2.715 10.293,-2.715c5.781,0 10.332,1.823 13.652,5.469c3.32,3.646 4.98,8.815 4.98,15.507l0,4.61l-26.914,0c0.365,2.76 1.465,4.974 3.301,6.64c1.836,1.667 4.16,2.5 6.973,2.5c4.349,0 7.747,-1.575 10.195,-4.726l5.547,6.211c-1.693,2.396 -3.984,4.264 -6.875,5.605c-2.891,1.341 -6.094,2.012 -9.609,2.012Zm-1.289,-34.687c-2.24,0 -4.056,0.755 -5.45,2.265c-1.393,1.511 -2.285,3.672 -2.675,6.485l15.703,0l0,-0.899c-0.052,-2.5 -0.73,-4.433 -2.032,-5.801c-1.302,-1.367 -3.151,-2.05 -5.546,-2.05Z" style="fill:url(#_Linear16);fill-rule:nonzero;"/></g><defs><linearGradient id="_Linear1" x1="0" y1="0" x2="1" y2="0" gradientUnits="userSpaceOnUse" gradientTransform="matrix(363.439,0,0,363.439,1184.65,2070.54)"><stop offset="0" style="stop-color:#dcdcdc;stop-opacity:1"/><stop offset="0.43" style="stop-color:#bababa;stop-opacity:1"/><stop offset="1" style="stop-color:#6b6b6b;stop-opacity:1"/></linearGradient><linearGradient id="_Linear2" x1="0" y1="0" x2="1" y2="0" gradientUnits="userSpaceOnUse" gradientTransform="matrix(363.439,0,0,363.439,1184.65,2070.54)"><stop offset="0" style="stop-color:#dcdcdc;stop-opacity:1"/><stop offset="0.43" style="stop-color:#bababa;stop-opacity:1"/><stop offset="1" style="stop-color:#6b6b6b;stop-opacity:1"/></linearGradient><linearGradient id="_Linear3" x1="0" y1="0" x2="1" y2="0" gradientUnits="userSpaceOnUse" gradientTransform="matrix(363.439,0,0,363.439,1184.65,2070.54)"><stop offset="0" style="stop-color:#dcdcdc;stop-opacity:1"/><stop offset="0.43" style="stop-color:#bababa;stop-opacity:1"/><stop offset="1" style="stop-color:#6b6b6b;stop-opacity:1"/></linearGradient><linearGradient id="_Linear4" x1="0" y1="0" x2="1" y2="0" gradientUnits="userSpaceOnUse" gradientTransform="matrix(363.439,0,0,363.439,1184.65,2070.54)"><stop offset="0" style="stop-color:#dcdcdc;stop-opacity:1"/><stop offset="0.43" style="stop-color:#bababa;stop-opacity:1"/><stop offset="1" style="stop-color:#6b6b6b;stop-opacity:1"/></linearGradient><linearGradient id="_Linear5" x1="0" y1="0" x2="1" y2="0" gradientUnits="userSpaceOnUse" gradientTransform="matrix(363.439,0,0,363.439,1184.65,2070.54)"><stop offset="0" style="stop-color:#dcdcdc;stop-opacity:1"/><stop offset="0.43" style="stop-color:#bababa;stop-opacity:1"/><stop offset="1" style="stop-color:#6b6b6b;stop-opacity:1"/></linearGradient><linearGradient id="_Linear6" x1="0" y1="0" x2="1" y2="0" gradientUnits="userSpaceOnUse" gradientTransform="matrix(363.439,0,0,363.439,1184.65,2070.54)"><stop offset="0" style="stop-color:#dcdcdc;stop-opacity:1"/><stop offset="0.43" style="stop-color:#bababa;stop-opacity:1"/><stop offset="1" style="stop-color:#6b6b6b;stop-opacity:1"/></linearGradient><linearGradient id="_Linear7" x1="0" y1="0" x2="1" y2="0" gradientUnits="userSpaceOnUse" gradientTransform="matrix(363.439,0,0,363.439,1184.65,2070.54)"><stop offset="0" style="stop-color:#dcdcdc;stop-opacity:1"/><stop offset="0.43" style="stop-color:#bababa;stop-opacity:1"/><stop offset="1" style="stop-color:#6b6b6b;stop-opacity:1"/></linearGradient><linearGradient id="_Linear8" x1="0" y1="0" x2="1" y2="0" gradientUnits="userSpaceOnUse" gradientTransform="matrix(363.439,0,0,363.439,1184.65,2070.54)"><stop offset="0" style="stop-color:#dcdcdc;stop-opacity:1"/><stop offset="0.43" style="stop-color:#bababa;stop-opacity:1"/><stop offset="1" style="stop-color:#6b6b6b;stop-opacity:1"/></linearGradient><linearGradient id="_Linear9" x1="0" y1="0" x2="1" y2="0" gradientUnits="userSpaceOnUse" gradientTransform="matrix(363.439,0,0,363.439,1184.65,2070.54)"><stop offset="0" style="stop-color:#dcdcdc;stop-opacity:1"/><stop offset="0.43" style="stop-color:#bababa;stop-opacity:1"/><stop offset="1" style="stop-color:#6b6b6b;stop-opacity:1"/></linearGradient><linearGradient id="_Linear10" x1="0" y1="0" x2="1" y2="0" gradientUnits="userSpaceOnUse" gradientTransform="matrix(363.439,0,0,363.439,1184.65,2070.54)"><stop offset="0" style="stop-color:#dcdcdc;stop-opacity:1"/><stop offset="0.43" style="stop-color:#bababa;stop-opacity:1"/><stop offset="1" style="stop-color:#6b6b6b;stop-opacity:1"/></linearGradient><linearGradient id="_Linear11" x1="0" y1="0" x2="1" y2="0" gradientUnits="userSpaceOnUse" gradientTransform="matrix(363.439,0,0,363.439,1184.65,2070.54)"><stop offset="0" style="stop-color:#dcdcdc;stop-opacity:1"/><stop offset="0.43" style="stop-color:#bababa;stop-opacity:1"/><stop offset="1" style="stop-color:#6b6b6b;stop-opacity:1"/></linearGradient><linearGradient id="_Linear12" x1="0" y1="0" x2="1" y2="0" gradientUnits="userSpaceOnUse" gradientTransform="matrix(363.439,0,0,363.439,1184.65,2070.54)"><stop offset="0" style="stop-color:#dcdcdc;stop-opacity:1"/><stop offset="0.43" style="stop-color:#bababa;stop-opacity:1"/><stop offset="1" style="stop-color:#6b6b6b;stop-opacity:1"/></linearGradient><linearGradient id="_Linear13" x1="0" y1="0" x2="1" y2="0" gradientUnits="userSpaceOnUse" gradientTransform="matrix(363.439,0,0,363.439,1184.65,2070.54)"><stop offset="0" style="stop-color:#dcdcdc;stop-opacity:1"/><stop offset="0.43" style="stop-color:#bababa;stop-opacity:1"/><stop offset="1" style="stop-color:#6b6b6b;stop-opacity:1"/></linearGradient><linearGradient id="_Linear14" x1="0" y1="0" x2="1" y2="0" gradientUnits="userSpaceOnUse" gradientTransform="matrix(363.439,0,0,363.439,1184.65,2070.54)"><stop offset="0" style="stop-color:#dcdcdc;stop-opacity:1"/><stop offset="0.43" style="stop-color:#bababa;stop-opacity:1"/><stop offset="1" style="stop-color:#6b6b6b;stop-opacity:1"/></linearGradient><linearGradient id="_Linear15" x1="0" y1="0" x2="1" y2="0" gradientUnits="userSpaceOnUse" gradientTransform="matrix(363.439,0,0,363.439,1184.65,2070.54)"><stop offset="0" style="stop-color:#dcdcdc;stop-opacity:1"/><stop offset="0.43" style="stop-color:#bababa;stop-opacity:1"/><stop offset="1" style="stop-color:#6b6b6b;stop-opacity:1"/></linearGradient><linearGradient id="_Linear16" x1="0" y1="0" x2="1" y2="0" gradientUnits="userSpaceOnUse" gradientTransform="matrix(363.439,0,0,363.439,1184.65,2070.54)"><stop offset="0" style="stop-color:#dcdcdc;stop-opacity:1"/><stop offset="0.43" style="stop-color:#bababa;stop-opacity:1"/><stop offset="1" style="stop-color:#6b6b6b;stop-opacity:1"/></linearGradient></defs></svg>