<?xml version="1.0" encoding="UTF-8" standalone="no"?><!DOCTYPE svg PUBLIC "-//W3C//DTD SVG 1.1//EN" "http://www.w3.org/Graphics/SVG/1.1/DTD/svg11.dtd"><svg width="100%" height="100%" viewBox="0 0 530 430" version="1.1" xmlns="http://www.w3.org/2000/svg" xmlns:xlink="http://www.w3.org/1999/xlink" xml:space="preserve" xmlns:serif="http://www.serif.com/" style="fill-rule:evenodd;clip-rule:evenodd;stroke-linejoin:round;stroke-miterlimit:1.41421;"><path d="M400.086,0c4.978,22.783 7.602,46.452 7.602,70.734c0,180.939 -145.694,327.838 -325.148,327.838c-28.516,0 -56.179,-3.709 -82.54,-10.675l0,-387.897l400.086,0Z" style="fill:url(#_Linear1);"/><path d="M496.097,96.789c0,-28.629 -23.243,-51.872 -51.872,-51.872l-350.413,0c-28.628,0 -51.871,23.243 -51.871,51.872c0,28.629 23.243,51.872 51.871,51.872l350.413,0c28.629,0 51.872,-23.243 51.872,-51.872Z" style="fill:#f2f2f2;"/><path d="M114.025,81.445l-3.837,-3.868l-15.218,15.344l-15.218,-15.344l-3.836,3.868l15.218,15.344l-15.218,15.344l3.836,3.868l15.218,-15.344l15.218,15.344l3.837,-3.868l-15.218,-15.344l15.218,-15.344Z" style="fill:#222c33;fill-rule:nonzero;"/><g id="t" transform="matrix(0.93538,0,0,0.943119,-5323.43,-41.6587)"><path d="M5874.98,160.968c-3.099,0 -5.622,-0.951 -7.568,-2.852c-1.947,-1.901 -2.92,-4.434 -2.92,-7.598l0,-0.547c0,-2.122 0.41,-4.02 1.23,-5.693c0.821,-1.673 1.983,-2.962 3.487,-3.867c1.503,-0.905 3.219,-1.357 5.146,-1.357c2.891,0 5.166,0.911 6.826,2.734c1.66,1.823 2.49,4.407 2.49,7.754l0,2.304l-13.457,0c0.183,1.381 0.733,2.487 1.651,3.321c0.918,0.833 2.08,1.25 3.486,1.25c2.175,0 3.874,-0.788 5.098,-2.363l2.773,3.105c-0.846,1.198 -1.992,2.132 -3.437,2.803c-1.446,0.67 -3.047,1.006 -4.805,1.006Zm-0.644,-17.344c-1.12,0 -2.028,0.377 -2.725,1.133c-0.697,0.755 -1.143,1.836 -1.338,3.242l7.852,0l0,-0.449c-0.026,-1.25 -0.365,-2.217 -1.016,-2.901c-0.651,-0.683 -1.576,-1.025 -2.773,-1.025Z" style="fill:#222c33;fill-rule:nonzero;"/><path d="M5894.92,145.753l3.555,-6.309l6.035,0l-6.015,10.352l6.269,10.781l-6.054,0l-3.77,-6.641l-3.75,6.641l-6.074,0l6.269,-10.781l-5.996,-10.352l6.055,0l3.476,6.309Z" style="fill:#222c33;fill-rule:nonzero;"/><path d="M5926.25,150.206c0,3.255 -0.739,5.862 -2.217,7.822c-1.478,1.96 -3.474,2.94 -5.987,2.94c-2.135,0 -3.86,-0.743 -5.175,-2.227l0,9.961l-5.645,0l0,-29.258l5.235,0l0.195,2.07c1.367,-1.64 3.151,-2.46 5.351,-2.46c2.605,0 4.629,0.963 6.075,2.89c1.445,1.927 2.168,4.583 2.168,7.969l0,0.293Zm-5.645,-0.41c0,-1.966 -0.348,-3.483 -1.045,-4.551c-0.697,-1.068 -1.709,-1.602 -3.037,-1.602c-1.771,0 -2.988,0.677 -3.652,2.032l0,8.652c0.69,1.393 1.92,2.09 3.691,2.09c2.695,0 4.043,-2.207 4.043,-6.621Z" style="fill:#222c33;fill-rule:nonzero;"/><path d="M5939.47,160.968c-3.099,0 -5.622,-0.951 -7.568,-2.852c-1.947,-1.901 -2.92,-4.434 -2.92,-7.598l0,-0.547c0,-2.122 0.41,-4.02 1.23,-5.693c0.821,-1.673 1.983,-2.962 3.487,-3.867c1.504,-0.905 3.219,-1.357 5.146,-1.357c2.891,0 5.166,0.911 6.826,2.734c1.661,1.823 2.491,4.407 2.491,7.754l0,2.304l-13.457,0c0.182,1.381 0.732,2.487 1.65,3.321c0.918,0.833 2.08,1.25 3.486,1.25c2.175,0 3.874,-0.788 5.098,-2.363l2.773,3.105c-0.846,1.198 -1.992,2.132 -3.437,2.803c-1.445,0.67 -3.047,1.006 -4.805,1.006Zm-0.644,-17.344c-1.12,0 -2.028,0.377 -2.725,1.133c-0.697,0.755 -1.142,1.836 -1.338,3.242l7.852,0l0,-0.449c-0.026,-1.25 -0.365,-2.217 -1.016,-2.901c-0.651,-0.683 -1.575,-1.025 -2.773,-1.025Z" style="fill:#222c33;fill-rule:nonzero;"/><path d="M5963.24,144.737c-0.768,-0.104 -1.446,-0.156 -2.031,-0.156c-2.136,0 -3.536,0.723 -4.2,2.168l0,13.828l-5.644,0l0,-21.133l5.332,0l0.156,2.52c1.133,-1.94 2.702,-2.91 4.707,-2.91c0.625,0 1.211,0.084 1.758,0.253l-0.078,5.43Z" style="fill:#222c33;fill-rule:nonzero;"/><path d="M5971.91,160.577l-5.664,0l0,-21.133l5.664,0l0,21.133Zm-5.996,-26.602c0,-0.846 0.283,-1.543 0.849,-2.089c0.567,-0.547 1.338,-0.821 2.315,-0.821c0.963,0 1.731,0.274 2.304,0.821c0.573,0.546 0.86,1.243 0.86,2.089c0,0.86 -0.29,1.563 -0.869,2.11c-0.58,0.547 -1.345,0.82 -2.295,0.82c-0.951,0 -1.716,-0.273 -2.295,-0.82c-0.58,-0.547 -0.869,-1.25 -0.869,-2.11Z" style="fill:#222c33;fill-rule:nonzero;"/><path d="M5981.85,139.444l0.176,2.363c1.497,-1.836 3.522,-2.753 6.074,-2.753c2.721,0 4.59,1.074 5.606,3.222c1.484,-2.148 3.6,-3.222 6.347,-3.222c2.292,0 3.998,0.667 5.117,2.001c1.12,1.335 1.68,3.344 1.68,6.026l0,13.496l-5.664,0l0,-13.477c0,-1.198 -0.234,-2.073 -0.703,-2.627c-0.469,-0.553 -1.296,-0.83 -2.481,-0.83c-1.692,0 -2.864,0.808 -3.515,2.422l0.019,14.512l-5.644,0l0,-13.457c0,-1.224 -0.241,-2.109 -0.723,-2.656c-0.482,-0.547 -1.302,-0.821 -2.461,-0.821c-1.601,0 -2.76,0.664 -3.476,1.993l0,14.941l-5.645,0l0,-21.133l5.293,0Z" style="fill:#222c33;fill-rule:nonzero;"/><path d="M6020.92,160.968c-3.099,0 -5.622,-0.951 -7.569,-2.852c-1.946,-1.901 -2.92,-4.434 -2.92,-7.598l0,-0.547c0,-2.122 0.41,-4.02 1.231,-5.693c0.82,-1.673 1.982,-2.962 3.486,-3.867c1.504,-0.905 3.219,-1.357 5.147,-1.357c2.89,0 5.166,0.911 6.826,2.734c1.66,1.823 2.49,4.407 2.49,7.754l0,2.304l-13.457,0c0.182,1.381 0.732,2.487 1.65,3.321c0.918,0.833 2.08,1.25 3.487,1.25c2.174,0 3.873,-0.788 5.097,-2.363l2.774,3.105c-0.847,1.198 -1.992,2.132 -3.438,2.803c-1.445,0.67 -3.047,1.006 -4.804,1.006Zm-0.645,-17.344c-1.12,0 -2.028,0.377 -2.725,1.133c-0.696,0.755 -1.142,1.836 -1.337,3.242l7.851,0l0,-0.449c-0.026,-1.25 -0.365,-2.217 -1.016,-2.901c-0.651,-0.683 -1.575,-1.025 -2.773,-1.025Z" style="fill:#222c33;fill-rule:nonzero;"/><path d="M6038.01,139.444l0.176,2.442c1.511,-1.888 3.535,-2.832 6.074,-2.832c2.24,0 3.907,0.657 5,1.972c1.094,1.315 1.654,3.281 1.68,5.899l0,13.652l-5.644,0l0,-13.516c0,-1.198 -0.261,-2.067 -0.782,-2.607c-0.521,-0.54 -1.386,-0.811 -2.597,-0.811c-1.589,0 -2.78,0.677 -3.575,2.032l0,14.902l-5.644,0l0,-21.133l5.312,0Z" style="fill:#222c33;fill-rule:nonzero;"/><path d="M6061.97,134.249l0,5.195l3.614,0l0,4.141l-3.614,0l0,10.547c0,0.781 0.15,1.341 0.449,1.679c0.3,0.339 0.873,0.508 1.719,0.508c0.625,0 1.179,-0.045 1.66,-0.137l0,4.278c-1.106,0.338 -2.246,0.508 -3.418,0.508c-3.958,0 -5.976,-1.999 -6.054,-5.997l0,-11.386l-3.086,0l0,-4.141l3.086,0l0,-5.195l5.644,0Z" style="fill:#222c33;fill-rule:nonzero;"/><path d="M6080.17,154.737c0,-0.69 -0.341,-1.234 -1.025,-1.631c-0.684,-0.397 -1.781,-0.752 -3.291,-1.064c-5.026,-1.055 -7.539,-3.19 -7.539,-6.406c0,-1.875 0.778,-3.441 2.334,-4.698c1.556,-1.256 3.59,-1.884 6.103,-1.884c2.683,0 4.828,0.631 6.436,1.894c1.608,1.263 2.412,2.904 2.412,4.922l-5.644,0c0,-0.807 -0.261,-1.475 -0.782,-2.002c-0.521,-0.527 -1.334,-0.791 -2.441,-0.791c-0.951,0 -1.686,0.215 -2.207,0.644c-0.521,0.43 -0.781,0.977 -0.781,1.641c0,0.625 0.296,1.13 0.888,1.514c0.593,0.384 1.592,0.716 2.998,0.996c1.407,0.28 2.591,0.596 3.555,0.947c2.982,1.094 4.473,2.988 4.473,5.684c0,1.927 -0.827,3.486 -2.481,4.677c-1.653,1.192 -3.789,1.788 -6.406,1.788c-1.771,0 -3.343,-0.316 -4.717,-0.948c-1.374,-0.631 -2.451,-1.497 -3.232,-2.597c-0.782,-1.101 -1.172,-2.289 -1.172,-3.565l5.351,0c0.052,1.003 0.424,1.771 1.114,2.305c0.69,0.534 1.614,0.801 2.773,0.801c1.081,0 1.898,-0.205 2.451,-0.616c0.554,-0.41 0.83,-0.947 0.83,-1.611Z" style="fill:#222c33;fill-rule:nonzero;"/><path d="M6091.07,163.018l-4.199,0l10.468,-30.879l4.2,0l-10.469,30.879Z" style="fill:#222c33;fill-rule:nonzero;"/><path d="M6118.86,139.444l0.136,2.442c1.563,-1.888 3.614,-2.832 6.153,-2.832c4.401,0 6.64,2.519 6.719,7.558l0,13.965l-4.747,0l0,-13.691c0,-1.342 -0.289,-2.334 -0.869,-2.979c-0.579,-0.644 -1.526,-0.967 -2.841,-0.967c-1.915,0 -3.34,0.866 -4.278,2.598l0,15.039l-4.746,0l0,-21.133l4.473,0Z" style="fill:#222c33;fill-rule:nonzero;"/><path d="M6135.82,149.815c0,-2.07 0.41,-3.935 1.23,-5.595c0.821,-1.661 1.973,-2.937 3.457,-3.829c1.485,-0.892 3.19,-1.337 5.118,-1.337c2.851,0 5.166,0.917 6.943,2.753c1.777,1.836 2.738,4.271 2.881,7.305l0.019,1.113c0,2.084 -0.4,3.946 -1.201,5.586c-0.801,1.641 -1.946,2.91 -3.437,3.809c-1.491,0.898 -3.213,1.348 -5.166,1.348c-2.982,0 -5.368,-0.993 -7.159,-2.979c-1.79,-1.986 -2.685,-4.632 -2.685,-7.939l0,-0.235Zm4.746,0.41c0,2.175 0.449,3.877 1.348,5.108c0.898,1.23 2.148,1.846 3.75,1.846c1.601,0 2.848,-0.625 3.74,-1.875c0.892,-1.25 1.338,-3.08 1.338,-5.489c0,-2.135 -0.459,-3.828 -1.377,-5.078c-0.918,-1.25 -2.165,-1.875 -3.74,-1.875c-1.55,0 -2.78,0.615 -3.692,1.846c-0.911,1.23 -1.367,3.069 -1.367,5.517Z" style="fill:#222c33;fill-rule:nonzero;"/><path d="M6162.44,155.577c0.885,0 1.569,0.251 2.051,0.752c0.482,0.501 0.722,1.129 0.722,1.885c0,0.742 -0.24,1.357 -0.722,1.845c-0.482,0.489 -1.166,0.733 -2.051,0.733c-0.846,0 -1.517,-0.241 -2.012,-0.723c-0.495,-0.482 -0.742,-1.1 -0.742,-1.855c0,-0.756 0.241,-1.384 0.723,-1.885c0.481,-0.501 1.159,-0.752 2.031,-0.752Z" style="fill:#222c33;fill-rule:nonzero;"/><path d="M6173.61,155.577c0.885,0 1.569,0.251 2.051,0.752c0.481,0.501 0.722,1.129 0.722,1.885c0,0.742 -0.241,1.357 -0.722,1.845c-0.482,0.489 -1.166,0.733 -2.051,0.733c-0.847,0 -1.517,-0.241 -2.012,-0.723c-0.495,-0.482 -0.742,-1.1 -0.742,-1.855c0,-0.756 0.241,-1.384 0.723,-1.885c0.481,-0.501 1.158,-0.752 2.031,-0.752Z" style="fill:#222c33;fill-rule:nonzero;"/><path d="M6184.78,155.577c0.885,0 1.569,0.251 2.051,0.752c0.481,0.501 0.722,1.129 0.722,1.885c0,0.742 -0.241,1.357 -0.722,1.845c-0.482,0.489 -1.166,0.733 -2.051,0.733c-0.847,0 -1.517,-0.241 -2.012,-0.723c-0.495,-0.482 -0.742,-1.1 -0.742,-1.855c0,-0.756 0.241,-1.384 0.722,-1.885c0.482,-0.501 1.159,-0.752 2.032,-0.752Z" style="fill:#222c33;fill-rule:nonzero;"/><rect x="5863.08" y="163.507" width="238.984" height="1.953" style="fill:#222c33;"/></g><defs><linearGradient id="_Linear1" x1="0" y1="0" x2="1" y2="0" gradientUnits="userSpaceOnUse" gradientTransform="matrix(407.688,0,0,398.572,0,199.286)"><stop offset="0" style="stop-color:#28bfc0;stop-opacity:1"/><stop offset="1" style="stop-color:#24d96a;stop-opacity:1"/></linearGradient></defs></svg>