<?xml version="1.0" encoding="UTF-8" standalone="no"?>
<!DOCTYPE svg PUBLIC "-//W3C//DTD SVG 1.1//EN" "http://www.w3.org/Graphics/SVG/1.1/DTD/svg11.dtd">
<svg width="100%" height="100%" viewBox="0 0 1250 313" version="1.1" xmlns="http://www.w3.org/2000/svg" xmlns:xlink="http://www.w3.org/1999/xlink" xml:space="preserve" xmlns:serif="http://www.serif.com/" style="fill-rule:evenodd;clip-rule:evenodd;stroke-linejoin:round;stroke-miterlimit:1.41421;">
    <g transform="matrix(1.86222,0,0,1.86222,-2206.08,-3645.39)">
        <g>
            <path d="M1533.28,1996.9L1533.28,2016.94L1521.56,2016.94L1521.56,1960.07L1543.75,1960.07C1548.02,1960.07 1551.77,1960.85 1555.01,1962.41C1558.26,1963.97 1560.75,1966.19 1562.5,1969.07C1564.24,1971.95 1565.11,1975.22 1565.11,1978.89C1565.11,1984.47 1563.2,1988.86 1559.39,1992.08C1555.57,1995.29 1550.29,1996.9 1543.55,1996.9L1533.28,1996.9ZM1533.28,1987.41L1543.75,1987.41C1546.84,1987.41 1549.21,1986.68 1550.84,1985.22C1552.46,1983.76 1553.28,1981.68 1553.28,1978.97C1553.28,1976.19 1552.46,1973.93 1550.82,1972.21C1549.17,1970.5 1546.91,1969.61 1544.02,1969.56L1533.28,1969.56L1533.28,1987.41Z" style="fill:url(#_Linear1);fill-rule:nonzero;"/>
            <path d="M1597.73,2012.64C1594.94,2016.03 1591.09,2017.72 1586.17,2017.72C1581.63,2017.72 1578.18,2016.42 1575.8,2013.82C1573.41,2011.21 1572.19,2007.4 1572.14,2002.37L1572.14,1974.67L1583.43,1974.67L1583.43,2001.98C1583.43,2006.38 1585.44,2008.58 1589.45,2008.58C1593.28,2008.58 1595.91,2007.25 1597.34,2004.6L1597.34,1974.67L1608.67,1974.67L1608.67,2016.94L1598.04,2016.94L1597.73,2012.64Z" style="fill:url(#_Linear2);fill-rule:nonzero;"/>
            <path d="M1640.93,1985.26C1639.4,1985.05 1638.04,1984.95 1636.87,1984.95C1632.6,1984.95 1629.8,1986.39 1628.47,1989.29L1628.47,2016.94L1617.18,2016.94L1617.18,1974.67L1627.85,1974.67L1628.16,1979.71C1630.42,1975.83 1633.56,1973.89 1637.57,1973.89C1638.82,1973.89 1640,1974.06 1641.09,1974.4L1640.93,1985.26Z" style="fill:url(#_Linear3);fill-rule:nonzero;"/>
            <path d="M1665.82,2017.72C1659.62,2017.72 1654.57,2015.82 1650.68,2012.02C1646.79,2008.22 1644.84,2003.15 1644.84,1996.82L1644.84,1995.73C1644.84,1991.49 1645.66,1987.69 1647.3,1984.34C1648.94,1981 1651.26,1978.42 1654.27,1976.61C1657.28,1974.8 1660.71,1973.89 1664.57,1973.89C1670.35,1973.89 1674.9,1975.72 1678.22,1979.36C1681.54,1983.01 1683.2,1988.18 1683.2,1994.87L1683.2,1999.48L1656.28,1999.48C1656.65,2002.24 1657.75,2004.45 1659.59,2006.12C1661.42,2007.79 1663.75,2008.62 1666.56,2008.62C1670.91,2008.62 1674.31,2007.05 1676.75,2003.89L1682.3,2010.11C1680.61,2012.5 1678.32,2014.37 1675.42,2015.71C1672.53,2017.05 1669.33,2017.72 1665.82,2017.72ZM1664.53,1983.04C1662.29,1983.04 1660.47,1983.79 1659.08,1985.3C1657.68,1986.81 1656.79,1988.97 1656.4,1991.79L1672.1,1991.79L1672.1,1990.89C1672.05,1988.39 1671.38,1986.45 1670.07,1985.09C1668.77,1983.72 1666.92,1983.04 1664.53,1983.04Z" style="fill:url(#_Linear4);fill-rule:nonzero;"/>
            <path d="M1754.92,1998C1754.47,2004.12 1752.22,2008.93 1748.14,2012.45C1744.06,2015.96 1738.69,2017.72 1732.03,2017.72C1724.73,2017.72 1719,2015.27 1714.82,2010.36C1710.64,2005.45 1708.55,1998.71 1708.55,1990.14L1708.55,1986.67C1708.55,1981.2 1709.51,1976.38 1711.44,1972.21C1713.37,1968.05 1716.12,1964.85 1719.7,1962.62C1723.28,1960.4 1727.44,1959.29 1732.18,1959.29C1738.75,1959.29 1744.03,1961.04 1748.04,1964.56C1752.05,1968.07 1754.37,1973.01 1755,1979.36L1743.28,1979.36C1742.99,1975.69 1741.97,1973.03 1740.21,1971.38C1738.45,1969.72 1735.78,1968.89 1732.18,1968.89C1728.28,1968.89 1725.35,1970.29 1723.41,1973.09C1721.47,1975.89 1720.48,1980.24 1720.42,1986.12L1720.42,1990.42C1720.42,1996.56 1721.36,2001.06 1723.22,2003.89C1725.08,2006.73 1728.02,2008.15 1732.03,2008.15C1735.65,2008.15 1738.35,2007.33 1740.13,2005.67C1741.91,2004.02 1742.94,2001.46 1743.2,1998L1754.92,1998Z" style="fill:url(#_Linear5);fill-rule:nonzero;"/>
            <path d="M1792.1,2002.02C1792.1,1999.81 1791.32,1998.11 1789.76,1996.92C1788.2,1995.74 1785.38,1994.49 1781.32,1993.17C1777.26,1991.86 1774.04,1990.56 1771.67,1989.29C1765.22,1985.8 1761.99,1981.1 1761.99,1975.18C1761.99,1972.11 1762.85,1969.37 1764.59,1966.96C1766.32,1964.55 1768.8,1962.67 1772.05,1961.32C1775.29,1959.96 1778.93,1959.29 1782.96,1959.29C1787.03,1959.29 1790.65,1960.02 1793.82,1961.49C1797,1962.96 1799.47,1965.04 1801.23,1967.72C1802.98,1970.4 1803.86,1973.45 1803.86,1976.86L1792.14,1976.86C1792.14,1974.26 1791.32,1972.23 1789.68,1970.79C1788.04,1969.34 1785.74,1968.62 1782.77,1968.62C1779.9,1968.62 1777.68,1969.23 1776.09,1970.44C1774.5,1971.65 1773.71,1973.24 1773.71,1975.22C1773.71,1977.07 1774.64,1978.62 1776.5,1979.87C1778.36,1981.12 1781.1,1982.29 1784.72,1983.39C1791.39,1985.39 1796.25,1987.88 1799.29,1990.85C1802.34,1993.82 1803.86,1997.51 1803.86,2001.94C1803.86,2006.86 1802,2010.72 1798.28,2013.52C1794.55,2016.32 1789.54,2017.72 1783.24,2017.72C1778.86,2017.72 1774.88,2016.92 1771.28,2015.32C1767.69,2013.72 1764.95,2011.52 1763.06,2008.74C1761.17,2005.95 1760.23,2002.72 1760.23,1999.05L1771.99,1999.05C1771.99,2005.33 1775.74,2008.46 1783.24,2008.46C1786.02,2008.46 1788.2,2007.9 1789.76,2006.77C1791.32,2005.63 1792.1,2004.05 1792.1,2002.02Z" style="fill:url(#_Linear6);fill-rule:nonzero;"/>
            <path d="M1841.28,2002.02C1841.28,1999.81 1840.5,1998.11 1838.94,1996.92C1837.38,1995.74 1834.57,1994.49 1830.5,1993.17C1826.44,1991.86 1823.22,1990.56 1820.85,1989.29C1814.4,1985.8 1811.17,1981.1 1811.17,1975.18C1811.17,1972.11 1812.03,1969.37 1813.76,1966.96C1815.5,1964.55 1817.98,1962.67 1821.23,1961.32C1824.47,1959.96 1828.11,1959.29 1832.14,1959.29C1836.21,1959.29 1839.83,1960.02 1843,1961.49C1846.18,1962.96 1848.65,1965.04 1850.4,1967.72C1852.16,1970.4 1853.04,1973.45 1853.04,1976.86L1841.32,1976.86C1841.32,1974.26 1840.5,1972.23 1838.86,1970.79C1837.22,1969.34 1834.92,1968.62 1831.95,1968.62C1829.08,1968.62 1826.86,1969.23 1825.27,1970.44C1823.68,1971.65 1822.88,1973.24 1822.88,1975.22C1822.88,1977.07 1823.82,1978.62 1825.68,1979.87C1827.54,1981.12 1830.28,1982.29 1833.9,1983.39C1840.57,1985.39 1845.42,1987.88 1848.47,1990.85C1851.52,1993.82 1853.04,1997.51 1853.04,2001.94C1853.04,2006.86 1851.18,2010.72 1847.46,2013.52C1843.73,2016.32 1838.72,2017.72 1832.42,2017.72C1828.04,2017.72 1824.06,2016.92 1820.46,2015.32C1816.87,2013.72 1814.13,2011.52 1812.24,2008.74C1810.35,2005.95 1809.41,2002.72 1809.41,1999.05L1821.17,1999.05C1821.17,2005.33 1824.92,2008.46 1832.42,2008.46C1835.2,2008.46 1837.38,2007.9 1838.94,2006.77C1840.5,2005.63 1841.28,2004.05 1841.28,2002.02Z" style="fill:url(#_Linear7);fill-rule:nonzero;"/>
            <path d="M1254.02,2082.91L1231.52,2082.91L1231.52,2098.14L1257.92,2098.14L1257.92,2107.55L1219.8,2107.55L1219.8,2050.68L1257.85,2050.68L1257.85,2060.17L1231.52,2060.17L1231.52,2073.73L1254.02,2073.73L1254.02,2082.91Z" style="fill:url(#_Linear8);fill-rule:nonzero;"/>
            <path d="M1280.15,2077.91L1287.26,2065.29L1299.33,2065.29L1287.3,2085.99L1299.84,2107.55L1287.73,2107.55L1280.19,2094.27L1272.69,2107.55L1260.54,2107.55L1273.08,2085.99L1261.09,2065.29L1273.2,2065.29L1280.15,2077.91Z" style="fill:url(#_Linear9);fill-rule:nonzero;"/>
            <path d="M1342.81,2086.81C1342.81,2093.32 1341.33,2098.54 1338.37,2102.46C1335.42,2106.38 1331.43,2108.34 1326.4,2108.34C1322.13,2108.34 1318.68,2106.85 1316.05,2103.88L1316.05,2123.8L1304.76,2123.8L1304.76,2065.29L1315.23,2065.29L1315.62,2069.43C1318.35,2066.15 1321.92,2064.51 1326.32,2064.51C1331.53,2064.51 1335.58,2066.43 1338.47,2070.29C1341.36,2074.14 1342.81,2079.45 1342.81,2086.23L1342.81,2086.81ZM1331.52,2085.99C1331.52,2082.06 1330.82,2079.03 1329.43,2076.89C1328.04,2074.75 1326.01,2073.69 1323.35,2073.69C1319.81,2073.69 1317.38,2075.04 1316.05,2077.75L1316.05,2095.05C1317.43,2097.84 1319.89,2099.23 1323.43,2099.23C1328.82,2099.23 1331.52,2094.82 1331.52,2085.99Z" style="fill:url(#_Linear10);fill-rule:nonzero;"/>
            <path d="M1374.29,2107.55C1373.77,2106.54 1373.39,2105.28 1373.16,2103.76C1370.42,2106.81 1366.87,2108.34 1362.5,2108.34C1358.35,2108.34 1354.92,2107.14 1352.2,2104.74C1349.48,2102.35 1348.12,2099.32 1348.12,2095.68C1348.12,2091.2 1349.78,2087.76 1353.1,2085.37C1356.42,2082.97 1361.22,2081.76 1367.5,2081.73L1372.69,2081.73L1372.69,2079.31C1372.69,2077.36 1372.19,2075.8 1371.19,2074.62C1370.18,2073.45 1368.6,2072.87 1366.44,2072.87C1364.54,2072.87 1363.05,2073.32 1361.97,2074.23C1360.89,2075.14 1360.35,2076.39 1360.35,2077.98L1349.06,2077.98C1349.06,2075.54 1349.81,2073.27 1351.32,2071.19C1352.83,2069.1 1354.97,2067.47 1357.73,2066.28C1360.49,2065.1 1363.59,2064.51 1367.03,2064.51C1372.23,2064.51 1376.37,2065.82 1379.43,2068.43C1382.49,2071.05 1384.02,2074.73 1384.02,2079.47L1384.02,2097.79C1384.04,2101.8 1384.6,2104.83 1385.7,2106.89L1385.7,2107.55L1374.29,2107.55ZM1364.96,2099.7C1366.62,2099.7 1368.16,2099.33 1369.57,2098.59C1370.97,2097.85 1372.01,2096.85 1372.69,2095.6L1372.69,2088.34L1368.47,2088.34C1362.82,2088.34 1359.81,2090.29 1359.45,2094.2L1359.41,2094.86C1359.41,2096.26 1359.9,2097.42 1360.89,2098.34C1361.88,2099.25 1363.24,2099.7 1364.96,2099.7Z" style="fill:url(#_Linear11);fill-rule:nonzero;"/>
            <path d="M1403.08,2065.29L1403.43,2070.17C1406.45,2066.39 1410.5,2064.51 1415.58,2064.51C1420.06,2064.51 1423.39,2065.82 1425.58,2068.45C1427.77,2071.08 1428.89,2075.01 1428.94,2080.25L1428.94,2107.55L1417.65,2107.55L1417.65,2080.52C1417.65,2078.13 1417.13,2076.39 1416.09,2075.31C1415.05,2074.23 1413.32,2073.69 1410.89,2073.69C1407.72,2073.69 1405.33,2075.04 1403.75,2077.75L1403.75,2107.55L1392.46,2107.55L1392.46,2065.29L1403.08,2065.29Z" style="fill:url(#_Linear12);fill-rule:nonzero;"/>
            <path d="M1435.74,2086.11C1435.74,2079.52 1437.21,2074.27 1440.17,2070.37C1443.13,2066.46 1447.17,2064.51 1452.3,2064.51C1456.41,2064.51 1459.81,2066.04 1462.5,2069.12L1462.5,2047.55L1473.82,2047.55L1473.82,2107.55L1463.63,2107.55L1463.08,2103.06C1460.27,2106.58 1456.65,2108.34 1452.22,2108.34C1447.25,2108.34 1443.26,2106.38 1440.25,2102.46C1437.24,2098.54 1435.74,2093.09 1435.74,2086.11ZM1447.03,2086.93C1447.03,2090.89 1447.72,2093.92 1449.1,2096.03C1450.48,2098.14 1452.48,2099.2 1455.11,2099.2C1458.6,2099.2 1461.06,2097.72 1462.5,2094.78L1462.5,2078.1C1461.09,2075.16 1458.65,2073.69 1455.19,2073.69C1449.75,2073.69 1447.03,2078.1 1447.03,2086.93Z" style="fill:url(#_Linear13);fill-rule:nonzero;"/>
            <path d="M1494.49,2107.55L1483.16,2107.55L1483.16,2065.29L1494.49,2065.29L1494.49,2107.55ZM1482.5,2054.35C1482.5,2052.66 1483.06,2051.26 1484.19,2050.17C1485.33,2049.08 1486.87,2048.53 1488.82,2048.53C1490.75,2048.53 1492.29,2049.08 1493.43,2050.17C1494.58,2051.26 1495.15,2052.66 1495.15,2054.35C1495.15,2056.07 1494.57,2057.48 1493.41,2058.57C1492.25,2059.66 1490.72,2060.21 1488.82,2060.21C1486.92,2060.21 1485.39,2059.66 1484.23,2058.57C1483.07,2057.48 1482.5,2056.07 1482.5,2054.35Z" style="fill:url(#_Linear14);fill-rule:nonzero;"/>
            <path d="M1514.17,2065.29L1514.53,2070.17C1517.55,2066.39 1521.6,2064.51 1526.67,2064.51C1531.15,2064.51 1534.49,2065.82 1536.67,2068.45C1538.86,2071.08 1539.98,2075.01 1540.03,2080.25L1540.03,2107.55L1528.75,2107.55L1528.75,2080.52C1528.75,2078.13 1528.22,2076.39 1527.18,2075.31C1526.14,2074.23 1524.41,2073.69 1521.99,2073.69C1518.81,2073.69 1516.43,2075.04 1514.84,2077.75L1514.84,2107.55L1503.55,2107.55L1503.55,2065.29L1514.17,2065.29Z" style="fill:url(#_Linear15);fill-rule:nonzero;"/>
            <path d="M1546.95,2086.11C1546.95,2079.62 1548.49,2074.4 1551.58,2070.45C1554.66,2066.49 1558.82,2064.51 1564.06,2064.51C1568.69,2064.51 1572.3,2066.1 1574.88,2069.27L1575.35,2065.29L1585.58,2065.29L1585.58,2106.15C1585.58,2109.85 1584.74,2113.06 1583.06,2115.8C1581.38,2118.53 1579.02,2120.61 1575.97,2122.05C1572.92,2123.48 1569.36,2124.2 1565.27,2124.2C1562.17,2124.2 1559.15,2123.58 1556.21,2122.34C1553.26,2121.1 1551.04,2119.51 1549.53,2117.55L1554.53,2110.68C1557.34,2113.83 1560.75,2115.41 1564.76,2115.41C1567.76,2115.41 1570.09,2114.61 1571.75,2113C1573.42,2111.4 1574.25,2109.13 1574.25,2106.19L1574.25,2103.92C1571.65,2106.86 1568.22,2108.34 1563.98,2108.34C1558.9,2108.34 1554.79,2106.35 1551.65,2102.38C1548.52,2098.41 1546.95,2093.14 1546.95,2086.58L1546.95,2086.11ZM1558.24,2086.93C1558.24,2090.76 1559.01,2093.76 1560.54,2095.93C1562.08,2098.11 1564.19,2099.2 1566.87,2099.2C1570.31,2099.2 1572.77,2097.91 1574.25,2095.33L1574.25,2077.55C1572.74,2074.98 1570.31,2073.69 1566.95,2073.69C1564.24,2073.69 1562.11,2074.79 1560.56,2077.01C1559.01,2079.22 1558.24,2082.53 1558.24,2086.93Z" style="fill:url(#_Linear16);fill-rule:nonzero;"/>
            <path d="M1661.17,2107.55L1649.45,2107.55L1626.63,2070.13L1626.63,2107.55L1614.92,2107.55L1614.92,2050.68L1626.63,2050.68L1649.49,2088.18L1649.49,2050.68L1661.17,2050.68L1661.17,2107.55Z" style="fill:url(#_Linear17);fill-rule:nonzero;"/>
            <path d="M1695.15,2107.55C1694.63,2106.54 1694.25,2105.28 1694.02,2103.76C1691.28,2106.81 1687.73,2108.34 1683.35,2108.34C1679.21,2108.34 1675.78,2107.14 1673.06,2104.74C1670.34,2102.35 1668.98,2099.32 1668.98,2095.68C1668.98,2091.2 1670.64,2087.76 1673.96,2085.37C1677.28,2082.97 1682.08,2081.76 1688.35,2081.73L1693.55,2081.73L1693.55,2079.31C1693.55,2077.36 1693.05,2075.8 1692.05,2074.62C1691.04,2073.45 1689.46,2072.87 1687.3,2072.87C1685.4,2072.87 1683.91,2073.32 1682.83,2074.23C1681.75,2075.14 1681.21,2076.39 1681.21,2077.98L1669.92,2077.98C1669.92,2075.54 1670.67,2073.27 1672.18,2071.19C1673.69,2069.1 1675.83,2067.47 1678.59,2066.28C1681.35,2065.1 1684.45,2064.51 1687.88,2064.51C1693.09,2064.51 1697.23,2065.82 1700.29,2068.43C1703.35,2071.05 1704.88,2074.73 1704.88,2079.47L1704.88,2097.79C1704.9,2101.8 1705.46,2104.83 1706.56,2106.89L1706.56,2107.55L1695.15,2107.55ZM1685.82,2099.7C1687.48,2099.7 1689.02,2099.33 1690.42,2098.59C1691.83,2097.85 1692.87,2096.85 1693.55,2095.6L1693.55,2088.34L1689.33,2088.34C1683.68,2088.34 1680.67,2090.29 1680.31,2094.2L1680.27,2094.86C1680.27,2096.26 1680.76,2097.42 1681.75,2098.34C1682.74,2099.25 1684.1,2099.7 1685.82,2099.7Z" style="fill:url(#_Linear18);fill-rule:nonzero;"/>
            <path d="M1729.37,2093.76L1737.22,2065.29L1749.02,2065.29L1734.76,2107.55L1723.98,2107.55L1709.72,2065.29L1721.52,2065.29L1729.37,2093.76Z" style="fill:url(#_Linear19);fill-rule:nonzero;"/>
            <path d="M1789.72,2093.76L1797.57,2065.29L1809.37,2065.29L1795.11,2107.55L1784.33,2107.55L1770.07,2065.29L1781.87,2065.29L1789.72,2093.76Z" style="fill:url(#_Linear20);fill-rule:nonzero;"/>
            <path d="M1852.85,2107.55L1813.86,2107.55L1813.86,2099.82L1832.26,2080.21C1834.79,2077.45 1836.65,2075.04 1837.87,2072.98C1839.08,2070.93 1839.68,2068.97 1839.68,2067.12C1839.68,2064.6 1839.04,2062.61 1837.77,2061.17C1836.49,2059.72 1834.67,2059 1832.3,2059C1829.75,2059 1827.74,2059.88 1826.26,2061.64C1824.79,2063.39 1824.06,2065.7 1824.06,2068.57L1812.73,2068.57C1812.73,2065.11 1813.56,2061.94 1815.21,2059.08C1816.86,2056.21 1819.2,2053.97 1822.22,2052.34C1825.24,2050.71 1828.67,2049.9 1832.5,2049.9C1838.35,2049.9 1842.9,2051.3 1846.15,2054.12C1849.39,2056.93 1851.01,2060.9 1851.01,2066.03C1851.01,2068.84 1850.28,2071.71 1848.82,2074.62C1847.37,2077.54 1844.87,2080.94 1841.32,2084.82L1828.39,2098.45L1852.85,2098.45L1852.85,2107.55Z" style="fill:url(#_Linear21);fill-rule:nonzero;"/>
        </g>
    </g>
    <defs>
        <linearGradient id="_Linear1" x1="0" y1="0" x2="1" y2="0" gradientUnits="userSpaceOnUse" gradientTransform="matrix(598.102,0,0,598.102,1257.79,2070.54)"><stop offset="0" style="stop-color:rgb(40,191,192);stop-opacity:1"/><stop offset="1" style="stop-color:rgb(36,217,106);stop-opacity:1"/></linearGradient>
        <linearGradient id="_Linear2" x1="0" y1="0" x2="1" y2="0" gradientUnits="userSpaceOnUse" gradientTransform="matrix(598.102,0,0,598.102,1257.79,2070.54)"><stop offset="0" style="stop-color:rgb(40,191,192);stop-opacity:1"/><stop offset="1" style="stop-color:rgb(36,217,106);stop-opacity:1"/></linearGradient>
        <linearGradient id="_Linear3" x1="0" y1="0" x2="1" y2="0" gradientUnits="userSpaceOnUse" gradientTransform="matrix(598.102,0,0,598.102,1257.79,2070.54)"><stop offset="0" style="stop-color:rgb(40,191,192);stop-opacity:1"/><stop offset="1" style="stop-color:rgb(36,217,106);stop-opacity:1"/></linearGradient>
        <linearGradient id="_Linear4" x1="0" y1="0" x2="1" y2="0" gradientUnits="userSpaceOnUse" gradientTransform="matrix(598.102,0,0,598.102,1257.79,2070.54)"><stop offset="0" style="stop-color:rgb(40,191,192);stop-opacity:1"/><stop offset="1" style="stop-color:rgb(36,217,106);stop-opacity:1"/></linearGradient>
        <linearGradient id="_Linear5" x1="0" y1="0" x2="1" y2="0" gradientUnits="userSpaceOnUse" gradientTransform="matrix(598.102,0,0,598.102,1257.79,2070.54)"><stop offset="0" style="stop-color:rgb(40,191,192);stop-opacity:1"/><stop offset="1" style="stop-color:rgb(36,217,106);stop-opacity:1"/></linearGradient>
        <linearGradient id="_Linear6" x1="0" y1="0" x2="1" y2="0" gradientUnits="userSpaceOnUse" gradientTransform="matrix(598.102,0,0,598.102,1257.79,2070.54)"><stop offset="0" style="stop-color:rgb(40,191,192);stop-opacity:1"/><stop offset="1" style="stop-color:rgb(36,217,106);stop-opacity:1"/></linearGradient>
        <linearGradient id="_Linear7" x1="0" y1="0" x2="1" y2="0" gradientUnits="userSpaceOnUse" gradientTransform="matrix(598.102,0,0,598.102,1257.79,2070.54)"><stop offset="0" style="stop-color:rgb(40,191,192);stop-opacity:1"/><stop offset="1" style="stop-color:rgb(36,217,106);stop-opacity:1"/></linearGradient>
        <linearGradient id="_Linear8" x1="0" y1="0" x2="1" y2="0" gradientUnits="userSpaceOnUse" gradientTransform="matrix(598.102,0,0,598.102,1257.79,2070.54)"><stop offset="0" style="stop-color:rgb(40,191,192);stop-opacity:1"/><stop offset="1" style="stop-color:rgb(36,217,106);stop-opacity:1"/></linearGradient>
        <linearGradient id="_Linear9" x1="0" y1="0" x2="1" y2="0" gradientUnits="userSpaceOnUse" gradientTransform="matrix(598.102,0,0,598.102,1257.79,2070.54)"><stop offset="0" style="stop-color:rgb(40,191,192);stop-opacity:1"/><stop offset="1" style="stop-color:rgb(36,217,106);stop-opacity:1"/></linearGradient>
        <linearGradient id="_Linear10" x1="0" y1="0" x2="1" y2="0" gradientUnits="userSpaceOnUse" gradientTransform="matrix(598.102,0,0,598.102,1257.79,2070.54)"><stop offset="0" style="stop-color:rgb(40,191,192);stop-opacity:1"/><stop offset="1" style="stop-color:rgb(36,217,106);stop-opacity:1"/></linearGradient>
        <linearGradient id="_Linear11" x1="0" y1="0" x2="1" y2="0" gradientUnits="userSpaceOnUse" gradientTransform="matrix(598.102,0,0,598.102,1257.79,2070.54)"><stop offset="0" style="stop-color:rgb(40,191,192);stop-opacity:1"/><stop offset="1" style="stop-color:rgb(36,217,106);stop-opacity:1"/></linearGradient>
        <linearGradient id="_Linear12" x1="0" y1="0" x2="1" y2="0" gradientUnits="userSpaceOnUse" gradientTransform="matrix(598.102,0,0,598.102,1257.79,2070.54)"><stop offset="0" style="stop-color:rgb(40,191,192);stop-opacity:1"/><stop offset="1" style="stop-color:rgb(36,217,106);stop-opacity:1"/></linearGradient>
        <linearGradient id="_Linear13" x1="0" y1="0" x2="1" y2="0" gradientUnits="userSpaceOnUse" gradientTransform="matrix(598.102,0,0,598.102,1257.79,2070.54)"><stop offset="0" style="stop-color:rgb(40,191,192);stop-opacity:1"/><stop offset="1" style="stop-color:rgb(36,217,106);stop-opacity:1"/></linearGradient>
        <linearGradient id="_Linear14" x1="0" y1="0" x2="1" y2="0" gradientUnits="userSpaceOnUse" gradientTransform="matrix(598.102,0,0,598.102,1257.79,2070.54)"><stop offset="0" style="stop-color:rgb(40,191,192);stop-opacity:1"/><stop offset="1" style="stop-color:rgb(36,217,106);stop-opacity:1"/></linearGradient>
        <linearGradient id="_Linear15" x1="0" y1="0" x2="1" y2="0" gradientUnits="userSpaceOnUse" gradientTransform="matrix(598.102,0,0,598.102,1257.79,2070.54)"><stop offset="0" style="stop-color:rgb(40,191,192);stop-opacity:1"/><stop offset="1" style="stop-color:rgb(36,217,106);stop-opacity:1"/></linearGradient>
        <linearGradient id="_Linear16" x1="0" y1="0" x2="1" y2="0" gradientUnits="userSpaceOnUse" gradientTransform="matrix(598.102,0,0,598.102,1257.79,2070.54)"><stop offset="0" style="stop-color:rgb(40,191,192);stop-opacity:1"/><stop offset="1" style="stop-color:rgb(36,217,106);stop-opacity:1"/></linearGradient>
        <linearGradient id="_Linear17" x1="0" y1="0" x2="1" y2="0" gradientUnits="userSpaceOnUse" gradientTransform="matrix(598.102,0,0,598.102,1257.79,2070.54)"><stop offset="0" style="stop-color:rgb(40,191,192);stop-opacity:1"/><stop offset="1" style="stop-color:rgb(36,217,106);stop-opacity:1"/></linearGradient>
        <linearGradient id="_Linear18" x1="0" y1="0" x2="1" y2="0" gradientUnits="userSpaceOnUse" gradientTransform="matrix(598.102,0,0,598.102,1257.79,2070.54)"><stop offset="0" style="stop-color:rgb(40,191,192);stop-opacity:1"/><stop offset="1" style="stop-color:rgb(36,217,106);stop-opacity:1"/></linearGradient>
        <linearGradient id="_Linear19" x1="0" y1="0" x2="1" y2="0" gradientUnits="userSpaceOnUse" gradientTransform="matrix(598.102,0,0,598.102,1257.79,2070.54)"><stop offset="0" style="stop-color:rgb(40,191,192);stop-opacity:1"/><stop offset="1" style="stop-color:rgb(36,217,106);stop-opacity:1"/></linearGradient>
        <linearGradient id="_Linear20" x1="0" y1="0" x2="1" y2="0" gradientUnits="userSpaceOnUse" gradientTransform="matrix(598.102,0,0,598.102,1257.79,2070.54)"><stop offset="0" style="stop-color:rgb(40,191,192);stop-opacity:1"/><stop offset="1" style="stop-color:rgb(36,217,106);stop-opacity:1"/></linearGradient>
        <linearGradient id="_Linear21" x1="0" y1="0" x2="1" y2="0" gradientUnits="userSpaceOnUse" gradientTransform="matrix(598.102,0,0,598.102,1257.79,2070.54)"><stop offset="0" style="stop-color:rgb(40,191,192);stop-opacity:1"/><stop offset="1" style="stop-color:rgb(36,217,106);stop-opacity:1"/></linearGradient>
    </defs>
</svg>
