<?xml version="1.0" encoding="UTF-8" standalone="no"?><!DOCTYPE svg PUBLIC "-//W3C//DTD SVG 1.1//EN" "http://www.w3.org/Graphics/SVG/1.1/DTD/svg11.dtd"><svg width="100%" height="100%" viewBox="0 0 300 75" version="1.1" xmlns="http://www.w3.org/2000/svg" xmlns:xlink="http://www.w3.org/1999/xlink" xml:space="preserve" xmlns:serif="http://www.serif.com/" style="fill-rule:evenodd;clip-rule:evenodd;stroke-linejoin:round;stroke-miterlimit:1.41421;"><g transform="matrix(0.446932,0,0,0.446932,-529.459,-874.894)"><path d="M1291.17,1992.9l-22.5,0l0,15.235l26.406,0l0,9.414l-38.125,0l0,-56.875l38.047,0l0,9.492l-26.328,0l0,13.555l22.5,0l0,9.179Z" style="fill:url(#_Linear1);fill-rule:nonzero;"/><path d="M1317.3,1987.9l7.109,-12.617l12.07,0l-12.031,20.703l12.539,21.563l-12.109,0l-7.539,-13.281l-7.5,13.281l-12.149,0l12.539,-21.563l-11.992,-20.703l12.109,0l6.954,12.617Z" style="fill:url(#_Linear2);fill-rule:nonzero;"/><path d="M1379.96,1996.81c0,6.51 -1.478,11.725 -4.434,15.644c-2.956,3.92 -6.946,5.879 -11.972,5.879c-4.271,0 -7.722,-1.484 -10.352,-4.453l0,19.922l-11.289,0l0,-58.516l10.469,0l0.39,4.141c2.735,-3.281 6.302,-4.922 10.703,-4.922c5.209,0 9.258,1.927 12.149,5.781c2.89,3.854 4.336,9.167 4.336,15.938l0,0.586Zm-11.289,-0.821c0,-3.932 -0.697,-6.966 -2.09,-9.101c-1.393,-2.136 -3.418,-3.203 -6.074,-3.203c-3.542,0 -5.977,1.354 -7.305,4.062l0,17.305c1.38,2.786 3.841,4.18 7.383,4.18c5.39,0 8.086,-4.414 8.086,-13.243Z" style="fill:url(#_Linear3);fill-rule:nonzero;"/><path d="M1411.44,2017.55c-0.521,-1.016 -0.898,-2.279 -1.133,-3.789c-2.734,3.047 -6.289,4.57 -10.664,4.57c-4.14,0 -7.571,-1.198 -10.293,-3.594c-2.721,-2.395 -4.082,-5.416 -4.082,-9.062c0,-4.479 1.66,-7.917 4.981,-10.313c3.32,-2.395 8.118,-3.606 14.394,-3.632l5.196,0l0,-2.422c0,-1.953 -0.502,-3.516 -1.504,-4.688c-1.003,-1.172 -2.585,-1.758 -4.746,-1.758c-1.901,0 -3.392,0.456 -4.473,1.368c-1.081,0.911 -1.621,2.161 -1.621,3.75l-11.289,0c0,-2.448 0.755,-4.714 2.265,-6.797c1.511,-2.084 3.646,-3.718 6.407,-4.903c2.76,-1.185 5.859,-1.777 9.297,-1.777c5.208,0 9.342,1.309 12.402,3.926c3.06,2.617 4.59,6.295 4.59,11.035l0,18.32c0.026,4.011 0.586,7.045 1.679,9.102l0,0.664l-11.406,0Zm-9.336,-7.852c1.667,0 3.203,-0.371 4.61,-1.113c1.406,-0.742 2.448,-1.738 3.125,-2.988l0,-7.266l-4.219,0c-5.651,0 -8.659,1.953 -9.024,5.86l-0.039,0.664c0,1.406 0.495,2.565 1.485,3.476c0.989,0.912 2.343,1.367 4.062,1.367Z" style="fill:url(#_Linear4);fill-rule:nonzero;"/><path d="M1440.23,1975.29l0.352,4.883c3.021,-3.776 7.07,-5.664 12.148,-5.664c4.479,0 7.813,1.315 10,3.945c2.188,2.631 3.308,6.563 3.36,11.797l0,27.305l-11.289,0l0,-27.031c0,-2.396 -0.521,-4.134 -1.563,-5.215c-1.042,-1.081 -2.773,-1.621 -5.195,-1.621c-3.177,0 -5.56,1.354 -7.149,4.062l0,29.805l-11.289,0l0,-42.266l10.625,0Z" style="fill:url(#_Linear5);fill-rule:nonzero;"/><path d="M1472.88,1996.11c0,-6.589 1.478,-11.836 4.434,-15.743c2.956,-3.906 6.999,-5.859 12.129,-5.859c4.115,0 7.513,1.536 10.195,4.609l0,-21.562l11.328,0l0,60l-10.195,0l-0.547,-4.492c-2.812,3.515 -6.432,5.273 -10.859,5.273c-4.974,0 -8.965,-1.959 -11.973,-5.879c-3.008,-3.919 -4.512,-9.368 -4.512,-16.347Zm11.29,0.82c0,3.958 0.69,6.992 2.07,9.101c1.38,2.11 3.385,3.165 6.015,3.165c3.49,0 5.951,-1.472 7.383,-4.415l0,-16.679c-1.406,-2.943 -3.841,-4.414 -7.304,-4.414c-5.443,0 -8.164,4.414 -8.164,13.242Z" style="fill:url(#_Linear6);fill-rule:nonzero;"/><path d="M1531.63,2017.55l-11.328,0l0,-42.266l11.328,0l0,42.266Zm-11.992,-53.203c0,-1.693 0.567,-3.086 1.7,-4.18c1.132,-1.094 2.675,-1.641 4.628,-1.641c1.928,0 3.464,0.547 4.61,1.641c1.146,1.094 1.719,2.487 1.719,4.18c0,1.719 -0.58,3.125 -1.739,4.219c-1.159,1.093 -2.689,1.64 -4.59,1.64c-1.901,0 -3.431,-0.547 -4.589,-1.64c-1.159,-1.094 -1.739,-2.5 -1.739,-4.219Z" style="fill:url(#_Linear7);fill-rule:nonzero;"/><path d="M1551.32,1975.29l0.352,4.883c3.02,-3.776 7.07,-5.664 12.148,-5.664c4.479,0 7.812,1.315 10,3.945c2.187,2.631 3.307,6.563 3.359,11.797l0,27.305l-11.289,0l0,-27.031c0,-2.396 -0.521,-4.134 -1.562,-5.215c-1.042,-1.081 -2.774,-1.621 -5.196,-1.621c-3.177,0 -5.559,1.354 -7.148,4.062l0,29.805l-11.289,0l0,-42.266l10.625,0Z" style="fill:url(#_Linear8);fill-rule:nonzero;"/><path d="M1584.1,1996.11c0,-6.485 1.543,-11.706 4.629,-15.664c3.086,-3.959 7.246,-5.938 12.481,-5.938c4.635,0 8.242,1.589 10.82,4.766l0.469,-3.985l10.234,0l0,40.86c0,3.698 -0.84,6.914 -2.519,9.648c-1.68,2.734 -4.043,4.818 -7.09,6.25c-3.047,1.432 -6.615,2.149 -10.703,2.149c-3.099,0 -6.12,-0.619 -9.063,-1.856c-2.942,-1.237 -5.169,-2.832 -6.679,-4.785l5,-6.875c2.812,3.151 6.224,4.726 10.234,4.726c2.995,0 5.325,-0.8 6.992,-2.402c1.667,-1.601 2.5,-3.874 2.5,-6.816l0,-2.266c-2.604,2.943 -6.029,4.414 -10.273,4.414c-5.078,0 -9.187,-1.986 -12.325,-5.957c-3.138,-3.971 -4.707,-9.238 -4.707,-15.801l0,-0.468Zm11.289,0.82c0,3.828 0.769,6.829 2.305,9.004c1.537,2.174 3.646,3.262 6.328,3.262c3.438,0 5.899,-1.29 7.383,-3.868l0,-17.773c-1.51,-2.578 -3.945,-3.867 -7.305,-3.867c-2.708,0 -4.837,1.106 -6.386,3.32c-1.55,2.214 -2.325,5.521 -2.325,9.922Z" style="fill:url(#_Linear9);fill-rule:nonzero;"/><path d="M1696.71,1998.61c-0.443,6.119 -2.702,10.937 -6.778,14.453c-4.075,3.515 -9.446,5.273 -16.113,5.273c-7.292,0 -13.027,-2.454 -17.207,-7.363c-4.18,-4.909 -6.27,-11.647 -6.27,-20.215l0,-3.477c0,-5.468 0.964,-10.286 2.891,-14.453c1.927,-4.166 4.681,-7.363 8.262,-9.589c3.58,-2.227 7.741,-3.34 12.48,-3.34c6.563,0 11.849,1.757 15.86,5.273c4.01,3.516 6.328,8.451 6.953,14.805l-11.719,0c-0.286,-3.672 -1.309,-6.335 -3.066,-7.988c-1.758,-1.654 -4.434,-2.481 -8.028,-2.481c-3.906,0 -6.829,1.4 -8.769,4.199c-1.94,2.8 -2.936,7.142 -2.989,13.028l0,4.296c0,6.146 0.931,10.638 2.793,13.477c1.862,2.839 4.799,4.258 8.809,4.258c3.62,0 6.322,-0.827 8.105,-2.481c1.784,-1.653 2.806,-4.212 3.067,-7.675l11.719,0Z" style="fill:url(#_Linear10);fill-rule:nonzero;"/><path d="M1715.58,2017.55l-11.328,0l0,-42.266l11.328,0l0,42.266Zm-11.992,-53.203c0,-1.693 0.566,-3.086 1.699,-4.18c1.133,-1.094 2.676,-1.641 4.629,-1.641c1.927,0 3.463,0.547 4.609,1.641c1.146,1.094 1.719,2.487 1.719,4.18c0,1.719 -0.58,3.125 -1.738,4.219c-1.159,1.093 -2.689,1.64 -4.59,1.64c-1.901,0 -3.431,-0.547 -4.59,-1.64c-1.159,-1.094 -1.738,-2.5 -1.738,-4.219Z" style="fill:url(#_Linear11);fill-rule:nonzero;"/><path d="M1748.63,1985.87c-1.537,-0.208 -2.891,-0.312 -4.063,-0.312c-4.271,0 -7.07,1.445 -8.398,4.336l0,27.656l-11.289,0l0,-42.266l10.664,0l0.312,5.039c2.266,-3.88 5.404,-5.82 9.414,-5.82c1.25,0 2.422,0.169 3.516,0.508l-0.156,10.859Z" style="fill:url(#_Linear12);fill-rule:nonzero;"/><path d="M1771.63,2009.23c2.084,0 3.777,-0.573 5.079,-1.719c1.302,-1.146 1.979,-2.669 2.031,-4.57l10.586,0c-0.026,2.864 -0.807,5.488 -2.344,7.871c-1.536,2.382 -3.639,4.231 -6.309,5.547c-2.669,1.315 -5.618,1.972 -8.847,1.972c-6.042,0 -10.807,-1.92 -14.297,-5.762c-3.49,-3.841 -5.234,-9.147 -5.234,-15.918l0,-0.742c0,-6.51 1.731,-11.705 5.195,-15.586c3.463,-3.88 8.216,-5.82 14.258,-5.82c5.286,0 9.524,1.504 12.715,4.512c3.19,3.008 4.811,7.011 4.863,12.011l-10.586,0c-0.052,-2.187 -0.729,-3.964 -2.031,-5.332c-1.302,-1.367 -3.021,-2.05 -5.157,-2.05c-2.63,0 -4.616,0.957 -5.957,2.871c-1.341,1.914 -2.011,5.019 -2.011,9.316l0,1.172c0,4.349 0.664,7.474 1.992,9.375c1.328,1.901 3.346,2.852 6.054,2.852Z" style="fill:url(#_Linear13);fill-rule:nonzero;"/><rect x="1796.36" y="1957.55" width="11.328" height="60" style="fill:url(#_Linear14);fill-rule:nonzero;"/><path d="M1836.44,2018.34c-6.198,0 -11.243,-1.901 -15.137,-5.703c-3.893,-3.802 -5.839,-8.867 -5.839,-15.195l0,-1.094c0,-4.245 0.82,-8.04 2.461,-11.387c1.64,-3.346 3.964,-5.924 6.972,-7.734c3.008,-1.81 6.439,-2.715 10.293,-2.715c5.781,0 10.332,1.823 13.653,5.469c3.32,3.646 4.98,8.815 4.98,15.508l0,4.609l-26.914,0c0.365,2.76 1.465,4.974 3.301,6.641c1.836,1.666 4.16,2.5 6.972,2.5c4.349,0 7.748,-1.576 10.196,-4.727l5.547,6.211c-1.693,2.396 -3.985,4.264 -6.875,5.605c-2.891,1.342 -6.094,2.012 -9.61,2.012Zm-1.289,-34.687c-2.239,0 -4.056,0.755 -5.449,2.265c-1.393,1.511 -2.285,3.672 -2.676,6.485l15.703,0l0,-0.899c-0.052,-2.5 -0.729,-4.433 -2.031,-5.801c-1.302,-1.367 -3.151,-2.05 -5.547,-2.05Z" style="fill:url(#_Linear15);fill-rule:nonzero;"/><path d="M1673.39,2051.29l14.61,41.25l14.531,-41.25l15.391,0l0,56.875l-11.758,0l0,-15.547l1.172,-26.836l-15.352,42.383l-8.047,0l-15.312,-42.344l1.172,26.797l0,15.547l-11.719,0l0,-56.875l15.312,0Z" style="fill:url(#_Linear16);fill-rule:nonzero;"/><path d="M1746.87,2108.95c-6.198,0 -11.244,-1.901 -15.137,-5.703c-3.893,-3.802 -5.84,-8.867 -5.84,-15.195l0,-1.094c0,-4.245 0.821,-8.04 2.461,-11.387c1.641,-3.346 3.965,-5.924 6.973,-7.734c3.008,-1.81 6.439,-2.715 10.293,-2.715c5.781,0 10.332,1.823 13.652,5.469c3.321,3.646 4.981,8.815 4.981,15.507l0,4.61l-26.914,0c0.364,2.76 1.464,4.974 3.3,6.64c1.836,1.667 4.161,2.5 6.973,2.5c4.349,0 7.747,-1.575 10.195,-4.726l5.547,6.211c-1.692,2.396 -3.984,4.264 -6.875,5.605c-2.89,1.341 -6.094,2.012 -9.609,2.012Zm-1.289,-34.687c-2.24,0 -4.056,0.755 -5.449,2.265c-1.394,1.511 -2.286,3.672 -2.676,6.485l15.703,0l0,-0.899c-0.052,-2.5 -0.729,-4.433 -2.031,-5.801c-1.302,-1.367 -3.151,-2.05 -5.547,-2.05Z" style="fill:url(#_Linear17);fill-rule:nonzero;"/><path d="M1781.05,2065.9l0.351,4.883c3.021,-3.776 7.07,-5.664 12.149,-5.664c4.479,0 7.812,1.315 10,3.945c2.187,2.63 3.307,6.563 3.359,11.797l0,27.305l-11.289,0l0,-27.031c0,-2.396 -0.521,-4.135 -1.563,-5.215c-1.041,-1.081 -2.773,-1.621 -5.195,-1.621c-3.177,0 -5.56,1.354 -7.148,4.062l0,29.805l-11.289,0l0,-42.266l10.625,0Z" style="fill:url(#_Linear18);fill-rule:nonzero;"/><path d="M1840.78,2103.87c-2.786,3.385 -6.641,5.078 -11.562,5.078c-4.532,0 -7.989,-1.302 -10.371,-3.906c-2.383,-2.604 -3.601,-6.419 -3.653,-11.446l0,-27.695l11.289,0l0,27.305c0,4.401 2.005,6.601 6.016,6.601c3.828,0 6.458,-1.328 7.89,-3.984l0,-29.922l11.329,0l0,42.266l-10.625,0l-0.313,-4.297Z" style="fill:url(#_Linear19);fill-rule:nonzero;"/></g><defs><linearGradient id="_Linear1" x1="0" y1="0" x2="1" y2="0" gradientUnits="userSpaceOnUse" gradientTransform="matrix(598.102,0,0,598.102,1257.79,2070.54)"><stop offset="0" style="stop-color:#28bfc0;stop-opacity:1"/><stop offset="1" style="stop-color:#24d96a;stop-opacity:1"/></linearGradient><linearGradient id="_Linear2" x1="0" y1="0" x2="1" y2="0" gradientUnits="userSpaceOnUse" gradientTransform="matrix(598.102,0,0,598.102,1257.79,2070.54)"><stop offset="0" style="stop-color:#28bfc0;stop-opacity:1"/><stop offset="1" style="stop-color:#24d96a;stop-opacity:1"/></linearGradient><linearGradient id="_Linear3" x1="0" y1="0" x2="1" y2="0" gradientUnits="userSpaceOnUse" gradientTransform="matrix(598.102,0,0,598.102,1257.79,2070.54)"><stop offset="0" style="stop-color:#28bfc0;stop-opacity:1"/><stop offset="1" style="stop-color:#24d96a;stop-opacity:1"/></linearGradient><linearGradient id="_Linear4" x1="0" y1="0" x2="1" y2="0" gradientUnits="userSpaceOnUse" gradientTransform="matrix(598.102,0,0,598.102,1257.79,2070.54)"><stop offset="0" style="stop-color:#28bfc0;stop-opacity:1"/><stop offset="1" style="stop-color:#24d96a;stop-opacity:1"/></linearGradient><linearGradient id="_Linear5" x1="0" y1="0" x2="1" y2="0" gradientUnits="userSpaceOnUse" gradientTransform="matrix(598.102,0,0,598.102,1257.79,2070.54)"><stop offset="0" style="stop-color:#28bfc0;stop-opacity:1"/><stop offset="1" style="stop-color:#24d96a;stop-opacity:1"/></linearGradient><linearGradient id="_Linear6" x1="0" y1="0" x2="1" y2="0" gradientUnits="userSpaceOnUse" gradientTransform="matrix(598.102,0,0,598.102,1257.79,2070.54)"><stop offset="0" style="stop-color:#28bfc0;stop-opacity:1"/><stop offset="1" style="stop-color:#24d96a;stop-opacity:1"/></linearGradient><linearGradient id="_Linear7" x1="0" y1="0" x2="1" y2="0" gradientUnits="userSpaceOnUse" gradientTransform="matrix(598.102,0,0,598.102,1257.79,2070.54)"><stop offset="0" style="stop-color:#28bfc0;stop-opacity:1"/><stop offset="1" style="stop-color:#24d96a;stop-opacity:1"/></linearGradient><linearGradient id="_Linear8" x1="0" y1="0" x2="1" y2="0" gradientUnits="userSpaceOnUse" gradientTransform="matrix(598.102,0,0,598.102,1257.79,2070.54)"><stop offset="0" style="stop-color:#28bfc0;stop-opacity:1"/><stop offset="1" style="stop-color:#24d96a;stop-opacity:1"/></linearGradient><linearGradient id="_Linear9" x1="0" y1="0" x2="1" y2="0" gradientUnits="userSpaceOnUse" gradientTransform="matrix(598.102,0,0,598.102,1257.79,2070.54)"><stop offset="0" style="stop-color:#28bfc0;stop-opacity:1"/><stop offset="1" style="stop-color:#24d96a;stop-opacity:1"/></linearGradient><linearGradient id="_Linear10" x1="0" y1="0" x2="1" y2="0" gradientUnits="userSpaceOnUse" gradientTransform="matrix(598.102,0,0,598.102,1257.79,2070.54)"><stop offset="0" style="stop-color:#28bfc0;stop-opacity:1"/><stop offset="1" style="stop-color:#24d96a;stop-opacity:1"/></linearGradient><linearGradient id="_Linear11" x1="0" y1="0" x2="1" y2="0" gradientUnits="userSpaceOnUse" gradientTransform="matrix(598.102,0,0,598.102,1257.79,2070.54)"><stop offset="0" style="stop-color:#28bfc0;stop-opacity:1"/><stop offset="1" style="stop-color:#24d96a;stop-opacity:1"/></linearGradient><linearGradient id="_Linear12" x1="0" y1="0" x2="1" y2="0" gradientUnits="userSpaceOnUse" gradientTransform="matrix(598.102,0,0,598.102,1257.79,2070.54)"><stop offset="0" style="stop-color:#28bfc0;stop-opacity:1"/><stop offset="1" style="stop-color:#24d96a;stop-opacity:1"/></linearGradient><linearGradient id="_Linear13" x1="0" y1="0" x2="1" y2="0" gradientUnits="userSpaceOnUse" gradientTransform="matrix(598.102,0,0,598.102,1257.79,2070.54)"><stop offset="0" style="stop-color:#28bfc0;stop-opacity:1"/><stop offset="1" style="stop-color:#24d96a;stop-opacity:1"/></linearGradient><linearGradient id="_Linear14" x1="0" y1="0" x2="1" y2="0" gradientUnits="userSpaceOnUse" gradientTransform="matrix(598.102,0,0,598.102,1257.79,2070.54)"><stop offset="0" style="stop-color:#28bfc0;stop-opacity:1"/><stop offset="1" style="stop-color:#24d96a;stop-opacity:1"/></linearGradient><linearGradient id="_Linear15" x1="0" y1="0" x2="1" y2="0" gradientUnits="userSpaceOnUse" gradientTransform="matrix(598.102,0,0,598.102,1257.79,2070.54)"><stop offset="0" style="stop-color:#28bfc0;stop-opacity:1"/><stop offset="1" style="stop-color:#24d96a;stop-opacity:1"/></linearGradient><linearGradient id="_Linear16" x1="0" y1="0" x2="1" y2="0" gradientUnits="userSpaceOnUse" gradientTransform="matrix(598.102,0,0,598.102,1257.79,2070.54)"><stop offset="0" style="stop-color:#28bfc0;stop-opacity:1"/><stop offset="1" style="stop-color:#24d96a;stop-opacity:1"/></linearGradient><linearGradient id="_Linear17" x1="0" y1="0" x2="1" y2="0" gradientUnits="userSpaceOnUse" gradientTransform="matrix(598.102,0,0,598.102,1257.79,2070.54)"><stop offset="0" style="stop-color:#28bfc0;stop-opacity:1"/><stop offset="1" style="stop-color:#24d96a;stop-opacity:1"/></linearGradient><linearGradient id="_Linear18" x1="0" y1="0" x2="1" y2="0" gradientUnits="userSpaceOnUse" gradientTransform="matrix(598.102,0,0,598.102,1257.79,2070.54)"><stop offset="0" style="stop-color:#28bfc0;stop-opacity:1"/><stop offset="1" style="stop-color:#24d96a;stop-opacity:1"/></linearGradient><linearGradient id="_Linear19" x1="0" y1="0" x2="1" y2="0" gradientUnits="userSpaceOnUse" gradientTransform="matrix(598.102,0,0,598.102,1257.79,2070.54)"><stop offset="0" style="stop-color:#28bfc0;stop-opacity:1"/><stop offset="1" style="stop-color:#24d96a;stop-opacity:1"/></linearGradient></defs></svg>