<?xml version="1.0" encoding="UTF-8" standalone="no"?>
<!DOCTYPE svg PUBLIC "-//W3C//DTD SVG 1.1//EN" "http://www.w3.org/Graphics/SVG/1.1/DTD/svg11.dtd">
<svg width="100%" height="100%" viewBox="0 0 600 600" version="1.1" xmlns="http://www.w3.org/2000/svg" xmlns:xlink="http://www.w3.org/1999/xlink" xml:space="preserve" xmlns:serif="http://www.serif.com/" style="fill-rule:evenodd;clip-rule:evenodd;stroke-linecap:square;stroke-linejoin:round;stroke-miterlimit:1.5;">
    <g transform="matrix(1,0,0,1,-733.537,-5.07732)">
        <g id="Artboard1" transform="matrix(1,0,0,1,733.537,5.07732)">
            <rect x="0" y="0" width="600" height="600" style="fill:none;"/>
            <clipPath id="_clip1">
                <rect x="0" y="0" width="600" height="600"/>
            </clipPath>
            <g clip-path="url(#_clip1)">
                <g transform="matrix(1.66893,0,0,1.66893,-2011.34,-353.034)">
                    <path d="M1288.09,516.261C1288.09,516.261 1273.54,502.01 1269.19,486.149C1269.19,486.149 1225.46,365.037 1269.63,319.311C1269.63,319.311 1316.73,289.784 1345.26,319.311C1373.78,289.784 1420.88,319.311 1420.88,319.311C1465.06,365.037 1421.33,486.149 1421.33,486.149C1416.97,502.01 1402.42,516.261 1402.42,516.261C1402.42,516.261 1347.49,546.373 1288.09,516.261Z" style="fill:rgb(120,184,203);"/>
                </g>
                <g transform="matrix(1.08698,0,0,1.08698,-749.668,-28.1233)">
                    <path d="M799.08,269.467L761.388,251.071C761.388,251.071 755.077,229.163 773.153,214.141L813.539,229.163L799.08,269.467Z" style="fill:rgb(43,72,83);"/>
                </g>
                <g transform="matrix(1.66893,0,0,1.36407,-926.729,-238.351)">
                    <path d="M675.827,449.719L675.827,408.869L716.293,408.869L716.293,449.719L716.226,449.786C693.366,472.567 675.842,449.739 675.827,449.719Z" style="fill:rgb(240,240,240);"/>
                </g>
                <g transform="matrix(1.47265,0,0,1.36407,-790.112,-238.341)">
                    <path d="M675.827,449.719L675.827,408.869L716.293,408.869L716.293,449.719L716.226,449.786C693.366,472.567 675.842,449.739 675.827,449.719Z" style="fill:rgb(254,254,254);"/>
                </g>
                <g transform="matrix(1.66893,0,0,0.561179,-926.729,120.724)">
                    <path d="M696.06,392.203L696.06,449.719" style="fill:none;stroke:rgb(160,154,154);stroke-width:4.02px;"/>
                </g>
                <g transform="matrix(-1.08698,0,0,1.08698,1217.31,-29.9335)">
                    <path d="M799.08,269.467L761.388,251.071C761.388,251.071 755.077,229.163 773.153,214.141L813.539,229.163L799.08,269.467Z" style="fill:rgb(43,72,83);"/>
                </g>
                <g transform="matrix(1.08698,0,0,1.08698,-749.668,-30.6352)">
                    <rect x="896.217" y="241.502" width="19.967" height="27.498" style="fill:rgb(43,72,83);"/>
                </g>
                <g transform="matrix(1.08698,0,0,1.08698,-749.668,-28.1233)">
                    <rect x="896.217" y="241.502" width="19.967" height="27.498" style="fill:rgb(72,93,101);"/>
                </g>
                <g transform="matrix(-2.01998,0,0,2.01998,1632,-502.905)">
                    <circle cx="661.755" cy="371.154" r="27.74" style="fill:rgb(43,72,83);"/>
                </g>
                <g transform="matrix(-1.95472,0,0,1.95472,1587,-476.875)">
                    <circle cx="661.755" cy="371.154" r="27.74" style="fill:rgb(72,93,101);"/>
                </g>
                <g transform="matrix(-1.28556,0,0,1.28556,1144.18,-228.514)">
                    <circle cx="661.755" cy="371.154" r="27.74" style="fill:rgb(81,178,113);"/>
                </g>
                <g transform="matrix(2.01998,0,0,2.01998,-1164.35,-501.095)">
                    <circle cx="661.755" cy="371.154" r="27.74" style="fill:rgb(43,72,83);"/>
                </g>
                <g transform="matrix(1.95472,0,0,1.95472,-1119.36,-475.065)">
                    <circle cx="661.755" cy="371.154" r="27.74" style="fill:rgb(72,93,101);"/>
                </g>
                <g transform="matrix(1.23185,0,0,1.08698,-135.912,-33.9878)">
                    <path d="M328.467,346.099C320.274,348.382 310.947,349.673 301.055,349.673C291.163,349.673 281.836,348.382 273.643,346.099L273.643,323.1L328.467,323.1L328.467,346.099Z" style="fill:rgb(196,196,196);fill-opacity:0.5;"/>
                </g>
                <g transform="matrix(1.62858,0,0,2.83542,-908.617,-856.928)">
                    <ellipse cx="702.181" cy="411.445" rx="39.397" ry="11.986" style="fill:rgb(180,145,115);"/>
                </g>
                <g transform="matrix(0.827992,0,0,2.25428,-347.604,-644.839)">
                    <ellipse cx="702.181" cy="411.445" rx="39.397" ry="11.986" style="fill:rgb(123,103,87);"/>
                </g>
                <g transform="matrix(0.827992,0,0,2.25428,-347.604,-651.805)">
                    <ellipse cx="702.181" cy="411.445" rx="39.397" ry="11.986" style="fill:rgb(134,118,104);"/>
                </g>
                <g transform="matrix(1.13695,0,0,1.13695,-794.878,-27.1509)">
                    <path d="M1048.43,169.471L1048.43,183.213C1048.43,194.616 984.058,203.874 904.766,203.874C825.475,203.874 761.101,194.616 761.101,183.213L761.101,169.471L797.518,169.471C823.837,165.226 862.147,162.551 904.766,162.551C947.386,162.551 985.695,165.226 1012.01,169.471L1048.43,169.471Z" style="fill:rgb(48,87,101);"/>
                </g>
                <g transform="matrix(1.55196,0,0,1.90004,-848.856,-427.974)">
                    <ellipse cx="697.604" cy="312.363" rx="105.248" ry="12.363" style="fill:rgb(85,118,130);"/>
                </g>
                <g transform="matrix(1.75414,0,0,1.97305,-985.982,-444.27)">
                    <path d="M766.347,301.612L624.398,301.612C624.398,243.817 695.372,247.022 695.372,247.022C695.372,247.022 766.346,245.623 766.347,301.612Z" style="fill:rgb(85,118,130);"/>
                </g>
                <g transform="matrix(1.14248,0,0,1.28506,-108.948,-48.3601)">
                    <path d="M300.545,129.587C346.85,129.633 383.825,123.194 401.175,119.511L404.798,127.588L300,142.566L195.202,127.588L198.825,119.511C216.243,123.209 253.44,129.683 300,129.587L300.545,129.587Z" style="fill:rgb(48,87,101);"/>
                </g>
                <g transform="matrix(1.75414,0,0,2.14756,-985.982,-500.938)">
                    <path d="M766.347,303.49C766.347,303.49 698.484,320.432 624.398,303.49C624.398,303.49 625.496,289.012 627.255,287.252C629.015,285.492 673.81,298.598 763.417,287.252C763.417,287.252 766.347,290.46 766.347,303.49Z" style="fill:rgb(133,160,170);"/>
                </g>
                <g transform="matrix(1.57735,0,0,1.77421,-862.055,-368.574)">
                    <circle cx="694.74" cy="283.743" r="19.747" style="fill:rgb(242,242,242);"/>
                </g>
                <g transform="matrix(1.53019,0,0,1.10273,-288.189,-36.8895)">
                    <ellipse cx="437.106" cy="345.802" rx="18.643" ry="26.121" style="fill:rgb(50,97,103);"/>
                </g>
                <g transform="matrix(1.08586,-0.0493726,0.0493726,1.08586,-91.052,-43.9067)">
                    <g transform="matrix(1.16742,-0.312808,0.312808,1.16742,-782.152,369.957)">
                        <path d="M896.197,310.774L1086.02,120.951L1096.83,131.759L906.28,322.306L896.197,310.774Z" style="fill:rgb(180,119,0);"/>
                    </g>
                    <g transform="matrix(0.866025,0.5,-0.5,0.866025,-498.907,-378.52)">
                        <path d="M1160.43,-22.873L1169.66,100.798L1160.43,132.411L1160.43,-22.873Z" style="fill:rgb(158,104,0);"/>
                    </g>
                    <g transform="matrix(0.866025,0.5,-0.5,0.866025,-502.085,-386.129)">
                        <path d="M1192.01,-14.975C1269.8,-14.975 1298.62,-4.047 1298.66,-4.034L1298.66,10.092C1253.27,1.375 1192.01,17.725 1192.01,17.725L1192.01,-14.975Z" style="fill:rgb(131,131,131);"/>
                    </g>
                    <g transform="matrix(-0.866025,-0.5,-0.5,0.866025,1535.19,790.092)">
                        <path d="M1192.01,-14.975C1269.8,-14.975 1298.62,-4.047 1298.66,-4.034L1298.66,10.092C1253.27,1.375 1192.01,17.725 1192.01,17.725L1192.01,-14.975Z" style="fill:rgb(131,131,131);"/>
                    </g>
                    <g transform="matrix(0.866025,0.5,-0.5,0.866025,-498.907,-378.52)">
                        <path d="M1160.43,-34.933L1178.9,-25.697L1178.9,-34.933L1160.43,-34.933Z" style="fill:rgb(147,97,0);"/>
                    </g>
                    <g transform="matrix(0.866025,0.5,-0.5,0.866025,-498.907,-378.52)">
                        <path d="M1160.43,159.132L1174.28,180.863L1160.43,237.964L1160.43,159.132Z" style="fill:rgb(147,97,0);"/>
                    </g>
                    <g transform="matrix(0.866025,0.5,-0.5,0.866025,-498.907,-378.52)">
                        <path d="M1160.43,290.753L1178.9,269.416L1178.9,290.753L1160.43,290.753Z" style="fill:rgb(158,104,0);"/>
                    </g>
                    <g transform="matrix(0.866025,0.5,-0.5,0.866025,-496.407,-382.85)">
                        <path d="M1153.93,-15.326C1153.88,-15.49 1153.87,-15.596 1153.87,-15.613L1153.87,-15.615L1153.87,-19.573L1153.87,-19.576C1153.87,-19.675 1154.03,-22.873 1164.24,-22.873L1175.09,-22.873C1185.42,-22.873 1185.46,-19.595 1185.46,-19.573L1185.46,-15.615C1185.46,-15.614 1185.46,-15.505 1185.39,-15.326L1185.46,-15.326L1185.46,19.448L1185.46,19.451C1185.45,19.555 1185.3,22.873 1175.09,22.873L1164.24,22.873C1153.88,22.873 1153.87,19.454 1153.87,19.448L1153.87,-15.326L1153.93,-15.326Z" style="fill:rgb(104,104,104);"/>
                    </g>
                    <g transform="matrix(0.609627,0.351968,-0.5,0.866025,-196.507,-209.703)">
                        <path d="M1182.63,-18.336C1182.98,-20.47 1182.63,17.725 1182.63,17.725L1169.66,17.725C1169.66,17.725 1178.9,4.814 1182.63,-18.336Z" style="fill:rgb(131,131,131);"/>
                    </g>
                </g>
                <g transform="matrix(1.08698,0,0,1.02348,-1031.36,84.256)">
                    <g transform="matrix(1,0,0,1.23906,875.292,-199.642)">
                        <path d="M406.028,520.573L406.022,520.573C405.595,527.927 382.007,533.863 353.014,533.863C324.021,533.863 300.432,527.927 300.006,520.573L300,520.573L300,512.434L306.855,512.434C314.077,506.351 327.986,498.99 353.014,498.99L353.014,498.91C378.151,498.91 392.073,506.336 399.267,512.434L406.028,512.434L406.028,520.573Z" style="fill:rgb(160,143,124);"/>
                    </g>
                    <g transform="matrix(0.565576,0,0,0.565576,728.765,185.824)">
                        <path d="M883.243,394.144C935.636,394.144 960.471,416.749 970.752,430.552C974.709,433.792 976.907,437.307 976.976,440.98L976.978,440.984L976.976,440.984C976.977,441.042 976.978,441.101 976.978,441.159C976.978,457.473 934.977,470.718 883.243,470.718C831.51,470.718 789.509,457.473 789.509,441.159C789.509,437.319 791.836,433.65 796.068,430.283C806.548,416.445 831.409,394.319 883.243,394.319L883.243,394.144Z" style="fill:rgb(190,170,148);"/>
                    </g>
                    <g transform="matrix(1,0,0,1.23906,981.32,-199.642)">
                        <path d="M244.619,525.959C244.619,525.959 245.021,511.248 246.986,511.248L246.986,525.959L244.619,525.959Z" style="fill:rgb(160,143,124);"/>
                    </g>
                    <g transform="matrix(-1,0,0,1.23906,1475.29,-199.642)">
                        <path d="M244.619,525.959C244.619,525.959 245.021,511.248 246.986,511.248L246.986,525.959L244.619,525.959Z" style="fill:rgb(160,143,124);"/>
                    </g>
                    <g transform="matrix(1,0,0,1.23906,981.32,-199.642)">
                        <path d="M207.726,521.663C207.726,521.663 213.68,502.43 235.293,502.43C235.293,502.43 219.241,507.137 215.109,523.133L207.726,521.663" style="fill:rgb(160,143,124);"/>
                    </g>
                    <g transform="matrix(-1,0,0,1.23906,1475.89,-198.159)">
                        <path d="M207.726,521.663C207.726,521.663 213.68,502.43 235.293,502.43C235.293,502.43 219.241,507.137 215.109,523.133L207.726,521.663" style="fill:rgb(160,143,124);"/>
                    </g>
                </g>
                <g transform="matrix(1.08698,0,0,1.02348,-1171.21,84.256)">
                    <g transform="matrix(1,0,0,1.23906,875.292,-199.642)">
                        <path d="M406.028,520.573L406.022,520.573C405.595,527.927 382.007,533.863 353.014,533.863C324.021,533.863 300.432,527.927 300.006,520.573L300,520.573L300,512.434L306.855,512.434C314.077,506.351 327.986,498.99 353.014,498.99L353.014,498.91C378.151,498.91 392.073,506.336 399.267,512.434L406.028,512.434L406.028,520.573Z" style="fill:rgb(160,143,124);"/>
                    </g>
                    <g transform="matrix(0.565576,0,0,0.565576,728.765,185.824)">
                        <path d="M883.243,394.144C935.636,394.144 960.471,416.749 970.752,430.552C974.709,433.792 976.907,437.307 976.976,440.98L976.978,440.984L976.976,440.984C976.977,441.042 976.978,441.101 976.978,441.159C976.978,457.473 934.977,470.718 883.243,470.718C831.51,470.718 789.509,457.473 789.509,441.159C789.509,437.319 791.836,433.65 796.068,430.283C806.548,416.445 831.409,394.319 883.243,394.319L883.243,394.144Z" style="fill:rgb(190,170,148);"/>
                    </g>
                    <g transform="matrix(1,0,0,1.23906,981.32,-199.642)">
                        <path d="M244.619,525.959C244.619,525.959 245.021,511.248 246.986,511.248L246.986,525.959L244.619,525.959Z" style="fill:rgb(160,143,124);"/>
                    </g>
                    <g transform="matrix(-1,0,0,1.23906,1475.29,-199.642)">
                        <path d="M244.619,525.959C244.619,525.959 245.021,511.248 246.986,511.248L246.986,525.959L244.619,525.959Z" style="fill:rgb(160,143,124);"/>
                    </g>
                    <g transform="matrix(1,0,0,1.23906,981.32,-199.642)">
                        <path d="M207.726,521.663C207.726,521.663 213.68,502.43 235.293,502.43C235.293,502.43 219.241,507.137 215.109,523.133L207.726,521.663" style="fill:rgb(160,143,124);"/>
                    </g>
                    <g transform="matrix(-1,0,0,1.23906,1475.89,-198.159)">
                        <path d="M207.726,521.663C207.726,521.663 213.68,502.43 235.293,502.43C235.293,502.43 219.241,507.137 215.109,523.133L207.726,521.663" style="fill:rgb(160,143,124);"/>
                    </g>
                </g>
                <g transform="matrix(1.34662,0,0,1.00543,-204.528,-3.24343)">
                    <ellipse cx="437.106" cy="345.802" rx="18.643" ry="26.121" style="fill:rgb(86,126,131);"/>
                </g>
                <g transform="matrix(1.08698,0,0,1.08698,16.0445,-20.4877)">
                    <g transform="matrix(0.865787,-0.499862,0.499862,0.865787,-1781.93,855.972)">
                        <circle cx="1864.78" cy="390.434" r="42.501" style="fill:rgb(37,50,55);"/>
                    </g>
                    <g transform="matrix(0.691632,-0.399314,0.399314,0.691632,-1417.91,736.467)">
                        <circle cx="1864.78" cy="390.434" r="42.501" style="fill:rgb(218,228,231);"/>
                    </g>
                    <g transform="matrix(0.721508,-0.416563,0.296184,0.513005,-1245.27,777.243)">
                        <rect x="1623.34" y="398.935" width="18.472" height="125.969" style="fill:rgb(180,119,0);"/>
                    </g>
                    <g transform="matrix(0.721508,-0.416563,0.621522,1.07651,-1554.22,603.23)">
                        <rect x="1840.05" y="429.324" width="18.472" height="6.294" style="fill:rgb(37,50,55);"/>
                    </g>
                    <g transform="matrix(0.721508,-0.416563,0.416563,0.721508,-1460.99,764.722)">
                        <path d="M1840.05,456.656L1849.29,485.117L1840.05,495.205L1840.05,456.656Z" style="fill:rgb(147,97,0);"/>
                    </g>
                    <g transform="matrix(0.721508,-0.416563,0.416563,0.721508,-1466.94,754.406)">
                        <path d="M1840.05,529.99L1858.52,512.06L1858.52,529.99L1840.05,529.99Z" style="fill:rgb(147,97,0);"/>
                    </g>
                    <g transform="matrix(0.721508,-0.416563,0.416563,0.721508,-1467.56,753.332)">
                        <path d="M1840.05,441.912L1858.52,449.548L1858.52,441.912L1840.05,441.912Z" style="fill:rgb(147,97,0);"/>
                    </g>
                </g>
                <g transform="matrix(-1.53019,0,0,1.10273,759.66,-36.8895)">
                    <ellipse cx="437.106" cy="345.802" rx="18.643" ry="26.121" style="fill:rgb(50,97,103);"/>
                </g>
                <g transform="matrix(-1.34662,0,0,1.00543,675.999,-3.24343)">
                    <ellipse cx="437.106" cy="345.802" rx="18.643" ry="26.121" style="fill:rgb(86,126,131);"/>
                </g>
                <g transform="matrix(1.26296,0,0,1.26296,-24.8164,-90.6115)">
                    <circle cx="204.766" cy="178.515" r="36.031" style="fill:rgb(112,112,112);"/>
                </g>
                <g transform="matrix(0.945966,0,0,0.945966,40.0942,-34.0227)">
                    <circle cx="204.766" cy="178.515" r="36.031" style="fill:rgb(218,217,164);"/>
                </g>
                <g transform="matrix(1.26911,0,0,1.42749,-145.673,-71.002)">
                    <path d="M291.681,124.357C291.681,124.357 276.992,130.638 275.942,145.972C275.942,145.972 285.841,130.638 294.803,130.638L291.681,124.357Z" style="fill:rgb(196,194,132);"/>
                </g>
                <g transform="matrix(1.26911,0,0,1.42749,-334.35,59.0507)">
                    <path d="M291.681,124.357C291.681,124.357 276.992,130.638 275.942,145.972C275.942,145.972 285.841,130.638 294.803,130.638L291.681,124.357Z" style="fill:rgb(187,195,197);"/>
                </g>
                <g transform="matrix(1.08698,0,0,1.08698,-749.668,-28.1233)">
                    <path d="M952.121,254.651L962.14,254.651L963.499,251.068L966.46,254.651L992.458,254.651C992.434,272.737 977.743,287.413 959.651,287.413C941.559,287.413 926.868,272.737 926.844,254.651L945.063,254.651L948.578,244.206L952.121,254.651Z" style="fill:rgb(66,138,89);"/>
                </g>
                <g transform="matrix(1.08698,0,0,1.08698,-749.668,-28.1233)">
                    <path d="M926.843,256.27L945.415,256.27L949.106,240.778L953.107,268.523L955.701,245.807L959.651,264.468L963.499,248.16L967.422,256.27L992.459,256.27" style="fill:none;stroke:rgb(92,212,131);stroke-width:3.68px;stroke-linecap:butt;stroke-miterlimit:1;"/>
                </g>
                <g transform="matrix(1.28556,0,0,1.28556,-676.541,-228.514)">
                    <circle cx="661.755" cy="371.154" r="27.74" style="fill:rgb(81,178,113);"/>
                </g>
                <g transform="matrix(-1.08698,0,0,1.08698,1217.31,-28.1233)">
                    <path d="M952.121,254.651L962.14,254.651L963.499,251.068L966.46,254.651L992.458,254.651C992.434,272.737 977.743,287.413 959.651,287.413C941.559,287.413 926.868,272.737 926.844,254.651L945.063,254.651L948.578,244.206L952.121,254.651Z" style="fill:rgb(66,138,89);"/>
                </g>
                <g transform="matrix(-1.08698,0,0,1.08698,1217.31,-28.1233)">
                    <path d="M926.843,256.27L945.415,256.27L949.106,240.778L953.107,268.523L955.701,245.807L959.651,264.468L963.499,248.16L967.422,256.27L992.459,256.27" style="fill:none;stroke:rgb(92,212,131);stroke-width:3.68px;stroke-linecap:butt;stroke-miterlimit:1;"/>
                </g>
            </g>
        </g>
    </g>
</svg>
