<?xml version="1.0" encoding="UTF-8" standalone="no"?>
<!DOCTYPE svg PUBLIC "-//W3C//DTD SVG 1.1//EN" "http://www.w3.org/Graphics/SVG/1.1/DTD/svg11.dtd">
<svg width="100%" height="100%" viewBox="0 0 1280 800" version="1.1" xmlns="http://www.w3.org/2000/svg" xmlns:xlink="http://www.w3.org/1999/xlink" xml:space="preserve" xmlns:serif="http://www.serif.com/" style="fill-rule:evenodd;clip-rule:evenodd;stroke-miterlimit:10;">
    <g id="Layer-1" serif:id="Layer 1">
        <rect x="0" y="0" width="1280" height="800" style="fill:rgb(138,163,191);"/>
        <g transform="matrix(1,0,0,1,24.9849,751.672)">
            <path d="M0,-306.888L-24.985,-328.889L-24.985,48.173L454.006,48.173L415.883,-75.206L395.089,-38.99L368.576,-110.036L339.638,-160.463L325.775,-142.267L292.851,-195.639L244.331,-137.243L202.743,-226.83L184.894,-215.22L143.826,-263.047L110.902,-231.163L45.054,-355.061L0,-306.888Z" style="fill:rgb(118,138,153);fill-rule:nonzero;"/>
        </g>
        <g transform="matrix(1,0,0,1,1544.69,773.851)">
            <path d="M0,-376.028L0,25.819L-1051.84,25.819L-1025.03,-79.365L-1005.31,-66.195L-971.407,-194.079L-911.213,-276.563L-872.986,-254.555L-829.916,-287.306L-788.922,-269.111L-772.836,-349.169L-746.025,-332.36L-704.512,-401.847L-660.231,-338.599L-638.783,-365.458L-554.719,-325.429L-522.546,-401.674L-495.044,-372.562L-483.281,-378.801L-423.433,-306.714L-347.326,-348.822L-308.062,-319.191L-281.078,-338.252L-203.76,-313.645C-203.76,-313.645 -155.674,-352.635 -147.372,-352.115C-139.069,-351.595 -57.254,-322.83 -57.254,-322.83L0,-376.028Z" style="fill:rgb(118,138,153);fill-rule:nonzero;"/>
        </g>
        <g transform="matrix(1,0,0,1,1544.86,800.537)">
            <path d="M0,-473.587L0,0L-2367.07,0L-2367.07,-355.06L-2340.9,-342.93L-2328.77,-360.259L-2277.13,-349.515L-2212.85,-260.793L-2157.39,-326.642L-2060.53,-184.721L-1879.79,-462.67L-1846.35,-438.583L-1814.12,-462.67L-1761.96,-438.583L-1641.35,-286.613L-1568.23,-395.782L-1543.79,-370.483L-1528.72,-386.598L-1503.94,-377.067L-1391.82,-180.043L-1313.84,-297.876L-1196.01,-108.13L-1128.43,-186.108L-1036.59,-122.686L-970.741,-258.887L-903.333,-222.844L-839.044,-345.53L-727.969,-282.454L-683.261,-439.103L-651.897,-428.186L-634.568,-451.233L-599.911,-439.103L-596.792,-449.674L-505.125,-350.208L-469.948,-413.111L-329.241,-255.768L-244.331,-377.241L-227.523,-363.378L-212.447,-370.829L-182.295,-367.19L-123.205,-303.768L-122.859,-303.248L-89.588,-349.515L-38.296,-360.086L-26.166,-342.757L-0.173,-354.887L-0.173,-473.24L0,-473.587Z" style="fill:rgb(100,122,142);fill-rule:nonzero;"/>
        </g>
        <g transform="matrix(1,0,0,1,36.9413,527.441)">
            <path d="M0,-35.177L6.065,-17.675L11.957,0L-11.957,0L-5.892,-17.675L0,-35.177Z" style="fill:rgb(80,106,112);fill-rule:nonzero;"/>
        </g>
        <g transform="matrix(1,0,0,1,62.0676,533.505)">
            <path d="M0,-23.74L3.986,-11.783L7.971,0L-7.971,0L-3.986,-11.783L0,-23.74Z" style="fill:rgb(89,119,124);fill-rule:nonzero;"/>
        </g>
        <g transform="matrix(1,0,0,1,43.3528,555.512)">
            <path d="M0,-21.487L2.946,-10.743L5.892,0L-6.065,0L-2.946,-10.743L0,-21.487Z" style="fill:rgb(104,136,142);fill-rule:nonzero;"/>
        </g>
        <g transform="matrix(1,0,0,1,741.517,602.299)">
            <path d="M0,-36.043L4.679,-18.021L9.357,0L-9.357,0L-4.679,-18.021L0,-36.043Z" style="fill:rgb(89,119,124);fill-rule:nonzero;"/>
        </g>
        <g transform="matrix(1,0,0,1,763.177,575.786)">
            <path d="M0,-18.541L4.332,-9.357L8.664,0L-8.664,0L-4.332,-9.357L0,-18.541Z" style="fill:rgb(104,136,142);fill-rule:nonzero;"/>
        </g>
        <g transform="matrix(1,0,0,1,734.066,558.632)">
            <path d="M0,-25.993L5.025,-12.997L9.877,0L-9.704,0L-4.852,-12.997L0,-25.993Z" style="fill:rgb(80,106,112);fill-rule:nonzero;"/>
        </g>
        <g transform="matrix(1,0,0,1,979.263,637.996)">
            <path d="M0,-45.574L5.719,-22.874L11.61,0L-11.783,0L-5.892,-22.874L0,-45.574Z" style="fill:rgb(89,119,124);fill-rule:nonzero;"/>
        </g>
        <g transform="matrix(1,0,0,1,941.141,615.296)">
            <path d="M0,-22.874L5.025,-11.437L9.877,0L-9.704,0L0,-22.874Z" style="fill:rgb(80,106,112);fill-rule:nonzero;"/>
        </g>
        <g transform="matrix(1,0,0,1,957.43,601.26)">
            <path d="M0,-25.473L3.292,-12.65L6.585,0L-6.412,0L-3.119,-12.65L0,-25.473Z" style="fill:rgb(104,136,142);fill-rule:nonzero;"/>
        </g>
        <g transform="matrix(1,0,0,1,980.996,461.765)">
            <path d="M0,-31.884L3.986,-15.942L8.145,0L-8.318,0L0,-31.884Z" style="fill:rgb(89,119,124);fill-rule:nonzero;"/>
        </g>
        <g transform="matrix(1,0,0,1,962.455,443.224)">
            <path d="M0,-19.928L3.119,-9.877L6.065,0L-6.065,0L-3.119,-9.877L0,-19.928Z" style="fill:rgb(104,136,142);fill-rule:nonzero;"/>
        </g>
        <g transform="matrix(1,0,0,1,944.433,468.004)">
            <path d="M0,-30.845L4.679,-15.423L9.357,0L-9.357,0L-4.679,-15.423L0,-30.845Z" style="fill:rgb(89,119,124);fill-rule:nonzero;"/>
        </g>
        <g transform="matrix(1,0,0,1,967.653,455.701)">
            <path d="M4.159,29.978L-11.437,29.978L-7.451,15.076L-3.639,0L0.346,15.076L4.159,29.978Z" style="fill:rgb(80,106,112);fill-rule:nonzero;"/>
        </g>
        <g transform="matrix(1,0,0,1,882.051,430.228)">
            <path d="M0,-25.473L3.292,-12.823L6.585,0L-6.412,0L-3.119,-12.823L0,-25.473Z" style="fill:rgb(104,136,142);fill-rule:nonzero;"/>
        </g>
        <g transform="matrix(1,0,0,1,1134.35,539.743)">
            <path d="M0,-31.884L3.986,-15.942L8.145,0L-8.318,0L0,-31.884Z" style="fill:rgb(89,119,124);fill-rule:nonzero;"/>
        </g>
        <g transform="matrix(1,0,0,1,1153.93,524.667)">
            <path d="M4.159,30.152L-11.437,30.152L-7.451,15.076L-3.639,0L0.346,15.076L4.159,30.152Z" style="fill:rgb(80,106,112);fill-rule:nonzero;"/>
        </g>
        <g transform="matrix(1,0,0,1,1166.76,534.719)">
            <path d="M0,-19.928L3.119,-10.051L6.238,0L-6.065,0L-2.946,-10.051L0,-19.928Z" style="fill:rgb(104,136,142);fill-rule:nonzero;"/>
        </g>
        <g transform="matrix(1,0,0,1,163.786,703.844)">
            <path d="M0,-35.177L6.065,-17.502L11.957,0L-11.957,0L-5.892,-17.502L0,-35.177Z" style="fill:rgb(80,106,112);fill-rule:nonzero;"/>
        </g>
        <g transform="matrix(1,0,0,1,189.952,679.411)">
            <path d="M0,-21.487L2.946,-10.743L5.892,0L-6.065,0L-2.946,-10.743L0,-21.487Z" style="fill:rgb(104,136,142);fill-rule:nonzero;"/>
        </g>
        <g transform="matrix(1,0,0,1,660.939,705.404)">
            <path d="M0,-36.217L4.679,-18.195L9.357,0L-9.357,0L-4.679,-18.195L0,-36.217Z" style="fill:rgb(89,119,124);fill-rule:nonzero;"/>
        </g>
        <g transform="matrix(1,0,0,1,693.344,683.397)">
            <path d="M0,-40.549L5.025,-20.275L9.877,0L-9.704,0L-4.852,-20.275L0,-40.549Z" style="fill:rgb(80,106,112);fill-rule:nonzero;"/>
        </g>
        <g transform="matrix(1,0,0,1,685.719,714.587)">
            <path d="M0,-18.541L4.332,-9.184L8.664,0L-8.664,0L-4.332,-9.184L0,-18.541Z" style="fill:rgb(104,136,142);fill-rule:nonzero;"/>
        </g>
        <g transform="matrix(1,0,0,1,587.64,635.57)">
            <path d="M0,-29.112L5.025,-14.556L9.877,0L-9.704,0L0,-29.112Z" style="fill:rgb(80,106,112);fill-rule:nonzero;"/>
        </g>
        <g transform="matrix(1,0,0,1,609.474,650.126)">
            <path d="M0,-29.112L3.639,-14.556L7.451,0L-7.625,0L-3.812,-14.556L0,-29.112Z" style="fill:rgb(89,119,124);fill-rule:nonzero;"/>
        </g>
        <g transform="matrix(1,0,0,1,1126.04,723.079)">
            <path d="M0,-45.574L5.891,-22.7L11.783,0L-11.61,0L-5.719,-22.7L0,-45.574Z" style="fill:rgb(89,119,124);fill-rule:nonzero;"/>
        </g>
        <g transform="matrix(1,0,0,1,1164.68,700.032)">
            <path d="M0,-25.473L3.292,-12.823L6.585,0L-6.585,0L-3.292,-12.823L0,-25.473Z" style="fill:rgb(104,136,142);fill-rule:nonzero;"/>
        </g>
        <g transform="matrix(1,0,0,1,1150.3,742.313)">
            <path d="M0,-38.642L4.852,-19.234L9.704,0L-9.704,0L-4.852,-19.234L0,-38.642Z" style="fill:rgb(80,106,112);fill-rule:nonzero;"/>
        </g>
        <g transform="matrix(1,0,0,1,1277.83,544.249)">
            <path d="M0,-38.816L4.332,-19.408L8.491,0L-0.866,-0.173L-10.397,-0.347L-5.199,-19.581L0,-38.816Z" style="fill:rgb(80,106,112);fill-rule:nonzero;"/>
        </g>
        <g transform="matrix(1,0,0,1,7.6562,430.055)">
            <path d="M0,-68.621L-29.112,-25.3L-4.679,0L10.397,-16.116L35.87,-6.412L0,-68.621Z" style="fill:rgb(250,250,250);fill-rule:nonzero;"/>
        </g>
        <g transform="matrix(1,0,0,1,884.543,373.004)">
            <path d="M0,-90.628L-22.7,-10.917L8.664,0L25.993,-23.047L60.65,-10.917L63.769,-21.487L0,-90.628Z" style="fill:rgb(250,250,250);fill-rule:nonzero;"/>
        </g>
        <g transform="matrix(-1,0,0,1,442.672,770.09)">
            <rect x="-145.055" y="-1.5" width="732.782" height="32.91" style="fill:rgb(177,203,229);"/>
        </g>
        <g transform="matrix(1,0,0,1,95.1183,62.7931)">
            <path d="M0,36.561C0,37.843 0.072,39.111 0.215,40.365L98.888,40.365C99.031,39.111 99.102,37.843 99.102,36.561C99.102,14.277 76.918,-3.804 49.551,-3.804C47.88,-3.804 46.22,-3.733 44.596,-3.59C19.558,-1.582 0,15.645 0,36.561" style="fill:rgb(219,219,219);fill-rule:nonzero;"/>
        </g>
        <g transform="matrix(1,0,0,1,141.074,50.1084)">
            <path d="M0,53.05L146.328,53.05C143.807,23.427 112.013,0 73.164,0C53.213,0 35.123,6.173 21.897,16.215C9.378,25.695 1.22,38.638 0,53.05" style="fill:rgb(219,219,219);fill-rule:nonzero;"/>
        </g>
        <g transform="matrix(1,0,0,1,1064.17,-21.2086)">
            <path d="M0,66.232C0,68.555 -0.12,70.852 -0.36,73.124L-165.5,73.124C-165.74,70.852 -165.86,68.555 -165.86,66.232C-165.86,25.863 -128.732,-6.892 -82.93,-6.892C-80.133,-6.892 -77.355,-6.763 -74.637,-6.505C-32.732,-2.866 0,28.341 0,66.232" style="fill:rgb(219,219,219);fill-rule:nonzero;"/>
        </g>
        <g transform="matrix(-1,0,0,1,943.478,-16.543)">
            <path d="M-221.967,68.458L0,68.458C-3.825,30.231 -52.054,0 -110.983,0C-141.248,0 -168.688,7.966 -188.752,20.924C-207.741,33.158 -220.117,49.861 -221.967,68.458" style="fill:rgb(219,219,219);fill-rule:nonzero;"/>
        </g>
        <g transform="matrix(1,0,0,1,227.754,24.6639)">
            <path d="M0,43.07C0,44.581 0.09,46.074 0.269,47.551L123.962,47.551C124.142,46.074 124.231,44.581 124.231,43.07C124.231,16.819 96.422,-4.481 62.116,-4.481C60.02,-4.481 57.94,-4.397 55.904,-4.229C24.517,-1.862 0,18.43 0,43.07" style="fill:rgb(219,219,219);fill-rule:nonzero;"/>
        </g>
        <g transform="matrix(1,0,0,1,288.867,24.7213)">
            <path d="M0,47.494L100.741,47.494C99.005,20.973 77.116,0 50.371,0C36.635,0 24.181,5.526 15.075,14.516C6.457,23.004 0.84,34.592 0,47.494" style="fill:rgb(219,219,219);fill-rule:nonzero;"/>
        </g>
        <g transform="matrix(1,0,0,1,1280,678.41)">
            <path d="M0,-339.27L0,121.59L-503,121.59L-503,-66.93L-119.69,-460.55L-119.38,-460.86L0,-339.27Z" style="fill:rgb(140,98,57);fill-rule:nonzero;"/>
        </g>
        <g transform="matrix(1,0,0,1,1280,526.81)">
            <path d="M0,-232.43L0,-212.81L-120.02,-333.81L-531.3,87.21L-518.42,99.73L-512.7,93.87C-516.56,100.8 -522.83,104.73 -528.22,103.02C-534.52,101.01 -537.33,91.98 -534.8,82.47C-539.37,75.15 -526.66,53.08 -505.38,31.85C-493.69,20.2 -481.76,11.12 -472.17,6.08C-463.29,-4.14 -452.59,-15.59 -440.76,-27.39C-433.41,-34.72 -426.2,-41.61 -419.34,-47.9C-419.94,-48 -420.37,-48.23 -420.64,-48.59C-424.4,-53.65 -393.58,-82.92 -351.8,-113.97C-349.1,-115.97 -346.43,-117.94 -343.79,-119.85C-344.18,-119.96 -344.47,-120.35 -344.68,-120.64C-348.44,-125.7 -324.28,-150.19 -290.53,-175.27C-285.89,-178.72 -281,-182.05 -277,-185.12L-277,-185.13C-267,-198.7 -253.23,-215.73 -237.19,-233.59C-212.62,-260.93 -189.38,-282.91 -176.23,-291.98C-176.18,-292.02 -176.13,-292.05 -176.08,-292.08C-171.04,-298.72 -161.22,-307.05 -148.86,-314.69C-146.74,-318.44 -143.06,-322.76 -138.32,-326.75C-130.21,-333.56 -121.66,-337.16 -117.55,-335.81L-117.4,-335.81C-115.23,-335.81 -111.79,-333.82 -107.36,-330.95C-107.35,-330.94 -107.34,-330.94 -107.33,-330.93C-104.26,-330.91 -102.09,-330.14 -101.13,-328.54C-100.73,-327.88 -100.56,-327.11 -100.6,-326.23C-86.86,-316.08 -67.27,-298.67 -46.65,-277.78C-30.89,-261.83 -17.15,-246.5 -7.11,-233.97C-4.84,-233.56 -2.46,-233.05 0,-232.43" style="fill:rgb(239,239,239);fill-rule:nonzero;"/>
        </g>
        <g transform="matrix(1,0,0,1,1280,563.14)">
            <path d="M0,-215.04L-5.4,-182.83L-18.37,-223.99L-37.04,-229.28L-47.38,-258.05L-54.07,-251.06L-60.09,-270.84L-64.39,-239.97L-68.43,-274.68L-71.04,-265.95L-83.53,-304.7L-99.83,-304.2L-112.2,-331.2L-123.25,-307L-132.94,-328.02L-146.58,-282.42L-154.32,-306.44L-158.85,-291.68L-169.23,-293.51L-173.16,-235.61L-188,-269.55L-201.69,-250.32L-211.22,-248.77L-211.34,-248.75L-218.29,-218.61L-227,-232.89L-232.33,-213.2L-252.05,-206.36L-252,-206.33L-252,-206.3L-258.31,-161.79L-262,-192.71L-269.76,-171.87L-276.44,-177.79L-276.79,-177.08L-286.06,-158.49L-315.02,-139.98L-324.02,-86.34L-334.07,-118.26L-351.22,-102.68L-350.33,-84.04L-371.61,-85.46L-375.49,-39.31L-387.01,-60.02L-395.53,-36.69L-402.34,-49.53L-415.19,-37.85L-416.79,-18.61L-441.3,-12.67L-446.95,18.69L-454.13,0.58L-448.58,54.54L-469.56,17.83L-473.06,27.09L-473.37,27.9L-478.18,40.59L-487.87,41.07L-492.77,41.31L-493.33,46.03L-497.65,82.7L-506.19,57.72L-509.87,61.06L-506.31,103.17L-517.25,74.53L-523.15,130.26L-530.08,52.06L-518.42,63.4L-119.69,-345.3L0,-223.86L0,-215.04Z" style="fill:rgb(177,203,229);fill-rule:nonzero;"/>
        </g>
        <g transform="matrix(-1,0,0,1,2265.6,175)">
            <rect x="1090.8" y="247" width="84" height="131" style="fill:rgb(104,65,33);"/>
        </g>
        <g transform="matrix(-1,0,0,1,2265.6,176.38)">
            <rect x="1104.8" y="262.167" width="56" height="99.286" style="fill:rgb(198,130,40);stroke:rgb(104,65,33);stroke-width:7.8px;"/>
        </g>
        <g transform="matrix(0,-1,-1,0,1048.52,534.778)">
            <path d="M-18.222,-18.222C-15.737,-18.222 -13.722,-10.064 -13.722,0C-13.722,10.064 -15.737,18.222 -18.222,18.222C-20.707,18.222 -22.722,10.064 -22.722,0C-22.722,-10.064 -20.707,-18.222 -18.222,-18.222" style="fill:rgb(239,239,239);fill-rule:nonzero;"/>
        </g>
        <g transform="matrix(0,-1,-1,0,1191.7,537.696)">
            <path d="M-15.304,-15.304C-12.819,-15.304 -10.804,-8.452 -10.804,0C-10.804,8.452 -12.819,15.304 -15.304,15.304C-17.789,15.304 -19.804,8.452 -19.804,0C-19.804,-8.452 -17.789,-15.304 -15.304,-15.304" style="fill:rgb(239,239,239);fill-rule:nonzero;"/>
        </g>
        <g transform="matrix(0,-1,-1,0,1062.03,540.83)">
            <path d="M-10.587,-10.587C-7.227,-10.587 -4.504,-5.847 -4.504,0C-4.504,5.848 -7.227,10.587 -10.587,10.587C-13.947,10.587 -16.67,5.848 -16.67,0C-16.67,-5.847 -13.947,-10.587 -10.587,-10.587" style="fill:rgb(239,239,239);fill-rule:nonzero;"/>
        </g>
        <g transform="matrix(0,-1,-1,0,1210.03,540.83)">
            <path d="M-10.587,-10.587C-7.227,-10.587 -4.504,-5.847 -4.504,0C-4.504,5.848 -7.227,10.587 -10.587,10.587C-13.947,10.587 -16.67,5.848 -16.67,0C-16.67,-5.847 -13.947,-10.587 -10.587,-10.587" style="fill:rgb(239,239,239);fill-rule:nonzero;"/>
        </g>
        <g transform="matrix(0,-1,-1,0,1072.61,543.996)">
            <path d="M-10.587,-10.587C-7.227,-10.587 -4.504,-5.847 -4.504,0C-4.504,5.847 -7.227,10.587 -10.587,10.587C-13.947,10.587 -16.67,5.847 -16.67,0C-16.67,-5.847 -13.947,-10.587 -10.587,-10.587" style="fill:rgb(239,239,239);fill-rule:nonzero;"/>
        </g>
        <g transform="matrix(0,-1,-1,0,1090.8,540.83)">
            <path d="M-10.587,-10.587C-7.227,-10.587 -4.504,-5.847 -4.504,0C-4.504,5.847 -7.227,10.587 -10.587,10.587C-13.947,10.587 -16.67,5.847 -16.67,0C-16.67,-5.847 -13.947,-10.587 -10.587,-10.587" style="fill:rgb(239,239,239);fill-rule:nonzero;"/>
        </g>
        <g transform="matrix(0,-1,-1,0,1102.78,542.609)">
            <path d="M-11.974,-11.974C-8.614,-11.974 -5.891,-6.613 -5.891,0C-5.891,6.613 -8.614,11.974 -11.974,11.974C-15.334,11.974 -18.057,6.613 -18.057,0C-18.057,-6.613 -15.334,-11.974 -11.974,-11.974" style="fill:rgb(239,239,239);fill-rule:nonzero;"/>
        </g>
        <g transform="matrix(0,-1,-1,0,1122.83,542.609)">
            <path d="M-11.974,-11.974C-7.74,-11.974 -4.307,-6.613 -4.307,0C-4.307,6.613 -7.74,11.974 -11.974,11.974C-16.208,11.974 -19.641,6.613 -19.641,0C-19.641,-6.613 -16.208,-11.974 -11.974,-11.974" style="fill:rgb(239,239,239);fill-rule:nonzero;"/>
        </g>
        <g transform="matrix(0,-1,-1,0,1143.16,538.276)">
            <path d="M-16.308,-16.308C-12.074,-16.308 -8.641,-9.007 -8.641,0C-8.641,9.007 -12.074,16.308 -16.308,16.308C-20.542,16.308 -23.975,9.007 -23.975,0C-23.975,-9.007 -20.542,-16.308 -16.308,-16.308" style="fill:rgb(239,239,239);fill-rule:nonzero;"/>
        </g>
        <g transform="matrix(0,-1,-1,0,1223.75,540.862)">
            <path d="M-13.721,-13.721C-9.487,-13.721 -6.054,-7.578 -6.054,0C-6.054,7.578 -9.487,13.721 -13.721,13.721C-17.955,13.721 -21.388,7.578 -21.388,0C-21.388,-7.578 -17.955,-13.721 -13.721,-13.721" style="fill:rgb(239,239,239);fill-rule:nonzero;"/>
        </g>
        <g transform="matrix(0,-1,-1,0,1162.52,544.711)">
            <path d="M-12.277,-12.277C-8.142,-12.277 -4.79,-6.781 -4.79,0C-4.79,6.781 -8.142,12.277 -12.277,12.277C-16.412,12.277 -19.764,6.781 -19.764,0C-19.764,-6.781 -16.412,-12.277 -12.277,-12.277" style="fill:rgb(239,239,239);fill-rule:nonzero;"/>
        </g>
        <g transform="matrix(0,-1,-1,0,1176.4,542.307)">
            <path d="M-12.277,-12.277C-8.142,-12.277 -4.79,-6.781 -4.79,-0.001C-4.79,6.781 -8.142,12.277 -12.277,12.277C-16.412,12.277 -19.764,6.781 -19.764,-0.001C-19.764,-6.781 -16.412,-12.277 -12.277,-12.277" style="fill:rgb(239,239,239);fill-rule:nonzero;"/>
        </g>
        <g transform="matrix(-1,0,0,1,2265.6,337.733)">
            <rect x="1025.8" y="215.267" width="214" height="31.733" style="fill:rgb(119,74,40);"/>
        </g>
        <g transform="matrix(0,1,1,0,1114.8,521)">
            <path d="M-32,-32L32,-32" style="fill:none;fill-rule:nonzero;stroke:rgb(119,74,40);stroke-width:10px;"/>
        </g>
        <g transform="matrix(0,1,1,0,1164.8,521)">
            <path d="M-32,-32L32,-32" style="fill:none;fill-rule:nonzero;stroke:rgb(119,74,40);stroke-width:10px;"/>
        </g>
        <g transform="matrix(0,1,1,0,1214.8,521)">
            <path d="M-32,-32L32,-32" style="fill:none;fill-rule:nonzero;stroke:rgb(119,74,40);stroke-width:10px;"/>
        </g>
        <g transform="matrix(0,1,1,0,1264.8,521)">
            <path d="M-32,-32L32,-32" style="fill:none;fill-rule:nonzero;stroke:rgb(119,74,40);stroke-width:10px;"/>
        </g>
        <g transform="matrix(0,-1,-1,0,1167.41,485.5)">
            <path d="M-5.5,-5.5C-8.538,-5.5 -11,-3.038 -11,0C-11,3.038 -8.538,5.5 -5.5,5.5C-2.462,5.5 0,3.038 0,0C0,-3.038 -2.462,-5.5 -5.5,-5.5" style="fill:rgb(71,41,19);fill-rule:nonzero;"/>
        </g>
        <g transform="matrix(0,1,1,0,1065.8,521)">
            <path d="M-32,-32L32,-32" style="fill:none;fill-rule:nonzero;stroke:rgb(119,74,40);stroke-width:10px;"/>
        </g>
        <g transform="matrix(-1,0,0,1,2269.6,193)">
            <rect x="1025.8" y="298.5" width="218" height="10" style="fill:rgb(119,74,40);"/>
        </g>
        <g transform="matrix(-1,0,0,1,2060,657)">
            <rect x="988" y="0" width="84" height="143" style="fill:rgb(104,65,33);"/>
        </g>
        <g transform="matrix(0,-1,-1,0,1061.41,733)">
            <path d="M-8,-8C-12.418,-8 -16,-4.418 -16,0C-16,4.418 -12.418,8 -8,8C-3.582,8 0,4.418 0,0C0,-4.418 -3.582,-8 -8,-8" style="fill:rgb(71,41,19);fill-rule:nonzero;"/>
        </g>
        <g transform="matrix(-1,0,0,1,2059.6,594)">
            <rect x="1001.8" y="73" width="56" height="60" style="fill:rgb(198,130,40);stroke:rgb(104,65,33);stroke-width:7.8px;"/>
        </g>
        <g transform="matrix(0,1,1,0,1071.8,699)">
            <path d="M-42,-42L42,-42" style="fill:none;fill-rule:nonzero;stroke:rgb(104,65,33);stroke-width:4px;"/>
        </g>
        <g transform="matrix(1,0,0,1,987.801,697)">
            <path d="M0,0L84,0" style="fill:none;fill-rule:nonzero;stroke:rgb(104,65,33);stroke-width:4px;"/>
        </g>
        <g transform="matrix(-1,0,0,1,2323.81,-143.652)">
            <rect x="1124.21" y="436.519" width="75.389" height="70.614" style="fill:rgb(201,104,39);stroke:rgb(104,65,33);stroke-width:7.8px;"/>
        </g>
        <g transform="matrix(0,1,1,0,1197.21,328.174)">
            <path d="M-35.307,-35.307L35.307,-35.307" style="fill:none;fill-rule:nonzero;stroke:rgb(104,65,33);stroke-width:2.93px;"/>
        </g>
        <g transform="matrix(1,0,0,1,1123.57,328.174)">
            <path d="M0,0L76.667,0" style="fill:none;fill-rule:nonzero;stroke:rgb(104,65,33);stroke-width:3.23px;"/>
        </g>
        <g transform="matrix(-1,0,0,1,2368.37,573.167)">
            <rect x="1114.75" y="63.833" width="138.875" height="99.167" style="fill:rgb(198,92,40);stroke:rgb(104,65,33);stroke-width:7.8px;"/>
        </g>
        <g transform="matrix(0,1,1,0,1233.77,686.583)">
            <path d="M-49.584,-49.584L49.584,-49.584" style="fill:none;fill-rule:nonzero;stroke:rgb(104,65,33);stroke-width:7.8px;"/>
        </g>
        <g transform="matrix(1,0,0,1,1113.57,686.583)">
            <path d="M0,0L141.229,0" style="fill:none;fill-rule:nonzero;stroke:rgb(104,65,33);stroke-width:7.8px;"/>
        </g>
        <g transform="matrix(-1,0,0,1,1799.6,573.167)">
            <rect x="843.751" y="63.833" width="112.1" height="99.167" style="fill:rgb(201,104,39);stroke:rgb(104,65,33);stroke-width:7.8px;"/>
        </g>
        <g transform="matrix(0,1,1,0,949.384,686.583)">
            <path d="M-49.584,-49.584L49.584,-49.584" style="fill:none;fill-rule:nonzero;stroke:rgb(104,65,33);stroke-width:4.24px;"/>
        </g>
        <g transform="matrix(1,0,0,1,842.801,686.583)">
            <path d="M0,0L114,0" style="fill:none;fill-rule:nonzero;stroke:rgb(104,65,33);stroke-width:4.66px;"/>
        </g>
        <g transform="matrix(1,0,0,1,1159.99,626.544)">
            <path d="M0,-433.559L-411.29,-12.526L-398.41,0L0.32,-408.682L120.01,-287.264L120.01,-312.544L0,-433.559Z" style="fill:rgb(89,53,28);fill-rule:nonzero;"/>
        </g>
        <g transform="matrix(1,0,0,1,693.42,766.16)">
            <path d="M0,11.26C0.97,10.79 1.96,10.34 2.99,9.91C1.96,10.35 0.97,10.8 0,11.26M586.58,6.11C581.17,3.05 574.28,1.12 566.63,0.91C554.14,0.56 543.28,4.92 537.87,11.56C537.81,11.63 537.76,11.7 537.7,11.77C536.7,11.7 535.69,11.66 534.66,11.64C533.8,11.6 532.96,11.79 532.12,11.83C532.02,11.68 531.91,11.53 531.8,11.39C531.77,11.34 531.73,11.29 531.69,11.24C525.98,4.09 511.63,-1.16 494.92,-1.16L494.41,-1.16C481.52,-1.16 470.12,1.94 462.99,6.68C461.18,6.52 459.31,6.44 457.41,6.44C448.81,6.44 440.94,8.08 434.93,10.79C427.84,6.96 418.03,4.59 407.19,4.59C406.85,4.59 406.51,4.59 406.17,4.61C395.29,4.75 385.51,7.28 378.58,11.27C378.51,11.3 378.44,11.34 378.38,11.38C374.41,13.71 371.39,16.5 369.66,19.6C369.66,19.61 369.65,19.61 369.65,19.62C369.61,19.69 369.57,19.76 369.54,19.83C358.12,18.84 345.57,18.29 332.38,18.29C322.64,18.29 313.26,18.84 304.41,18.84C303.1,15.44 299.58,12.43 294.58,10.04C287.58,6.83 278.08,4.83 267.48,4.83C255.13,4.83 244.12,7.53 237.29,11.71C237.28,11.71 237.26,11.72 237.25,11.72C228.52,9.28 217.88,7.82 206.39,7.82C205.47,7.82 204.55,7.84 203.65,7.84L203.57,7.84C195.74,-3.16 176.37,-10.18 153.76,-10.18C134.19,-10.18 117.62,-4.57 107.62,3.8C100.23,2.05 92.16,0.73 83.58,-0.05C77.59,-0.59 71.36,-0.9 64.96,-0.9C52.1,-0.9 39.9,0.22 28.96,2.3C28.94,2.3 28.92,2.31 28.9,2.31C28.44,2.4 27.99,2.48 27.54,2.57C27.99,2.48 28.44,2.39 28.9,2.3C17.04,-3.89 0.48,-8.16 -17.95,-8.16L-17.96,-8.16C-24.13,-17.16 -40.92,-22.87 -60.67,-22.87C-85.66,-22.87 -105.93,-13.01 -105.93,-0.86C-105.93,-0.7 -105.93,-0.55 -105.92,-0.39C-124.38,1.5 -138.65,9.05 -141.06,18.43C-141.97,18.35 -142.89,18.29 -143.83,18.27C-144.19,18.25 -144.55,18.23 -144.92,18.23C-157.35,18.23 -167.42,23.58 -167.42,30.21C-167.42,31.51 -167.04,32.84 -166.32,33.84C-166.32,33.84 427.49,34.08 427.5,34.13C427.49,34.04 586.58,33.84 586.58,33.84L586.58,6.11Z" style="fill:rgb(239,239,239);fill-rule:nonzero;"/>
        </g>
        <g transform="matrix(1,0,0,1,0,193)">
            <rect x="1280" y="-208.408" width="680.906" height="1023.82" style="fill:rgb(93,93,93);"/>
        </g>
    </g>
</svg>
