<?xml version="1.0" encoding="UTF-8" standalone="no"?><!DOCTYPE svg PUBLIC "-//W3C//DTD SVG 1.1//EN" "http://www.w3.org/Graphics/SVG/1.1/DTD/svg11.dtd"><svg width="100%" height="100%" viewBox="0 0 1440 1152" version="1.1" xmlns="http://www.w3.org/2000/svg" xmlns:xlink="http://www.w3.org/1999/xlink" xml:space="preserve" xmlns:serif="http://www.serif.com/" style="fill-rule:evenodd;clip-rule:evenodd;stroke-miterlimit:10;"><g id="Layer-1" serif:id="Layer 1"><rect x="0" y="0" width="1440" height="1152" style="fill:#020202;"/><path d="M0,0l0,687.35l459.958,-196.469l-456.473,-490.881l-3.485,0Z" style="fill-rule:nonzero;"/><path d="M3.485,0l456.474,490.881l281.433,-490.881l-737.907,0Z" style="fill-rule:nonzero;"/><path d="M745.586,0l41.393,75.823l166.207,-75.823l-207.6,0Z" style="fill:#030303;fill-rule:nonzero;"/><path d="M868.034,231.143l418.388,-188.278l-499.442,32.958l81.054,155.32Z" style="fill:#0d0d0d;fill-rule:nonzero;"/><path d="M953.187,0l-166.207,75.823l499.442,-32.958l-298.889,-42.865l-34.346,0Z" style="fill:#010101;fill-rule:nonzero;"/><path d="M987.533,0l298.889,42.865l141.231,-42.865l-440.12,0Z" style="fill:#030303;fill-rule:nonzero;"/><path d="M1427.65,0l-141.23,42.865l153.577,14.231l0,-57.096l-12.347,0Z" style="fill:#0d0d0d;fill-rule:nonzero;"/><path d="M947.688,370.198l492.312,-210.468l-153.578,-116.865l-338.734,327.333Z" style="fill:#0d0d0d;fill-rule:nonzero;"/><path d="M947.688,370.198l-79.654,-139.055l418.388,-188.278l-338.734,327.333Z" style="fill:#0a0a0a;fill-rule:nonzero;"/><path d="M1440,159.73l0,-102.634l-153.578,-14.231l153.578,116.865Z" style="fill:#0a0a0a;fill-rule:nonzero;"/><path d="M947.688,370.198l492.312,-43.061l0,-167.407l-492.312,210.468Z" style="fill:#010101;fill-rule:nonzero;"/><path d="M947.688,370.198l71.035,130.117l421.277,-173.178l-492.312,43.061Z" style="fill:#030303;fill-rule:nonzero;"/><path d="M1229.42,598.229l210.575,-82.836l0,-188.256l-210.575,271.092Z" style="fill:#0d0d0d;fill-rule:nonzero;"/><path d="M1018.72,500.316l-42.224,110.721l252.926,-12.808l-210.702,-97.913Z" style="fill:#0d0d0d;fill-rule:nonzero;"/><path d="M1018.72,500.315l210.702,97.914l210.573,-271.092l-421.275,173.178Z" style="fill:#0a0a0a;fill-rule:nonzero;"/><path d="M976.499,611.037l-402.091,13.482l-114.45,-133.638l516.541,120.156Z" style="fill:#070707;fill-rule:nonzero;"/><path d="M976.499,611.037l42.224,-110.721l-558.765,-9.435l516.541,120.156Z" style="fill:#050505;fill-rule:nonzero;"/><path d="M0,687.35l0,166.156l574.409,-228.988l-574.409,62.832Z" style="fill:#030303;fill-rule:nonzero;"/><path d="M0,687.35l574.409,-62.832l-114.451,-133.637l-459.958,196.469Z" style="fill:#020202;fill-rule:nonzero;"/><path d="M1200.7,710.27l239.299,-17.961l0,-176.916l-239.299,194.877Z" style="fill:#030303;fill-rule:nonzero;"/><path d="M1229.42,598.229l-28.724,112.041l239.299,-194.877l-210.575,82.836Z" style="fill:#0a0a0a;fill-rule:nonzero;"/><path d="M1200.7,710.27l-337.32,-22.92l113.119,-76.314l224.201,99.234Z" style="fill:#030303;fill-rule:nonzero;"/><path d="M1200.7,710.27l28.724,-112.041l-252.925,12.807l224.201,99.234Z" style="fill:#0a0a0a;fill-rule:nonzero;"/><path d="M574.409,624.519l288.972,62.831l113.119,-76.313l-402.091,13.482Z" style="fill:#010101;fill-rule:nonzero;"/><path d="M863.381,687.35l-204.231,60.532l-84.741,-123.363l288.972,62.831Z" style="fill:#030303;fill-rule:nonzero;"/><path d="M574.409,624.518l-429.082,344.556l513.824,-221.193l-84.742,-123.363Z" style="fill-rule:nonzero;"/><path d="M0,853.506l145.327,115.569l429.082,-344.557l-574.409,228.988Z" style="fill:#010101;fill-rule:nonzero;"/><path d="M0,972.463l145.327,-3.388l-145.327,-115.569l0,118.957Z" style="fill-rule:nonzero;"/><path d="M1200.7,710.27l239.299,94.074l0,-112.035l-239.299,17.961Z" style="fill:#010101;fill-rule:nonzero;"/><path d="M1046.01,792.701l393.989,11.643l-239.299,-94.074l-154.69,82.431Z" style="fill:#030303;fill-rule:nonzero;"/><path d="M1046.01,792.701l-341.627,133.252l158.998,-238.603l182.629,105.351Z" style="fill:#0d0d0d;fill-rule:nonzero;"/><path d="M1046.01,792.701l154.69,-82.431l-337.319,-22.92l182.629,105.351Z" style="fill:#010101;fill-rule:nonzero;"/><path d="M704.384,925.954l-241.709,113.157l-317.348,-70.036l559.057,-43.121Z" style="fill:#050505;fill-rule:nonzero;"/><path d="M659.151,747.882l45.232,178.072l158.998,-238.604l-204.231,60.532Z" style="fill:#0a0a0a;fill-rule:nonzero;"/><path d="M659.151,747.882l-513.824,221.193l559.056,-43.121l-45.233,-178.072Z" style="fill:#070707;fill-rule:nonzero;"/><path d="M462.675,1039.11l-161.499,34.715l-224.933,-18.436l386.432,-16.279Z" style="fill:#010101;fill-rule:nonzero;"/><path d="M76.243,1055.39l69.084,-86.315l317.348,70.036l-386.432,16.279Z" style="fill:#070707;fill-rule:nonzero;"/><path d="M0,1039.11l76.243,16.279l-76.243,-82.927l0,66.648Z" style="fill:#070707;fill-rule:nonzero;"/><path d="M0,972.463l76.243,82.927l69.084,-86.315l-145.327,3.388Z" style="fill:#050505;fill-rule:nonzero;"/><path d="M0.48,1152l4.155,0l142.323,-18.794l-70.715,-77.817l-75.763,96.611Z" style="fill:#010101;fill-rule:nonzero;"/><path d="M0,1152l0.48,0l75.763,-96.611l-76.243,-16.279l0,112.89Z" style="fill-rule:nonzero;"/><path d="M146.958,1133.21l146.167,18.794l4.283,0l3.768,-78.175l-154.218,59.381Z" style="fill:#010101;fill-rule:nonzero;"/><path d="M146.959,1133.21l-70.716,-77.818l224.934,18.436l-154.218,59.381Z" style="fill-rule:nonzero;"/><path d="M297.408,1152l312.723,0l-308.955,-78.175l-3.768,78.175Z" style="fill-rule:nonzero;"/><path d="M301.176,1073.83l308.955,78.175l2.622,0l-150.078,-112.89l-161.499,34.715Z" style="fill:#010101;fill-rule:nonzero;"/><path d="M462.675,1039.11l150.079,112.89l1.727,0l89.903,-226.047l-241.709,113.157Z" style="fill-rule:nonzero;"/><path d="M614.48,1152l1.747,0l467.705,-218.09l-379.548,-7.957l-89.904,226.047Z" style="fill:#030303;fill-rule:nonzero;"/><path d="M1046.01,792.701l37.922,141.209l-379.549,-7.957l341.627,-133.252Z" style="fill:#0a0a0a;fill-rule:nonzero;"/><path d="M1083.93,933.91l175.491,-43.135l-213.413,-98.074l37.922,141.209Z" style="fill:#0d0d0d;fill-rule:nonzero;"/><path d="M1259.42,890.775l180.576,-86.431l-393.989,-11.643l213.413,98.074Z" style="fill:#0a0a0a;fill-rule:nonzero;"/><path d="M1259.42,890.775l180.576,11.245l0,-97.676l-180.576,86.431Z" style="fill:#0d0d0d;fill-rule:nonzero;"/><path d="M1073.71,1152l1.929,0l364.36,-138.034l-180.576,-123.191l-185.713,261.225Z" style="fill:#010101;fill-rule:nonzero;"/><path d="M1440,1013.97l0,-111.947l-180.576,-11.244l180.576,123.191Z" style="fill:#030303;fill-rule:nonzero;"/><path d="M1083.93,933.91l-10.882,218.09l0.661,0l185.713,-261.225l-175.492,43.135Z" style="fill:#030303;fill-rule:nonzero;"/><path d="M616.227,1152l456.823,0l10.882,-218.09l-467.705,218.09Z" style="fill:#010101;fill-rule:nonzero;"/><path d="M1075.64,1152l364.361,0l0,-138.034l-364.361,138.034Z" style="fill:#030303;fill-rule:nonzero;"/><path d="M741.843,422.097l143.308,-17.171l-88.483,62.191l-54.825,-45.02Z" style="fill:none;stroke:#929292;stroke-width:5px;"/><path d="M520.935,415.466l36.569,29.153l-147.807,-45.532l111.238,16.379Z" style="fill:none;stroke:#8d8d8d;stroke-width:5px;"/><path d="M581.469,391.256l-7.061,-59.095l92.604,17.5l-85.543,41.595Z" style="fill:none;stroke:#929292;stroke-width:5px;"/><path d="M699.234,312.834c0,0 -13.865,-57.318 -9.253,-57.523c4.611,-0.205 91.249,-33.681 91.249,-33.681l-81.996,91.204Z" style="fill:none;stroke:#929292;stroke-width:5px;"/><path d="M574.409,255.311l-145.241,-30.131l53.129,-44.632l92.112,74.763Z" style="fill:none;stroke:#8d8d8d;stroke-width:5px;"/><path d="M316.874,280.995l147.051,15.352l-6.296,30.792l-140.756,-46.144Z" style="fill:#010101;fill-rule:nonzero;"/><path d="M254.258,376.241l84.178,-37.841l-88.318,-33.58l4.14,71.421Z" style="fill:#030303;fill-rule:nonzero;"/><path d="M542.67,89.18l57.437,47.824l81.077,-112.337l-138.514,64.513Z" style="fill:none;stroke:#929292;stroke-width:5px;"/><path d="M390.4,108.974l-4.184,-112.722l89.352,74.105l-85.169,38.617Z" style="fill:#030303;fill-rule:nonzero;"/><path d="M124.886,-3.748l63.823,66.277l74.863,-66.277l-138.686,0Z" style="fill:#010101;fill-rule:nonzero;"/><path d="M13.626,95.304l49.498,-24.947l89.995,69.019l-139.493,-44.072Z" style="fill:#050505;fill-rule:nonzero;"/><path d="M269.516,201.302l-2.063,-71.192l96.511,17.624l-94.448,53.568Z" style="fill:#030303;fill-rule:nonzero;"/><path d="M250.118,255.311l-146.19,-48.088l139.186,13.544l7.004,34.544Z" style="fill-rule:nonzero;"/><path d="M129.026,312.834l-129.026,-16.488l38.121,-56.049l90.905,72.537Z" style="fill:#030303;fill-rule:nonzero;"/><path d="M64.513,488.649l42.52,-73.182l107.637,89.153l-150.157,-15.971Z" style="fill:#050505;fill-rule:nonzero;"/><path d="M459.958,490.881l283.582,-494.628l275.183,504.063l-558.765,-9.435Z" style="fill-rule:nonzero;"/><path d="M778.569,351.487l55.188,-9.739l-16.231,43.827l-38.957,-34.088Z" style="fill:#aaa;fill-rule:nonzero;"/><path d="M778.569,351.487l8.928,67.363l30.029,-33.275l-38.957,-34.088Z" style="fill:#bdbdbd;fill-rule:nonzero;"/><path d="M817.526,385.575l8.116,-21.913l23.537,0l-31.653,21.913Z" style="fill:#848484;fill-rule:nonzero;"/><path d="M849.178,363.661l33.276,-12.174l-56.813,12.174l23.537,0Z" style="fill:#3c3c3c;fill-rule:nonzero;"/><path d="M825.642,363.661l8.116,-21.913l48.697,9.739l-56.813,12.174Z" style="fill:#6d6d6d;fill-rule:nonzero;"/><path d="M833.758,341.748l36.522,-14.609l12.174,24.348l-48.696,-9.739Z" style="fill:#7a7a7a;fill-rule:nonzero;"/><path d="M882.454,351.487l33.276,0l-45.45,-24.348l12.174,24.348Z" style="fill:#5c5c5c;fill-rule:nonzero;"/><path d="M870.28,327.139l67.363,12.174l-21.913,12.174l-45.45,-24.348Z" style="fill:#858585;fill-rule:nonzero;"/><path d="M915.73,351.487l33.276,12.174l-11.363,-24.348l-21.913,12.174Z" style="fill:#7e7e7e;fill-rule:nonzero;"/><path d="M817.526,385.575l8.116,50.32l-38.145,-17.044l30.029,-33.276Z" style="fill:#cecece;fill-rule:nonzero;"/><path d="M849.178,363.661l59.247,5.681l-25.971,-17.855l-33.276,12.174Z" style="fill:#474747;fill-rule:nonzero;"/><path d="M870.28,365.685l-52.755,19.89l31.653,-21.913l21.102,2.023Z" style="fill:#5d5d5d;fill-rule:nonzero;"/><path d="M825.642,435.894l18.261,-25.16l-24.126,-11.202l5.865,36.362Z" style="fill:#a0a0a0;fill-rule:nonzero;"/><path d="M843.903,410.734l26.377,-34.493l-50.503,23.291l24.126,11.202Z" style="fill:#8d8d8d;fill-rule:nonzero;"/><path d="M817.526,385.575l2.251,13.958l50.504,-23.291l-52.755,9.333Z" style="fill:#7b7b7b;fill-rule:nonzero;"/><path d="M870.28,376.241l0,-10.556l-52.755,19.889l52.755,-9.333Z" style="fill:#707070;fill-rule:nonzero;"/><path d="M870.28,376.241l38.146,-6.899l-38.146,-3.657l0,10.556Z" style="fill:#6a6a6a;fill-rule:nonzero;"/><path d="M870.28,376.241l47.885,4.87l-9.739,-11.769l-38.146,6.899Z" style="fill:#606060;fill-rule:nonzero;"/><path d="M843.903,410.734l10.145,8.116l6.899,-19.318l-17.044,11.202Z" style="fill:#4a4a4a;fill-rule:nonzero;"/><path d="M860.947,399.532l28.406,-21.352l-19.073,-1.939l-9.333,23.291Z" style="fill:#676767;fill-rule:nonzero;"/><path d="M843.903,410.734l17.044,-11.202l9.333,-23.291l-26.377,34.493Z" style="fill:#555;fill-rule:nonzero;"/><path d="M860.947,399.532l32.059,-9.494l-3.653,-11.858l-28.406,21.352Z" style="fill:#242424;fill-rule:nonzero;"/><path d="M893.005,390.038l25.16,13.797l-28.812,-25.655l3.652,11.858Z" style="fill:#141414;fill-rule:nonzero;"/><path d="M918.165,403.836l0,-22.725l-28.812,-2.93l28.812,25.655Z" style="fill:#262626;fill-rule:nonzero;"/><path d="M918.165,403.836l14.203,28l6.899,-9.739l-21.102,-18.261Z" style="fill:#4e4e4e;fill-rule:nonzero;"/><path d="M939.267,422.097l-1.623,-22.564l-19.479,4.303l21.102,18.261Z" style="fill:#202020;fill-rule:nonzero;"/><path d="M937.644,399.532l-19.479,-18.422l0,22.725l19.479,-4.303Z" style="fill:#101010;fill-rule:nonzero;"/><path d="M908.426,369.342l7.304,-17.855l-33.275,0l25.971,17.855Z" style="fill:#767676;fill-rule:nonzero;"/><path d="M949.006,363.661l-40.58,5.681l7.304,-17.855l33.276,12.174Z" style="fill:#a9a9a9;fill-rule:nonzero;"/><path d="M937.644,399.532l11.362,-35.871l-30.841,17.449l19.479,18.422Z" style="fill:#969696;fill-rule:nonzero;"/><path d="M918.165,381.111l-9.739,-11.768l40.58,-5.682l-30.841,17.45Z" style="fill:#9f9f9f;fill-rule:nonzero;"/><path d="M778.569,351.487l28,-71.421l27.188,61.682l-55.188,9.739Z" style="fill:#bdbdbd;fill-rule:nonzero;"/><path d="M870.28,327.139l-63.711,-47.073l27.189,61.682l36.522,-14.609Z" style="fill:#c5c5c5;fill-rule:nonzero;"/><path d="M949.006,363.661l16.232,8.725l-27.594,-33.073l11.362,24.348Z" style="fill:#9d9d9d;fill-rule:nonzero;"/><path d="M937.644,339.313l-33.885,-68.987l-33.478,56.813l67.363,12.174Z" style="fill:#d3d3d3;fill-rule:nonzero;"/><path d="M806.569,280.066l97.19,-9.739l-33.479,56.811l-63.711,-47.072Z" style="fill:#d0d0d0;fill-rule:nonzero;"/><path d="M965.238,372.386l5.275,-19.682l-32.87,-13.391l27.595,33.073Z" style="fill:#bbb;fill-rule:nonzero;"/><path d="M970.514,352.704l-21.508,-63.711l-11.362,50.32l32.87,13.391Z" style="fill:#c3c3c3;fill-rule:nonzero;"/><path d="M903.759,270.326l45.247,18.667l-11.362,50.32l-33.885,-68.987Z" style="fill:#bbb;fill-rule:nonzero;"/><path d="M949.006,288.993l-33.276,-67.363l-11.971,48.696l45.247,18.667Z" style="fill:#9c9c9c;fill-rule:nonzero;"/><path d="M854.048,418.85l19.073,1.623l-12.174,-20.941l-6.899,19.318Z" style="fill:#656565;fill-rule:nonzero;"/><path d="M932.368,431.836l-30.841,8.319l25.077,-19.681l5.764,11.362Z" style="fill:#888;fill-rule:nonzero;"/><path d="M901.527,440.155l-47.479,-21.305l19.073,1.624l28.406,19.681Z" style="fill:#8c8c8c;fill-rule:nonzero;"/><path d="M873.121,420.474l45.044,6.624l-16.638,13.057l-28.406,-19.681Z" style="fill:#797979;fill-rule:nonzero;"/><path d="M918.165,403.836l0,23.262l8.44,-6.624l-8.44,-16.638Z" style="fill:#777;fill-rule:nonzero;"/><path d="M897.164,424.009l21.001,-20.173l0,23.261l-21.001,-3.088Z" style="fill:#919191;fill-rule:nonzero;"/><path d="M903.759,395.936l1.363,20.428l13.043,-12.529l-14.406,-7.899Z" style="fill:#616161;fill-rule:nonzero;"/><path d="M873.121,420.474l32.001,-4.109l-7.958,7.644l-24.043,-3.535Z" style="fill:#424242;fill-rule:nonzero;"/><path d="M893.005,390.038l12.117,26.326l-1.363,-20.429l-10.754,-5.897Z" style="fill:#2d2d2d;fill-rule:nonzero;"/><path d="M893.005,390.038l-24.971,21.686l-7.088,-12.192l32.059,-9.494Z" style="fill:#3e3e3e;fill-rule:nonzero;"/><path d="M883.666,398.148l16.022,6.411l-6.683,-14.521l-9.339,8.11Z" style="fill:#353535;fill-rule:nonzero;"/><path d="M899.689,404.56l-26.568,15.914l32.001,-4.109l-5.433,-11.805Z" style="fill:#484848;fill-rule:nonzero;"/><path d="M878.802,402.373l6.349,10.895l-12.03,7.206l5.681,-18.101Z" style="fill:#414141;fill-rule:nonzero;"/><path d="M878.802,402.373l-10.768,9.351l5.087,8.75l5.681,-18.101Z" style="fill:#575757;fill-rule:nonzero;"/><path d="M878.802,402.373l6.349,10.895l14.538,-8.708l-20.887,-2.187Z" style="fill-rule:nonzero;"/><path d="M878.802,402.373l4.864,-4.224l16.023,6.411l-20.887,-2.187Z" style="fill-rule:nonzero;"/><path d="M932.368,431.836l20.087,19.479l-13.188,-29.218l-6.899,9.739Z" style="fill:#626262;fill-rule:nonzero;"/><path d="M915.73,221.63l-43.015,-39.363l31.044,88.059l11.971,-48.696Z" style="fill:#b3b3b3;fill-rule:nonzero;"/><path d="M806.569,280.066l15.928,-72.842l81.262,63.103l-97.19,9.738Z" style="fill:#cbcbcb;fill-rule:nonzero;"/><path d="M822.497,207.224l50.218,-24.957l31.044,88.059l-81.262,-63.102Z" style="fill:#bebebe;fill-rule:nonzero;"/><path d="M872.715,182.267l-31.044,-26.174l-35.508,2.13l66.552,24.044Z" style="fill:#919191;fill-rule:nonzero;"/><path d="M806.163,158.223l16.334,49.001l50.218,-24.957l-66.552,-24.044Z" style="fill:#b8b8b8;fill-rule:nonzero;"/><path d="M806.163,158.223l-35.102,-8.522l-52.349,4.261l87.451,4.261Z" style="fill:#8d8d8d;fill-rule:nonzero;"/><path d="M778.569,351.487l-3.856,-71.421l31.856,0l-28,71.421Z" style="fill:#b4b4b4;fill-rule:nonzero;"/><path d="M787.496,418.85l-21,-35.102l12.072,-32.261l8.928,67.363Z" style="fill:#737373;fill-rule:nonzero;"/><path d="M778.569,351.487l-28.509,15.522l16.436,16.739l12.072,-32.261Z" style="fill:#363636;fill-rule:nonzero;"/><path d="M746.409,351.487l32.159,0l-28.507,15.522l-3.653,-15.522Z" style="fill:#3d3d3d;fill-rule:nonzero;"/><path d="M766.496,351.487l-24.653,-30.638l4.566,30.638l20.087,0Z" style="fill:#4d4d4d;fill-rule:nonzero;"/><path d="M741.843,320.849l-42.609,-8.015l47.174,38.653l-4.565,-30.638Z" style="fill:#333;fill-rule:nonzero;"/><path d="M699.234,312.834l-19.479,19.326l66.654,19.327l-47.175,-38.653Z" style="fill:#262626;fill-rule:nonzero;"/><path d="M699.234,312.834l-42.914,0l23.435,19.326l19.479,-19.326Z" style="fill:#414141;fill-rule:nonzero;"/><path d="M656.32,312.834l-36.827,14.305l60.262,5.021l-23.435,-19.326Z" style="fill:#4b4b4b;fill-rule:nonzero;"/><path d="M619.493,327.139l-22.522,12.174l8.217,10.348l14.305,-22.522Z" style="fill:#4b4b4b;fill-rule:nonzero;"/><path d="M605.189,349.661l74.566,-17.5l-60.261,-5.022l-14.305,22.522Z" style="fill:#414141;fill-rule:nonzero;"/><path d="M750.061,367.009l-3.652,32.523l20.087,-15.784l-16.435,-16.739Z" style="fill:#4a4a4a;fill-rule:nonzero;"/><path d="M741.843,320.849l32.87,-40.783l-8.217,71.421l-24.653,-30.638Z" style="fill:#ababab;fill-rule:nonzero;"/><path d="M766.496,351.487l8.218,-71.421l3.855,71.421l-12.073,0Z" style="fill:#a7a7a7;fill-rule:nonzero;"/><path d="M699.234,312.834l75.479,-32.769l-32.87,40.784l-42.609,-8.015Z" style="fill:#adadad;fill-rule:nonzero;"/><path d="M822.497,207.224l-76.088,11.261l60.16,61.581l15.928,-72.842Z" style="fill:#c5c5c5;fill-rule:nonzero;"/><path d="M746.409,218.485l28.304,61.581l31.856,0l-60.16,-61.581Z" style="fill:#bbb;fill-rule:nonzero;"/><path d="M746.409,218.485l-40.264,47.175l68.568,14.406l-28.304,-61.581Z" style="fill:#b8b8b8;fill-rule:nonzero;"/><path d="M706.146,265.659l-6.912,47.175l75.48,-32.769l-68.568,-14.406Z" style="fill:#b3b3b3;fill-rule:nonzero;"/><path d="M746.409,218.485l59.755,-60.262l16.332,49.001l-76.087,11.261Z" style="fill:#c0c0c0;fill-rule:nonzero;"/><path d="M746.409,218.485l-27.697,-64.523l87.452,4.261l-59.755,60.262Z" style="fill:#b5b5b5;fill-rule:nonzero;"/><path d="M718.712,153.962l-51.7,4.261l-19.924,42.305l71.624,-46.566Z" style="fill:#898989;fill-rule:nonzero;"/><path d="M667.013,158.223l-47.519,52.45l27.594,-10.145l19.925,-42.305Z" style="fill:#666;fill-rule:nonzero;"/><path d="M647.088,200.528l99.32,17.957l-27.696,-64.523l-71.624,46.566Z" style="fill:#a4a4a4;fill-rule:nonzero;"/><path d="M619.493,327.139l-11.261,-47.073l-11.261,59.247l22.522,-12.174Z" style="fill:#656565;fill-rule:nonzero;"/><path d="M608.232,280.066l38.856,-79.539l-27.595,10.147l-11.261,69.392Z" style="fill:#6a6a6a;fill-rule:nonzero;"/><path d="M608.232,280.066l48.088,32.769l-36.827,14.303l-11.261,-47.072Z" style="fill:#7e7e7e;fill-rule:nonzero;"/><path d="M608.232,280.066l97.913,-14.406l-49.825,47.175l-48.088,-32.769Z" style="fill:#8d8d8d;fill-rule:nonzero;"/><path d="M656.32,312.834l42.914,0l6.912,-47.175l-49.826,47.175Z" style="fill:#9f9f9f;fill-rule:nonzero;"/><path d="M706.146,265.659l-59.058,-65.132l-38.855,79.538l97.913,-14.406Z" style="fill:#969696;fill-rule:nonzero;"/><path d="M706.146,265.659l40.263,-47.175l-99.321,-17.957l59.058,65.132Z" style="fill:#a0a0a0;fill-rule:nonzero;"/><path d="M746.409,399.532l41.087,19.318l-21,-35.102l-20.087,15.784Z" style="fill:#5c5c5c;fill-rule:nonzero;"/><path d="M741.843,422.097l45.653,-3.246l-41.088,-19.318l-4.565,22.564Z" style="fill:#707070;fill-rule:nonzero;"/><path d="M787.496,418.85l15.826,36.522l-22.319,15.015l6.493,-51.537Z" style="fill:#949494;fill-rule:nonzero;"/><path d="M741.843,422.097l39.16,48.291l6.493,-51.537l-45.653,3.246Z" style="fill:#686868;fill-rule:nonzero;"/><path d="M803.322,455.373l22.319,-19.479l-38.145,-17.043l15.826,36.522Z" style="fill:#bcbcbc;fill-rule:nonzero;"/><path d="M825.642,435.894l18.261,51.537l-40.58,-32.058l22.319,-19.479Z" style="fill:#c5c5c5;fill-rule:nonzero;"/><path d="M843.903,487.431l-62.9,-17.044l22.32,-15.015l40.58,32.059Z" style="fill:#aeaeae;fill-rule:nonzero;"/><path d="M825.642,435.894l28.406,-17.044l-10.145,-8.116l-18.261,25.16Z" style="fill:#a6a6a6;fill-rule:nonzero;"/><path d="M834.941,430.314l28.643,37.435l15.218,-8.724l-43.861,-28.711Z" style="fill:#adadad;fill-rule:nonzero;"/><path d="M843.903,487.431l19.681,-19.682l-37.942,-31.855l18.261,51.537Z" style="fill:#d7d7d7;fill-rule:nonzero;"/><path d="M863.584,467.75l-28.643,-37.435l-9.3,5.579l37.943,31.856Z" style="fill:#ccc;fill-rule:nonzero;"/><path d="M878.802,459.025l22.725,-18.87l-66.586,-9.841l43.861,28.711Z" style="fill:#b2b2b2;fill-rule:nonzero;"/><path d="M901.527,440.155l-47.479,-21.305l-19.107,11.464l66.586,9.841Z" style="fill:#919191;fill-rule:nonzero;"/><path d="M901.527,440.155l50.928,11.16l-20.087,-19.479l-30.841,8.319Z" style="fill:#b4b4b4;fill-rule:nonzero;"/><path d="M910.962,482.967l41.493,-31.653l-50.928,-11.159l9.435,42.812Z" style="fill:#cacaca;fill-rule:nonzero;"/><path d="M952.455,451.315l1.623,-25.526l-14.812,-3.692l13.189,29.218Z" style="fill:#898989;fill-rule:nonzero;"/><path d="M965.238,372.386l-27.595,27.146l11.363,-35.871l16.232,8.725Z" style="fill:#a4a4a4;fill-rule:nonzero;"/><path d="M937.644,399.532l16.435,26.257l-14.812,-3.693l-1.623,-22.564Z" style="fill:#666;fill-rule:nonzero;"/><path d="M965.238,372.386l-11.16,53.403l-16.435,-26.257l27.595,-27.146Z" style="fill:#adadad;fill-rule:nonzero;"/><path d="M965.238,372.386l10.348,0l-5.073,-19.682l-5.275,19.682Z" style="fill:#adadad;fill-rule:nonzero;"/><path d="M975.586,372.386l10.652,70.001l-32.16,-16.598l21.508,-53.403Z" style="fill:#c4c4c4;fill-rule:nonzero;"/><path d="M965.238,372.386l10.348,0l-21.508,53.403l11.16,-53.403Z" style="fill:#bfbfbf;fill-rule:nonzero;"/><path d="M952.455,451.315l33.783,-8.928l-32.16,-16.598l-1.623,25.526Z" style="fill:#c0c0c0;fill-rule:nonzero;"/><path d="M986.239,442.387l14.305,50.015l-48.088,-41.087l33.783,-8.928Z" style="fill:#bababa;fill-rule:nonzero;"/><path d="M843.903,487.431l67.059,-4.464l-53.059,34.696l-14,-30.232Z" style="fill:#cbcbcb;fill-rule:nonzero;"/><path d="M843.903,487.431l19.681,-19.682l47.378,15.218l-67.059,4.464Z" style="fill:#c5c5c5;fill-rule:nonzero;"/><path d="M878.802,459.025l28.138,5.691l-5.413,-24.561l-22.725,18.87Z" style="fill:#cecece;fill-rule:nonzero;"/><path d="M878.802,459.025l32.16,23.942l-47.378,-15.217l15.218,-8.725Z" style="fill:#9c9c9c;fill-rule:nonzero;"/><path d="M878.802,459.025l28.138,5.691l4.022,18.251l-32.16,-23.942Z" style="fill:#c6c6c6;fill-rule:nonzero;"/><path d="M1000.54,492.402l-21.913,66.045l-34.494,-69.799l56.407,3.754Z" style="fill:#bdbdbd;fill-rule:nonzero;"/><path d="M1000.54,492.402l-48.088,-41.088l-8.319,37.334l56.407,3.754Z" style="fill:#cecece;fill-rule:nonzero;"/><path d="M910.962,482.967l33.174,5.681l8.319,-37.334l-41.493,31.653Z" style="fill:#d5d5d5;fill-rule:nonzero;"/><path d="M857.903,517.664l70.813,29.036l-17.754,-63.732l-53.059,34.696Z" style="fill:#d1d1d1;fill-rule:nonzero;"/><path d="M928.716,546.7l49.914,11.747l-34.493,-69.798l-15.421,58.051Z" style="fill:#c5c5c5;fill-rule:nonzero;"/><path d="M928.716,546.7l-17.754,-63.732l33.175,5.681l-15.421,58.051Z" style="fill:#ccc;fill-rule:nonzero;"/><path d="M746.409,399.532l-40.264,-36.987l43.916,4.464l-3.653,32.523Z" style="fill:#707070;fill-rule:nonzero;"/><path d="M746.409,351.487l-40.264,11.058l43.916,4.464l-3.653,-15.522Z" style="fill:#4e4e4e;fill-rule:nonzero;"/><path d="M679.755,332.161l26.391,30.385l40.262,-11.059l-66.653,-19.326Z" style="fill:#3a3a3a;fill-rule:nonzero;"/><path d="M741.843,422.097l-17.364,-18.261l21.929,-4.303l-4.565,22.564Z" style="fill:#a2a2a2;fill-rule:nonzero;"/><path d="M724.479,403.836l-18.334,-41.291l40.263,36.988l-21.929,4.303Z" style="fill:#616161;fill-rule:nonzero;"/><path d="M667.013,349.661l12.743,-17.5l13.195,15.192l-25.938,2.308Z" style="fill:#4b4b4b;fill-rule:nonzero;"/><path d="M605.189,349.661l30.973,21.302l30.851,-21.302l-61.824,0Z" style="fill:#6e6e6e;fill-rule:nonzero;"/><path d="M605.189,349.661l74.566,-17.5l-12.742,17.5l-61.824,0Z" style="fill:#5f5f5f;fill-rule:nonzero;"/><path d="M605.189,349.661l8.894,43.827l22.079,-22.525l-30.973,-21.302Z" style="fill:#4b4b4b;fill-rule:nonzero;"/><path d="M724.479,403.836l-40.191,6.899l1.249,-8.362l38.942,1.463Z" style="fill:#a2a2a2;fill-rule:nonzero;"/><path d="M684.288,410.734l-25.138,-6.175l26.388,-2.187l-1.25,8.362Z" style="fill:#7f7f7f;fill-rule:nonzero;"/><path d="M684.288,410.734l-44.331,-4.584l19.193,-1.591l25.138,6.175Z" style="fill:#7a7a7a;fill-rule:nonzero;"/><path d="M684.288,410.734l-12.949,8.116l-31.382,-12.7l44.331,4.584Z" style="fill:#575757;fill-rule:nonzero;"/><path d="M741.843,422.097l-57.555,-11.362l40.191,-6.899l17.364,18.261Z" style="fill:#959595;fill-rule:nonzero;"/><path d="M706.146,362.545l-28.369,-6.343l15.174,-8.849l13.195,15.192Z" style="fill:#272727;fill-rule:nonzero;"/><path d="M677.777,356.202l-10.764,-6.542l25.938,-2.308l-15.174,8.85Z" style="fill:#2c2c2c;fill-rule:nonzero;"/><path d="M677.777,356.202l-41.615,14.76l30.851,-21.302l10.764,6.542Z" style="fill:#1a1a1a;fill-rule:nonzero;"/><path d="M659.151,362.809l33.799,4.809l-15.174,-11.416l-18.626,6.607Z" style="fill:#2b2b2b;fill-rule:nonzero;"/><path d="M692.95,367.618l13.195,-5.073l-28.369,-6.342l15.174,11.415Z" style="fill:#5a5a5a;fill-rule:nonzero;"/><path d="M692.95,367.618l31.529,36.218l-18.334,-41.291l-13.195,5.073Z" style="fill:#676767;fill-rule:nonzero;"/><path d="M724.479,403.836l-37.949,-28.206l6.42,-8.012l31.529,36.218Z" style="fill:#4f4f4f;fill-rule:nonzero;"/><path d="M686.531,375.63l-20.873,-4.055l27.292,-3.957l-6.42,8.012Z" style="fill:#2c2c2c;fill-rule:nonzero;"/><path d="M692.95,367.618l-33.8,-4.809l6.508,8.766l27.292,-3.957Z" style="fill:#1c1c1c;fill-rule:nonzero;"/><path d="M665.659,371.574l-29.497,-0.611l22.989,-8.154l6.508,8.765Z" style="fill:#0e0e0e;fill-rule:nonzero;"/><path d="M686.531,375.63l3.449,12.257l-4.443,14.486l0.993,-26.743Z" style="fill:#565656;fill-rule:nonzero;"/><path d="M665.659,371.574l6.686,7.274l14.186,-3.219l-20.872,-4.055Z" style="fill:#161616;fill-rule:nonzero;"/><path d="M672.344,378.848l13.194,23.524l0.992,-26.743l-14.186,3.219Z" style="fill:#4c4c4c;fill-rule:nonzero;"/><path d="M665.659,380.136l0,-8.562l6.686,7.274l-6.686,1.288Z" style="fill:#181818;fill-rule:nonzero;"/><path d="M665.659,371.574l-13.713,11.616l-15.784,-12.227l29.497,0.611Z" style="fill:#141414;fill-rule:nonzero;"/><path d="M651.945,383.19l-37.863,10.297l22.08,-22.525l15.783,12.228Z" style="fill:#0d0d0d;fill-rule:nonzero;"/><path d="M665.659,380.136l-13.713,3.054l13.713,-11.616l0,8.562Z" style="fill:#232323;fill-rule:nonzero;"/><path d="M651.945,383.19l2.07,15.058l11.643,-18.112l-13.713,3.054Z" style="fill:#343434;fill-rule:nonzero;"/><path d="M662.863,384.484l9.481,18.982l-13.194,1.093l3.713,-20.075Z" style="fill:#404040;fill-rule:nonzero;"/><path d="M662.863,384.484l-8.848,13.764l5.135,6.311l3.713,-20.075Z" style="fill:#474747;fill-rule:nonzero;"/><path d="M667.877,394.522l10.904,-4.197l6.757,12.048l-17.661,-7.851Z" style="fill:#535353;fill-rule:nonzero;"/><path d="M667.877,394.522l4.467,8.944l13.194,-1.093l-17.661,-7.851Z" style="fill:#4e4e4e;fill-rule:nonzero;"/><path d="M672.344,378.848l-9.481,5.636l2.795,-4.348l6.686,-1.288Z" style="fill:#1a1a1a;fill-rule:nonzero;"/><path d="M672.344,378.848l-4.467,15.673l10.904,-4.196l-6.437,-11.477Z" style="fill:#010101;fill-rule:nonzero;"/><path d="M672.344,378.848l-9.481,5.636l5.014,10.037l4.467,-15.673Z" style="fill-rule:nonzero;"/><path d="M654.015,398.248l-14.058,7.902l19.193,-1.591l-5.135,-6.311Z" style="fill:#686868;fill-rule:nonzero;"/><path d="M689.98,387.887l15.525,1.846l-18.975,-14.103l3.45,12.257Z" style="fill:#818181;fill-rule:nonzero;"/><path d="M705.505,389.733l-15.525,-1.846l-4.442,14.486l19.967,-12.64Z" style="fill:#858585;fill-rule:nonzero;"/><path d="M651.945,383.19l-11.988,22.96l14.058,-7.902l-2.07,-15.058Z" style="fill:#5b5b5b;fill-rule:nonzero;"/><path d="M639.957,406.15l-25.874,-12.662l37.862,-10.298l-11.988,22.96Z" style="fill:#2f2f2f;fill-rule:nonzero;"/><path d="M614.083,393.488l-12.592,22.877l-23.288,-14.166l35.88,-8.711Z" style="fill:#444;fill-rule:nonzero;"/><path d="M601.49,416.364l38.466,-10.214l-25.874,-12.663l-12.592,22.877Z" style="fill:#4f4f4f;fill-rule:nonzero;"/><path d="M620.099,411.423l51.24,7.427l-31.383,-12.7l-19.857,5.273Z" style="fill:#3e3e3e;fill-rule:nonzero;"/><path d="M601.49,416.364l38.466,25.482l-25.874,8.279l-12.592,-33.761Z" style="fill:#7d7d7d;fill-rule:nonzero;"/><path d="M639.957,441.846l31.382,-22.996l-69.848,-2.486l38.466,25.482Z" style="fill:#8b8b8b;fill-rule:nonzero;"/><path d="M671.339,418.85l-51.24,-7.427l-18.608,4.941l69.848,2.486Z" style="fill:#747474;fill-rule:nonzero;"/><path d="M639.957,441.846l20.527,17.179l-46.401,-8.899l25.874,-8.28Z" style="fill:#a3a3a3;fill-rule:nonzero;"/><path d="M660.484,459.025l35.534,0l-56.061,-17.179l20.527,17.179Z" style="fill:#8f8f8f;fill-rule:nonzero;"/><path d="M671.339,418.85l24.679,40.175l-56.061,-17.179l31.382,-22.996Z" style="fill:#979797;fill-rule:nonzero;"/><path d="M696.018,459.025l45.826,-36.928l-70.505,-3.247l24.679,40.175Z" style="fill:#b2b2b2;fill-rule:nonzero;"/><path d="M741.843,422.097l-57.555,-11.362l-12.95,8.116l70.505,3.246Z" style="fill:#747474;fill-rule:nonzero;"/><path d="M696.018,459.025l24.753,18.566l21.073,-55.494l-45.826,36.928Z" style="fill:#aaa;fill-rule:nonzero;"/><path d="M705.505,389.733l6.719,13.643l-26.686,-1.003l19.967,-12.64Z" style="fill:#808080;fill-rule:nonzero;"/><path d="M705.505,389.733l18.974,14.103l-12.255,-0.46l-6.719,-13.643Z" style="fill:#5b5b5b;fill-rule:nonzero;"/><path d="M720.771,477.591l40.666,-31.333l-19.594,-24.161l-21.072,55.494Z" style="fill:#868686;fill-rule:nonzero;"/><path d="M761.437,446.259l19.567,24.129l-60.233,7.203l40.666,-31.332Z" style="fill:#6e6e6e;fill-rule:nonzero;"/><path d="M781.003,470.388l-60.233,7.202l18.22,13.291l42.013,-20.493Z" style="fill:#5c5c5c;fill-rule:nonzero;"/><path d="M843.903,487.431l-45.856,7.975l-17.044,-25.019l62.9,17.044Z" style="fill:#a7a7a7;fill-rule:nonzero;"/><path d="M738.99,490.881l30.166,-2.232l11.847,-18.261l-42.013,20.493Z" style="fill:#606060;fill-rule:nonzero;"/><path d="M769.156,488.649l28.891,6.757l-17.043,-25.018l-11.848,18.261Z" style="fill:#686868;fill-rule:nonzero;"/><path d="M769.156,488.649l9.413,29.015l19.478,-22.258l-28.891,-6.757Z" style="fill:#616161;fill-rule:nonzero;"/><path d="M798.047,495.406l19.479,19.428l-38.958,2.83l19.479,-22.258Z" style="fill:#525252;fill-rule:nonzero;"/><path d="M817.526,514.834l-19.479,17.055l-19.478,-14.225l38.957,-2.83Z" style="fill:#333;fill-rule:nonzero;"/><path d="M798.047,531.889l-8.71,19.664l24.322,-4.853l-15.612,-14.811Z" style="fill:#1f1f1f;fill-rule:nonzero;"/><path d="M817.526,514.834l-3.866,31.866l-15.613,-14.811l19.479,-17.055Z" style="fill:#424242;fill-rule:nonzero;"/><path d="M817.526,514.834l22.319,7.223l-26.185,24.643l3.866,-31.866Z" style="fill:#565656;fill-rule:nonzero;"/><path d="M839.845,522.056l18.058,-4.393l0,14.225l-18.058,-9.832Z" style="fill:#979797;fill-rule:nonzero;"/><path d="M839.845,522.056l2.794,14.403l15.264,-4.571l-18.058,-9.832Z" style="fill:#444;fill-rule:nonzero;"/><path d="M857.903,531.889l-13.29,20.441l-1.975,-15.87l15.265,-4.571Z" style="fill:#4f4f4f;fill-rule:nonzero;"/><path d="M844.613,552.329l-15.947,0l13.973,-15.87l1.974,15.87Z" style="fill:#424242;fill-rule:nonzero;"/><path d="M839.845,522.056l-15.305,14.403l18.099,0l-2.794,-14.403Z" style="fill:#050505;fill-rule:nonzero;"/><path d="M824.54,536.46l4.126,15.87l13.972,-15.87l-18.098,0Z" style="fill:#1c1c1c;fill-rule:nonzero;"/><path d="M813.659,546.7l15.007,5.63l-4.126,-15.87l-10.881,10.24Z" style="fill:#5c5c5c;fill-rule:nonzero;"/><path d="M839.845,522.056l-41.798,-26.651l19.479,19.428l22.319,7.223Z" style="fill:#6d6d6d;fill-rule:nonzero;"/><path d="M839.845,522.056l4.058,-34.625l14,30.232l-18.058,4.393Z" style="fill:#b5b5b5;fill-rule:nonzero;"/><path d="M839.845,522.056l-41.798,-26.651l45.856,-7.974l-4.058,34.625Z" style="fill:#a1a1a1;fill-rule:nonzero;"/><path d="M778.569,517.664l-17.865,2.927l8.452,-31.942l9.413,29.015Z" style="fill:#464646;fill-rule:nonzero;"/><path d="M760.703,520.59l37.344,11.298l-19.479,-14.225l-17.865,2.927Z" style="fill:#0a0a0a;fill-rule:nonzero;"/><path d="M760.703,520.59l28.634,30.963l8.71,-19.665l-37.344,-11.298Z" style="fill:#020202;fill-rule:nonzero;"/><path d="M760.703,520.59l-8.97,23.804l30.984,0l-22.014,-23.804Z" style="fill:#141414;fill-rule:nonzero;"/><path d="M751.734,544.395l37.604,7.159l-6.62,-7.159l-30.984,0Z" style="fill:#1f1f1f;fill-rule:nonzero;"/><path d="M751.734,544.395l-16.215,-9.487l25.185,-14.317l-8.97,23.803Z" style="fill:#1a1a1a;fill-rule:nonzero;"/><path d="M760.703,520.59l-21.713,-29.71l30.165,-2.232l-8.452,31.942Z" style="fill:#585858;fill-rule:nonzero;"/><path d="M738.99,490.881l-10.716,19.36l32.429,10.35l-21.713,-29.71Z" style="fill:#4b4b4b;fill-rule:nonzero;"/><path d="M728.274,510.241l7.245,24.667l25.184,-14.317l-32.429,-10.351Z" style="fill:#414141;fill-rule:nonzero;"/><path d="M728.274,510.241l-14.662,34.154l21.907,-9.487l-7.245,-24.668Z" style="fill:#4f4f4f;fill-rule:nonzero;"/><path d="M735.519,534.907l3.471,14.49l12.744,-5.003l-16.215,-9.487Z" style="fill:#212121;fill-rule:nonzero;"/><path d="M738.99,549.397l50.348,2.156l-37.604,-7.158l-12.744,5.002Z" style="fill:#2e2e2e;fill-rule:nonzero;"/><path d="M738.99,549.397l-25.378,-5.002l21.907,-9.488l3.471,14.49Z" style="fill:#535353;fill-rule:nonzero;"/><path d="M789.337,551.553l13.985,23.546l10.337,-28.399l-24.322,4.853Z" style="fill:#767676;fill-rule:nonzero;"/><path d="M803.322,575.099l25.344,-22.769l-15.007,-5.63l-10.337,28.399Z" style="fill:#989898;fill-rule:nonzero;"/><path d="M857.903,531.889l70.813,14.811l-70.813,-29.036l0,14.225Z" style="fill:#bcbcbc;fill-rule:nonzero;"/><path d="M720.771,477.591l7.504,32.649l10.715,-19.36l-18.219,-13.289Z" style="fill:#727272;fill-rule:nonzero;"/><path d="M738.99,549.397l15.083,14.058l35.265,-11.902l-50.348,-2.156Z" style="fill:#4e4e4e;fill-rule:nonzero;"/><path d="M754.073,563.455l49.25,11.643l-13.985,-23.545l-35.265,11.902Z" style="fill:#7e7e7e;fill-rule:nonzero;"/><path d="M844.613,552.329l42.66,4.097l-29.37,-24.538l-13.29,20.441Z" style="fill:#adadad;fill-rule:nonzero;"/><path d="M887.273,556.426l41.443,-9.726l-70.813,-14.811l29.37,24.537Z" style="fill:#cacaca;fill-rule:nonzero;"/><path d="M803.322,575.099l44.491,7.504l-19.147,-30.273l-25.344,22.769Z" style="fill:#c3c3c3;fill-rule:nonzero;"/><path d="M847.813,582.602l-3.2,-30.273l-15.947,0l19.147,30.273Z" style="fill:#bdbdbd;fill-rule:nonzero;"/><path d="M847.813,582.602l39.46,-26.176l-42.66,-4.097l3.2,30.273Z" style="fill:#c6c6c6;fill-rule:nonzero;"/><path d="M887.273,556.426l27.296,51.792l-48.626,-37.642l21.33,-14.15Z" style="fill:#a0a0a0;fill-rule:nonzero;"/><path d="M876.729,578.925l15.416,38.607l22.424,-9.314l-37.84,-29.293Z" style="fill:#7a7a7a;fill-rule:nonzero;"/><path d="M847.813,582.602l28.916,-3.677l-10.786,-8.35l-18.13,12.027Z" style="fill:#bdbdbd;fill-rule:nonzero;"/><path d="M914.569,608.218l14.147,-61.518l-41.443,9.726l27.296,51.792Z" style="fill:#b1b1b1;fill-rule:nonzero;"/><path d="M847.813,582.602l44.331,34.93l-15.415,-38.607l-28.916,3.677Z" style="fill:#acacac;fill-rule:nonzero;"/><path d="M914.569,608.218l-5.002,21.044l-17.422,-11.729l22.424,-9.315Z" style="fill:#707070;fill-rule:nonzero;"/><path d="M909.567,629.262l-27.082,7.417l9.66,-19.147l17.422,11.73Z" style="fill:#606060;fill-rule:nonzero;"/><path d="M914.569,608.218l53.56,-3.622l-39.413,-57.896l-14.147,61.518Z" style="fill:#c0c0c0;fill-rule:nonzero;"/><path d="M968.129,604.595l10.501,-46.148l-49.914,-11.748l39.413,57.896Z" style="fill:#bdbdbd;fill-rule:nonzero;"/><path d="M968.129,604.595l-11.385,58.476l-42.175,-54.854l53.56,-3.622Z" style="fill:#adadad;fill-rule:nonzero;"/><path d="M909.567,629.262l22.142,1.248l-17.14,-22.292l-5.002,21.044Z" style="fill:#8c8c8c;fill-rule:nonzero;"/><path d="M803.322,575.099l-9.069,26.909l53.56,-19.405l-44.491,-7.504Z" style="fill:#b2b2b2;fill-rule:nonzero;"/><path d="M794.254,602.008l36.741,6.21l16.819,-25.616l-53.56,19.406Z" style="fill:#c0c0c0;fill-rule:nonzero;"/><path d="M830.995,608.218l61.149,9.315l-44.331,-34.931l-16.818,25.616Z" style="fill:#c4c4c4;fill-rule:nonzero;"/><path d="M830.995,608.218l34.003,22.292l27.146,-12.977l-61.149,-9.315Z" style="fill:#aeaeae;fill-rule:nonzero;"/><path d="M794.254,602.008l-11.536,15.525l34.808,4.657l-23.272,-20.182Z" style="fill:#313131;fill-rule:nonzero;"/><path d="M817.526,622.19l13.469,-13.972l-36.741,-6.21l23.272,20.182Z" style="fill:#6a6a6a;fill-rule:nonzero;"/><path d="M817.526,622.19l47.472,8.32l-34.003,-22.292l-13.469,13.972Z" style="fill:#505050;fill-rule:nonzero;"/><path d="M864.998,630.51l17.487,6.17l9.66,-19.147l-27.147,12.977Z" style="fill:#707070;fill-rule:nonzero;"/><path d="M882.485,636.679l-10.091,12.42l-7.396,-18.59l17.487,6.17Z" style="fill:#606060;fill-rule:nonzero;"/><path d="M864.998,630.51l-28.358,9.295l-19.114,-17.615l47.472,8.32Z" style="fill:#969696;fill-rule:nonzero;"/><path d="M817.526,622.19l-26.636,16.301l45.75,1.314l-19.114,-17.615Z" style="fill:#a5a5a5;fill-rule:nonzero;"/><path d="M782.717,617.532l8.173,20.958l26.635,-16.301l-34.808,-4.657Z" style="fill:#7a7a7a;fill-rule:nonzero;"/><path d="M782.717,617.532l-38.229,1.831l46.402,19.127l-8.173,-20.958Z" style="fill:#818181;fill-rule:nonzero;"/><path d="M790.89,638.491l-82.539,-13.972l36.138,-5.155l46.401,19.127Z" style="fill:#404040;fill-rule:nonzero;"/><path d="M708.351,624.519l23.804,-14.231l12.334,9.076l-36.138,5.154Z" style="fill:#131313;fill-rule:nonzero;"/><path d="M732.155,610.288l38.38,-10.22l-26.047,19.296l-12.333,-9.076Z" style="fill:#1f1f1f;fill-rule:nonzero;"/><path d="M770.536,600.067l12.182,17.465l-38.229,1.831l26.047,-19.296Z" style="fill:#2b2b2b;fill-rule:nonzero;"/><path d="M770.536,600.067l23.718,1.941l-11.536,15.524l-12.182,-17.465Z" style="fill:#3a3a3a;fill-rule:nonzero;"/><path d="M754.073,563.455l16.463,36.612l32.787,-24.969l-49.25,-11.643Z" style="fill:#acacac;fill-rule:nonzero;"/><path d="M803.322,575.099l-9.069,26.909l-23.718,-1.94l32.787,-24.969Z" style="fill:#bbb;fill-rule:nonzero;"/><path d="M713.612,544.395l40.461,19.061l-15.083,-14.059l-25.378,-5.003Z" style="fill:#626262;fill-rule:nonzero;"/><path d="M754.073,563.455l-21.917,46.832l38.38,-10.22l-16.463,-36.612Z" style="fill:#969696;fill-rule:nonzero;"/><path d="M713.612,544.395l-26.995,34.53l67.456,-15.47l-40.461,-19.06Z" style="fill:#757575;fill-rule:nonzero;"/><path d="M732.155,610.288l-15.76,-38.192l37.677,-8.64l-21.917,46.832Z" style="fill:#898989;fill-rule:nonzero;"/><path d="M686.617,578.925l-24.063,33.174l69.602,-1.812l-45.539,-31.362Z" style="fill:#626262;fill-rule:nonzero;"/><path d="M686.617,578.925l29.779,-6.829l15.76,38.191l-45.539,-31.362Z" style="fill:#6a6a6a;fill-rule:nonzero;"/><path d="M708.351,624.519l-45.797,-12.42l69.601,-1.812l-23.804,14.231Z" style="fill:#393939;fill-rule:nonzero;"/><path d="M708.351,624.519l-30.014,12.16l-15.783,-24.58l45.797,12.42Z" style="fill:#515151;fill-rule:nonzero;"/><path d="M678.337,636.679l26.392,3.125l3.622,-15.286l-30.014,12.161Z" style="fill:#747474;fill-rule:nonzero;"/><path d="M704.729,639.804l59.941,24.819l26.22,-26.133l-86.161,1.314Z" style="fill:#848484;fill-rule:nonzero;"/><path d="M704.729,639.804l3.622,-15.286l82.539,13.972l-86.161,1.314Z" style="fill:#696969;fill-rule:nonzero;"/><path d="M790.89,638.491l37.776,16.818l-63.996,9.315l26.22,-26.133Z" style="fill:#6f6f6f;fill-rule:nonzero;"/><path d="M764.67,664.624l38.653,9.573l25.344,-18.888l-63.997,9.315Z" style="fill:#8d8d8d;fill-rule:nonzero;"/><path d="M828.666,655.309l7.973,-15.504l-45.749,-1.314l37.776,16.818Z" style="fill:#b5b5b5;fill-rule:nonzero;"/><path d="M872.394,649.099l-35.754,-9.295l28.358,-9.294l7.396,18.589Z" style="fill:#b5b5b5;fill-rule:nonzero;"/><path d="M872.394,649.099l-43.727,6.21l7.973,-15.505l35.754,9.295Z" style="fill:#adadad;fill-rule:nonzero;"/><path d="M872.394,649.099l14.879,36.741l-58.606,-30.531l43.727,-6.21Z" style="fill:#c3c3c3;fill-rule:nonzero;"/><path d="M872.394,649.099l38.568,11.385l-28.477,-23.805l-10.091,12.42Z" style="fill:#878787;fill-rule:nonzero;"/><path d="M910.962,660.484l-1.395,-31.222l-27.082,7.418l28.477,23.804Z" style="fill:#7c7c7c;fill-rule:nonzero;"/><path d="M909.567,629.262l47.177,33.809l-25.035,-32.561l-22.142,-1.248Z" style="fill:#969696;fill-rule:nonzero;"/><path d="M910.962,660.484l45.782,2.587l-47.177,-33.809l1.395,31.222Z" style="fill:#9a9a9a;fill-rule:nonzero;"/><path d="M910.962,660.484l-23.689,25.357l-14.879,-36.742l38.568,11.385Z" style="fill:#939393;fill-rule:nonzero;"/><path d="M956.744,663.071l-15.395,42.089l-30.387,-44.676l45.782,2.587Z" style="fill:#acacac;fill-rule:nonzero;"/><path d="M887.273,685.841l54.076,19.318l-30.387,-44.675l-23.689,25.356Z" style="fill:#a1a1a1;fill-rule:nonzero;"/><path d="M887.273,685.841l6.424,32.083l47.652,-12.764l-54.076,-19.319Z" style="fill:#989898;fill-rule:nonzero;"/><path d="M941.349,705.16l-45.409,56.751l-2.243,-43.986l47.652,-12.765Z" style="fill:#7d7d7d;fill-rule:nonzero;"/><path d="M887.273,685.841l-6.082,36.482l12.506,-4.399l-6.424,-32.083Z" style="fill:#959595;fill-rule:nonzero;"/><path d="M881.191,722.323l14.748,39.588l-2.242,-43.987l-12.506,4.399Z" style="fill:#6e6e6e;fill-rule:nonzero;"/><path d="M881.191,722.323l-20.958,35.189l35.706,4.399l-14.748,-39.588Z" style="fill:#565656;fill-rule:nonzero;"/><path d="M660.484,459.025l-2.044,36.381l37.578,-36.381l-35.534,0Z" style="fill:#c0c0c0;fill-rule:nonzero;"/><path d="M658.439,495.406l62.332,-17.815l-24.754,-18.566l-37.578,36.381Z" style="fill:#b2b2b2;fill-rule:nonzero;"/><path d="M728.274,510.241l-38.294,-23.85l30.79,-8.8l7.504,32.65Z" style="fill:#9a9a9a;fill-rule:nonzero;"/><path d="M689.98,486.391l23.632,58.004l14.662,-34.154l-38.294,-23.85Z" style="fill:#a2a2a2;fill-rule:nonzero;"/><path d="M658.439,495.406l55.173,48.989l-23.632,-58.004l-31.541,9.015Z" style="fill:#c0c0c0;fill-rule:nonzero;"/><path d="M803.322,674.197l83.951,11.643l-58.607,-30.531l-25.344,18.888Z" style="fill:#adadad;fill-rule:nonzero;"/><path d="M803.322,674.197l-56.677,3.364l18.024,-12.937l38.653,9.573Z" style="fill:#a4a4a4;fill-rule:nonzero;"/><path d="M704.729,639.804l41.916,37.756l18.025,-12.937l-59.941,-24.819Z" style="fill:#9b9b9b;fill-rule:nonzero;"/><path d="M678.337,636.679l-11.126,37.518l-4.657,-62.099l15.783,24.581Z" style="fill:#8f8f8f;fill-rule:nonzero;"/><path d="M667.211,674.197l37.518,-34.393l-26.392,-3.125l-11.126,37.518Z" style="fill:#878787;fill-rule:nonzero;"/><path d="M667.211,674.197l79.434,3.364l-41.916,-37.757l-37.518,34.393Z" style="fill:#8d8d8d;fill-rule:nonzero;"/><path d="M667.211,674.197l43.469,38.811l-43.469,-2.587l0,-36.224Z" style="fill:#616161;fill-rule:nonzero;"/><path d="M710.68,713.009l11.126,31.567l-54.595,-34.154l43.469,2.587Z" style="fill:#505050;fill-rule:nonzero;"/><path d="M710.68,713.009l35.965,-35.448l-79.434,-3.363l43.469,38.811Z" style="fill:#979797;fill-rule:nonzero;"/><path d="M746.645,677.561l38.553,35.448l18.124,-38.812l-56.677,3.364Z" style="fill:#c1c1c1;fill-rule:nonzero;"/><path d="M887.273,685.841l-34.285,28.462l-49.666,-40.106l83.951,11.644Z" style="fill:#c6c6c6;fill-rule:nonzero;"/><path d="M852.988,714.302l28.203,8.021l6.082,-36.483l-34.285,28.462Z" style="fill:#b0b0b0;fill-rule:nonzero;"/><path d="M852.988,714.302l7.245,43.21l20.958,-35.189l-28.203,-8.021Z" style="fill:#b5b5b5;fill-rule:nonzero;"/><path d="M860.233,757.512l-36.741,0l29.496,-43.21l7.245,43.21Z" style="fill:#b0b0b0;fill-rule:nonzero;"/><path d="M746.645,677.561l-35.965,35.448l74.518,0l-38.553,-35.448Z" style="fill:#a4a4a4;fill-rule:nonzero;"/><path d="M721.806,744.575l37,-31.567l-48.126,0l11.126,31.567Z" style="fill:#7a7a7a;fill-rule:nonzero;"/><path d="M721.806,744.575l54.595,12.937l-17.595,-44.504l-37,31.567Z" style="fill:#7f7f7f;fill-rule:nonzero;"/><path d="M776.4,757.512l47.091,0l13.148,-19.261l-60.239,19.261Z" style="fill:#8a8a8a;fill-rule:nonzero;"/><path d="M785.198,713.009l-8.797,44.504l-17.595,-44.504l26.392,0Z" style="fill:#989898;fill-rule:nonzero;"/><path d="M785.198,713.009l51.442,25.243l-60.239,19.261l8.797,-44.504Z" style="fill:#a2a2a2;fill-rule:nonzero;"/><path d="M803.322,674.197l33.317,64.054l-51.442,-25.243l18.125,-38.811Z" style="fill:#cdcdcd;fill-rule:nonzero;"/><path d="M803.322,674.197l49.666,40.105l-16.349,23.949l-33.317,-64.054Z" style="fill:#d4d4d4;fill-rule:nonzero;"/><path d="M658.439,495.406l28.177,83.519l26.996,-34.53l-55.173,-48.989Z" style="fill:#8f8f8f;fill-rule:nonzero;"/><path d="M686.617,578.925l-46.66,-22.262l22.597,55.436l24.063,-33.174Z" style="fill:#878787;fill-rule:nonzero;"/><path d="M639.957,556.663l18.482,-61.257l28.178,83.519l-46.66,-22.262Z" style="fill:#a5a5a5;fill-rule:nonzero;"/><path d="M614.083,450.126l44.356,45.28l2.044,-36.381l-46.4,-8.899Z" style="fill:#b0b0b0;fill-rule:nonzero;"/><path d="M662.554,612.099l-32.589,10.091l37.246,52.007l-4.657,-62.098Z" style="fill:#b0b0b0;fill-rule:nonzero;"/><path d="M629.965,622.19l-7.258,36.493l44.504,15.514l-37.246,-52.007Z" style="fill:#909090;fill-rule:nonzero;"/><path d="M667.211,674.197l-29.928,36.224l29.928,0l0,-36.224Z" style="fill:#707070;fill-rule:nonzero;"/><path d="M637.283,710.421l-14.576,-51.738l44.504,15.514l-29.928,36.224Z" style="fill:#838383;fill-rule:nonzero;"/><path d="M637.283,710.421l22.683,29.497l7.245,-29.497l-29.928,0Z" style="fill:#272727;fill-rule:nonzero;"/><path d="M659.966,739.918l61.839,4.657l-54.594,-34.154l-7.245,29.497Z" style="fill:#1b1b1b;fill-rule:nonzero;"/><path d="M659.966,739.918l50.714,25.616l11.125,-20.959l-61.839,-4.657Z" style="fill:#0c0c0c;fill-rule:nonzero;"/><path d="M710.68,765.533l65.721,-8.021l-54.595,-12.937l-11.126,20.958Z" style="fill:#181818;fill-rule:nonzero;"/><path d="M710.68,765.533l83.574,9.315l-17.853,-17.336l-65.721,8.021Z" style="fill:#222;fill-rule:nonzero;"/><path d="M794.254,774.848l29.238,-17.336l-47.091,0l17.853,17.336Z" style="fill:#2e2e2e;fill-rule:nonzero;"/><path d="M794.254,774.848l65.979,-17.336l-36.741,0l-29.238,17.336Z" style="fill:#3d3d3d;fill-rule:nonzero;"/><path d="M895.939,761.911l-23.546,27.082l-12.159,-31.481l35.706,4.399Z" style="fill:#646464;fill-rule:nonzero;"/><path d="M860.233,757.512l-21.476,70.378l33.637,-38.898l-12.161,-31.48Z" style="fill:#5b5b5b;fill-rule:nonzero;"/><path d="M659.966,739.918l-43.469,7.964l20.786,-37.461l22.683,29.497Z" style="fill:#1b1b1b;fill-rule:nonzero;"/><path d="M616.497,747.882l-38.294,-37.461l59.08,0l-20.786,37.461Z" style="fill:#282828;fill-rule:nonzero;"/><path d="M622.707,658.683l-44.504,51.738l59.08,0l-14.576,-51.738Z" style="fill:#4e4e4e;fill-rule:nonzero;"/><path d="M605.189,349.661l-26.985,52.538l35.879,-8.711l-8.894,-43.827Z" style="fill:#515151;fill-rule:nonzero;"/><path d="M596.971,339.313l-18.768,62.886l26.986,-52.538l-8.218,-10.348Z" style="fill:#434343;fill-rule:nonzero;"/><path d="M596.971,339.313l-29.117,-21.404l40.378,-37.843l-11.261,59.247Z" style="fill:#676767;fill-rule:nonzero;"/><path d="M596.971,339.313l-32.74,24.348l13.972,38.538l18.768,-62.886Z" style="fill:#3a3a3a;fill-rule:nonzero;"/><path d="M567.854,317.908l-3.622,45.753l32.739,-24.349l-29.117,-21.404Z" style="fill:#4c4c4c;fill-rule:nonzero;"/><path d="M567.854,317.908l-44.245,67.26l40.623,-21.507l3.622,-45.753Z" style="fill:#515151;fill-rule:nonzero;"/><path d="M564.231,363.661l-22.252,55.189l-18.371,-33.681l40.623,-21.508Z" style="fill:#4a4a4a;fill-rule:nonzero;"/><path d="M541.98,418.85l36.224,-16.651l-13.972,-38.538l-22.252,55.189Z" style="fill:#4e4e4e;fill-rule:nonzero;"/><path d="M629.965,622.19l9.992,-65.527l22.597,55.436l-32.589,10.091Z" style="fill:#949494;fill-rule:nonzero;"/><path d="M622.707,658.683l-51.49,4.389l6.986,47.349l44.504,-51.738Z" style="fill:#3e3e3e;fill-rule:nonzero;"/><path d="M571.218,663.071l-56.148,33.378l63.134,13.972l-6.986,-47.35Z" style="fill:#1d1d1d;fill-rule:nonzero;"/><path d="M510.93,648.193l4.14,48.256l56.147,-33.378l-60.287,-14.878Z" style="fill:#121212;fill-rule:nonzero;"/><path d="M500.063,663.071l15.007,33.378l-4.14,-48.256l-10.867,14.878Z" style="fill:#050505;fill-rule:nonzero;"/><path d="M639.957,556.663l-51.914,-53.507l70.396,-7.75l-18.482,61.257Z" style="fill:#929292;fill-rule:nonzero;"/><path d="M614.083,450.126l-26.039,53.03l70.395,-7.75l-44.356,-45.28Z" style="fill:#9f9f9f;fill-rule:nonzero;"/><path d="M614.083,450.126l-33.481,-17.853l20.889,-15.908l12.591,33.761Z" style="fill:#838383;fill-rule:nonzero;"/><path d="M541.98,418.85l59.511,-2.486l-23.287,-14.165l-36.224,16.651Z" style="fill:#585858;fill-rule:nonzero;"/><path d="M541.98,418.85l38.622,13.422l20.889,-15.908l-59.511,2.486Z" style="fill:#7d7d7d;fill-rule:nonzero;"/><path d="M580.601,432.273l-27.927,19.042l61.408,-1.189l-33.481,-17.853Z" style="fill:#898989;fill-rule:nonzero;"/><path d="M552.674,451.315l35.369,51.841l26.039,-53.03l-61.408,1.189Z" style="fill:#757575;fill-rule:nonzero;"/><path d="M552.674,451.315l0,54.421l35.369,-2.58l-35.369,-51.841Z" style="fill:#424242;fill-rule:nonzero;"/><path d="M552.674,505.735l19.061,20.299l16.308,-22.878l-35.369,2.579Z" style="fill:#393939;fill-rule:nonzero;"/><path d="M571.735,526.035l68.222,30.629l-51.914,-53.507l-16.308,22.878Z" style="fill:#5c5c5c;fill-rule:nonzero;"/><path d="M552.674,451.315l-10.695,-32.464l38.622,13.422l-27.927,19.042Z" style="fill:#656565;fill-rule:nonzero;"/><path d="M541.98,418.85l-37.259,23.537l47.954,8.927l-10.695,-32.464Z" style="fill:#393939;fill-rule:nonzero;"/><path d="M523.609,385.169l-18.888,57.218l37.259,-23.536l-18.371,-33.682Z" style="fill:#4c4c4c;fill-rule:nonzero;"/><path d="M504.721,442.387l-10.35,72.208l58.304,-63.28l-47.954,-8.928Z" style="fill:#2f2f2f;fill-rule:nonzero;"/><path d="M494.371,514.595l58.303,-8.86l0,-54.421l-58.303,63.281Z" style="fill:#333;fill-rule:nonzero;"/><path d="M571.735,526.035l-25.098,26.295l6.037,-46.594l19.061,20.299Z" style="fill:#3c3c3c;fill-rule:nonzero;"/><path d="M546.637,552.329l-52.266,-37.734l58.303,-8.86l-6.037,46.594Z" style="fill:#2c2c2c;fill-rule:nonzero;"/><path d="M629.965,622.19l-35.873,-86.118l45.865,20.591l-9.992,65.527Z" style="fill:#727272;fill-rule:nonzero;"/><path d="M546.637,552.329l31.567,26.596l15.888,-42.854l-47.455,16.258Z" style="fill:#4b4b4b;fill-rule:nonzero;"/><path d="M546.637,552.329l25.098,-26.295l22.357,10.037l-47.455,16.258Z" style="fill:#404040;fill-rule:nonzero;"/><path d="M578.204,578.925l42.546,21.142l-26.658,-63.996l-15.888,42.854Z" style="fill:#565656;fill-rule:nonzero;"/><path d="M620.75,600.067l-49.533,63.004l51.49,-4.389l-1.957,-58.615Z" style="fill:#747474;fill-rule:nonzero;"/><path d="M620.75,600.067l9.215,22.122l-7.258,36.493l-1.957,-58.615Z" style="fill:#7f7f7f;fill-rule:nonzero;"/><path d="M578.204,578.925l-20.699,43.265l63.245,-22.123l-42.546,-21.142Z" style="fill:#4a4a4a;fill-rule:nonzero;"/><path d="M557.504,622.19l13.713,40.881l49.532,-63.003l-63.245,22.122Z" style="fill:#525252;fill-rule:nonzero;"/><path d="M557.504,622.19l-46.574,26.004l60.287,14.877l-13.713,-40.881Z" style="fill:#2c2c2c;fill-rule:nonzero;"/><path d="M494.371,514.595l-7.504,47.065l59.77,-9.331l-52.266,-37.734Z" style="fill:#282828;fill-rule:nonzero;"/><path d="M546.637,552.329l-20.699,37.097l52.266,-10.501l-31.567,-26.596Z" style="fill:#353535;fill-rule:nonzero;"/><path d="M525.938,589.426l31.567,32.763l20.699,-43.264l-52.266,10.501Z" style="fill:#404040;fill-rule:nonzero;"/><path d="M525.938,589.426l-15.007,58.767l46.574,-26.004l-31.567,-32.763Z" style="fill:#242424;fill-rule:nonzero;"/><path d="M525.938,589.426l-39.07,-27.767l59.769,-9.33l-20.699,37.097Z" style="fill:#2a2a2a;fill-rule:nonzero;"/><path d="M486.867,561.66l24.063,86.534l15.007,-58.767l-39.07,-27.767Z" style="fill:#262626;fill-rule:nonzero;"/><path d="M486.867,561.66l0,45.178l24.063,41.356l-24.063,-86.534Z" style="fill:#202020;fill-rule:nonzero;"/><path d="M486.867,606.838l13.196,56.233l10.867,-14.877l-24.063,-41.356Z" style="fill:#111;fill-rule:nonzero;"/><path d="M619.493,210.673l-51.64,107.235l40.379,-37.843l11.261,-69.392Z" style="fill:#7b7b7b;fill-rule:nonzero;"/><path d="M667.013,158.223l-46.289,10.957l-1.23,41.493l47.519,-52.45Z" style="fill:#505050;fill-rule:nonzero;"/><path d="M620.724,169.18l-52.87,148.729l51.64,-107.236l1.23,-41.493Z" style="fill:#6e6e6e;fill-rule:nonzero;"/><path d="M620.724,169.18l41.313,-52.573l-62.444,43.124l21.131,9.449Z" style="fill:#b3b3b3;fill-rule:nonzero;"/><path d="M599.593,159.731l31.222,-65.893l31.221,22.769l-62.443,43.124Z" style="fill:#a0a0a0;fill-rule:nonzero;"/><path d="M662.036,116.607l32.602,-24.149l-22.942,-3.278l-9.66,27.427Z" style="fill:#9f9f9f;fill-rule:nonzero;"/><path d="M630.815,93.837l40.881,-4.657l-9.659,27.426l-31.222,-22.769Z" style="fill:#bababa;fill-rule:nonzero;"/><path d="M662.036,116.607l4.976,41.616l-46.289,10.957l41.313,-52.573Z" style="fill:#4d4d4d;fill-rule:nonzero;"/><path d="M718.712,153.962l-56.676,-37.355l4.976,41.616l51.7,-4.261Z" style="fill:#3e3e3e;fill-rule:nonzero;"/><path d="M771.061,149.701l35.102,-10.325l35.508,16.716l-70.61,-6.391Z" style="fill:#8f8f8f;fill-rule:nonzero;"/><path d="M771.061,149.701l35.102,8.522l35.508,-2.131l-70.61,-6.391Z" style="fill:#9a9a9a;fill-rule:nonzero;"/><path d="M771.061,149.701l-19.5,-46.808l-13.748,49.514l33.248,-2.706Z" style="fill:#353535;fill-rule:nonzero;"/><path d="M751.561,102.893l-20.958,-13.713l7.21,63.227l13.748,-49.514Z" style="fill:#2a2a2a;fill-rule:nonzero;"/><path d="M662.036,116.607l38.294,-10.35l18.382,47.705l-56.676,-37.355Z" style="fill:#4c4c4c;fill-rule:nonzero;"/><path d="M718.712,153.962l11.891,-64.782l7.21,63.227l-19.101,1.555Z" style="fill:#313131;fill-rule:nonzero;"/><path d="M700.33,106.257l30.273,-17.077l-11.891,64.782l-18.382,-47.705Z" style="fill:#363636;fill-rule:nonzero;"/><path d="M694.638,92.457l5.692,13.8l-38.294,10.349l32.602,-24.149Z" style="fill:#525252;fill-rule:nonzero;"/><path d="M694.638,92.457l35.965,-3.277l-30.273,17.077l-5.692,-13.8Z" style="fill:#4c4c4c;fill-rule:nonzero;"/><path d="M630.815,93.837l44.935,-36.741l-4.054,32.084l-40.881,4.657Z" style="fill:#afafaf;fill-rule:nonzero;"/><path d="M675.75,57.096l60.804,-10.867l-64.858,42.951l4.054,-32.084Z" style="fill:#bababa;fill-rule:nonzero;"/><path d="M730.603,89.18l-58.907,0l22.942,3.277l35.965,-3.277Z" style="fill:#a4a4a4;fill-rule:nonzero;"/><path d="M730.603,89.18l5.951,-42.951l-64.858,42.951l58.907,0Z" style="fill:#a0a0a0;fill-rule:nonzero;"/><path d="M730.603,89.18l33.378,-6.986l-12.42,20.699l-20.958,-13.713Z" style="fill:#565656;fill-rule:nonzero;"/><path d="M763.981,82.194l30.532,38.6l-42.952,-17.901l12.42,-20.699Z" style="fill:#3c3c3c;fill-rule:nonzero;"/><path d="M794.512,120.794l-23.451,28.907l-19.5,-46.807l42.951,17.9Z" style="fill:#2c2c2c;fill-rule:nonzero;"/><path d="M794.512,120.794l11.651,18.582l-35.102,10.325l23.451,-28.907Z" style="fill:#4a4a4a;fill-rule:nonzero;"/><path d="M806.163,139.376l16.334,-56.406l-27.985,37.824l11.651,18.582Z" style="fill:#6c6c6c;fill-rule:nonzero;"/><path d="M822.497,82.97l-58.516,-0.776l30.532,38.599l27.984,-37.823Z" style="fill:#7d7d7d;fill-rule:nonzero;"/><path d="M822.497,82.97l-30.572,-40.105l-27.944,39.329l58.516,0.776Z" style="fill:#969696;fill-rule:nonzero;"/><path d="M736.554,46.229l27.427,35.965l-33.378,6.986l5.951,-42.951Z" style="fill:#888;fill-rule:nonzero;"/><path d="M736.554,46.229l55.371,-3.364l-27.944,39.329l-27.427,-35.965Z" style="fill:#919191;fill-rule:nonzero;"/><path d="M822.497,82.97l40.631,29.842l-56.965,26.564l16.334,-56.406Z" style="fill:#787878;fill-rule:nonzero;"/><path d="M863.128,112.812l-21.457,43.281l-35.508,-16.717l56.965,-26.564Z" style="fill:#606060;fill-rule:nonzero;"/><path d="M841.671,156.092l62.088,-28.442l-40.631,-14.839l-21.457,43.281Z" style="fill:#686868;fill-rule:nonzero;"/><path d="M841.671,156.092l64.618,17.093l-33.574,9.081l-31.044,-26.174Z" style="fill:#6d6d6d;fill-rule:nonzero;"/><path d="M906.289,173.185l9.441,48.445l-43.015,-39.363l33.574,-9.082Z" style="fill:#6a6a6a;fill-rule:nonzero;"/><path d="M906.289,173.185l-2.53,-45.535l-62.088,28.442l64.618,17.093Z" style="fill:#7c7c7c;fill-rule:nonzero;"/><path d="M906.289,173.185l51.059,64.168l-41.618,-15.723l-9.441,-48.445Z" style="fill:#797979;fill-rule:nonzero;"/><path d="M957.348,237.353l-8.342,51.64l-33.276,-67.364l41.618,15.724Z" style="fill:#676767;fill-rule:nonzero;"/><path d="M903.759,127.65l85.328,66.924l-82.798,-21.389l-2.53,-45.535Z" style="fill:#bcbcbc;fill-rule:nonzero;"/><path d="M989.087,194.575l-31.739,42.779l-51.059,-64.168l82.798,21.389Z" style="fill:#c2c2c2;fill-rule:nonzero;"/><path d="M957.348,237.353l28.891,63.104l-37.233,-11.464l8.342,-51.64Z" style="fill:#7e7e7e;fill-rule:nonzero;"/><path d="M986.239,300.457l-15.725,52.247l-21.507,-63.711l37.232,11.464Z" style="fill:#878787;fill-rule:nonzero;"/><path d="M863.128,112.812l-15.315,-39.674l-25.316,9.832l40.631,29.842Z" style="fill:#818181;fill-rule:nonzero;"/><path d="M847.813,73.138l-55.888,-30.273l30.571,40.105l25.317,-9.832Z" style="fill:#5a5a5a;fill-rule:nonzero;"/><path d="M847.813,73.138l80.21,4.657l-64.895,35.017l-15.315,-39.674Z" style="fill:#8a8a8a;fill-rule:nonzero;"/><path d="M928.024,77.795l57.441,28.462l-122.337,6.554l64.896,-35.016Z" style="fill:#878787;fill-rule:nonzero;"/><path d="M903.759,127.65l81.706,-21.393l-122.337,6.554l40.631,14.839Z" style="fill:#8e8e8e;fill-rule:nonzero;"/><path d="M985.464,106.257l3.622,88.318l-85.328,-66.925l81.706,-21.393Z" style="fill:#ababab;fill-rule:nonzero;"/><path d="M985.464,106.257l54.336,79.966l-50.714,8.352l-3.622,-88.318Z" style="fill:#989898;fill-rule:nonzero;"/><path d="M989.087,194.575l-2.848,105.883l-28.891,-63.104l31.739,-42.779Z" style="fill:#cacaca;fill-rule:nonzero;"/><path d="M989.087,194.575l46.056,60.737l-48.904,45.146l2.848,-105.883Z" style="fill:#c4c4c4;fill-rule:nonzero;"/><path d="M1039.8,186.223l-4.657,69.088l-46.057,-60.737l50.714,-8.351Z" style="fill:#acacac;fill-rule:nonzero;"/><path d="M1039.8,186.223l17.077,103.023l-21.734,-33.935l4.657,-69.088Z" style="fill:#9c9c9c;fill-rule:nonzero;"/><path d="M1035.14,255.311l19.147,108.35l2.587,-74.415l-21.734,-33.935Z" style="fill:#707070;fill-rule:nonzero;"/><path d="M986.239,300.457l68.051,63.204l-19.147,-108.35l-48.904,45.146Z" style="fill:#adadad;fill-rule:nonzero;"/><path d="M986.239,300.457l24.452,83.291l-40.177,-31.044l15.725,-52.247Z" style="fill:#8e8e8e;fill-rule:nonzero;"/><path d="M1010.69,383.748l43.599,-20.087l-68.051,-63.204l24.452,83.291Z" style="fill:#a1a1a1;fill-rule:nonzero;"/><path d="M975.586,372.386l35.105,11.362l-40.178,-31.044l5.073,19.682Z" style="fill:#757575;fill-rule:nonzero;"/><path d="M1010.69,383.748l-24.452,58.639l-10.653,-70.001l35.105,11.362Z" style="fill:#8c8c8c;fill-rule:nonzero;"/><path d="M1010.69,383.748l31.87,67.566l11.729,-87.653l-43.599,20.087Z" style="fill:#8b8b8b;fill-rule:nonzero;"/><path d="M1042.56,451.315l-56.322,-8.928l24.452,-58.638l31.87,67.566Z" style="fill:#878787;fill-rule:nonzero;"/><path d="M1042.56,451.315l3.45,47.196l-59.772,-56.124l56.322,8.928Z" style="fill:#686868;fill-rule:nonzero;"/><path d="M1000.54,492.402l45.467,6.108l-59.772,-56.123l14.305,50.015Z" style="fill:#656565;fill-rule:nonzero;"/><path d="M1046.01,498.511l-11.73,88.361l-33.737,-94.469l45.467,6.108Z" style="fill:#616161;fill-rule:nonzero;"/><path d="M978.63,558.447l55.651,28.424l-33.738,-94.469l-21.913,66.045Z" style="fill:#8d8d8d;fill-rule:nonzero;"/><path d="M978.63,558.447l-10.501,46.148l50.594,-25.67l-40.093,-20.478Z" style="fill:#808080;fill-rule:nonzero;"/><path d="M1034.28,586.871l-15.557,61.322l0,-69.268l15.557,7.946Z" style="fill:#6e6e6e;fill-rule:nonzero;"/><path d="M968.129,604.595l23.028,38.553l-34.413,19.923l11.385,-58.476Z" style="fill:#4b4b4b;fill-rule:nonzero;"/><path d="M991.157,643.148l27.566,-64.223l-50.594,25.67l23.028,38.553Z" style="fill:#757575;fill-rule:nonzero;"/><path d="M991.157,643.148l27.566,5.045l0,-69.268l-27.566,64.223Z" style="fill:#7c7c7c;fill-rule:nonzero;"/><path d="M1018.72,648.193l-25.297,50.067l-2.269,-55.112l27.566,5.045Z" style="fill:#757575;fill-rule:nonzero;"/><path d="M991.157,643.148l-23.028,51.102l-11.385,-31.179l34.413,-19.923Z" style="fill:#414141;fill-rule:nonzero;"/><path d="M968.129,694.25l-26.78,10.91l15.395,-42.088l11.385,31.178Z" style="fill:#363636;fill-rule:nonzero;"/><path d="M968.129,694.25l-11.385,33.248l-15.395,-22.338l26.78,-10.91Z" style="fill:#474747;fill-rule:nonzero;"/><path d="M956.744,727.498l-60.805,34.413l45.41,-56.751l15.395,22.338Z" style="fill:#575757;fill-rule:nonzero;"/><path d="M968.129,694.25l25.297,4.011l-2.269,-55.113l-23.028,51.102Z" style="fill:#8c8c8c;fill-rule:nonzero;"/><path d="M993.426,698.26l-36.682,29.238l11.385,-33.249l25.297,4.011Z" style="fill:#848484;fill-rule:nonzero;"/><path d="M993.426,698.26l-21.086,41.658l-15.596,-12.42l36.682,-29.238Z" style="fill:#474747;fill-rule:nonzero;"/><path d="M972.34,739.918l-35.346,34.93l19.75,-47.35l15.596,12.42Z" style="fill:#2c2c2c;fill-rule:nonzero;"/><path d="M895.939,761.911l41.054,12.937l19.751,-47.35l-60.804,34.413Z" style="fill:#5c5c5c;fill-rule:nonzero;"/><path d="M895.939,761.911l0.784,37.086l-24.33,-10.004l23.547,-27.082Z" style="fill:#454545;fill-rule:nonzero;"/><path d="M896.723,798.997l-31.726,36.224l7.396,-46.229l24.33,10.005Z" style="fill:#363636;fill-rule:nonzero;"/><path d="M838.757,827.89l26.241,7.331l7.396,-46.229l-33.637,38.898Z" style="fill:#434343;fill-rule:nonzero;"/><path d="M838.757,827.89l0,29.065l26.241,-21.734l-26.241,-7.331Z" style="fill:#2d2d2d;fill-rule:nonzero;"/><path d="M896.723,798.997l40.27,-24.149l-41.054,-12.937l0.784,37.086Z" style="fill:#5a5a5a;fill-rule:nonzero;"/><path d="M928.024,77.795l-40.105,-14.878l-40.105,10.221l80.21,4.657Z" style="fill:#2e2e2e;fill-rule:nonzero;"/><path d="M985.464,106.257l-7.072,-10.953l-50.369,-17.509l57.441,28.462Z" style="fill:#565656;fill-rule:nonzero;"/><path d="M985.464,106.257l43.986,49.835l10.35,30.131l-54.336,-79.966Z" style="fill:#515151;fill-rule:nonzero;"/><path d="M847.813,73.138l-20.182,-46.832l-35.706,16.559l55.888,30.273Z" style="fill:#272727;fill-rule:nonzero;"/><path d="M791.925,42.865l-68.136,-39.76l12.765,43.124l55.371,-3.364Z" style="fill:#868686;fill-rule:nonzero;"/><path d="M827.632,26.306l-103.843,-23.201l68.136,39.76l35.706,-16.559Z" style="fill:#545454;fill-rule:nonzero;"/><path d="M723.789,3.105l-48.04,53.991l60.805,-10.867l-12.765,-43.124Z" style="fill:#818181;fill-rule:nonzero;"/><path d="M723.789,3.105l-79.921,-3.105l18.168,30.1l61.753,-26.995Z" style="fill:#7c7c7c;fill-rule:nonzero;"/><path d="M662.036,30.1l13.713,26.995l48.04,-53.99l-61.753,26.995Z" style="fill:#8c8c8c;fill-rule:nonzero;"/><path d="M662.036,30.1l-49.334,40.256l63.047,-13.261l-13.713,-26.995Z" style="fill:#6f6f6f;fill-rule:nonzero;"/><path d="M612.703,70.356l18.112,23.481l44.935,-36.742l-63.047,13.261Z" style="fill:#616161;fill-rule:nonzero;"/><path d="M612.703,70.356l-41.399,57.294l59.511,-33.813l-18.112,-23.481Z" style="fill:#656565;fill-rule:nonzero;"/><path d="M571.304,127.65l16.739,26.312l42.772,-60.125l-59.511,33.813Z" style="fill:#3e3e3e;fill-rule:nonzero;"/><path d="M588.043,153.962l11.55,5.769l31.222,-65.894l-42.772,60.125Z" style="fill:#828282;fill-rule:nonzero;"/><path d="M567.854,317.908l3.881,-80.555l34.239,-26.68l-38.12,107.235Z" style="fill:#747474;fill-rule:nonzero;"/><path d="M599.593,159.731l6.381,50.942l14.75,-41.494l-21.131,-9.448Z" style="fill:#8d8d8d;fill-rule:nonzero;"/><path d="M599.593,159.731l-27.858,77.623l34.239,-26.68l-6.381,-50.943Z" style="fill:#838383;fill-rule:nonzero;"/><path d="M588.043,153.962l-16.308,83.391l27.858,-77.622l-11.55,-5.769Z" style="fill:#737373;fill-rule:nonzero;"/><path d="M588.043,153.962l-52.963,77.182l36.655,6.209l16.308,-83.391Z" style="fill:#656565;fill-rule:nonzero;"/><path d="M571.735,237.353l-29.755,58.993l-6.9,-65.203l36.655,6.21Z" style="fill:#6d6d6d;fill-rule:nonzero;"/><path d="M541.98,296.347l25.874,21.562l3.881,-80.555l-29.755,58.993Z" style="fill:#666;fill-rule:nonzero;"/><path d="M523.609,385.169l-8.193,-37.816l52.438,-29.444l-44.245,67.26Z" style="fill:#484848;fill-rule:nonzero;"/><path d="M515.415,347.353l26.564,-51.006l25.874,21.562l-52.438,29.444Z" style="fill:#5d5d5d;fill-rule:nonzero;"/><path d="M535.08,231.143l-42.434,65.203l49.334,0l-6.9,-65.203Z" style="fill:#444;fill-rule:nonzero;"/><path d="M492.646,296.347l22.769,51.006l26.565,-51.006l-49.334,0Z" style="fill:#383838;fill-rule:nonzero;"/><path d="M515.415,347.353l-22.769,43.903l30.962,-6.087l-8.193,-37.816Z" style="fill:#333;fill-rule:nonzero;"/><path d="M492.646,391.256l12.075,51.131l18.888,-57.218l-30.963,6.087Z" style="fill:#3f3f3f;fill-rule:nonzero;"/><path d="M571.304,127.65l-34.844,68.007l51.583,-41.695l-16.739,-26.312Z" style="fill:#434343;fill-rule:nonzero;"/><path d="M536.46,195.658l-1.38,35.486l52.963,-77.182l-51.583,41.696Z" style="fill:#3d3d3d;fill-rule:nonzero;"/><path d="M612.703,70.356l-68.308,69.02l26.909,-11.726l41.399,-57.294Z" style="fill:#6e6e6e;fill-rule:nonzero;"/><path d="M544.395,139.376l-7.935,56.282l34.843,-68.008l-26.909,11.726Z" style="fill:#5c5c5c;fill-rule:nonzero;"/><path d="M544.395,139.376l-53.13,33.637l45.195,22.645l7.934,-56.282Z" style="fill:#4d4d4d;fill-rule:nonzero;"/><path d="M491.266,173.013l6.986,-52.525l46.143,18.888l-53.129,33.637Z" style="fill:#424242;fill-rule:nonzero;"/><path d="M643.868,0l-72.133,17.25l90.301,12.85l-18.168,-30.1Z" style="fill:#737373;fill-rule:nonzero;"/><path d="M612.703,70.356l-46.66,-15.072l95.994,-25.184l-49.334,40.256Z" style="fill:#808080;fill-rule:nonzero;"/><path d="M571.735,17.249l-5.692,38.035l95.993,-25.184l-90.301,-12.851Z" style="fill:#545454;fill-rule:nonzero;"/><path d="M571.735,17.249l-55.888,35.448l50.196,2.587l5.692,-38.035Z" style="fill:#3f3f3f;fill-rule:nonzero;"/><path d="M566.043,55.285l-67.791,65.203l114.451,-50.131l-46.66,-15.072Z" style="fill:#484848;fill-rule:nonzero;"/><path d="M612.703,70.356l-68.308,69.02l-46.143,-18.889l114.451,-50.131Z" style="fill:#545454;fill-rule:nonzero;"/><path d="M515.847,52.697l-17.594,67.791l67.79,-65.204l-50.196,-2.587Z" style="fill:#2c2c2c;fill-rule:nonzero;"/><path d="M515.847,52.697l-97.028,112.553l79.434,-44.762l17.594,-67.791Z" style="fill:#181818;fill-rule:nonzero;"/><path d="M536.46,195.658l-91.767,81.973l90.387,-46.487l1.38,-35.486Z" style="fill:#404040;fill-rule:nonzero;"/><path d="M444.692,277.631l47.954,18.716l42.433,-65.203l-90.387,46.487Z" style="fill:#3a3a3a;fill-rule:nonzero;"/><path d="M491.266,173.013l-76.588,64.341l83.574,-116.866l-6.986,52.525Z" style="fill:#1d1d1d;fill-rule:nonzero;"/><path d="M418.818,165.25l-4.14,72.103l83.574,-116.866l-79.434,44.763Z" style="fill:#0c0c0c;fill-rule:nonzero;"/><path d="M414.678,237.353l121.782,-41.696l-45.194,-22.645l-76.588,64.341Z" style="fill:#313131;fill-rule:nonzero;"/><path d="M414.678,237.353l30.014,40.278l91.768,-81.974l-121.782,41.696Z" style="fill:#212121;fill-rule:nonzero;"/><path d="M414.678,237.353l-53.301,87.282l83.315,-47.004l-30.014,-40.278Z" style="fill:#1c1c1c;fill-rule:nonzero;"/><path d="M418.818,165.25l-43.986,69.602l39.846,2.501l4.14,-72.103Z" style="fill:#050505;fill-rule:nonzero;"/><path d="M374.832,234.852l-13.455,89.784l53.301,-87.283l-39.846,-2.501Z" style="fill:#010101;fill-rule:nonzero;"/><path d="M361.377,324.636l14.49,57.589l74,-55.086l-88.49,-2.503Z" style="fill:#1f1f1f;fill-rule:nonzero;"/><path d="M444.692,277.631l5.175,49.508l-88.49,-2.503l83.315,-47.005Z" style="fill:#1a1a1a;fill-rule:nonzero;"/><path d="M492.646,296.347l-42.779,30.792l-5.175,-49.508l47.954,18.716Z" style="fill:#2e2e2e;fill-rule:nonzero;"/><path d="M492.646,296.347l-26.909,61.581l49.678,-10.575l-22.769,-51.006Z" style="fill:#282828;fill-rule:nonzero;"/><path d="M449.867,327.139l15.87,30.789l26.909,-61.581l-42.779,30.792Z" style="fill:#191919;fill-rule:nonzero;"/><path d="M465.737,357.927l26.909,33.328l22.77,-43.902l-49.679,10.574Z" style="fill:#1b1b1b;fill-rule:nonzero;"/><path d="M465.737,357.927l-51.404,56.923l78.313,-23.595l-26.909,-33.328Z" style="fill:#1c1c1c;fill-rule:nonzero;"/><path d="M375.867,382.225l89.87,-24.298l-15.87,-30.788l-74,55.086Z" style="fill:#1b1b1b;fill-rule:nonzero;"/><path d="M375.867,382.225l38.466,32.625l51.404,-56.923l-89.87,24.298Z" style="fill:#171717;fill-rule:nonzero;"/><path d="M492.646,391.256l-36.051,57.059l48.126,-5.928l-12.075,-51.131Z" style="fill:#313131;fill-rule:nonzero;"/><path d="M456.595,448.315l37.775,66.281l10.351,-72.209l-48.127,5.928Z" style="fill:#1b1b1b;fill-rule:nonzero;"/><path d="M456.595,448.315l-42.262,48.902l80.037,17.379l-37.776,-66.281Z" style="fill:#2a2a2a;fill-rule:nonzero;"/><path d="M494.371,514.595l-26.392,27.902l18.888,19.163l7.504,-47.065Z" style="fill:#0e0e0e;fill-rule:nonzero;"/><path d="M467.979,542.497l-42.434,-1.811l68.826,-26.091l-26.392,27.902Z" style="fill:#010101;fill-rule:nonzero;"/><path d="M414.333,497.217l11.212,43.469l68.826,-26.091l-80.038,-17.378Z" style="fill:#1a1a1a;fill-rule:nonzero;"/><path d="M414.333,497.217l-16.732,55.112l27.944,-11.643l-11.212,-43.469Z" style="fill:#131313;fill-rule:nonzero;"/><path d="M425.545,540.686l28.807,35.965l13.627,-34.154l-42.434,-1.811Z" style="fill-rule:nonzero;"/><path d="M454.352,576.651l32.515,-14.991l-18.888,-19.163l-13.627,34.154Z" style="fill:#0c0c0c;fill-rule:nonzero;"/><path d="M486.867,606.838l-22.083,-34.996l22.083,-10.182l0,45.178Z" style="fill:#181818;fill-rule:nonzero;"/><path d="M425.545,540.686l-12.42,38.445l41.227,-2.48l-28.807,-35.965Z" style="fill:#010101;fill-rule:nonzero;"/><path d="M413.126,579.131l19.406,38.272l21.82,-40.752l-41.226,2.48Z" style="fill-rule:nonzero;"/><path d="M454.352,576.651l32.515,30.187l-22.083,-34.997l-10.432,4.81Z" style="fill:#020202;fill-rule:nonzero;"/><path d="M497.325,651.402l-18.996,17.102l-26.133,-9.822l45.129,-7.28Z" style="fill:#353535;fill-rule:nonzero;"/><path d="M452.196,658.683l-19.664,-41.28l19.664,-8.926l0,50.206Z" style="fill:#040404;fill-rule:nonzero;"/><path d="M452.196,608.476l2.156,-31.825l-21.82,40.752l19.664,-8.927Z" style="fill:#010101;fill-rule:nonzero;"/><path d="M452.196,608.476l34.672,-1.639l-32.516,-30.186l-2.156,31.825Z" style="fill:#111;fill-rule:nonzero;"/><path d="M486.867,606.838l-13.713,22.537l-20.959,-20.898l34.672,-1.639Z" style="fill:#191919;fill-rule:nonzero;"/><path d="M473.154,629.375l24.171,22.027l-10.458,-44.564l-13.713,22.537Z" style="fill:#212121;fill-rule:nonzero;"/><path d="M414.333,414.851l42.261,33.464l36.052,-57.059l-78.313,23.595Z" style="fill:#141414;fill-rule:nonzero;"/><path d="M375.867,382.225l-27.772,84.891l66.238,-52.266l-38.466,-32.625Z" style="fill:#1c1c1c;fill-rule:nonzero;"/><path d="M414.333,497.217l0,-82.366l42.261,33.464l-42.261,48.902Z" style="fill:#131313;fill-rule:nonzero;"/><path d="M348.095,467.117l66.238,30.1l0,-82.366l-66.238,52.266Z" style="fill:#101010;fill-rule:nonzero;"/><path d="M348.095,467.117l0,80.857l66.238,-50.757l-66.238,-30.1Z" style="fill:#060606;fill-rule:nonzero;"/><path d="M348.095,547.974l49.506,4.356l16.732,-55.113l-66.238,50.757Z" style="fill:#0d0d0d;fill-rule:nonzero;"/><path d="M348.095,547.974l8.97,74.216l40.536,-69.86l-49.506,-4.356Z" style="fill:#0b0b0b;fill-rule:nonzero;"/><path d="M397.601,552.329l15.525,26.801l12.419,-38.444l-27.944,11.643Z" style="fill:#191919;fill-rule:nonzero;"/><path d="M397.601,552.329l1.552,81.25l13.973,-54.449l-15.525,-26.801Z" style="fill:#131313;fill-rule:nonzero;"/><path d="M399.154,633.58l33.378,-16.176l-19.406,-38.273l-13.972,54.449Z" style="fill:#1f1f1f;fill-rule:nonzero;"/><path d="M399.154,633.58l-42.089,-11.39l40.537,-69.861l1.552,81.25Z" style="fill:#0d0d0d;fill-rule:nonzero;"/><path d="M399.154,633.58l21.044,53.167l12.334,-69.344l-33.378,16.177Z" style="fill:#373737;fill-rule:nonzero;"/><path d="M432.531,617.403l16.991,88.792l-29.324,-19.449l12.333,-69.343Z" style="fill:#1c1c1c;fill-rule:nonzero;"/><path d="M452.196,658.683l-2.674,47.512l-16.99,-88.792l19.664,41.28Z" style="fill-rule:nonzero;"/><path d="M500.063,663.071l-21.734,5.434l18.996,-17.103l2.738,11.669Z" style="fill:#050505;fill-rule:nonzero;"/><path d="M478.329,668.505l-28.807,37.69l2.674,-47.512l26.133,9.822Z" style="fill-rule:nonzero;"/><path d="M478.329,668.505l36.741,27.944l-15.007,-33.378l-21.734,5.434Z" style="fill:#010101;fill-rule:nonzero;"/><path d="M449.522,706.195l65.548,-9.746l-36.741,-27.944l-28.807,37.69Z" style="fill-rule:nonzero;"/><path d="M420.198,686.746l12.333,47.048l16.991,-27.599l-29.324,-19.449Z" style="fill:#111;fill-rule:nonzero;"/><path d="M452.196,608.476l20.958,20.898l-20.958,29.308l0,-50.206Z" style="fill:#2a2a2a;fill-rule:nonzero;"/><path d="M473.154,629.375l-20.958,29.308l45.129,-7.281l-24.171,-22.027Z" style="fill:#1b1b1b;fill-rule:nonzero;"/><path d="M357.065,622.19l15.783,65.16l26.306,-53.77l-42.089,-11.39Z" style="fill:#101010;fill-rule:nonzero;"/><path d="M399.154,633.58l21.044,53.167l-47.349,0.602l26.305,-53.769Z" style="fill:#1d1d1d;fill-rule:nonzero;"/><path d="M372.848,687.35l13.368,70.162l19.147,-70.766l-32.515,0.604Z" style="fill:#2f2f2f;fill-rule:nonzero;"/><path d="M405.364,686.746l27.167,47.048l-12.333,-47.048l-14.835,0Z" style="fill:#090909;fill-rule:nonzero;"/><path d="M386.216,757.512l26.909,2.329l-7.762,-73.095l-19.147,70.766Z" style="fill:#1d1d1d;fill-rule:nonzero;"/><path d="M386.216,757.512l19.147,35.189l7.762,-32.86l-26.909,-2.329Z" style="fill:#0e0e0e;fill-rule:nonzero;"/><path d="M413.126,759.841l19.406,-26.047l-27.168,-47.048l7.762,73.095Z" style="fill-rule:nonzero;"/><path d="M515.07,696.449l13.972,51.433l49.161,-37.461l-63.133,-13.972Z" style="fill:#0a0a0a;fill-rule:nonzero;"/><path d="M515.07,696.449l-25.874,51.433l39.846,0l-13.972,-51.433Z" style="fill-rule:nonzero;"/><path d="M449.522,706.195l39.674,41.687l25.874,-51.433l-65.548,9.746Z" style="fill-rule:nonzero;"/><path d="M529.042,747.882l17.595,56.463l31.566,-19.147l-49.161,-37.316Z" style="fill:#222;fill-rule:nonzero;"/><path d="M578.204,710.421l0,74.777l-49.161,-37.316l49.161,-37.461Z" style="fill:#101010;fill-rule:nonzero;"/><path d="M616.497,747.882l-38.294,37.316l0,-74.777l38.294,37.461Z" style="fill:#0a0a0a;fill-rule:nonzero;"/><path d="M489.196,747.882l57.441,56.463l-17.595,-56.463l-39.846,0Z" style="fill:#0b0b0b;fill-rule:nonzero;"/><path d="M489.196,747.882l-6.9,37.316l64.341,19.147l-57.441,-56.463Z" style="fill:#202020;fill-rule:nonzero;"/><path d="M432.531,733.794l56.665,14.088l-39.674,-41.687l-16.991,27.599Z" style="fill:#040404;fill-rule:nonzero;"/><path d="M818.946,768.36l19.811,59.53l21.476,-70.378l-41.287,10.848Z" style="fill:#525252;fill-rule:nonzero;"/><path d="M794.254,774.848l44.504,53.042l-19.812,-59.53l-24.692,6.488Z" style="fill:#3a3a3a;fill-rule:nonzero;"/><path d="M794.254,774.848l-19.27,46.056l63.774,6.986l-44.504,-53.042Z" style="fill:#2c2c2c;fill-rule:nonzero;"/><path d="M774.984,820.904l63.774,6.986l0,29.065l-63.774,-36.051Z" style="fill:#4c4c4c;fill-rule:nonzero;"/><path d="M828.666,906.807l-63.997,6.21l18.048,-79.737l45.949,73.527Z" style="fill:#909090;fill-rule:nonzero;"/><path d="M774.984,820.904l-36.36,42.951l44.094,-30.576l-7.734,-12.375Z" style="fill:#4a4a4a;fill-rule:nonzero;"/><path d="M738.624,863.855l26.046,49.161l18.047,-79.737l-44.093,30.576Z" style="fill:#7f7f7f;fill-rule:nonzero;"/><path d="M738.624,863.855l-53.172,6.21l16.431,42.951l36.741,-49.161Z" style="fill:#5e5e5e;fill-rule:nonzero;"/><path d="M701.882,913.016l62.787,0l-26.046,-49.161l-36.741,49.161Z" style="fill:#757575;fill-rule:nonzero;"/><path d="M710.68,765.533l64.304,55.371l19.27,-46.056l-83.574,-9.315Z" style="fill:#171717;fill-rule:nonzero;"/><path d="M774.984,820.904l-89.014,2.07l24.71,-57.441l64.304,55.371Z" style="fill:#1a1a1a;fill-rule:nonzero;"/><path d="M685.97,822.974l52.654,40.881l36.36,-42.951l-89.014,2.07Z" style="fill:#121212;fill-rule:nonzero;"/><path d="M685.97,822.974l-0.518,47.091l53.172,-6.21l-52.654,-40.881Z" style="fill:#1d1d1d;fill-rule:nonzero;"/><path d="M685.452,870.065l-55.488,-36.786l56.006,-10.305l-0.518,47.091Z" style="fill:#232323;fill-rule:nonzero;"/><path d="M659.966,739.918l26.004,83.056l24.71,-57.44l-50.714,-25.616Z" style="fill:#121212;fill-rule:nonzero;"/><path d="M629.965,833.279l-13.467,-85.398l69.472,75.093l-56.005,10.305Z" style="fill:#121212;fill-rule:nonzero;"/><path d="M616.497,747.882l43.469,-7.964l26.003,83.056l-69.472,-75.092Z" style="fill:#1f1f1f;fill-rule:nonzero;"/><path d="M578.204,785.198l51.761,48.082l-13.467,-85.398l-38.294,37.316Z" style="fill:#060606;fill-rule:nonzero;"/><path d="M578.204,785.198l10.923,30.014l40.838,18.068l-51.761,-48.082Z" style="fill:#191919;fill-rule:nonzero;"/><path d="M546.637,804.345l42.49,10.867l-10.923,-30.014l-31.567,19.147Z" style="fill:#333;fill-rule:nonzero;"/><path d="M546.637,804.345l42.49,42.175l0,-31.308l-42.49,-10.867Z" style="fill:#2c2c2c;fill-rule:nonzero;"/><path d="M546.637,804.345l6.986,18.629l35.504,23.546l-42.49,-42.175Z" style="fill:#0b0b0b;fill-rule:nonzero;"/><path d="M553.623,822.974l62.874,61.063l-27.37,-37.517l-35.504,-23.546Z" style="fill:#171717;fill-rule:nonzero;"/><path d="M482.296,785.198l25.271,53.732l39.07,-34.585l-64.341,-19.147Z" style="fill:#2e2e2e;fill-rule:nonzero;"/><path d="M553.623,822.974l-46.056,15.956l39.07,-34.585l6.986,18.629Z" style="fill:#454545;fill-rule:nonzero;"/><path d="M507.567,838.93l108.931,45.107l-62.875,-61.063l-46.056,15.956Z" style="fill:#4e4e4e;fill-rule:nonzero;"/><path d="M507.567,838.93l66.842,53.905l42.089,-8.798l-108.931,-45.107Z" style="fill:#5d5d5d;fill-rule:nonzero;"/><path d="M589.127,846.52l40.838,-13.24l-40.838,-18.068l0,31.308Z" style="fill:#3c3c3c;fill-rule:nonzero;"/><path d="M629.965,833.279l-13.467,50.758l-27.371,-37.518l40.838,-13.24Z" style="fill:#414141;fill-rule:nonzero;"/><path d="M629.965,833.279l55.488,36.786l-68.955,13.972l13.467,-50.758Z" style="fill:#3a3a3a;fill-rule:nonzero;"/><path d="M574.409,892.835l83.559,27.168l-41.47,-35.965l-42.089,8.797Z" style="fill:#4f4f4f;fill-rule:nonzero;"/><path d="M685.452,870.065l-27.485,49.937l-41.47,-35.965l68.955,-13.972Z" style="fill:#4b4b4b;fill-rule:nonzero;"/><path d="M657.967,920.003l43.915,-6.986l-16.43,-42.951l-27.485,49.937Z" style="fill:#7b7b7b;fill-rule:nonzero;"/><path d="M828.666,906.807l2.587,52.007l-66.584,-45.797l63.997,-6.21Z" style="fill:#a6a6a6;fill-rule:nonzero;"/><path d="M764.67,913.016l-38.983,31.049l-23.804,-31.048l62.787,0Z" style="fill:#7d7d7d;fill-rule:nonzero;"/><path d="M657.967,920.003l67.719,24.063l-23.804,-31.049l-43.915,6.986Z" style="fill:#9a9a9a;fill-rule:nonzero;"/><path d="M764.67,913.016l1.64,75.294l64.944,-29.496l-66.584,-45.798Z" style="fill:#969696;fill-rule:nonzero;"/><path d="M831.254,958.814l5.434,40.105l-70.378,-10.608l64.944,-29.497Z" style="fill:#a9a9a9;fill-rule:nonzero;"/><path d="M766.309,988.311l-40.623,-44.245l38.983,-31.049l1.64,75.294Z" style="fill:#a3a3a3;fill-rule:nonzero;"/><path d="M766.309,988.311l-45.539,-18.629l20.654,-8.475l24.885,27.104Z" style="fill:#b3b3b3;fill-rule:nonzero;"/><path d="M725.687,944.066l-4.916,25.616l20.653,-8.475l-15.737,-17.141Z" style="fill:#616161;fill-rule:nonzero;"/><path d="M432.531,733.794l49.765,51.404l6.9,-37.316l-56.665,-14.088Z" style="fill:#050505;fill-rule:nonzero;"/><path d="M413.126,759.841l69.171,25.357l-49.765,-51.404l-19.406,26.047Z" style="fill:#010101;fill-rule:nonzero;"/><path d="M482.296,785.198l-57.268,57.182l82.539,-3.45l-25.271,-53.732Z" style="fill:#0e0e0e;fill-rule:nonzero;"/><path d="M405.364,792.701l19.663,49.679l57.269,-57.183l-76.933,7.504Z" style="fill:#090909;fill-rule:nonzero;"/><path d="M413.126,759.841l-7.762,32.86l76.933,-7.503l-69.171,-25.357Z" style="fill-rule:nonzero;"/><path d="M405.364,792.701l-43.47,8.668l63.133,41.011l-19.664,-49.679Z" style="fill:#010101;fill-rule:nonzero;"/><path d="M361.895,801.369l-18.112,41.054l81.245,-0.043l-63.133,-41.011Z" style="fill:#040404;fill-rule:nonzero;"/><path d="M425.028,842.38l4.14,34.413l-85.385,-34.37l81.245,-0.043Z" style="fill:#222;fill-rule:nonzero;"/><path d="M429.168,876.793l-81.073,-12.938l-4.312,-21.433l85.385,34.37Z" style="fill:#121212;fill-rule:nonzero;"/><path d="M425.028,842.38l50.798,41.658l31.741,-45.108l-82.539,3.45Z" style="fill:#2e2e2e;fill-rule:nonzero;"/><path d="M429.168,876.793l46.658,7.245l-50.798,-41.659l4.14,34.414Z" style="fill:#1b1b1b;fill-rule:nonzero;"/><path d="M475.826,884.037l98.583,8.797l-66.842,-53.904l-31.741,45.107Z" style="fill:#242424;fill-rule:nonzero;"/><path d="M348.095,863.855l5.002,24.581l76.071,-11.644l-81.073,-12.937Z" style="fill:#1f1f1f;fill-rule:nonzero;"/><path d="M353.097,888.436l113.2,11.126l-37.13,-22.769l-76.07,11.643Z" style="fill:#2c2c2c;fill-rule:nonzero;"/><path d="M429.168,876.793l46.658,7.245l-9.528,15.524l-37.13,-22.769Z" style="fill:#3a3a3a;fill-rule:nonzero;"/><path d="M466.297,899.562l33.766,44.504l10.867,-42.046l-44.633,-2.458Z" style="fill:#1b1b1b;fill-rule:nonzero;"/><path d="M510.93,902.02l-35.105,-17.983l-9.528,15.525l44.633,2.458Z" style="fill:#2c2c2c;fill-rule:nonzero;"/><path d="M510.93,902.02l63.478,-9.185l-98.583,-8.798l35.105,17.983Z" style="fill:#333;fill-rule:nonzero;"/><path d="M510.93,902.02l18.112,23.934l-28.979,18.112l10.867,-42.046Z" style="fill:#2a2a2a;fill-rule:nonzero;"/><path d="M657.967,920.003l-19.736,45.97l-63.823,-73.138l83.559,27.168Z" style="fill:#3c3c3c;fill-rule:nonzero;"/><path d="M529.042,925.954l45.366,-33.119l-63.478,9.185l18.112,23.934Z" style="fill:#4c4c4c;fill-rule:nonzero;"/><path d="M574.409,892.835l-45.366,33.119l77.278,3.45l-31.912,-36.569Z" style="fill:#505050;fill-rule:nonzero;"/><path d="M529.042,925.954l109.189,40.019l-31.911,-36.569l-77.278,-3.45Z" style="fill:#5c5c5c;fill-rule:nonzero;"/><path d="M638.232,965.973l87.455,-21.908l-67.719,-24.063l-19.736,45.97Z" style="fill:#4a4a4a;fill-rule:nonzero;"/><path d="M638.232,965.973l82.539,3.708l4.916,-25.615l-87.455,21.906Z" style="fill:#5c5c5c;fill-rule:nonzero;"/><path d="M638.232,965.973l61.322,52.61l21.217,-48.902l-82.539,-3.709Z" style="fill:#585858;fill-rule:nonzero;"/><path d="M699.554,1018.58l66.756,-30.273l-45.539,-18.629l-21.217,48.903Z" style="fill:#5e5e5e;fill-rule:nonzero;"/><path d="M699.554,1018.58l66.756,-2.846l0,-27.427l-66.756,30.274Z" style="fill:#4e4e4e;fill-rule:nonzero;"/><path d="M699.554,1018.58l-93.234,-43.825l31.912,-8.785l61.322,52.611Z" style="fill:#3f3f3f;fill-rule:nonzero;"/><path d="M606.32,974.758l-77.278,-48.805l109.19,40.019l-31.912,8.786Z" style="fill:#212121;fill-rule:nonzero;"/><path d="M500.063,944.066l106.257,30.693l-77.278,-48.805l-28.979,18.112Z" style="fill:#272727;fill-rule:nonzero;"/><path d="M553.192,959.412l79.089,52.185l-25.961,-36.839l-53.128,-15.346Z" style="fill:#212121;fill-rule:nonzero;"/><path d="M632.281,1011.6l67.273,6.985l-93.234,-43.825l25.961,36.839Z" style="fill:#131313;fill-rule:nonzero;"/><path d="M632.281,1011.6l67.273,40.105l0,-33.119l-67.273,-6.986Z" style="fill:#212121;fill-rule:nonzero;"/><path d="M828.666,906.807l38.984,-18.371l-32.494,-13.693l-6.49,32.064Z" style="fill:#272727;fill-rule:nonzero;"/><path d="M828.666,906.807l38.984,-18.371l32.084,9.186l-71.068,9.185Z" style="fill:#1a1a1a;fill-rule:nonzero;"/><path d="M831.254,958.814l68.481,-61.193l-71.068,9.186l2.587,52.007Z" style="fill:#2a2a2a;fill-rule:nonzero;"/><path d="M831.254,958.814l96.08,-17.336l-27.599,-43.857l-68.481,61.193Z" style="fill:#1b1b1b;fill-rule:nonzero;"/><path d="M927.334,941.478l-37.259,55.193l-58.821,-37.857l96.08,-17.336Z" style="fill:#111;fill-rule:nonzero;"/><path d="M927.334,941.478l4.14,61.969l-41.399,-6.776l37.259,-55.193Z" style="fill:#050505;fill-rule:nonzero;"/><path d="M920.606,943.721l32.774,57.441l-28.634,4.528l-4.14,-61.969Z" style="fill:#0a0a0a;fill-rule:nonzero;"/><path d="M836.687,998.919l15.19,-26.832l38.197,24.584l-53.387,2.248Z" style="fill:#282828;fill-rule:nonzero;"/><path d="M836.687,998.919l-5.434,-40.105l20.624,13.273l-15.19,26.832Z" style="fill-rule:nonzero;"/><path d="M960.108,998.919l-9.573,45.28l-19.061,-40.752l28.634,-4.528Z" style="fill:#020202;fill-rule:nonzero;"/><path d="M950.534,1044.2l-43.986,-12.937l24.925,-27.815l19.061,40.752Z" style="fill:#3c3c3c;fill-rule:nonzero;"/><path d="M906.548,1031.26l-16.473,-34.591l41.399,6.776l-24.926,27.815Z" style="fill:#131313;fill-rule:nonzero;"/><path d="M906.548,1031.26l-69.861,-32.343l53.388,-2.248l16.473,34.591Z" style="fill:#535353;fill-rule:nonzero;"/><path d="M766.309,1015.74l42.434,13.713l-42.434,-41.14l0,27.427Z" style="fill:#5c5c5c;fill-rule:nonzero;"/><path d="M808.743,1029.45l27.944,-30.532l-70.378,-10.608l42.434,41.14Z" style="fill:#424242;fill-rule:nonzero;"/><path d="M836.687,998.919l17.594,46.574l-45.538,-16.042l27.944,-30.532Z" style="fill:#5e5e5e;fill-rule:nonzero;"/><path d="M854.282,1045.49l52.266,-14.231l-69.86,-32.343l17.594,46.574Z" style="fill:#3d3d3d;fill-rule:nonzero;"/><path d="M906.548,1031.26l0,31.567l43.986,-18.63l-43.986,-12.937Z" style="fill:#535353;fill-rule:nonzero;"/><path d="M950.534,1044.2l10.867,24.839l-54.853,-6.21l43.986,-18.629Z" style="fill:#212121;fill-rule:nonzero;"/><path d="M906.548,1031.26l-41.399,25.357l41.399,6.21l0,-31.567Z" style="fill:#484848;fill-rule:nonzero;"/><path d="M854.282,1045.49l10.867,11.126l41.399,-25.357l-52.266,14.231Z" style="fill:#222;fill-rule:nonzero;"/><path d="M961.401,1069.04l3.622,25.616l-58.475,-31.826l54.853,6.21Z" style="fill:#282828;fill-rule:nonzero;"/><path d="M965.024,1094.65l35.965,26.65l-35.965,3.364l0,-30.014Z" style="fill:#5e5e5e;fill-rule:nonzero;"/><path d="M1000.99,1121.3l16.818,24.581l-19.405,7.115l2.587,-31.696Z" style="fill:#070707;fill-rule:nonzero;"/><path d="M998.402,1153l-33.378,-28.332l35.965,-3.364l-2.587,31.696Z" style="fill:#4c4c4c;fill-rule:nonzero;"/><path d="M965.024,1124.67l-23.546,27.944l56.924,0.388l-33.378,-28.332Z" style="fill:#1c1c1c;fill-rule:nonzero;"/><path d="M941.478,1152.61l-5.692,-38.811l-27.427,38.811l33.119,0Z" style="fill:#585858;fill-rule:nonzero;"/><path d="M935.786,1113.8l29.238,10.867l-23.546,27.944l-5.692,-38.811Z" style="fill:#111;fill-rule:nonzero;"/><path d="M935.786,1113.8l29.238,-19.147l0,30.014l-29.238,-10.867Z" style="fill:#505050;fill-rule:nonzero;"/><path d="M935.786,1113.8l-45.711,-22.769l74.949,3.622l-29.238,19.147Z" style="fill:#393939;fill-rule:nonzero;"/><path d="M890.075,1091.03l16.473,-28.203l58.476,31.825l-74.949,-3.622Z" style="fill:#4a4a4a;fill-rule:nonzero;"/><path d="M890.075,1091.03l-24.926,-34.413l41.399,6.21l-16.473,28.203Z" style="fill:#3d3d3d;fill-rule:nonzero;"/><path d="M890.075,1091.03l-28.634,27.772l74.345,-5.003l-45.711,-22.769Z" style="fill:#323232;fill-rule:nonzero;"/><path d="M861.44,1118.8l34.154,14.403l40.191,-19.405l-74.345,5.002Z" style="fill:#585858;fill-rule:nonzero;"/><path d="M895.595,1133.21l12.764,19.405l27.427,-38.812l-40.192,19.406Z" style="fill:#4c4c4c;fill-rule:nonzero;"/><path d="M895.595,1133.21l-16.732,19.405l29.496,0l-12.764,-19.406Z" style="fill:#656565;fill-rule:nonzero;"/><path d="M861.44,1118.8l17.422,33.809l16.732,-19.406l-34.154,-14.403Z" style="fill:#0c0c0c;fill-rule:nonzero;"/><path d="M861.44,1118.8l-22.252,33.809l39.674,0l-17.422,-33.809Z" style="fill:#131313;fill-rule:nonzero;"/><path d="M861.44,1118.8l-39.674,-39.329l68.308,11.557l-28.634,27.772Z" style="fill:#5c5c5c;fill-rule:nonzero;"/><path d="M865.149,1056.62l-43.383,22.856l68.309,11.557l-24.926,-34.413Z" style="fill:#2e2e2e;fill-rule:nonzero;"/><path d="M854.282,1045.49l-32.515,33.982l43.382,-22.856l-10.867,-11.126Z" style="fill:#3c3c3c;fill-rule:nonzero;"/><path d="M821.767,1079.47l-52.784,-19.837l85.299,-14.145l-32.515,33.982Z" style="fill:#4a4a4a;fill-rule:nonzero;"/><path d="M808.743,1029.45l-39.76,30.187l85.299,-14.145l-45.539,-16.042Z" style="fill:#515151;fill-rule:nonzero;"/><path d="M768.983,1059.64l-2.674,-43.9l42.434,13.713l-39.76,30.187Z" style="fill:#3a3a3a;fill-rule:nonzero;"/><path d="M768.983,1059.64l-69.429,-41.054l68.179,20.527l1.25,20.527Z" style="fill:#5c5c5c;fill-rule:nonzero;"/><path d="M767.733,1039.11l-1.424,-23.373l-66.755,2.846l68.179,20.527Z" style="fill:#2b2b2b;fill-rule:nonzero;"/><path d="M768.983,1059.64l12.247,36.396l40.537,-16.559l-52.784,-19.837Z" style="fill:#2c2c2c;fill-rule:nonzero;"/><path d="M781.23,1096.03l80.21,22.769l-39.674,-39.329l-40.536,16.56Z" style="fill:#464646;fill-rule:nonzero;"/><path d="M781.23,1096.03l57.958,56.578l22.252,-33.809l-80.21,-22.769Z" style="fill:#0c0c0c;fill-rule:nonzero;"/><path d="M827.229,1140.94l-80.498,-38.521l34.499,-6.382l45.999,44.903Z" style="fill:#131313;fill-rule:nonzero;"/><path d="M746.731,1102.42l-28.462,-45.797l62.961,39.415l-34.499,6.382Z" style="fill:#0d0d0d;fill-rule:nonzero;"/><path d="M718.27,1056.62l50.714,3.019l12.247,36.396l-62.961,-39.415Z" style="fill:#212121;fill-rule:nonzero;"/><path d="M699.554,1051.7l18.716,4.916l-18.716,-38.035l0,33.119Z" style="fill:#131313;fill-rule:nonzero;"/><path d="M699.554,1018.58l69.429,41.053l-50.713,-3.019l-18.716,-38.035Z" style="fill:#2f2f2f;fill-rule:nonzero;"/><path d="M827.229,1140.94l-88.605,11.675l100.565,0l-11.96,-11.675Z" style="fill:#262626;fill-rule:nonzero;"/><path d="M746.731,1102.42l-5.307,50.196l85.805,-11.675l-80.498,-38.521Z" style="fill:#4f4f4f;fill-rule:nonzero;"/><path d="M699.554,1051.7l-74.087,4.916l6.814,-45.021l67.273,40.105Z" style="fill:#7c7c7c;fill-rule:nonzero;"/><path d="M699.554,1051.7l47.177,50.714l-28.461,-45.798l-18.716,-4.916Z" style="fill:#222;fill-rule:nonzero;"/><path d="M746.731,1102.42l-88.764,16.069l41.587,-66.783l47.177,50.714Z" style="fill:#4b4b4b;fill-rule:nonzero;"/><path d="M657.967,1118.49l-32.5,-61.868l74.086,-4.916l-41.586,66.783Z" style="fill:#5d5d5d;fill-rule:nonzero;"/><path d="M657.967,1118.49l83.457,34.126l5.307,-50.196l-88.764,16.069Z" style="fill:#434343;fill-rule:nonzero;"/><path d="M657.967,1118.49l-19.736,34.061l103.193,0.065l-83.457,-34.127Z" style="fill:#6b6b6b;fill-rule:nonzero;"/><path d="M657.967,1118.49l-104.344,-8.825l84.608,42.887l19.736,-34.063Z" style="fill:#858585;fill-rule:nonzero;"/><path d="M553.623,1109.66l-53.56,42.886l138.169,0l-84.609,-42.886Z" style="fill:#959595;fill-rule:nonzero;"/><path d="M500.063,1152.55l-75.035,-57.893l22.683,57.893l52.352,0Z" style="fill:#6e6e6e;fill-rule:nonzero;"/><path d="M553.623,1109.66l71.844,-53.042l32.5,61.867l-104.344,-8.825Z" style="fill:#6a6a6a;fill-rule:nonzero;"/><path d="M625.467,1056.62l-104.532,-12.678l32.688,65.72l71.844,-53.042Z" style="fill:#727272;fill-rule:nonzero;"/><path d="M425.028,1094.65l128.595,15.007l-53.56,42.886l-75.035,-57.893Z" style="fill:#787878;fill-rule:nonzero;"/><path d="M425.028,1094.65l-45.539,-76.07l141.446,25.356l-95.907,50.714Z" style="fill:#878787;fill-rule:nonzero;"/><path d="M425.028,1094.65l95.907,-50.714l32.688,65.721l-128.595,-15.007Z" style="fill:#818181;fill-rule:nonzero;"/><path d="M520.935,1043.94l111.346,-32.343l-6.814,45.021l-104.532,-12.678Z" style="fill:#909090;fill-rule:nonzero;"/><path d="M632.281,1011.6l-143.667,-23.287l64.578,-28.898l79.089,52.185Z" style="fill:#666;fill-rule:nonzero;"/><path d="M488.614,988.311l32.321,55.63l111.346,-32.343l-143.667,-23.287Z" style="fill:#898989;fill-rule:nonzero;"/><path d="M488.614,988.311l-109.125,30.273l141.446,25.357l-32.321,-55.63Z" style="fill:#8f8f8f;fill-rule:nonzero;"/><path d="M500.063,944.066l-11.449,44.245l64.578,-28.899l-53.129,-15.346Z" style="fill:#848484;fill-rule:nonzero;"/><path d="M500.063,944.066l-75.035,-2.587l41.269,-41.917l33.766,44.504Z" style="fill:#505050;fill-rule:nonzero;"/><path d="M353.097,888.436l71.93,53.042l41.27,-41.916l-113.2,-11.126Z" style="fill:#3f3f3f;fill-rule:nonzero;"/><path d="M425.028,941.478l63.586,46.832l11.449,-44.245l-75.035,-2.587Z" style="fill:#585858;fill-rule:nonzero;"/><path d="M425.028,941.478l-45.539,77.105l109.125,-30.273l-63.586,-46.832Z" style="fill:#818181;fill-rule:nonzero;"/><path d="M425.028,941.478l-137.651,9.185l92.112,67.92l45.539,-77.105Z" style="fill:#636363;fill-rule:nonzero;"/><path d="M447.711,1152.55l-68.222,-53.408l45.539,-4.485l22.683,57.893Z" style="fill:#5f5f5f;fill-rule:nonzero;"/><path d="M287.377,950.664l-55.371,-33.507l70.896,-24.322l-15.525,57.829Z" style="fill:#363636;fill-rule:nonzero;"/><path d="M302.901,892.835l122.127,48.644l-137.652,9.185l15.525,-57.829Z" style="fill:#434343;fill-rule:nonzero;"/><path d="M302.901,892.835l50.196,-4.399l71.931,53.043l-122.127,-48.644Z" style="fill:#383838;fill-rule:nonzero;"/><path d="M232.006,917.156l-66.238,28.807l121.609,4.7l-55.371,-33.507Z" style="fill:#2d2d2d;fill-rule:nonzero;"/><path d="M287.377,950.664l-23.804,52.783l115.916,15.137l-92.112,-67.92Z" style="fill:#4a4a4a;fill-rule:nonzero;"/><path d="M263.573,1003.45l-9.315,27.815l125.232,-12.679l-115.918,-15.136Z" style="fill:#3d3d3d;fill-rule:nonzero;"/><path d="M254.258,1031.26l93.837,35.965l31.394,-48.643l-125.231,12.678Z" style="fill:#575757;fill-rule:nonzero;"/><path d="M348.095,1067.23l76.933,27.427l-45.539,-76.071l-31.394,48.644Z" style="fill:#808080;fill-rule:nonzero;"/><path d="M348.095,1067.23l31.394,31.912l45.539,-4.485l-76.933,-27.427Z" style="fill:#6d6d6d;fill-rule:nonzero;"/><path d="M348.095,1067.23l-31.222,37.69l62.616,-5.778l-31.394,-31.912Z" style="fill:#393939;fill-rule:nonzero;"/><path d="M316.874,1104.92l62.615,47.63l0,-53.409l-62.616,5.779Z" style="fill:#242424;fill-rule:nonzero;"/><path d="M379.489,1152.55l68.222,0l-68.222,-53.408l0,53.408Z" style="fill:#363636;fill-rule:nonzero;"/><path d="M316.874,1104.92l-62.617,-73.655l93.838,35.965l-31.222,37.69Z" style="fill:#121212;fill-rule:nonzero;"/><path d="M316.874,1104.92l-66.757,-25.4l4.14,-48.255l62.616,73.655Z" style="fill:#212121;fill-rule:nonzero;"/><path d="M250.118,1079.52c0,0 -61.581,-7.115 -60.028,-9.185c1.552,-2.07 64.168,-39.07 64.168,-39.07l-4.14,48.255Z" style="fill:#2a2a2a;fill-rule:nonzero;"/><path d="M254.258,1031.26l-64.197,-6.986l0.029,46.056l64.168,-39.07Z" style="fill:#191919;fill-rule:nonzero;"/><path d="M190.061,1024.28l73.512,-20.829l-9.315,27.815l-64.197,-6.986Z" style="fill:#353535;fill-rule:nonzero;"/><path d="M190.061,1024.28l-52.237,9.832l52.266,36.224l-0.029,-46.056Z" style="fill:#232323;fill-rule:nonzero;"/><path d="M190.09,1070.33l-61.063,-7.504l8.797,-28.72l52.266,36.224Z" style="fill:#0d0d0d;fill-rule:nonzero;"/><path d="M137.824,1034.11l-61.581,13.196l52.784,15.524l8.797,-28.72Z" style="fill:#060606;fill-rule:nonzero;"/><path d="M129.026,1062.83l-80.728,31.825l27.945,-47.351l52.783,15.526Z" style="fill:#060606;fill-rule:nonzero;"/><path d="M263.573,1003.45l-97.806,-57.484l121.609,4.701l-23.803,52.783Z" style="fill:#424242;fill-rule:nonzero;"/><path d="M190.061,1024.28l-24.293,-78.313l97.805,57.484l-73.512,20.829Z" style="fill:#393939;fill-rule:nonzero;"/><path d="M137.824,1034.11l-12.937,-45.797l-48.644,58.993l61.581,-13.196Z" style="fill:#080808;fill-rule:nonzero;"/><path d="M165.768,945.963l-27.944,88.145l52.237,-9.832l-24.293,-78.313Z" style="fill:#232323;fill-rule:nonzero;"/><path d="M165.768,945.963l-40.881,42.348l12.937,45.797l27.944,-88.145Z" style="fill:#161616;fill-rule:nonzero;"/><path d="M316.874,1104.92l-19.493,47.63l82.108,0l-62.616,-47.63Z" style="fill:#393939;fill-rule:nonzero;"/><path d="M250.118,1079.52l-27.959,73.483l94.715,-48.083l-66.756,-25.4Z" style="fill:#474747;fill-rule:nonzero;"/><path d="M316.874,1104.92l-19.493,47.63l-75.222,0.453l94.714,-48.083Z" style="fill:#515151;fill-rule:nonzero;"/><path d="M190.09,1070.33l32.07,82.668l27.958,-73.483l-60.028,-9.185Z" style="fill:#383838;fill-rule:nonzero;"/><path d="M190.09,1070.33l-30.532,41.334l-30.531,-48.838l61.063,7.504Z" style="fill:#262626;fill-rule:nonzero;"/><path d="M159.558,1111.67l-111.259,-17.012l80.727,-31.826l30.532,48.838Z" style="fill:#232323;fill-rule:nonzero;"/><path d="M159.558,1111.67l62.601,41.334l-32.069,-82.668l-30.532,41.334Z" style="fill:#1c1c1c;fill-rule:nonzero;"/><path d="M159.558,1111.67l-87.8,41.334l150.401,0l-62.601,-41.334Z" style="fill:#111;fill-rule:nonzero;"/><path d="M48.299,1094.65l23.459,58.346l87.8,-41.334l-111.259,-17.012Z" style="fill:#040404;fill-rule:nonzero;"/><path d="M48.299,1094.65l-48.299,57.958l71.758,0.388l-23.459,-58.346Z" style="fill-rule:nonzero;"/><path d="M838.757,856.956l-56.04,-23.676l-7.734,-12.375l63.774,36.051Z" style="fill:#5b5b5b;fill-rule:nonzero;"/><path d="M838.757,856.956l-10.091,49.851l-45.949,-73.527l56.04,23.676Z" style="fill:#838383;fill-rule:nonzero;"/><path d="M1017.81,1145.88l3.364,6.662l-22.77,0.453l19.406,-7.115Z" style="fill-rule:nonzero;"/></g></svg>