<svg id="Layer_1" data-name="Layer 1" xmlns="http://www.w3.org/2000/svg" xmlns:xlink="http://www.w3.org/1999/xlink" viewBox="0 0 632.22 234.74"><defs><style>.cls-1{opacity:0.1;}.cls-2{fill:url(#linear-gradient);}.cls-3{fill:url(#linear-gradient-2);}.cls-4{fill:url(#linear-gradient-3);}.cls-5{fill:url(#linear-gradient-4);}.cls-6{fill:url(#linear-gradient-5);}.cls-7{fill:url(#linear-gradient-6);}.cls-8{fill:url(#linear-gradient-7);}.cls-9{fill:url(#linear-gradient-8);}.cls-10{fill:url(#linear-gradient-9);}.cls-11{fill:url(#linear-gradient-10);}.cls-12{fill:url(#linear-gradient-11);}.cls-13{fill:url(#linear-gradient-12);}.cls-14{fill:url(#linear-gradient-13);}.cls-15{fill:url(#linear-gradient-14);}.cls-16{fill:url(#linear-gradient-15);}</style><linearGradient id="linear-gradient" x1="19.45" y1="94.66" x2="84.66" y2="94.66" gradientUnits="userSpaceOnUse"><stop offset="0" stop-color="#4a66d4"/><stop offset="1" stop-color="#3da2f5"/></linearGradient><linearGradient id="linear-gradient-2" x1="94.92" y1="94.66" x2="152.2" y2="94.66" xlink:href="#linear-gradient"/><linearGradient id="linear-gradient-3" x1="157.62" y1="94.66" x2="223.05" y2="94.66" xlink:href="#linear-gradient"/><linearGradient id="linear-gradient-4" x1="234.68" y1="94.66" x2="254.63" y2="94.66" xlink:href="#linear-gradient"/><linearGradient id="linear-gradient-5" x1="266.94" y1="94.63" x2="336.47" y2="94.63" xlink:href="#linear-gradient"/><linearGradient id="linear-gradient-6" x1="348.1" y1="94.66" x2="417.41" y2="94.66" xlink:href="#linear-gradient"/><linearGradient id="linear-gradient-7" x1="19.45" y1="234.74" x2="84.77" y2="234.74" xlink:href="#linear-gradient"/><linearGradient id="linear-gradient-8" x1="93.1" y1="234.74" x2="165.71" y2="234.74" xlink:href="#linear-gradient"/><linearGradient id="linear-gradient-9" x1="176.03" y1="234.74" x2="242.94" y2="234.74" xlink:href="#linear-gradient"/><linearGradient id="linear-gradient-10" x1="245.11" y1="234.74" x2="314.47" y2="234.74" xlink:href="#linear-gradient"/><linearGradient id="linear-gradient-11" x1="322.91" y1="234.74" x2="378.42" y2="234.74" xlink:href="#linear-gradient"/><linearGradient id="linear-gradient-12" x1="384.41" y1="234.74" x2="457.02" y2="234.74" xlink:href="#linear-gradient"/><linearGradient id="linear-gradient-13" x1="467.34" y1="234.74" x2="522.17" y2="234.74" xlink:href="#linear-gradient"/><linearGradient id="linear-gradient-14" x1="531.98" y1="234.74" x2="551.93" y2="234.74" xlink:href="#linear-gradient"/><linearGradient id="linear-gradient-15" x1="563.5" y1="234.74" x2="636.11" y2="234.74" xlink:href="#linear-gradient"/></defs><title>portfolio</title><g class="cls-1"><path d="M3.89,126.81v-83H30.62a39.33,39.33,0,0,1,19.78,5A35.07,35.07,0,0,1,64.11,62.89a42.51,42.51,0,0,1,5,20.38v3.82a42.75,42.75,0,0,1-4.82,20.43,35.2,35.2,0,0,1-13.57,14.14,38.44,38.44,0,0,1-19.52,5.16H3.89Zm20-67.54v52.15h7q8.61,0,13.22-6.13t4.62-18.21V83.5q0-12-4.62-18.13t-13.45-6.1H23.9Z" transform="translate(-3.89 -42.63)"/><path d="M130.82,91.59H99.36v19.84h37.16v15.39H79.36v-83h57.28V59.27H99.36v17.5h31.46V91.59Z" transform="translate(-3.89 -42.63)"/><path d="M187.48,104.76a8.22,8.22,0,0,0-3.11-6.84q-3.11-2.45-10.92-5.07a104.54,104.54,0,0,1-12.77-5.07Q144.56,79.85,144.56,66a19.52,19.52,0,0,1,4-12.17,26,26,0,0,1,11.37-8.21,44.26,44.26,0,0,1,16.53-2.93,38.7,38.7,0,0,1,16,3.19,25.41,25.41,0,0,1,11,9.09,23.75,23.75,0,0,1,3.93,13.48H187.54q0-5.07-3.11-7.87A12.11,12.11,0,0,0,176,57.79q-5.36,0-8.46,2.37a7.26,7.26,0,0,0-3.11,6q0,3.19,3.42,5.78t12,5.36a73.74,73.74,0,0,1,14.14,6q13.45,7.75,13.45,21.37,0,10.89-8.21,17.1T176.76,128a44.66,44.66,0,0,1-18.27-3.62,27.53,27.53,0,0,1-12.31-9.92,25.84,25.84,0,0,1-4.13-14.51h20.06q0,6.67,3.45,9.83t11.2,3.16a12.88,12.88,0,0,0,7.84-2.14A7.06,7.06,0,0,0,187.48,104.76Z" transform="translate(-3.89 -42.63)"/><path d="M239.06,126.81H219.11v-83h19.95v83Z" transform="translate(-3.89 -42.63)"/><path d="M320.91,116.56q-4.62,5.13-13.51,8.26A58.28,58.28,0,0,1,287.91,128q-16.3,0-26-10T251.43,90.22L251.37,83q0-12.25,4.33-21.4a32.16,32.16,0,0,1,12.4-14.08,35.07,35.07,0,0,1,18.67-4.93q15.5,0,24.08,7.1t10,21.17H301.59q-1-7-4.45-9.92t-9.69-3a13.06,13.06,0,0,0-11.63,6.38q-4.1,6.38-4.16,18.24v5q0,12.43,4.25,18.67t13.37,6.24q7.81,0,11.63-3.48V96.21H287V82.47h33.91v34.08Z" transform="translate(-3.89 -42.63)"/><path d="M401.85,126.81H382L352.54,75.18v51.64h-20v-83h20L381.9,95.47V43.83h19.95v83Z" transform="translate(-3.89 -42.63)"/><path d="M23.9,238.74v28.16h-20v-83H37a38.59,38.59,0,0,1,16.84,3.5,26.43,26.43,0,0,1,11.34,10,27.23,27.23,0,0,1,4,14.68q0,12.14-8.69,19.41t-23.85,7.27H23.9Zm0-15.45H37q5.81,0,8.86-2.91t3-8.21q0-5.81-3.13-9.29a11.11,11.11,0,0,0-8.55-3.54H23.9v23.94Z" transform="translate(-3.89 -42.63)"/><path d="M150.15,227.11a48.94,48.94,0,0,1-4.5,21.49A33.26,33.26,0,0,1,132.85,263,35.62,35.62,0,0,1,114,268a36.14,36.14,0,0,1-18.81-4.87,33.23,33.23,0,0,1-12.8-13.94,47.52,47.52,0,0,1-4.82-20.8v-4.68A49.16,49.16,0,0,1,82,202.23a33.2,33.2,0,0,1,12.83-14.39,35.88,35.88,0,0,1,19-5.07,35.53,35.53,0,0,1,18.81,5,33.8,33.8,0,0,1,12.85,14.28,47.74,47.74,0,0,1,4.65,21.23v3.82Zm-20.35-3.48q0-12.37-4.13-18.78a13.26,13.26,0,0,0-11.83-6.41q-15,0-15.9,22.57l-0.06,6.1q0,12.2,4,18.75a13.23,13.23,0,0,0,12,6.56A13.08,13.08,0,0,0,125.64,246q4.1-6.44,4.16-18.52v-3.82Z" transform="translate(-3.89 -42.63)"/><path d="M191.3,237.54H180.47v29.35h-20v-83h32.66q14.76,0,23.08,6.55t8.32,18.5q0,8.66-3.5,14.35t-11,9.22L227.38,266v0.86H205.95Zm-10.83-15.39h12.65q5.7,0,8.58-3t2.88-8.37q0-5.37-2.91-8.43t-8.55-3.06H180.47v22.86Z" transform="translate(-3.89 -42.63)"/><path d="M298.91,199.35H274v67.54H254V199.35H229.54V183.9h69.37v15.45Z" transform="translate(-3.89 -42.63)"/><path d="M359.61,233.83H327.35v33.06h-20v-83h55.52v15.45H327.35v19.09h32.26v15.39Z" transform="translate(-3.89 -42.63)"/><path d="M441.46,227.11A48.94,48.94,0,0,1,437,248.6,33.26,33.26,0,0,1,424.16,263a35.62,35.62,0,0,1-18.89,5,36.14,36.14,0,0,1-18.81-4.87,33.23,33.23,0,0,1-12.8-13.94,47.52,47.52,0,0,1-4.82-20.8v-4.68a49.16,49.16,0,0,1,4.47-21.52,33.2,33.2,0,0,1,12.83-14.39,38,38,0,0,1,37.82-.06,33.8,33.8,0,0,1,12.85,14.28,47.74,47.74,0,0,1,4.65,21.23v3.82Zm-20.35-3.48q0-12.37-4.13-18.78a13.26,13.26,0,0,0-11.83-6.41q-15,0-15.9,22.57l-0.06,6.1q0,12.2,4,18.75a13.23,13.23,0,0,0,12,6.56A13.08,13.08,0,0,0,417,246q4.1-6.44,4.16-18.52v-3.82Z" transform="translate(-3.89 -42.63)"/><path d="M471.78,251.5h34.82v15.39H451.78v-83h20v67.6Z" transform="translate(-3.89 -42.63)"/><path d="M536.36,266.89H516.41v-83h19.95v83Z" transform="translate(-3.89 -42.63)"/><path d="M620.55,227.11A48.93,48.93,0,0,1,616,248.6,33.26,33.26,0,0,1,603.25,263a35.62,35.62,0,0,1-18.89,5,36.14,36.14,0,0,1-18.81-4.87,33.22,33.22,0,0,1-12.8-13.94,47.52,47.52,0,0,1-4.82-20.8v-4.68a49.15,49.15,0,0,1,4.47-21.52,33.2,33.2,0,0,1,12.83-14.39,38,38,0,0,1,37.82-.06,33.79,33.79,0,0,1,12.85,14.28,47.75,47.75,0,0,1,4.64,21.23v3.82Zm-20.35-3.48q0-12.37-4.13-18.78a13.26,13.26,0,0,0-11.83-6.41q-15,0-15.9,22.57l-0.06,6.1q0,12.2,4,18.75a13.23,13.23,0,0,0,12,6.56A13.08,13.08,0,0,0,596,246q4.1-6.44,4.16-18.52v-3.82Z" transform="translate(-3.89 -42.63)"/></g><path class="cls-2" d="M19.45,136.15v-83H46.19a39.33,39.33,0,0,1,19.78,5A35.07,35.07,0,0,1,79.67,72.23a42.51,42.51,0,0,1,5,20.38v3.82a42.75,42.75,0,0,1-4.82,20.43A35.2,35.2,0,0,1,66.28,131a38.44,38.44,0,0,1-19.52,5.16H19.45Zm20-67.54v52.15h7q8.61,0,13.22-6.13t4.62-18.21V92.84q0-12-4.62-18.13t-13.45-6.1H39.46Z" transform="translate(-3.89 -42.63)"/><path class="cls-3" d="M146.39,100.93H114.93v19.84h37.16v15.39H94.92v-83H152.2V68.61H114.93v17.5h31.46v14.82Z" transform="translate(-3.89 -42.63)"/><path class="cls-4" d="M203,114.1a8.22,8.22,0,0,0-3.11-6.84q-3.11-2.45-10.92-5.07a104.54,104.54,0,0,1-12.77-5.07q-16.13-7.92-16.13-21.77a19.52,19.52,0,0,1,4-12.17A26,26,0,0,1,175.51,55,44.26,44.26,0,0,1,192,52a38.7,38.7,0,0,1,16,3.19,25.41,25.41,0,0,1,11,9.09A23.75,23.75,0,0,1,223,77.79H203.1q0-5.07-3.11-7.87a12.11,12.11,0,0,0-8.41-2.79q-5.36,0-8.46,2.37a7.26,7.26,0,0,0-3.11,6q0,3.19,3.42,5.78t12,5.36a73.74,73.74,0,0,1,14.14,6Q223,100.36,223,114q0,10.89-8.21,17.1t-22.51,6.21a44.66,44.66,0,0,1-18.27-3.62,27.53,27.53,0,0,1-12.31-9.92,25.84,25.84,0,0,1-4.13-14.51h20.06q0,6.67,3.45,9.83t11.2,3.16a12.88,12.88,0,0,0,7.84-2.14A7.06,7.06,0,0,0,203,114.1Z" transform="translate(-3.89 -42.63)"/><path class="cls-5" d="M254.63,136.15H234.68v-83h19.95v83Z" transform="translate(-3.89 -42.63)"/><path class="cls-6" d="M336.47,125.89Q331.86,131,323,134.16a58.28,58.28,0,0,1-19.49,3.13q-16.3,0-26-10T267,99.56l-0.06-7.18q0-12.25,4.33-21.4a32.16,32.16,0,0,1,12.4-14.08A35.07,35.07,0,0,1,302.33,52q15.5,0,24.08,7.1t10,21.17H317.15q-1-7-4.45-9.92t-9.69-3a13.06,13.06,0,0,0-11.63,6.38q-4.1,6.38-4.16,18.24v5q0,12.43,4.25,18.67t13.37,6.24q7.81,0,11.63-3.48V105.55H302.56V91.81h33.91v34.08Z" transform="translate(-3.89 -42.63)"/><path class="cls-7" d="M417.41,136.15H397.52L368.11,84.51v51.64h-20v-83h20l29.35,51.64V53.17h19.95v83Z" transform="translate(-3.89 -42.63)"/><path class="cls-8" d="M39.46,248.07v28.16h-20v-83H52.57a38.59,38.59,0,0,1,16.84,3.5,26.43,26.43,0,0,1,11.34,10,27.23,27.23,0,0,1,4,14.68q0,12.14-8.69,19.41t-23.85,7.27H39.46Zm0-15.45H52.57q5.81,0,8.86-2.91t3-8.21q0-5.81-3.13-9.29a11.11,11.11,0,0,0-8.55-3.54H39.46v23.94Z" transform="translate(-3.89 -42.63)"/><path class="cls-9" d="M165.71,236.45a48.94,48.94,0,0,1-4.5,21.49,33.26,33.26,0,0,1-12.8,14.39,35.62,35.62,0,0,1-18.89,5,36.14,36.14,0,0,1-18.81-4.87,33.23,33.23,0,0,1-12.8-13.94,47.52,47.52,0,0,1-4.82-20.8v-4.68a49.16,49.16,0,0,1,4.47-21.52,33.2,33.2,0,0,1,12.83-14.39,38,38,0,0,1,37.82-.06,33.8,33.8,0,0,1,12.85,14.28,47.74,47.74,0,0,1,4.65,21.23v3.82ZM145.36,233q0-12.37-4.13-18.78a13.26,13.26,0,0,0-11.83-6.41q-15,0-15.9,22.57l-0.06,6.1q0,12.2,4,18.75a13.23,13.23,0,0,0,12,6.56,13.08,13.08,0,0,0,11.68-6.44q4.1-6.44,4.16-18.52V233Z" transform="translate(-3.89 -42.63)"/><path class="cls-10" d="M206.86,246.88H196v29.35H176v-83h32.66q14.76,0,23.08,6.55t8.32,18.5q0,8.66-3.5,14.35t-11,9.22l17.33,33.51v0.86H221.51ZM196,231.49h12.65q5.7,0,8.58-3t2.88-8.37q0-5.37-2.91-8.43t-8.55-3.06H196v22.86Z" transform="translate(-3.89 -42.63)"/><path class="cls-11" d="M314.47,208.69H289.57v67.54h-20V208.69H245.11V193.24h69.37v15.45Z" transform="translate(-3.89 -42.63)"/><path class="cls-12" d="M375.18,243.17H342.92v33.06h-20v-83h55.52v15.45H342.92v19.09h32.26v15.39Z" transform="translate(-3.89 -42.63)"/><path class="cls-13" d="M457,236.45a48.94,48.94,0,0,1-4.5,21.49,33.26,33.26,0,0,1-12.8,14.39,35.62,35.62,0,0,1-18.89,5A36.14,36.14,0,0,1,402,272.5a33.23,33.23,0,0,1-12.8-13.94,47.52,47.52,0,0,1-4.82-20.8v-4.68a49.16,49.16,0,0,1,4.47-21.52,33.2,33.2,0,0,1,12.83-14.39,38,38,0,0,1,37.82-.06,33.8,33.8,0,0,1,12.85,14.28A47.74,47.74,0,0,1,457,232.63v3.82ZM436.68,233q0-12.37-4.13-18.78a13.26,13.26,0,0,0-11.83-6.41q-15,0-15.9,22.57l-0.06,6.1q0,12.2,4,18.75a13.23,13.23,0,0,0,12,6.56,13.08,13.08,0,0,0,11.68-6.44q4.1-6.44,4.16-18.52V233Z" transform="translate(-3.89 -42.63)"/><path class="cls-14" d="M487.35,260.84h34.82v15.39H467.34v-83h20v67.6Z" transform="translate(-3.89 -42.63)"/><path class="cls-15" d="M551.93,276.23H532v-83h19.95v83Z" transform="translate(-3.89 -42.63)"/><path class="cls-16" d="M636.11,236.45a48.93,48.93,0,0,1-4.5,21.49,33.26,33.26,0,0,1-12.8,14.39,35.62,35.62,0,0,1-18.89,5,36.14,36.14,0,0,1-18.81-4.87,33.22,33.22,0,0,1-12.8-13.94,47.52,47.52,0,0,1-4.82-20.8v-4.68A49.15,49.15,0,0,1,568,211.57a33.2,33.2,0,0,1,12.83-14.39,38,38,0,0,1,37.82-.06,33.79,33.79,0,0,1,12.85,14.28,47.75,47.75,0,0,1,4.64,21.23v3.82ZM615.76,233q0-12.37-4.13-18.78a13.26,13.26,0,0,0-11.83-6.41q-15,0-15.9,22.57l-0.06,6.1q0,12.2,4,18.75a13.23,13.23,0,0,0,12,6.56,13.08,13.08,0,0,0,11.69-6.44q4.1-6.44,4.16-18.52V233Z" transform="translate(-3.89 -42.63)"/></svg>