<?xml version="1.0" encoding="UTF-8" standalone="no"?>
<!DOCTYPE svg PUBLIC "-//W3C//DTD SVG 1.1//EN" "http://www.w3.org/Graphics/SVG/1.1/DTD/svg11.dtd">
<svg width="100%" height="100%" viewBox="0 0 500 500" version="1.1" xmlns="http://www.w3.org/2000/svg" xmlns:xlink="http://www.w3.org/1999/xlink" xml:space="preserve" xmlns:serif="http://www.serif.com/" style="fill-rule:evenodd;clip-rule:evenodd;stroke-linejoin:round;stroke-miterlimit:1.41421;">
    <rect id="Page-1" serif:id="Page 1" x="0" y="0" width="500" height="500" style="fill:none;"/>
    <clipPath id="_clip1">
        <rect id="Page-11" serif:id="Page 1" x="0" y="0" width="500" height="500"/>
    </clipPath>
    <g clip-path="url(#_clip1)">
        <g id="Layer-1" serif:id="Layer 1">
            <g transform="matrix(1.48057,0,0,1.48057,424.483,224.473)">
                <path d="M0,98.11C-0.01,98.92 -0.021,99.73 -0.04,100.56C-0.05,101.31 -0.08,102.06 -0.1,102.83C-0.1,102.9 -0.11,102.97 -0.11,103.04C-0.62,102.31 -1.67,100.98 -3.48,99.4C-3.57,94.089 -3.95,89.12 -4.6,84.54C-6.07,74.32 -8.93,66.11 -12.99,60.72C-13.04,60.66 -13.08,60.6 -13.13,60.54C-14.63,58.59 -16.3,57.01 -18.12,55.87C-18.67,55.51 -19.24,55.2 -19.82,54.93C-19.82,54.93 -20.51,54.61 -21.22,54.35C-22.4,53.93 -26.91,53.65 -32.99,54.35C-32.38,51.36 -31.62,46.34 -32.13,40.22C-33.58,22.62 -44.86,3.87 -59.811,-4.93C-54.9,-2.58 -50.74,0.28 -47.26,3.33C-45.36,4.97 -43.68,6.65 -42.17,8.34C-35.15,16.11 -31.94,23.78 -31.03,26.08C-28.48,32.48 -27.48,38.45 -27.13,43.23C-26.95,45.63 -26.95,47.73 -26.99,49.45C-23.14,48.58 -20.12,48.93 -17.76,49.74C-17.29,49.9 -16.82,50.1 -16.36,50.31C-15.771,50.58 -15.21,50.89 -14.65,51.25C-12.84,52.39 -11.17,53.97 -9.67,55.92C-9.62,55.98 -9.58,56.04 -9.53,56.11C-9.311,56.4 -9.09,56.7 -8.88,57.01C-8.72,57.24 -8.561,57.48 -8.41,57.72C-8.271,57.92 -8.14,58.13 -8.01,58.35C-7.92,58.49 -7.83,58.64 -7.75,58.78C-7.61,59 -7.48,59.23 -7.35,59.47C-6.5,60.99 -5.71,62.66 -5.01,64.47C-4.87,64.83 -4.73,65.19 -4.59,65.57C-4.47,65.89 -4.36,66.21 -4.24,66.54C-4.22,66.59 -4.2,66.64 -4.19,66.7C-3.95,67.41 -3.72,68.14 -3.49,68.89C-3.45,69.03 -3.41,69.16 -3.38,69.29C-3.16,70.03 -2.96,70.78 -2.771,71.55C-2.69,71.87 -2.61,72.18 -2.53,72.5C-2.42,72.96 -2.32,73.42 -2.22,73.89C-2.04,74.72 -1.87,75.57 -1.71,76.44C-1.45,77.84 -1.22,79.29 -1.03,80.77C-0.93,81.53 -0.83,82.29 -0.75,83.07C-0.66,83.85 -0.58,84.64 -0.51,85.44C-0.47,85.9 -0.43,86.36 -0.39,86.83C-0.32,87.76 -0.25,88.7 -0.2,89.65C-0.15,90.46 -0.12,91.28 -0.09,92.11C-0.07,92.66 -0.05,93.21 -0.04,93.77C0,95.19 0.01,96.64 0,98.11" style="fill:rgb(163,76,162);fill-rule:nonzero;"/>
            </g>
            <g transform="matrix(1.48057,0,0,1.48057,314.446,26.613)">
                <path d="M0,32.973C-0.3,35.097 -0.611,37.231 -0.923,39.355C-2.377,37.162 -4.2,34.589 -6.439,31.796C-9.268,28.264 -12.764,24.375 -17,20.451C-17.011,20.439 -17.022,20.428 -17.034,20.416C-20.496,17.22 -24.455,13.999 -28.944,10.93C-41.974,2.032 -54.542,-2.215 -63.348,-4.339C-63.175,-5.008 -62.979,-5.69 -62.794,-6.382C-54.092,-4.651 -39.516,-0.6 -24.328,9.775C-13.053,17.485 -5.193,26.106 0,32.973" style="fill:rgb(209,106,37);fill-rule:nonzero;"/>
            </g>
            <g transform="matrix(1.48057,0,0,1.48057,376.609,59.3871)">
                <path d="M0,44.894C-0.115,45.056 -0.219,45.217 -0.323,45.379C-1.177,46.671 -2.031,47.976 -2.885,49.268C-4.235,46.718 -5.689,44.075 -7.259,41.374C-10.94,35.003 -15.211,28.264 -20.15,21.305C-21.789,18.985 -23.439,16.746 -25.09,14.587C-28.817,9.694 -32.511,5.193 -36.123,1.073C-35.857,-0.739 -35.604,-2.563 -35.339,-4.374C-29.014,2.539 -22.251,10.686 -15.534,20.15C-9.359,28.829 -4.247,37.185 0,44.894" style="fill:rgb(209,106,37);fill-rule:nonzero;"/>
            </g>
            <g transform="matrix(1.48057,0,0,1.48057,426.863,124.934)">
                <path d="M0,47.352C-0.081,47.445 -0.15,47.548 -0.231,47.641C-1.708,49.499 -3.186,51.346 -4.675,53.204C-4.548,50.318 -4.513,46.025 -5.183,40.843C-6.071,33.664 -8.275,24.801 -13.307,15.695C-15.823,11.16 -18.616,7.316 -21.386,4.12C-23.647,1.477 -25.887,-0.739 -27.918,-2.54C-27.93,-2.563 -27.93,-2.563 -27.941,-2.563L-27.976,-2.597L-25.829,-5.852C-21.051,-1.974 -14.195,4.604 -8.69,14.541C-7.571,16.572 -6.59,18.592 -5.725,20.589C-5.713,20.612 -5.701,20.623 -5.701,20.646C-1.2,31.102 -0.127,40.774 0,47.352" style="fill:rgb(209,106,37);fill-rule:nonzero;"/>
            </g>
            <g transform="matrix(1.48057,0,0,1.48057,450.341,191.18)">
                <path d="M0,55.605C-0.682,55.917 -3.094,56.955 -4.929,56.736C-5.066,56.724 -5.217,56.701 -5.379,56.655C-6.486,56.401 -7.825,55.582 -9.256,53.47C-9.049,52.639 -8.829,51.762 -8.621,50.815C-7.133,44.075 -5.887,34.485 -7.236,23.175C-8.218,15.003 -10.283,8.137 -12.36,2.851C-11.241,1.443 -10.122,0.058 -9.002,-1.35C-8.044,0.843 -7.028,3.37 -6.094,6.267L-6.094,6.279C-4.64,10.745 -3.336,16.031 -2.62,22.021C-1.085,34.912 -2.92,45.576 -4.64,52.316C-3.013,54.716 -1.513,55.443 -0.323,55.582L-0.312,55.582C-0.208,55.593 -0.104,55.605 0,55.605" style="fill:rgb(209,106,37);fill-rule:nonzero;"/>
            </g>
            <g transform="matrix(1.48057,0,0,1.48057,457.569,333.364)">
                <path d="M0,-8.518C-0.716,1.984 -3.866,16.191 -14.312,33.157C-14.265,31.045 -14.254,28.979 -14.288,26.97C-14.288,26.682 -14.3,26.382 -14.312,26.093C-12.015,21.616 -10.249,17.345 -8.875,13.352C-6.163,5.412 -5.009,-1.547 -4.617,-7.364C-3.913,-17.809 -4.64,-38.767 -4.697,-40.417C-2.62,-40.406 -0.081,-41.675 -0.081,-41.675C-0.081,-41.675 0.046,-38.351 0.149,-33.643C0.323,-26.164 0.45,-15.2 0,-8.518" style="fill:rgb(209,106,37);fill-rule:nonzero;"/>
            </g>
            <g transform="matrix(1.48057,0,0,1.48057,112.557,345.613)">
                <path d="M0,-57.61C-3.66,-46.86 -3.25,-37.08 -2.5,-31.03C-7.56,-26.55 -13.4,-19.92 -16.8,-10.48C-18.45,-5.92 -19.29,-1.34 -19.63,3.059C-20.01,7.88 -19.78,12.47 -19.31,16.53C-21.02,17.809 -22.27,19 -23.14,19.96C-23.76,18.349 -24.39,16.65 -25.03,14.91C-25.4,11.65 -25.61,8.08 -25.47,4.349C-25.26,-1.12 -24.31,-6.95 -22.03,-12.75C-21.81,-13.32 -21.57,-13.87 -21.33,-14.42C-21.29,-14.52 -21.25,-14.61 -21.2,-14.71C-20.96,-15.25 -20.71,-15.78 -20.46,-16.3C-20.45,-16.32 -20.44,-16.34 -20.42,-16.37C-20.18,-16.87 -19.92,-17.36 -19.66,-17.84C-19.34,-18.43 -19.01,-19.01 -18.67,-19.58C-18.51,-19.85 -18.35,-20.12 -18.18,-20.38C-17.92,-20.8 -17.65,-21.22 -17.38,-21.63C-15.2,-24.91 -12.76,-27.76 -10.3,-30.17C-9.98,-30.5 -9.65,-30.81 -9.32,-31.12C-8.8,-31.61 -8.29,-32.08 -7.78,-32.53C-7.41,-32.86 -7.04,-33.17 -6.68,-33.48C-6.31,-33.79 -5.94,-34.09 -5.58,-34.39C-6.66,-39.13 -8.58,-50.79 -2.7,-62.38C-2.49,-62.79 -2.28,-63.18 -2.07,-63.57C-1.86,-63.96 -1.64,-64.34 -1.42,-64.71C-1.27,-64.96 -1.12,-65.2 -0.97,-65.44C-0.86,-65.62 -0.74,-65.8 -0.63,-65.97C-0.43,-66.28 -0.22,-66.58 -0.02,-66.87C0.77,-68.01 1.61,-69.06 2.51,-70.06C2.66,-70.24 2.82,-70.42 2.99,-70.6C3.44,-71.09 3.9,-71.56 4.38,-72.01C4.55,-72.18 4.72,-72.34 4.89,-72.5C6.12,-73.65 7.43,-74.71 8.81,-75.7C9.04,-75.87 9.28,-76.04 9.52,-76.2C9.79,-76.39 10.06,-76.58 10.34,-76.76C10.76,-77.03 11.19,-77.31 11.61,-77.57C6.65,-71.8 2.56,-65.11 0,-57.61" style="fill:rgb(0,191,52);fill-rule:nonzero;"/>
            </g>
            <g transform="matrix(1.48057,0,0,1.48057,362.051,204.098)">
                <path d="M0,22.101C-3.497,19.712 -7.502,17.485 -12.071,15.603C-26.532,9.637 -39.908,9.798 -46.672,10.318C-47.11,11.841 -48.206,14.761 -51.253,17.243C-57.717,22.505 -66.949,20.958 -67.85,20.797C-69.5,17.716 -71.15,14.646 -72.812,11.564C-79.125,10.168 -86.2,9.06 -93.943,8.54C-120.869,6.751 -143.328,13.007 -158.169,18.824C-155.63,17.127 -152.895,15.615 -149.963,14.161C-137.372,7.883 -115.802,-0.404 -89.247,1.616C-82.495,2.135 -76.332,3.243 -70.839,4.64C-69.396,7.721 -67.953,10.791 -66.522,13.872C-65.737,14.034 -57.693,15.58 -52.062,10.318C-49.418,7.836 -48.449,4.916 -48.08,3.393C-42.183,2.874 -30.537,2.712 -17.946,8.679C-10.236,12.326 -4.362,17.231 0,22.101" style="fill:rgb(0,173,208);fill-rule:nonzero;"/>
            </g>
            <g transform="matrix(1.48057,0,0,1.48057,289.225,72.9702)">
                <path d="M0,-10.894C-3.462,-14.091 -7.421,-17.311 -11.91,-20.381C-27.098,-30.756 -41.675,-34.807 -50.376,-36.538C-51.138,-33.745 -51.831,-31.183 -52.477,-28.84C-53.042,-26.751 -53.562,-24.847 -54.035,-23.127C-56.182,-15.245 -57.301,-11.148 -57.301,-11.148C-58.121,-11.737 -58.952,-12.313 -59.771,-12.902C-60.336,-13.306 -60.89,-13.71 -61.456,-14.102C-64.26,-16.099 -67.053,-18.096 -69.857,-20.092C-71.347,-17.138 -73.043,-13.987 -75.005,-10.709C-77.763,-6.035 -81.041,-1.096 -84.907,3.959C-94.267,16.204 -104.1,25.148 -112.167,31.415C-112.755,30.307 -113.333,29.199 -113.921,28.091C-114.614,26.776 -115.306,25.448 -116.01,24.121C-111.786,20.728 -107.158,16.643 -102.415,11.773C-98.525,7.791 -94.567,3.267 -90.678,-1.811C-84.099,-10.409 -79.229,-18.684 -75.628,-25.863C-71.439,-22.885 -67.261,-19.896 -63.072,-16.918C-63.072,-16.918 -60.671,-25.701 -56.147,-42.309C-47.445,-40.578 -32.869,-36.527 -17.681,-26.151C-10.444,-21.212 -4.616,-15.88 0,-10.894" style="fill:rgb(212,78,83);fill-rule:nonzero;"/>
            </g>
            <g transform="matrix(1.48057,0,0,1.48057,111.945,374.236)">
                <path d="M0,-181.251C-3.104,-177.846 -6.555,-173.703 -10.041,-168.821C-14.899,-162.035 -19.816,-153.807 -24.005,-144.089C-29.049,-132.375 -31.68,-121.619 -33.088,-113.021C-36.377,-115.283 -39.678,-117.533 -42.967,-119.795C-44.329,-112.328 -45.356,-103.303 -45.275,-93.055C-45.16,-78.628 -42.863,-66.395 -40.382,-57.139C-44.317,-58.051 -48.265,-58.962 -52.2,-59.875C-48.646,-49.511 -44.641,-38.72 -40.128,-27.571C-39.182,-25.228 -38.212,-22.862 -37.22,-20.485C-34.323,-13.549 -31.115,-5.297 -28.356,1.316C-27.537,5.056 -26.995,7.363 -27.664,7.56C-27.987,7.652 -28.437,7.225 -28.991,6.383C-29.002,6.371 -29.002,6.359 -29.014,6.348C-31.992,1.847 -37.936,-14.184 -42.99,-26.255C-48.703,-39.92 -53.666,-53.1 -57.971,-65.645C-54.035,-64.733 -50.088,-63.821 -46.152,-62.91C-48.634,-72.177 -50.931,-84.399 -51.046,-98.825C-51.126,-109.074 -50.1,-118.099 -48.738,-125.565C-45.449,-123.304 -42.148,-121.053 -38.858,-118.791C-37.451,-127.389 -34.819,-138.146 -29.776,-149.859C-22.009,-167.887 -11.714,-180.778 -4.016,-188.903C-2.678,-186.352 -1.339,-183.802 0,-181.251" style="fill:rgb(212,78,83);fill-rule:nonzero;"/>
            </g>
            <g transform="matrix(1.48057,0,0,1.48057,450.733,83.9521)">
                <path d="M0,161.09C-0.39,166.91 -1.55,173.87 -4.26,181.81C-4.63,182.87 -5.02,183.961 -5.439,185.06C-5.609,185.51 -5.79,185.961 -5.979,186.41C-6.159,186.87 -6.35,187.34 -6.55,187.81C-6.649,188.05 -6.75,188.29 -6.859,188.53C-7.189,189.31 -7.55,190.1 -7.92,190.9C-7.989,191.07 -8.069,191.24 -8.149,191.4C-8.38,191.89 -8.609,192.381 -8.859,192.881C-9.13,193.43 -9.399,193.99 -9.689,194.55C-11.399,197.921 -13.399,201.43 -15.739,205.05C-16.22,202.381 -16.88,200.18 -17.439,198.58C-17.439,198.58 -17.56,198.35 -17.84,197.95C-17.84,197.881 -17.829,197.81 -17.829,197.74C-17.81,196.97 -17.779,196.22 -17.77,195.47C-17.75,194.64 -17.739,193.83 -17.729,193.02C-17.72,191.55 -17.729,190.1 -17.77,188.68C-17.779,188.12 -17.8,187.57 -17.819,187.02C-17.85,186.19 -17.88,185.37 -17.93,184.56C-17.979,183.61 -18.05,182.671 -18.119,181.74C-18.159,181.27 -18.199,180.81 -18.239,180.35C-18.31,179.55 -18.39,178.76 -18.479,177.98C-18.56,177.2 -18.659,176.44 -18.76,175.68C-18.96,174.19 -19.189,172.75 -19.439,171.35C-19.6,170.48 -19.77,169.63 -19.949,168.8C-20.05,168.33 -20.149,167.87 -20.26,167.41C-20.34,167.09 -20.409,166.77 -20.5,166.46C-20.689,165.69 -20.89,164.94 -21.109,164.2C-21.14,164.07 -21.18,163.94 -21.22,163.8C-21.439,163.05 -21.68,162.32 -21.92,161.61C-21.93,161.55 -21.949,161.5 -21.97,161.45C-22.079,161.12 -22.199,160.8 -22.319,160.48C-22.449,160.1 -22.59,159.74 -22.739,159.38C-23.439,157.57 -24.229,155.9 -25.079,154.38C-25.21,154.15 -25.34,153.92 -25.479,153.69C-25.56,153.55 -25.649,153.4 -25.739,153.26C-25.869,153.04 -26,152.83 -26.14,152.63C-26.29,152.39 -26.449,152.15 -26.609,151.92C-26.819,151.61 -27.04,151.31 -27.26,151.02C-27.31,150.95 -27.35,150.89 -27.399,150.83C-28.899,148.88 -30.569,147.3 -32.38,146.16C-32.939,145.8 -33.5,145.49 -34.09,145.22C-34.55,145.01 -35.02,144.81 -35.489,144.65C-37.85,143.84 -40.869,143.49 -44.72,144.36C-44.68,142.64 -44.68,140.54 -44.859,138.14C-45.21,133.36 -46.21,127.39 -48.76,120.99C-49.67,118.69 -52.88,111.02 -59.899,103.25C-61.409,101.56 -63.09,99.88 -64.989,98.24C-68.47,95.19 -72.63,92.33 -77.54,89.98C-77.64,89.92 -77.739,89.87 -77.84,89.83C-83.81,87 -89.56,85.55 -94.59,84.85C-97.979,84.4 -101.05,84.28 -103.63,84.32C-105.3,84.35 -106.75,84.44 -107.979,84.54C-108.189,85.41 -108.59,86.71 -109.369,88.14C-109.869,89.04 -110.529,89.99 -111.39,90.89C-111.569,91.09 -111.76,91.28 -111.96,91.47C-112.1,91.59 -112.25,91.73 -112.39,91.85C-113.55,92.85 -114.81,93.58 -116.069,94.09L-116.079,94.1C-118.659,95.17 -121.27,95.39 -123.229,95.34C-124.93,95.31 -126.14,95.08 -126.42,95.02C-127.26,93.2 -128.119,91.39 -128.97,89.57C-129.55,88.32 -130.149,87.05 -130.739,85.79C-131.859,85.5 -133.01,85.23 -134.189,84.97C-138.77,83.96 -143.779,83.18 -149.14,82.76C-151.459,82.59 -153.75,82.49 -156,82.46C-165.51,82.35 -174.279,83.5 -182.12,85.29C-193.58,87.91 -203.04,91.9 -209.859,95.31C-212.31,96.52 -214.629,97.78 -216.8,99.16C-217.22,99.42 -217.649,99.7 -218.069,99.97C-218.62,100.34 -219.169,100.71 -219.7,101.1C-220.01,101.33 -220.319,101.55 -220.62,101.79C-221.16,102.2 -221.689,102.62 -222.2,103.06C-222.33,103.16 -222.47,103.28 -222.6,103.39C-222.91,103.67 -223.22,103.95 -223.52,104.23C-223.689,104.39 -223.859,104.55 -224.029,104.72C-224.22,104.89 -224.399,105.07 -224.569,105.25C-224.689,105.36 -224.8,105.47 -224.91,105.59C-225.08,105.77 -225.25,105.95 -225.419,106.13C-225.59,106.31 -225.75,106.49 -225.899,106.67C-226.129,106.92 -226.35,107.17 -226.56,107.43C-226.689,107.58 -226.819,107.73 -226.939,107.89C-227.14,108.13 -227.33,108.37 -227.52,108.62C-227.83,109.03 -228.129,109.44 -228.43,109.86C-228.62,110.14 -228.819,110.42 -229.01,110.71C-229.129,110.9 -229.26,111.09 -229.379,111.29C-229.76,111.89 -230.129,112.51 -230.479,113.16C-230.59,113.35 -230.7,113.55 -230.8,113.75C-230.91,113.95 -231.01,114.15 -231.109,114.35C-236.99,125.94 -235.069,137.6 -233.99,142.34C-234.35,142.63 -234.72,142.93 -235.09,143.25C-235.959,143.98 -236.84,144.76 -237.729,145.61C-238.06,145.92 -238.39,146.23 -238.709,146.56C-238.91,146.75 -239.1,146.94 -239.29,147.14C-240.209,148.06 -241.109,149.04 -242.01,150.09C-242.05,150.13 -242.08,150.17 -242.12,150.22C-242.319,150.46 -242.529,150.7 -242.729,150.96C-242.919,151.19 -243.1,151.42 -243.29,151.65C-243.54,151.97 -243.8,152.3 -244.05,152.64C-244.1,152.71 -244.149,152.78 -244.2,152.85C-244.459,153.19 -244.709,153.53 -244.959,153.89C-245.24,154.28 -245.52,154.69 -245.79,155.1C-246.229,155.76 -246.66,156.45 -247.08,157.15C-247.41,157.7 -247.72,158.26 -248.029,158.83C-248.319,159.35 -248.6,159.89 -248.87,160.43C-249.12,160.95 -249.37,161.47 -249.6,162C-249.729,162.26 -249.84,162.52 -249.95,162.79C-250.12,163.18 -250.279,163.58 -250.439,163.98C-250.729,164.71 -250.99,165.43 -251.229,166.16C-251.3,166.37 -251.37,166.57 -251.439,166.78C-251.45,166.82 -251.47,166.87 -251.479,166.91C-251.569,167.18 -251.649,167.44 -251.729,167.72C-251.85,168.13 -251.97,168.55 -252.08,168.96C-252.14,169.16 -252.2,169.37 -252.25,169.58C-252.3,169.79 -252.35,170 -252.399,170.2C-252.45,170.39 -252.5,170.58 -252.54,170.77C-252.58,170.96 -252.62,171.15 -252.669,171.34C-252.77,171.78 -252.85,172.21 -252.939,172.65C-253.01,173.05 -253.09,173.46 -253.149,173.87C-253.29,174.7 -253.41,175.54 -253.51,176.37C-253.56,176.76 -253.6,177.16 -253.64,177.55C-253.649,177.69 -253.669,177.83 -253.68,177.97C-253.74,178.631 -253.79,179.29 -253.819,179.94C-253.85,180.32 -253.859,180.7 -253.879,181.08C-254.02,184.81 -253.81,188.381 -253.439,191.64C-253.29,192.921 -253.12,194.15 -252.93,195.32C-252.79,196.18 -252.649,197.01 -252.5,197.81C-253.06,198.55 -253.3,198.99 -253.3,198.99C-253.7,200.16 -254.169,201.64 -254.569,203.4C-255.189,202.05 -255.859,200.53 -256.56,198.881C-256.75,198.39 -256.959,197.89 -257.18,197.381C-258.27,194.76 -259.439,191.87 -260.629,188.921C-260.939,188.15 -261.25,187.381 -261.56,186.6C-261.97,185.59 -262.37,184.57 -262.779,183.56C-263.89,180.82 -264.99,178.11 -266.04,175.58C-267.04,173.2 -268,170.83 -268.95,168.49C-270.09,165.67 -271.2,162.87 -272.279,160.1C-272.8,158.76 -273.31,157.43 -273.81,156.1C-274.33,154.74 -274.84,153.39 -275.34,152.04C-275.85,150.7 -276.34,149.36 -276.83,148.02C-277.56,146.02 -278.27,144.04 -278.97,142.07C-279.669,140.1 -280.35,138.14 -281.02,136.19C-280.109,136.4 -279.2,136.6 -278.29,136.82C-277.819,136.93 -277.35,137.04 -276.879,137.15C-276.439,137.25 -276,137.35 -275.56,137.45C-275.069,137.56 -274.569,137.68 -274.08,137.79C-273.26,137.98 -272.45,138.17 -271.64,138.36C-270.819,138.54 -270.02,138.73 -269.209,138.92C-269.41,138.16 -269.609,137.36 -269.819,136.56C-269.85,136.46 -269.87,136.36 -269.89,136.25C-270.069,135.56 -270.24,134.86 -270.399,134.14C-270.5,133.7 -270.6,133.26 -270.7,132.8C-270.8,132.36 -270.899,131.9 -271,131.44C-271.14,130.77 -271.279,130.09 -271.419,129.41L-271.419,129.4C-271.689,128.02 -271.95,126.59 -272.189,125.13C-272.31,124.4 -272.43,123.65 -272.54,122.9C-272.649,122.15 -272.76,121.38 -272.859,120.61C-272.939,120 -273.02,119.38 -273.1,118.75C-273.1,118.72 -273.109,118.68 -273.109,118.65C-273.149,118.33 -273.18,118.01 -273.22,117.68C-273.29,117.08 -273.35,116.47 -273.41,115.86C-273.459,115.35 -273.51,114.82 -273.56,114.3C-273.569,114.21 -273.58,114.13 -273.58,114.04C-273.62,113.58 -273.66,113.1 -273.689,112.63C-273.75,111.98 -273.79,111.31 -273.83,110.64C-273.84,110.54 -273.84,110.43 -273.85,110.33C-273.87,109.95 -273.899,109.57 -273.91,109.18C-273.919,109.04 -273.93,108.91 -273.93,108.77L-273.959,108.2C-274,107.37 -274.029,106.53 -274.05,105.69C-274.08,104.8 -274.09,103.91 -274.1,103.01C-274.109,102.37 -274.109,101.73 -274.1,101.11C-274.1,100.98 -274.09,100.86 -274.09,100.73L-274.09,100.46C-274.09,100.25 -274.09,100.03 -274.08,99.82C-274.08,99.3 -274.069,98.78 -274.05,98.27C-274.04,97.68 -274.02,97.09 -274,96.51C-273.979,95.92 -273.95,95.34 -273.919,94.77C-273.899,94.27 -273.87,93.76 -273.84,93.26C-273.83,93.05 -273.819,92.85 -273.8,92.65C-273.77,92.22 -273.75,91.8 -273.709,91.38C-273.64,90.34 -273.55,89.32 -273.459,88.32C-273.439,88.1 -273.419,87.89 -273.39,87.67C-273.3,86.77 -273.209,85.89 -273.109,85.02C-273.09,84.82 -273.06,84.63 -273.04,84.43C-272.959,83.8 -272.87,83.19 -272.79,82.58C-272.49,80.36 -272.16,78.26 -271.79,76.27C-270.47,77.18 -269.149,78.08 -267.83,78.99C-266.62,79.81 -265.41,80.64 -264.2,81.47C-263.43,82 -262.669,82.52 -261.91,83.04C-261.859,82.73 -261.8,82.42 -261.75,82.11C-261.7,81.8 -261.64,81.48 -261.58,81.16C-261.47,80.52 -261.35,79.86 -261.22,79.2C-260.84,77.23 -260.399,75.17 -259.87,73.03C-259.779,72.63 -259.669,72.22 -259.569,71.81C-259.31,70.78 -259.029,69.73 -258.72,68.66C-258.569,68.11 -258.41,67.55 -258.24,66.98C-257.669,65.04 -257.04,63.05 -256.34,61.02C-256.14,60.47 -255.95,59.91 -255.74,59.35C-255.52,58.74 -255.3,58.14 -255.069,57.53C-254.899,57.08 -254.72,56.62 -254.54,56.16C-254.459,55.94 -254.37,55.73 -254.29,55.51C-254.149,55.14 -254,54.77 -253.84,54.4C-253.74,54.16 -253.649,53.92 -253.55,53.68C-253.319,53.11 -253.08,52.54 -252.83,51.97C-248.64,42.26 -243.72,34.03 -238.859,27.24C-238.819,27.17 -238.77,27.1 -238.729,27.04C-238.34,26.5 -237.95,25.96 -237.56,25.44C-237.129,24.85 -236.7,24.28 -236.26,23.72C-235.83,23.15 -235.399,22.6 -234.97,22.06C-234.55,21.52 -234.12,20.99 -233.7,20.47C-233.56,20.3 -233.43,20.13 -233.29,19.97C-233.26,19.93 -233.229,19.89 -233.2,19.86C-232.93,19.53 -232.66,19.2 -232.39,18.89C-231.16,17.43 -229.97,16.07 -228.819,14.81C-228.22,14.15 -227.629,13.54 -227.069,12.94C-226.64,13.77 -226.2,14.59 -225.779,15.41C-225.55,15.84 -225.33,16.28 -225.1,16.7C-224.39,18.03 -223.7,19.36 -223.01,20.67C-222.419,21.78 -221.84,22.89 -221.25,24C-220.06,23.07 -218.84,22.11 -217.58,21.05C-210.52,15.21 -202.49,7.48 -194.74,-2.5C-194.709,-2.54 -194.669,-2.57 -194.66,-2.6C-194.43,-2.89 -194.209,-3.17 -193.99,-3.46C-190.129,-8.51 -186.85,-13.45 -184.09,-18.13C-183.22,-19.57 -182.419,-20.98 -181.66,-22.36C-180.669,-24.13 -179.77,-25.85 -178.939,-27.51C-177.959,-26.81 -176.979,-26.11 -176,-25.41C-174.18,-24.12 -172.359,-22.81 -170.54,-21.52C-169.979,-21.13 -169.419,-20.72 -168.859,-20.32C-168.649,-20.17 -168.439,-20.02 -168.229,-19.88C-167.62,-19.44 -167,-19 -166.39,-18.57C-166.39,-18.57 -166.04,-19.82 -165.37,-22.28C-164.84,-24.27 -164.08,-27.04 -163.12,-30.55C-162.649,-32.26 -162.129,-34.17 -161.56,-36.26C-161.33,-37.11 -161.09,-37.99 -160.84,-38.9C-160.41,-40.49 -159.95,-42.18 -159.459,-43.96C-158.229,-43.71 -156.87,-43.41 -155.399,-43.07C-146.59,-40.94 -134.029,-36.7 -121,-27.8C-116.51,-24.73 -112.55,-21.51 -109.09,-18.31C-109.069,-18.3 -109.06,-18.29 -109.05,-18.28C-104.819,-14.35 -101.319,-10.46 -98.489,-6.93C-97.31,-5.45 -96.239,-4.05 -95.279,-2.72C-94.43,-1.53 -93.659,-0.41 -92.97,0.63C-92.659,-1.5 -92.35,-3.63 -92.05,-5.75L-91.069,-12.52L-90.109,-19.15C-90.079,-19.37 -90.05,-19.59 -90.02,-19.81C-88.75,-18.43 -87.47,-17 -86.189,-15.52C-82.579,-11.4 -78.88,-6.9 -75.149,-2C-73.5,0.15 -71.85,2.39 -70.22,4.71C-65.279,11.67 -61.01,18.41 -57.319,24.78C-55.819,27.36 -54.43,29.88 -53.13,32.33C-53.079,32.45 -53.01,32.56 -52.949,32.68C-52.1,31.38 -51.239,30.08 -50.39,28.79C-50.279,28.63 -50.18,28.46 -50.06,28.3C-49.96,28.14 -49.859,27.99 -49.75,27.83C-48.699,26.21 -47.64,24.6 -46.569,22.98C-45.79,23.61 -44.96,24.3 -44.1,25.08L-44.04,25.14C-42.01,26.94 -39.77,29.16 -37.51,31.8C-34.739,35 -31.949,38.84 -29.43,43.38C-24.399,52.48 -22.189,61.34 -21.3,68.52C-20.64,73.7 -20.67,78 -20.8,80.88C-19.31,79.03 -17.829,77.18 -16.35,75.32C-16.27,75.23 -16.199,75.12 -16.119,75.03C-15.369,74.1 -14.619,73.16 -13.88,72.23C-13.47,73.17 -13.04,74.19 -12.63,75.27C-10.55,80.56 -8.479,87.43 -7.5,95.6C-6.149,106.91 -7.399,116.5 -8.89,123.24C-9.09,124.19 -9.31,125.06 -9.52,125.89C-8.09,128.01 -6.75,128.82 -5.64,129.08C-5.479,129.12 -5.329,129.15 -5.189,129.16C-3.359,129.38 -0.949,128.34 -0.27,128.03C-0.149,127.97 -0.079,127.94 -0.079,127.94L-0.079,128.04C-0.02,129.69 0.7,150.65 0,161.09" style="fill:rgb(79,59,44);fill-rule:nonzero;"/>
            </g>
            <g transform="matrix(1.48057,0,0,1.48057,231.8,199.112)">
                <path d="M0,-100.022C7.732,-97.561 19.904,-92.641 32.265,-82.635C44.938,-72.376 52.371,-61.173 56.371,-54.025C57.468,-54.888 59.34,-56.594 60.721,-59.351C62.273,-62.451 62.41,-65.293 62.383,-66.72C66.328,-62.48 73.016,-54.169 76.898,-41.766C81.209,-27.997 79.853,-16.242 78.784,-10.436C73.998,-11.632 66.9,-12.772 58.436,-11.831C44.038,-10.231 33.94,-3.534 29.326,0C25.381,-1.021 12.818,-4.806 3.859,-17.094C-2.046,-25.194 -3.734,-33.354 -4.302,-37.656C-1.31,-45.484 2.121,-57.188 2.688,-71.701C3.136,-83.159 1.662,-92.856 0,-100.022" style="fill:rgb(87,64,49);fill-rule:nonzero;"/>
            </g>
            <g transform="matrix(1.48057,0,0,1.48057,188.373,188.383)">
                <path d="M0,-81.764C0,-81.764 0.007,-81.782 0.006,-81.782C-0.026,-81.797 -5.741,-67.399 -12.378,-56.749C-15.684,-51.443 -20.914,-44.347 -29.213,-36.971C-27.378,-32.167 -21.74,-19.311 -7.791,-9.835C4.584,-1.428 16.861,-0.192 22.108,0.033C18.534,-4.249 13.384,-11.5 10.646,-21.52C6.115,-38.104 13.696,-42.133 8.05,-55.407C8.05,-55.407 -1.548,-77.969 0,-81.764" style="fill:rgb(76,54,39);fill-rule:nonzero;"/>
            </g>
            <g transform="matrix(1.48057,0,0,1.48057,385.443,269.064)">
                <path d="M0,-86.557C3.205,-81.963 7.299,-74.991 10.11,-65.784C13.308,-55.31 13.547,-46.199 13.237,-40.25C12.616,-38.921 9.796,-32.524 12.418,-25.101C15.646,-15.965 24.38,-13.02 25.401,-12.695C23.459,-12.547 18.424,-11.901 13.717,-8.078C10.148,-5.181 8.422,-1.801 7.657,0C7.525,-4.838 6.639,-13.786 1.599,-23.515C-2.899,-32.195 -8.751,-37.724 -12.396,-40.682C-11.464,-46.177 -10.762,-53.607 -11.529,-62.321C-12.313,-71.204 -14.368,-78.517 -16.29,-83.816C-15.487,-82.618 -14.115,-80.887 -11.962,-79.344C-10.291,-78.146 -8.69,-77.449 -7.49,-77.036C-6.455,-77.458 -4.464,-78.432 -2.729,-80.498C-0.708,-82.906 -0.169,-85.443 0,-86.557" style="fill:rgb(76,54,39);fill-rule:nonzero;"/>
            </g>
            <g transform="matrix(1.48057,0,0,1.48057,109.075,248.986)">
                <path d="M0,-77.709C4.298,-70.776 10.173,-62.594 18.081,-54.242C24.953,-46.984 31.747,-41.302 37.701,-36.931C29.293,-34.901 13.462,-29.759 -0.289,-15.868C-5.714,-10.387 -9.574,-4.8 -12.311,0C-14.451,-8.011 -17.19,-22.382 -14.426,-40.008C-11.637,-57.799 -4.524,-70.733 0,-77.709" style="fill:rgb(71,52,40);fill-rule:nonzero;"/>
            </g>
            <g transform="matrix(1.48057,0,0,1.48057,55.5347,286.515)">
                <path d="M0,-43.962C0.802,-41.856 2.872,-40.544 5.001,-40.735C6.84,-40.901 8.448,-42.163 9.115,-43.962C9.828,-38.069 11.269,-30.656 14.234,-22.462C17.679,-12.94 22.062,-5.465 25.775,-0.101C19.852,0 15.804,-1.631 13.368,-2.986C2.06,-9.276 -3.358,-25.658 0,-43.962" style="fill:rgb(66,48,37);fill-rule:nonzero;"/>
            </g>
            <g transform="matrix(1.48057,0,0,1.48057,425.237,418.132)">
                <path d="M0,-9.751C-0.784,-4.281 -2.509,0.047 -3.977,3.001C-5.578,7.168 -11.805,21.905 -27.228,29.072C-28.807,29.812 -35.324,32.708 -44.296,32.857C-45.941,32.881 -74.042,32.847 -86.676,9.349C-95.669,-7.397 -90.629,-24.523 -89.554,-27.905C-89.554,-27.905 -78.914,-46.544 -44.284,-45.517C-9.666,-44.501 -1.859,-29.44 -1.859,-29.44C-0.583,-25.666 1.254,-18.534 0,-9.751M12.51,-37.542C12.51,-37.542 11.435,-43.151 6.854,-45.09C-8.513,-49.821 -21.762,-51.287 -31.629,-51.622C-37.609,-51.818 -93.272,-53.688 -101.683,-29.325C-102.77,-26.174 -102.635,-23.635 -102.355,-18.546C-102.086,-13.768 -100.417,16.343 -75.341,31.75C-55.518,43.937 -30.218,41.306 -14.056,28.415C-2.834,19.459 2.284,7.041 4.334,0.555C7.089,-8.159 7.335,-15.834 7.123,-20.796C7.123,-20.796 6.843,-25.771 11.67,-27.778C11.67,-27.778 14.548,-28.829 12.51,-37.542" style="fill:rgb(69,204,233);fill-rule:nonzero;"/>
            </g>
            <g transform="matrix(1.48057,0,0,1.48057,427.751,415.758)">
                <path d="M0,-5.84C-0.808,-0.369 -2.585,3.959 -4.097,6.913C-5.747,11.079 -12.164,25.817 -28.056,32.984C-29.684,33.723 -36.4,36.619 -45.645,36.769C-47.341,36.793 -76.297,36.758 -89.315,13.261C-98.583,-3.486 -93.39,-20.612 -92.281,-23.994C-92.281,-23.994 -81.317,-42.633 -45.633,-41.606C-9.96,-40.59 -1.915,-25.528 -1.915,-25.528C-0.6,-21.755 1.293,-14.622 0,-5.84" style="fill:rgb(255,221,81);fill-rule:nonzero;"/>
            </g>
            <g transform="matrix(1.48057,0,0,1.48057,231.43,452.852)">
                <path d="M0,-48.893C-8.672,-73.259 -66.028,-71.391 -72.192,-71.19C-82.362,-70.859 -96.006,-69.395 -111.851,-64.655C-116.561,-62.724 -117.671,-57.111 -117.671,-57.111C-119.777,-48.403 -116.813,-47.346 -116.813,-47.346C-111.835,-45.34 -112.119,-40.362 -112.119,-40.362C-112.339,-35.398 -112.084,-27.733 -109.247,-19.01C-107.141,-12.535 -101.867,-0.112 -90.3,8.843C-73.647,21.735 -47.571,24.366 -27.142,12.182C-1.302,-3.228 0.415,-33.336 0.687,-38.115C0.977,-43.199 1.122,-45.742 0,-48.893" style="fill:rgb(124,166,0);fill-rule:nonzero;"/>
            </g>
            <g transform="matrix(1.48057,0,0,1.48057,205.105,388.111)">
                <path d="M0,32.349C-13.007,55.847 -41.963,55.881 -43.66,55.859C-52.916,55.708 -59.621,52.812 -61.248,52.073C-77.14,44.906 -83.557,30.168 -85.207,26.001C-86.719,23.047 -88.508,18.719 -89.304,13.26C-90.608,4.466 -88.704,-2.666 -87.4,-6.44C-87.4,-6.44 -79.356,-21.501 -43.671,-22.516C-7.998,-23.532 2.978,-4.905 2.978,-4.905C4.074,-1.523 9.268,15.615 0,32.349" style="fill:rgb(244,132,103);fill-rule:nonzero;"/>
            </g>
            <g transform="matrix(1.48057,0,0,1.48057,215.694,371.695)">
                <path d="M0,-3.955C4.502,-5.729 12.968,-8.465 24.04,-8.497C34.65,-8.527 42.845,-6.061 47.341,-4.388C45.202,-1.401 43.064,1.585 40.926,4.572C38.188,3.26 32.375,0.887 24.499,0.735C15.714,0.567 9.232,3.256 6.482,4.572C4.321,1.73 2.161,-1.112 0,-3.955" style="fill:rgb(206,206,206);fill-rule:nonzero;"/>
            </g>
            <g transform="matrix(1.48057,0,0,1.48057,220.82,375.112)">
                <path d="M0,-3.955C3.776,-5.729 10.877,-8.465 20.163,-8.497C29.062,-8.527 35.935,-6.06 39.707,-4.388C37.913,-1.4 36.12,1.586 34.326,4.572C32.029,3.261 27.154,0.888 20.547,0.736C13.18,0.567 7.743,3.257 5.437,4.572C3.624,1.731 1.812,-1.112 0,-3.955" style="fill:rgb(155,155,155);fill-rule:nonzero;"/>
            </g>
            <g transform="matrix(1.48057,0,0,1.48057,210.231,391.528)">
                <path d="M0,32.35C-13.007,55.847 -41.963,55.882 -43.66,55.859C-52.916,55.709 -59.621,52.812 -61.248,52.074C-77.14,44.907 -83.557,30.168 -85.207,26.002C-86.719,23.048 -88.508,18.72 -89.304,13.261C-90.608,4.467 -88.704,-2.666 -87.4,-6.439C-87.4,-6.439 -79.356,-21.501 -43.671,-22.516C-7.998,-23.532 2.978,-4.904 2.978,-4.904C4.074,-1.523 9.268,15.616 0,32.35" style="fill:rgb(229,229,229);fill-rule:nonzero;"/>
            </g>
            <g transform="matrix(1.48057,0,0,1.48057,435.703,410.631)">
                <path d="M0,-5.839C-0.854,-0.369 -2.731,3.959 -4.329,6.914C-6.073,11.08 -12.854,25.817 -29.646,32.984C-31.366,33.724 -38.464,36.62 -48.232,36.77C-50.025,36.793 -80.623,36.759 -94.38,13.261C-104.172,-3.485 -98.685,-20.611 -97.514,-23.993C-97.514,-23.993 -85.928,-42.632 -48.22,-41.605C-10.524,-40.589 -2.023,-25.528 -2.023,-25.528C-0.634,-21.754 1.366,-14.622 0,-5.839" style="fill:rgb(229,229,229);fill-rule:nonzero;"/>
            </g>
            <g transform="matrix(1.48057,0,0,1.48057,427.755,421.552)">
                <path d="M0,-9.75C-0.81,-4.28 -2.59,0.05 -4.1,3C-5.75,7.17 -12.17,21.9 -28.06,29.07C-29.69,29.81 -36.4,32.71 -45.65,32.86C-47.34,32.88 -76.3,32.85 -89.32,9.35C-98.59,-7.4 -93.39,-24.53 -92.28,-27.91C-92.28,-27.91 -81.32,-46.55 -45.64,-45.521C-22.41,-44.86 -10.89,-38.24 -5.69,-33.71C-3.88,-32.13 -2.83,-30.8 -2.32,-30.07C-2.04,-29.67 -1.92,-29.44 -1.92,-29.44C-1.36,-27.84 -0.7,-25.64 -0.22,-22.97C0.43,-19.33 0.74,-14.82 0,-9.75M12.89,-37.54C12.89,-37.54 12.78,-38.08 12.5,-38.88L12.5,-38.89C12.1,-39.99 11.36,-41.58 10.08,-42.96C9.3,-43.81 8.3,-44.58 7.06,-45.09C3.7,-46.1 0.43,-46.95 -2.72,-47.67C-4.11,-48 -5.47,-48.3 -6.81,-48.57C-16.79,-50.61 -25.53,-51.39 -32.59,-51.62C-38.76,-51.82 -96.12,-53.69 -104.78,-29.33C-105.9,-26.18 -105.76,-23.64 -105.48,-18.55C-105.2,-13.771 -103.48,16.34 -77.64,31.75C-57.21,43.94 -31.14,41.3 -14.49,28.41C-2.92,19.46 2.35,7.04 4.46,0.55C7.3,-8.16 7.56,-15.83 7.34,-20.8C7.34,-20.8 7.05,-25.771 12.02,-27.78C12.02,-27.78 14.99,-28.83 12.89,-37.54" style="fill:rgb(12,12,12);fill-rule:nonzero;"/>
            </g>
            <g transform="matrix(1.48057,0,0,1.48057,439.441,369.068)">
                <path d="M0,0.001C0,1.833 -1.484,3.317 -3.316,3.317C-5.148,3.317 -6.634,1.833 -6.634,0.001C-6.634,-1.831 -5.148,-3.316 -3.316,-3.316C-1.484,-3.316 0,-1.831 0,0.001" style="fill:rgb(155,155,155);fill-rule:nonzero;"/>
            </g>
            <g transform="matrix(1.48057,0,0,1.48057,205.108,393.894)">
                <path d="M0,28.44C-13.02,51.94 -41.97,51.98 -43.67,51.95C-52.91,51.8 -59.63,48.91 -61.26,48.17C-77.15,41.001 -83.57,26.26 -85.22,22.1C-86.73,19.14 -88.51,14.81 -89.31,9.34C-90.21,3.27 -89.58,-2.01 -88.67,-5.94C-88.27,-7.7 -87.8,-9.18 -87.4,-10.35C-87.4,-10.35 -87.16,-10.789 -86.6,-11.53C-86.35,-11.85 -86.04,-12.23 -85.65,-12.65C-84.78,-13.61 -83.53,-14.8 -81.82,-16.08C-75.93,-20.45 -64.52,-25.83 -43.68,-26.419C-8,-27.45 2.97,-8.81 2.97,-8.81C4.08,-5.43 9.27,11.7 0,28.44M15.47,-10.23C6.8,-34.59 -50.56,-32.72 -56.72,-32.53C-63.7,-32.3 -72.31,-31.539 -82.14,-29.55C-84.04,-29.169 -85.99,-28.74 -87.98,-28.26C-90.7,-27.61 -93.5,-26.86 -96.38,-25.999C-96.55,-25.93 -96.72,-25.85 -96.88,-25.78C-97.95,-25.249 -98.82,-24.53 -99.51,-23.749C-101.62,-21.39 -102.2,-18.45 -102.2,-18.45C-104.3,-9.73 -101.34,-8.68 -101.34,-8.68C-96.36,-6.68 -96.65,-1.7 -96.65,-1.7C-96.87,3.26 -96.62,10.94 -93.78,19.65C-91.67,26.13 -86.39,38.55 -74.83,47.51C-58.18,60.4 -32.1,63.03 -11.68,50.84C14.16,35.44 15.88,5.331 16.16,0.55C16.45,-4.539 16.59,-7.08 15.47,-10.23" style="fill:rgb(12,12,12);fill-rule:nonzero;"/>
            </g>
            <g transform="matrix(1.48057,0,0,1.48057,61.1831,369.685)">
                <path d="M0,-0.001C0,1.831 1.485,3.316 3.317,3.316C5.149,3.316 6.634,1.831 6.634,-0.001C6.634,-1.833 5.149,-3.317 3.317,-3.317C1.485,-3.317 0,-1.833 0,-0.001" style="fill:rgb(155,155,155);fill-rule:nonzero;"/>
            </g>
            <g transform="matrix(1.48057,0,0,1.48057,424.483,224.473)">
                <path d="M0,98.11C-0.01,98.92 -0.021,99.73 -0.04,100.56C-0.05,101.31 -0.08,102.06 -0.1,102.83C-0.1,102.9 -0.11,102.97 -0.11,103.04C-0.62,102.31 -1.67,100.98 -3.48,99.4C-3.57,94.089 -3.95,89.12 -4.6,84.54C-6.07,74.32 -8.93,66.11 -12.99,60.72C-13.04,60.66 -13.08,60.6 -13.13,60.54C-14.63,58.59 -16.3,57.01 -18.12,55.87C-18.67,55.51 -19.24,55.2 -19.82,54.93C-19.82,54.93 -20.51,54.61 -21.22,54.35C-22.4,53.93 -26.91,53.65 -32.99,54.35C-32.38,51.36 -31.62,46.34 -32.13,40.22C-33.58,22.62 -44.86,3.87 -59.811,-4.93C-54.9,-2.58 -50.74,0.28 -47.26,3.33C-45.36,4.97 -43.68,6.65 -42.17,8.34C-35.15,16.11 -31.94,23.78 -31.03,26.08C-28.48,32.48 -27.48,38.45 -27.13,43.23C-26.95,45.63 -26.95,47.73 -26.99,49.45C-23.14,48.58 -20.12,48.93 -17.76,49.74C-17.29,49.9 -16.82,50.1 -16.36,50.31C-15.771,50.58 -15.21,50.89 -14.65,51.25C-12.84,52.39 -11.17,53.97 -9.67,55.92C-9.62,55.98 -9.58,56.04 -9.53,56.11C-9.311,56.4 -9.09,56.7 -8.88,57.01C-8.72,57.24 -8.561,57.48 -8.41,57.72C-8.271,57.92 -8.14,58.13 -8.01,58.35C-7.92,58.49 -7.83,58.64 -7.75,58.78C-7.61,59 -7.48,59.23 -7.35,59.47C-6.5,60.99 -5.71,62.66 -5.01,64.47C-4.87,64.83 -4.73,65.19 -4.59,65.57C-4.47,65.89 -4.36,66.21 -4.24,66.54C-4.22,66.59 -4.2,66.64 -4.19,66.7C-3.95,67.41 -3.72,68.14 -3.49,68.89C-3.45,69.03 -3.41,69.16 -3.38,69.29C-3.16,70.03 -2.96,70.78 -2.771,71.55C-2.69,71.87 -2.61,72.18 -2.53,72.5C-2.42,72.96 -2.32,73.42 -2.22,73.89C-2.04,74.72 -1.87,75.57 -1.71,76.44C-1.45,77.84 -1.22,79.29 -1.03,80.77C-0.93,81.53 -0.83,82.29 -0.75,83.07C-0.66,83.85 -0.58,84.64 -0.51,85.44C-0.47,85.9 -0.43,86.36 -0.39,86.83C-0.32,87.76 -0.25,88.7 -0.2,89.65C-0.15,90.46 -0.12,91.28 -0.09,92.11C-0.07,92.66 -0.05,93.21 -0.04,93.77C0,95.19 0.01,96.64 0,98.11" style="fill:rgb(163,76,162);fill-rule:nonzero;"/>
            </g>
            <g transform="matrix(1.48057,0,0,1.48057,314.446,26.613)">
                <path d="M0,32.973C-0.3,35.097 -0.611,37.231 -0.923,39.355C-2.377,37.162 -4.2,34.589 -6.439,31.796C-9.268,28.264 -12.764,24.375 -17,20.451C-17.011,20.439 -17.022,20.428 -17.034,20.416C-20.496,17.22 -24.455,13.999 -28.944,10.93C-41.974,2.032 -54.542,-2.215 -63.348,-4.339C-63.175,-5.008 -62.979,-5.69 -62.794,-6.382C-54.092,-4.651 -39.516,-0.6 -24.328,9.775C-13.053,17.485 -5.193,26.106 0,32.973" style="fill:rgb(209,106,37);fill-rule:nonzero;"/>
            </g>
            <g transform="matrix(1.48057,0,0,1.48057,376.609,59.3871)">
                <path d="M0,44.894C-0.115,45.056 -0.219,45.217 -0.323,45.379C-1.177,46.671 -2.031,47.976 -2.885,49.268C-4.235,46.718 -5.689,44.075 -7.259,41.374C-10.94,35.003 -15.211,28.264 -20.15,21.305C-21.789,18.985 -23.439,16.746 -25.09,14.587C-28.817,9.694 -32.511,5.193 -36.123,1.073C-35.857,-0.739 -35.604,-2.563 -35.339,-4.374C-29.014,2.539 -22.251,10.686 -15.534,20.15C-9.359,28.829 -4.247,37.185 0,44.894" style="fill:rgb(209,106,37);fill-rule:nonzero;"/>
            </g>
            <g transform="matrix(1.48057,0,0,1.48057,426.863,124.934)">
                <path d="M0,47.352C-0.081,47.445 -0.15,47.548 -0.231,47.641C-1.708,49.499 -3.186,51.346 -4.675,53.204C-4.548,50.318 -4.513,46.025 -5.183,40.843C-6.071,33.664 -8.275,24.801 -13.307,15.695C-15.823,11.16 -18.616,7.316 -21.386,4.12C-23.647,1.477 -25.887,-0.739 -27.918,-2.54C-27.93,-2.563 -27.93,-2.563 -27.941,-2.563L-27.976,-2.597L-25.829,-5.852C-21.051,-1.974 -14.195,4.604 -8.69,14.541C-7.571,16.572 -6.59,18.592 -5.725,20.589C-5.713,20.612 -5.701,20.623 -5.701,20.646C-1.2,31.102 -0.127,40.774 0,47.352" style="fill:rgb(209,106,37);fill-rule:nonzero;"/>
            </g>
            <g transform="matrix(1.48057,0,0,1.48057,450.341,191.18)">
                <path d="M0,55.605C-0.682,55.917 -3.094,56.955 -4.929,56.736C-5.066,56.724 -5.217,56.701 -5.379,56.655C-6.486,56.401 -7.825,55.582 -9.256,53.47C-9.049,52.639 -8.829,51.762 -8.621,50.815C-7.133,44.075 -5.887,34.485 -7.236,23.175C-8.218,15.003 -10.283,8.137 -12.36,2.851C-11.241,1.443 -10.122,0.058 -9.002,-1.35C-8.044,0.843 -7.028,3.37 -6.094,6.267L-6.094,6.279C-4.64,10.745 -3.336,16.031 -2.62,22.021C-1.085,34.912 -2.92,45.576 -4.64,52.316C-3.013,54.716 -1.513,55.443 -0.323,55.582L-0.312,55.582C-0.208,55.593 -0.104,55.605 0,55.605" style="fill:rgb(209,106,37);fill-rule:nonzero;"/>
            </g>
            <g transform="matrix(1.48057,0,0,1.48057,457.569,333.364)">
                <path d="M0,-8.518C-0.716,1.984 -3.866,16.191 -14.312,33.157C-14.265,31.045 -14.254,28.979 -14.288,26.97C-14.288,26.682 -14.3,26.382 -14.312,26.093C-12.015,21.616 -10.249,17.345 -8.875,13.352C-6.163,5.412 -5.009,-1.547 -4.617,-7.364C-3.913,-17.809 -4.64,-38.767 -4.697,-40.417C-2.62,-40.406 -0.081,-41.675 -0.081,-41.675C-0.081,-41.675 0.046,-38.351 0.149,-33.643C0.323,-26.164 0.45,-15.2 0,-8.518" style="fill:rgb(209,106,37);fill-rule:nonzero;"/>
            </g>
            <g transform="matrix(1.48057,0,0,1.48057,112.557,345.613)">
                <path d="M0,-57.61C-3.66,-46.86 -3.25,-37.08 -2.5,-31.03C-7.56,-26.55 -13.4,-19.92 -16.8,-10.48C-18.45,-5.92 -19.29,-1.34 -19.63,3.059C-20.01,7.88 -19.78,12.47 -19.31,16.53C-21.02,17.809 -22.27,19 -23.14,19.96C-23.76,18.349 -24.39,16.65 -25.03,14.91C-25.4,11.65 -25.61,8.08 -25.47,4.349C-25.26,-1.12 -24.31,-6.95 -22.03,-12.75C-21.81,-13.32 -21.57,-13.87 -21.33,-14.42C-21.29,-14.52 -21.25,-14.61 -21.2,-14.71C-20.96,-15.25 -20.71,-15.78 -20.46,-16.3C-20.45,-16.32 -20.44,-16.34 -20.42,-16.37C-20.18,-16.87 -19.92,-17.36 -19.66,-17.84C-19.34,-18.43 -19.01,-19.01 -18.67,-19.58C-18.51,-19.85 -18.35,-20.12 -18.18,-20.38C-17.92,-20.8 -17.65,-21.22 -17.38,-21.63C-15.2,-24.91 -12.76,-27.76 -10.3,-30.17C-9.98,-30.5 -9.65,-30.81 -9.32,-31.12C-8.8,-31.61 -8.29,-32.08 -7.78,-32.53C-7.41,-32.86 -7.04,-33.17 -6.68,-33.48C-6.31,-33.79 -5.94,-34.09 -5.58,-34.39C-6.66,-39.13 -8.58,-50.79 -2.7,-62.38C-2.49,-62.79 -2.28,-63.18 -2.07,-63.57C-1.86,-63.96 -1.64,-64.34 -1.42,-64.71C-1.27,-64.96 -1.12,-65.2 -0.97,-65.44C-0.86,-65.62 -0.74,-65.8 -0.63,-65.97C-0.43,-66.28 -0.22,-66.58 -0.02,-66.87C0.77,-68.01 1.61,-69.06 2.51,-70.06C2.66,-70.24 2.82,-70.42 2.99,-70.6C3.44,-71.09 3.9,-71.56 4.38,-72.01C4.55,-72.18 4.72,-72.34 4.89,-72.5C6.12,-73.65 7.43,-74.71 8.81,-75.7C9.04,-75.87 9.28,-76.04 9.52,-76.2C9.79,-76.39 10.06,-76.58 10.34,-76.76C10.76,-77.03 11.19,-77.31 11.61,-77.57C6.65,-71.8 2.56,-65.11 0,-57.61" style="fill:rgb(0,191,52);fill-rule:nonzero;"/>
            </g>
            <g transform="matrix(1.48057,0,0,1.48057,362.051,204.098)">
                <path d="M0,22.101C-3.497,19.712 -7.502,17.485 -12.071,15.603C-26.532,9.637 -39.908,9.798 -46.672,10.318C-47.11,11.841 -48.206,14.761 -51.253,17.243C-57.717,22.505 -66.949,20.958 -67.85,20.797C-69.5,17.716 -71.15,14.646 -72.812,11.564C-79.125,10.168 -86.2,9.06 -93.943,8.54C-120.869,6.751 -143.328,13.007 -158.169,18.824C-155.63,17.127 -152.895,15.615 -149.963,14.161C-137.372,7.883 -115.802,-0.404 -89.247,1.616C-82.495,2.135 -76.332,3.243 -70.839,4.64C-69.396,7.721 -67.953,10.791 -66.522,13.872C-65.737,14.034 -57.693,15.58 -52.062,10.318C-49.418,7.836 -48.449,4.916 -48.08,3.393C-42.183,2.874 -30.537,2.712 -17.946,8.679C-10.236,12.326 -4.362,17.231 0,22.101" style="fill:rgb(0,173,208);fill-rule:nonzero;"/>
            </g>
            <g transform="matrix(1.48057,0,0,1.48057,289.225,72.9702)">
                <path d="M0,-10.894C-3.462,-14.091 -7.421,-17.311 -11.91,-20.381C-27.098,-30.756 -41.675,-34.807 -50.376,-36.538C-51.138,-33.745 -51.831,-31.183 -52.477,-28.84C-53.042,-26.751 -53.562,-24.847 -54.035,-23.127C-56.182,-15.245 -57.301,-11.148 -57.301,-11.148C-58.121,-11.737 -58.952,-12.313 -59.771,-12.902C-60.336,-13.306 -60.89,-13.71 -61.456,-14.102C-64.26,-16.099 -67.053,-18.096 -69.857,-20.092C-71.347,-17.138 -73.043,-13.987 -75.005,-10.709C-77.763,-6.035 -81.041,-1.096 -84.907,3.959C-94.267,16.204 -104.1,25.148 -112.167,31.415C-112.755,30.307 -113.333,29.199 -113.921,28.091C-114.614,26.776 -115.306,25.448 -116.01,24.121C-111.786,20.728 -107.158,16.643 -102.415,11.773C-98.525,7.791 -94.567,3.267 -90.678,-1.811C-84.099,-10.409 -79.229,-18.684 -75.628,-25.863C-71.439,-22.885 -67.261,-19.896 -63.072,-16.918C-63.072,-16.918 -60.671,-25.701 -56.147,-42.309C-47.445,-40.578 -32.869,-36.527 -17.681,-26.151C-10.444,-21.212 -4.616,-15.88 0,-10.894" style="fill:rgb(212,78,83);fill-rule:nonzero;"/>
            </g>
            <g transform="matrix(1.48057,0,0,1.48057,111.945,374.236)">
                <path d="M0,-181.251C-3.104,-177.846 -6.555,-173.703 -10.041,-168.821C-14.899,-162.035 -19.816,-153.807 -24.005,-144.089C-29.049,-132.375 -31.68,-121.619 -33.088,-113.021C-36.377,-115.283 -39.678,-117.533 -42.967,-119.795C-44.329,-112.328 -45.356,-103.303 -45.275,-93.055C-45.16,-78.628 -42.863,-66.395 -40.382,-57.139C-44.317,-58.051 -48.265,-58.962 -52.2,-59.875C-48.646,-49.511 -44.641,-38.72 -40.128,-27.571C-39.182,-25.228 -38.212,-22.862 -37.22,-20.485C-34.323,-13.549 -31.115,-5.297 -28.356,1.316C-27.537,5.056 -26.995,7.363 -27.664,7.56C-27.987,7.652 -28.437,7.225 -28.991,6.383C-29.002,6.371 -29.002,6.359 -29.014,6.348C-31.992,1.847 -37.936,-14.184 -42.99,-26.255C-48.703,-39.92 -53.666,-53.1 -57.971,-65.645C-54.035,-64.733 -50.088,-63.821 -46.152,-62.91C-48.634,-72.177 -50.931,-84.399 -51.046,-98.825C-51.126,-109.074 -50.1,-118.099 -48.738,-125.565C-45.449,-123.304 -42.148,-121.053 -38.858,-118.791C-37.451,-127.389 -34.819,-138.146 -29.776,-149.859C-22.009,-167.887 -11.714,-180.778 -4.016,-188.903C-2.678,-186.352 -1.339,-183.802 0,-181.251" style="fill:rgb(212,78,83);fill-rule:nonzero;"/>
            </g>
            <g transform="matrix(1.48057,0,0,1.48057,450.733,83.9521)">
                <path d="M0,161.09C-0.39,166.91 -1.55,173.87 -4.26,181.81C-4.63,182.87 -5.02,183.961 -5.439,185.06C-5.609,185.51 -5.79,185.961 -5.979,186.41C-6.159,186.87 -6.35,187.34 -6.55,187.81C-6.649,188.05 -6.75,188.29 -6.859,188.53C-7.189,189.31 -7.55,190.1 -7.92,190.9C-7.989,191.07 -8.069,191.24 -8.149,191.4C-8.38,191.89 -8.609,192.381 -8.859,192.881C-9.13,193.43 -9.399,193.99 -9.689,194.55C-11.399,197.921 -13.399,201.43 -15.739,205.05C-16.22,202.381 -16.88,200.18 -17.439,198.58C-17.439,198.58 -17.56,198.35 -17.84,197.95C-17.84,197.881 -17.829,197.81 -17.829,197.74C-17.81,196.97 -17.779,196.22 -17.77,195.47C-17.75,194.64 -17.739,193.83 -17.729,193.02C-17.72,191.55 -17.729,190.1 -17.77,188.68C-17.779,188.12 -17.8,187.57 -17.819,187.02C-17.85,186.19 -17.88,185.37 -17.93,184.56C-17.979,183.61 -18.05,182.671 -18.119,181.74C-18.159,181.27 -18.199,180.81 -18.239,180.35C-18.31,179.55 -18.39,178.76 -18.479,177.98C-18.56,177.2 -18.659,176.44 -18.76,175.68C-18.96,174.19 -19.189,172.75 -19.439,171.35C-19.6,170.48 -19.77,169.63 -19.949,168.8C-20.05,168.33 -20.149,167.87 -20.26,167.41C-20.34,167.09 -20.409,166.77 -20.5,166.46C-20.689,165.69 -20.89,164.94 -21.109,164.2C-21.14,164.07 -21.18,163.94 -21.22,163.8C-21.439,163.05 -21.68,162.32 -21.92,161.61C-21.93,161.55 -21.949,161.5 -21.97,161.45C-22.079,161.12 -22.199,160.8 -22.319,160.48C-22.449,160.1 -22.59,159.74 -22.739,159.38C-23.439,157.57 -24.229,155.9 -25.079,154.38C-25.21,154.15 -25.34,153.92 -25.479,153.69C-25.56,153.55 -25.649,153.4 -25.739,153.26C-25.869,153.04 -26,152.83 -26.14,152.63C-26.29,152.39 -26.449,152.15 -26.609,151.92C-26.819,151.61 -27.04,151.31 -27.26,151.02C-27.31,150.95 -27.35,150.89 -27.399,150.83C-28.899,148.88 -30.569,147.3 -32.38,146.16C-32.939,145.8 -33.5,145.49 -34.09,145.22C-34.55,145.01 -35.02,144.81 -35.489,144.65C-37.85,143.84 -40.869,143.49 -44.72,144.36C-44.68,142.64 -44.68,140.54 -44.859,138.14C-45.21,133.36 -46.21,127.39 -48.76,120.99C-49.67,118.69 -52.88,111.02 -59.899,103.25C-61.409,101.56 -63.09,99.88 -64.989,98.24C-68.47,95.19 -72.63,92.33 -77.54,89.98C-77.64,89.92 -77.739,89.87 -77.84,89.83C-83.81,87 -89.56,85.55 -94.59,84.85C-97.979,84.4 -101.05,84.28 -103.63,84.32C-105.3,84.35 -106.75,84.44 -107.979,84.54C-108.189,85.41 -108.59,86.71 -109.369,88.14C-109.869,89.04 -110.529,89.99 -111.39,90.89C-111.569,91.09 -111.76,91.28 -111.96,91.47C-112.1,91.59 -112.25,91.73 -112.39,91.85C-113.55,92.85 -114.81,93.58 -116.069,94.09L-116.079,94.1C-118.659,95.17 -121.27,95.39 -123.229,95.34C-124.93,95.31 -126.14,95.08 -126.42,95.02C-127.26,93.2 -128.119,91.39 -128.97,89.57C-129.55,88.32 -130.149,87.05 -130.739,85.79C-131.859,85.5 -133.01,85.23 -134.189,84.97C-138.77,83.96 -143.779,83.18 -149.14,82.76C-151.459,82.59 -153.75,82.49 -156,82.46C-165.51,82.35 -174.279,83.5 -182.12,85.29C-193.58,87.91 -203.04,91.9 -209.859,95.31C-212.31,96.52 -214.629,97.78 -216.8,99.16C-217.22,99.42 -217.649,99.7 -218.069,99.97C-218.62,100.34 -219.169,100.71 -219.7,101.1C-220.01,101.33 -220.319,101.55 -220.62,101.79C-221.16,102.2 -221.689,102.62 -222.2,103.06C-222.33,103.16 -222.47,103.28 -222.6,103.39C-222.91,103.67 -223.22,103.95 -223.52,104.23C-223.689,104.39 -223.859,104.55 -224.029,104.72C-224.22,104.89 -224.399,105.07 -224.569,105.25C-224.689,105.36 -224.8,105.47 -224.91,105.59C-225.08,105.77 -225.25,105.95 -225.419,106.13C-225.59,106.31 -225.75,106.49 -225.899,106.67C-226.129,106.92 -226.35,107.17 -226.56,107.43C-226.689,107.58 -226.819,107.73 -226.939,107.89C-227.14,108.13 -227.33,108.37 -227.52,108.62C-227.83,109.03 -228.129,109.44 -228.43,109.86C-228.62,110.14 -228.819,110.42 -229.01,110.71C-229.129,110.9 -229.26,111.09 -229.379,111.29C-229.76,111.89 -230.129,112.51 -230.479,113.16C-230.59,113.35 -230.7,113.55 -230.8,113.75C-230.91,113.95 -231.01,114.15 -231.109,114.35C-236.99,125.94 -235.069,137.6 -233.99,142.34C-234.35,142.63 -234.72,142.93 -235.09,143.25C-235.959,143.98 -236.84,144.76 -237.729,145.61C-238.06,145.92 -238.39,146.23 -238.709,146.56C-238.91,146.75 -239.1,146.94 -239.29,147.14C-240.209,148.06 -241.109,149.04 -242.01,150.09C-242.05,150.13 -242.08,150.17 -242.12,150.22C-242.319,150.46 -242.529,150.7 -242.729,150.96C-242.919,151.19 -243.1,151.42 -243.29,151.65C-243.54,151.97 -243.8,152.3 -244.05,152.64C-244.1,152.71 -244.149,152.78 -244.2,152.85C-244.459,153.19 -244.709,153.53 -244.959,153.89C-245.24,154.28 -245.52,154.69 -245.79,155.1C-246.229,155.76 -246.66,156.45 -247.08,157.15C-247.41,157.7 -247.72,158.26 -248.029,158.83C-248.319,159.35 -248.6,159.89 -248.87,160.43C-249.12,160.95 -249.37,161.47 -249.6,162C-249.729,162.26 -249.84,162.52 -249.95,162.79C-250.12,163.18 -250.279,163.58 -250.439,163.98C-250.729,164.71 -250.99,165.43 -251.229,166.16C-251.3,166.37 -251.37,166.57 -251.439,166.78C-251.45,166.82 -251.47,166.87 -251.479,166.91C-251.569,167.18 -251.649,167.44 -251.729,167.72C-251.85,168.13 -251.97,168.55 -252.08,168.96C-252.14,169.16 -252.2,169.37 -252.25,169.58C-252.3,169.79 -252.35,170 -252.399,170.2C-252.45,170.39 -252.5,170.58 -252.54,170.77C-252.58,170.96 -252.62,171.15 -252.669,171.34C-252.77,171.78 -252.85,172.21 -252.939,172.65C-253.01,173.05 -253.09,173.46 -253.149,173.87C-253.29,174.7 -253.41,175.54 -253.51,176.37C-253.56,176.76 -253.6,177.16 -253.64,177.55C-253.649,177.69 -253.669,177.83 -253.68,177.97C-253.74,178.631 -253.79,179.29 -253.819,179.94C-253.85,180.32 -253.859,180.7 -253.879,181.08C-254.02,184.81 -253.81,188.381 -253.439,191.64C-253.29,192.921 -253.12,194.15 -252.93,195.32C-252.79,196.18 -252.649,197.01 -252.5,197.81C-253.06,198.55 -253.3,198.99 -253.3,198.99C-253.7,200.16 -254.169,201.64 -254.569,203.4C-255.189,202.05 -255.859,200.53 -256.56,198.881C-256.75,198.39 -256.959,197.89 -257.18,197.381C-258.27,194.76 -259.439,191.87 -260.629,188.921C-260.939,188.15 -261.25,187.381 -261.56,186.6C-261.97,185.59 -262.37,184.57 -262.779,183.56C-263.89,180.82 -264.99,178.11 -266.04,175.58C-267.04,173.2 -268,170.83 -268.95,168.49C-270.09,165.67 -271.2,162.87 -272.279,160.1C-272.8,158.76 -273.31,157.43 -273.81,156.1C-274.33,154.74 -274.84,153.39 -275.34,152.04C-275.85,150.7 -276.34,149.36 -276.83,148.02C-277.56,146.02 -278.27,144.04 -278.97,142.07C-279.669,140.1 -280.35,138.14 -281.02,136.19C-280.109,136.4 -279.2,136.6 -278.29,136.82C-277.819,136.93 -277.35,137.04 -276.879,137.15C-276.439,137.25 -276,137.35 -275.56,137.45C-275.069,137.56 -274.569,137.68 -274.08,137.79C-273.26,137.98 -272.45,138.17 -271.64,138.36C-270.819,138.54 -270.02,138.73 -269.209,138.92C-269.41,138.16 -269.609,137.36 -269.819,136.56C-269.85,136.46 -269.87,136.36 -269.89,136.25C-270.069,135.56 -270.24,134.86 -270.399,134.14C-270.5,133.7 -270.6,133.26 -270.7,132.8C-270.8,132.36 -270.899,131.9 -271,131.44C-271.14,130.77 -271.279,130.09 -271.419,129.41L-271.419,129.4C-271.689,128.02 -271.95,126.59 -272.189,125.13C-272.31,124.4 -272.43,123.65 -272.54,122.9C-272.649,122.15 -272.76,121.38 -272.859,120.61C-272.939,120 -273.02,119.38 -273.1,118.75C-273.1,118.72 -273.109,118.68 -273.109,118.65C-273.149,118.33 -273.18,118.01 -273.22,117.68C-273.29,117.08 -273.35,116.47 -273.41,115.86C-273.459,115.35 -273.51,114.82 -273.56,114.3C-273.569,114.21 -273.58,114.13 -273.58,114.04C-273.62,113.58 -273.66,113.1 -273.689,112.63C-273.75,111.98 -273.79,111.31 -273.83,110.64C-273.84,110.54 -273.84,110.43 -273.85,110.33C-273.87,109.95 -273.899,109.57 -273.91,109.18C-273.919,109.04 -273.93,108.91 -273.93,108.77L-273.959,108.2C-274,107.37 -274.029,106.53 -274.05,105.69C-274.08,104.8 -274.09,103.91 -274.1,103.01C-274.109,102.37 -274.109,101.73 -274.1,101.11C-274.1,100.98 -274.09,100.86 -274.09,100.73L-274.09,100.46C-274.09,100.25 -274.09,100.03 -274.08,99.82C-274.08,99.3 -274.069,98.78 -274.05,98.27C-274.04,97.68 -274.02,97.09 -274,96.51C-273.979,95.92 -273.95,95.34 -273.919,94.77C-273.899,94.27 -273.87,93.76 -273.84,93.26C-273.83,93.05 -273.819,92.85 -273.8,92.65C-273.77,92.22 -273.75,91.8 -273.709,91.38C-273.64,90.34 -273.55,89.32 -273.459,88.32C-273.439,88.1 -273.419,87.89 -273.39,87.67C-273.3,86.77 -273.209,85.89 -273.109,85.02C-273.09,84.82 -273.06,84.63 -273.04,84.43C-272.959,83.8 -272.87,83.19 -272.79,82.58C-272.49,80.36 -272.16,78.26 -271.79,76.27C-270.47,77.18 -269.149,78.08 -267.83,78.99C-266.62,79.81 -265.41,80.64 -264.2,81.47C-263.43,82 -262.669,82.52 -261.91,83.04C-261.859,82.73 -261.8,82.42 -261.75,82.11C-261.7,81.8 -261.64,81.48 -261.58,81.16C-261.47,80.52 -261.35,79.86 -261.22,79.2C-260.84,77.23 -260.399,75.17 -259.87,73.03C-259.779,72.63 -259.669,72.22 -259.569,71.81C-259.31,70.78 -259.029,69.73 -258.72,68.66C-258.569,68.11 -258.41,67.55 -258.24,66.98C-257.669,65.04 -257.04,63.05 -256.34,61.02C-256.14,60.47 -255.95,59.91 -255.74,59.35C-255.52,58.74 -255.3,58.14 -255.069,57.53C-254.899,57.08 -254.72,56.62 -254.54,56.16C-254.459,55.94 -254.37,55.73 -254.29,55.51C-254.149,55.14 -254,54.77 -253.84,54.4C-253.74,54.16 -253.649,53.92 -253.55,53.68C-253.319,53.11 -253.08,52.54 -252.83,51.97C-248.64,42.26 -243.72,34.03 -238.859,27.24C-238.819,27.17 -238.77,27.1 -238.729,27.04C-238.34,26.5 -237.95,25.96 -237.56,25.44C-237.129,24.85 -236.7,24.28 -236.26,23.72C-235.83,23.15 -235.399,22.6 -234.97,22.06C-234.55,21.52 -234.12,20.99 -233.7,20.47C-233.56,20.3 -233.43,20.13 -233.29,19.97C-233.26,19.93 -233.229,19.89 -233.2,19.86C-232.93,19.53 -232.66,19.2 -232.39,18.89C-231.16,17.43 -229.97,16.07 -228.819,14.81C-228.22,14.15 -227.629,13.54 -227.069,12.94C-226.64,13.77 -226.2,14.59 -225.779,15.41C-225.55,15.84 -225.33,16.28 -225.1,16.7C-224.39,18.03 -223.7,19.36 -223.01,20.67C-222.419,21.78 -221.84,22.89 -221.25,24C-220.06,23.07 -218.84,22.11 -217.58,21.05C-210.52,15.21 -202.49,7.48 -194.74,-2.5C-194.709,-2.54 -194.669,-2.57 -194.66,-2.6C-194.43,-2.89 -194.209,-3.17 -193.99,-3.46C-190.129,-8.51 -186.85,-13.45 -184.09,-18.13C-183.22,-19.57 -182.419,-20.98 -181.66,-22.36C-180.669,-24.13 -179.77,-25.85 -178.939,-27.51C-177.959,-26.81 -176.979,-26.11 -176,-25.41C-174.18,-24.12 -172.359,-22.81 -170.54,-21.52C-169.979,-21.13 -169.419,-20.72 -168.859,-20.32C-168.649,-20.17 -168.439,-20.02 -168.229,-19.88C-167.62,-19.44 -167,-19 -166.39,-18.57C-166.39,-18.57 -166.04,-19.82 -165.37,-22.28C-164.84,-24.27 -164.08,-27.04 -163.12,-30.55C-162.649,-32.26 -162.129,-34.17 -161.56,-36.26C-161.33,-37.11 -161.09,-37.99 -160.84,-38.9C-160.41,-40.49 -159.95,-42.18 -159.459,-43.96C-158.229,-43.71 -156.87,-43.41 -155.399,-43.07C-146.59,-40.94 -134.029,-36.7 -121,-27.8C-116.51,-24.73 -112.55,-21.51 -109.09,-18.31C-109.069,-18.3 -109.06,-18.29 -109.05,-18.28C-104.819,-14.35 -101.319,-10.46 -98.489,-6.93C-97.31,-5.45 -96.239,-4.05 -95.279,-2.72C-94.43,-1.53 -93.659,-0.41 -92.97,0.63C-92.659,-1.5 -92.35,-3.63 -92.05,-5.75L-91.069,-12.52L-90.109,-19.15C-90.079,-19.37 -90.05,-19.59 -90.02,-19.81C-88.75,-18.43 -87.47,-17 -86.189,-15.52C-82.579,-11.4 -78.88,-6.9 -75.149,-2C-73.5,0.15 -71.85,2.39 -70.22,4.71C-65.279,11.67 -61.01,18.41 -57.319,24.78C-55.819,27.36 -54.43,29.88 -53.13,32.33C-53.079,32.45 -53.01,32.56 -52.949,32.68C-52.1,31.38 -51.239,30.08 -50.39,28.79C-50.279,28.63 -50.18,28.46 -50.06,28.3C-49.96,28.14 -49.859,27.99 -49.75,27.83C-48.699,26.21 -47.64,24.6 -46.569,22.98C-45.79,23.61 -44.96,24.3 -44.1,25.08L-44.04,25.14C-42.01,26.94 -39.77,29.16 -37.51,31.8C-34.739,35 -31.949,38.84 -29.43,43.38C-24.399,52.48 -22.189,61.34 -21.3,68.52C-20.64,73.7 -20.67,78 -20.8,80.88C-19.31,79.03 -17.829,77.18 -16.35,75.32C-16.27,75.23 -16.199,75.12 -16.119,75.03C-15.369,74.1 -14.619,73.16 -13.88,72.23C-13.47,73.17 -13.04,74.19 -12.63,75.27C-10.55,80.56 -8.479,87.43 -7.5,95.6C-6.149,106.91 -7.399,116.5 -8.89,123.24C-9.09,124.19 -9.31,125.06 -9.52,125.89C-8.09,128.01 -6.75,128.82 -5.64,129.08C-5.479,129.12 -5.329,129.15 -5.189,129.16C-3.359,129.38 -0.949,128.34 -0.27,128.03C-0.149,127.97 -0.079,127.94 -0.079,127.94L-0.079,128.04C-0.02,129.69 0.7,150.65 0,161.09" style="fill:rgb(79,59,44);fill-rule:nonzero;"/>
            </g>
            <g transform="matrix(1.48057,0,0,1.48057,231.8,199.112)">
                <path d="M0,-100.022C7.732,-97.561 19.904,-92.641 32.265,-82.635C44.938,-72.376 52.371,-61.173 56.371,-54.025C57.468,-54.888 59.34,-56.594 60.721,-59.351C62.273,-62.451 62.41,-65.293 62.383,-66.72C66.328,-62.48 73.016,-54.169 76.898,-41.766C81.209,-27.997 79.853,-16.242 78.784,-10.436C73.998,-11.632 66.9,-12.772 58.436,-11.831C44.038,-10.231 33.94,-3.534 29.326,0C25.381,-1.021 12.818,-4.806 3.859,-17.094C-2.046,-25.194 -3.734,-33.354 -4.302,-37.656C-1.31,-45.484 2.121,-57.188 2.688,-71.701C3.136,-83.159 1.662,-92.856 0,-100.022" style="fill:rgb(87,64,49);fill-rule:nonzero;"/>
            </g>
            <g transform="matrix(1.48057,0,0,1.48057,188.373,188.383)">
                <path d="M0,-81.764C0,-81.764 0.007,-81.782 0.006,-81.782C-0.026,-81.797 -5.741,-67.399 -12.378,-56.749C-15.684,-51.443 -20.914,-44.347 -29.213,-36.971C-27.378,-32.167 -21.74,-19.311 -7.791,-9.835C4.584,-1.428 16.861,-0.192 22.108,0.033C18.534,-4.249 13.384,-11.5 10.646,-21.52C6.115,-38.104 13.696,-42.133 8.05,-55.407C8.05,-55.407 -1.548,-77.969 0,-81.764" style="fill:rgb(76,54,39);fill-rule:nonzero;"/>
            </g>
            <g transform="matrix(1.48057,0,0,1.48057,385.443,269.064)">
                <path d="M0,-86.557C3.205,-81.963 7.299,-74.991 10.11,-65.784C13.308,-55.31 13.547,-46.199 13.237,-40.25C12.616,-38.921 9.796,-32.524 12.418,-25.101C15.646,-15.965 24.38,-13.02 25.401,-12.695C23.459,-12.547 18.424,-11.901 13.717,-8.078C10.148,-5.181 8.422,-1.801 7.657,0C7.525,-4.838 6.639,-13.786 1.599,-23.515C-2.899,-32.195 -8.751,-37.724 -12.396,-40.682C-11.464,-46.177 -10.762,-53.607 -11.529,-62.321C-12.313,-71.204 -14.368,-78.517 -16.29,-83.816C-15.487,-82.618 -14.115,-80.887 -11.962,-79.344C-10.291,-78.146 -8.69,-77.449 -7.49,-77.036C-6.455,-77.458 -4.464,-78.432 -2.729,-80.498C-0.708,-82.906 -0.169,-85.443 0,-86.557" style="fill:rgb(76,54,39);fill-rule:nonzero;"/>
            </g>
            <g transform="matrix(1.48057,0,0,1.48057,109.075,248.986)">
                <path d="M0,-77.709C4.298,-70.776 10.173,-62.594 18.081,-54.242C24.953,-46.984 31.747,-41.302 37.701,-36.931C29.293,-34.901 13.462,-29.759 -0.289,-15.868C-5.714,-10.387 -9.574,-4.8 -12.311,0C-14.451,-8.011 -17.19,-22.382 -14.426,-40.008C-11.637,-57.799 -4.524,-70.733 0,-77.709" style="fill:rgb(71,52,40);fill-rule:nonzero;"/>
            </g>
            <g transform="matrix(1.48057,0,0,1.48057,55.5347,286.515)">
                <path d="M0,-43.962C0.802,-41.856 2.872,-40.544 5.001,-40.735C6.84,-40.901 8.448,-42.163 9.115,-43.962C9.828,-38.069 11.269,-30.656 14.234,-22.462C17.679,-12.94 22.062,-5.465 25.775,-0.101C19.852,0 15.804,-1.631 13.368,-2.986C2.06,-9.276 -3.358,-25.658 0,-43.962" style="fill:rgb(66,48,37);fill-rule:nonzero;"/>
            </g>
            <g transform="matrix(1.48057,0,0,1.48057,425.237,418.132)">
                <path d="M0,-9.751C-0.784,-4.281 -2.509,0.047 -3.977,3.001C-5.578,7.168 -11.805,21.905 -27.228,29.072C-28.807,29.812 -35.324,32.708 -44.296,32.857C-45.941,32.881 -74.042,32.847 -86.676,9.349C-95.669,-7.397 -90.629,-24.523 -89.554,-27.905C-89.554,-27.905 -78.914,-46.544 -44.284,-45.517C-9.666,-44.501 -1.859,-29.44 -1.859,-29.44C-0.583,-25.666 1.254,-18.534 0,-9.751M12.51,-37.542C12.51,-37.542 11.435,-43.151 6.854,-45.09C-8.513,-49.821 -21.762,-51.287 -31.629,-51.622C-37.609,-51.818 -93.272,-53.688 -101.683,-29.325C-102.77,-26.174 -102.635,-23.635 -102.355,-18.546C-102.086,-13.768 -100.417,16.343 -75.341,31.75C-55.518,43.937 -30.218,41.306 -14.056,28.415C-2.834,19.459 2.284,7.041 4.334,0.555C7.089,-8.159 7.335,-15.834 7.123,-20.796C7.123,-20.796 6.843,-25.771 11.67,-27.778C11.67,-27.778 14.548,-28.829 12.51,-37.542" style="fill:rgb(69,204,233);fill-rule:nonzero;"/>
            </g>
            <g transform="matrix(1.48057,0,0,1.48057,427.751,415.758)">
                <path d="M0,-5.84C-0.808,-0.369 -2.585,3.959 -4.097,6.913C-5.747,11.079 -12.164,25.817 -28.056,32.984C-29.684,33.723 -36.4,36.619 -45.645,36.769C-47.341,36.793 -76.297,36.758 -89.315,13.261C-98.583,-3.486 -93.39,-20.612 -92.281,-23.994C-92.281,-23.994 -81.317,-42.633 -45.633,-41.606C-9.96,-40.59 -1.915,-25.528 -1.915,-25.528C-0.6,-21.755 1.293,-14.622 0,-5.84" style="fill:rgb(255,221,81);fill-rule:nonzero;"/>
            </g>
            <g transform="matrix(1.48057,0,0,1.48057,231.43,452.852)">
                <path d="M0,-48.893C-8.672,-73.259 -66.028,-71.391 -72.192,-71.19C-82.362,-70.859 -96.006,-69.395 -111.851,-64.655C-116.561,-62.724 -117.671,-57.111 -117.671,-57.111C-119.777,-48.403 -116.813,-47.346 -116.813,-47.346C-111.835,-45.34 -112.119,-40.362 -112.119,-40.362C-112.339,-35.398 -112.084,-27.733 -109.247,-19.01C-107.141,-12.535 -101.867,-0.112 -90.3,8.843C-73.647,21.735 -47.571,24.366 -27.142,12.182C-1.302,-3.228 0.415,-33.336 0.687,-38.115C0.977,-43.199 1.122,-45.742 0,-48.893" style="fill:rgb(124,166,0);fill-rule:nonzero;"/>
            </g>
            <g transform="matrix(1.48057,0,0,1.48057,205.105,388.111)">
                <path d="M0,32.349C-13.007,55.847 -41.963,55.881 -43.66,55.859C-52.916,55.708 -59.621,52.812 -61.248,52.073C-77.14,44.906 -83.557,30.168 -85.207,26.001C-86.719,23.047 -88.508,18.719 -89.304,13.26C-90.608,4.466 -88.704,-2.666 -87.4,-6.44C-87.4,-6.44 -79.356,-21.501 -43.671,-22.516C-7.998,-23.532 2.978,-4.905 2.978,-4.905C4.074,-1.523 9.268,15.615 0,32.349" style="fill:rgb(244,132,103);fill-rule:nonzero;"/>
            </g>
            <g transform="matrix(1.48057,0,0,1.48057,215.694,371.695)">
                <path d="M0,-3.955C4.502,-5.729 12.968,-8.465 24.04,-8.497C34.65,-8.527 42.845,-6.061 47.341,-4.388C45.202,-1.401 43.064,1.585 40.926,4.572C38.188,3.26 32.375,0.887 24.499,0.735C15.714,0.567 9.232,3.256 6.482,4.572C4.321,1.73 2.161,-1.112 0,-3.955" style="fill:rgb(206,206,206);fill-rule:nonzero;"/>
            </g>
            <g transform="matrix(1.48057,0,0,1.48057,210.231,391.528)">
                <path d="M0,32.35C-13.007,55.847 -41.963,55.882 -43.66,55.859C-52.916,55.709 -59.621,52.812 -61.248,52.074C-77.14,44.907 -83.557,30.168 -85.207,26.002C-86.719,23.048 -88.508,18.72 -89.304,13.261C-90.608,4.467 -88.704,-2.666 -87.4,-6.439C-87.4,-6.439 -79.356,-21.501 -43.671,-22.516C-7.998,-23.532 2.978,-4.904 2.978,-4.904C4.074,-1.523 9.268,15.616 0,32.35" style="fill:rgb(237,237,237);fill-rule:nonzero;"/>
            </g>
            <g transform="matrix(1.48057,0,0,1.48057,435.703,410.631)">
                <path d="M0,-5.839C-0.854,-0.369 -2.731,3.959 -4.329,6.914C-6.073,11.08 -12.854,25.817 -29.646,32.984C-31.366,33.724 -38.464,36.62 -48.232,36.77C-50.025,36.793 -80.623,36.759 -94.38,13.261C-104.172,-3.485 -98.685,-20.611 -97.514,-23.993C-97.514,-23.993 -85.928,-42.632 -48.22,-41.605C-10.524,-40.589 -2.023,-25.528 -2.023,-25.528C-0.634,-21.754 1.366,-14.622 0,-5.839" style="fill:rgb(237,237,237);fill-rule:nonzero;"/>
            </g>
            <g transform="matrix(1.48057,0,0,1.48057,427.755,421.552)">
                <path d="M0,-9.75C-0.81,-4.28 -2.59,0.05 -4.1,3C-5.75,7.17 -12.17,21.9 -28.06,29.07C-29.69,29.81 -36.4,32.71 -45.65,32.86C-47.34,32.88 -76.3,32.85 -89.32,9.35C-98.59,-7.4 -93.39,-24.53 -92.28,-27.91C-92.28,-27.91 -81.32,-46.55 -45.64,-45.521C-22.41,-44.86 -10.89,-38.24 -5.69,-33.71C-3.88,-32.13 -2.83,-30.8 -2.32,-30.07C-2.04,-29.67 -1.92,-29.44 -1.92,-29.44C-1.36,-27.84 -0.7,-25.64 -0.22,-22.97C0.43,-19.33 0.74,-14.82 0,-9.75M12.89,-37.54C12.89,-37.54 12.78,-38.08 12.5,-38.88L12.5,-38.89C12.1,-39.99 11.36,-41.58 10.08,-42.96C9.3,-43.81 8.3,-44.58 7.06,-45.09C3.7,-46.1 0.43,-46.95 -2.72,-47.67C-4.11,-48 -5.47,-48.3 -6.81,-48.57C-16.79,-50.61 -25.53,-51.39 -32.59,-51.62C-38.76,-51.82 -96.12,-53.69 -104.78,-29.33C-105.9,-26.18 -105.76,-23.64 -105.48,-18.55C-105.2,-13.771 -103.48,16.34 -77.64,31.75C-57.21,43.94 -31.14,41.3 -14.49,28.41C-2.92,19.46 2.35,7.04 4.46,0.55C7.3,-8.16 7.56,-15.83 7.34,-20.8C7.34,-20.8 7.05,-25.771 12.02,-27.78C12.02,-27.78 14.99,-28.83 12.89,-37.54" style="fill:rgb(12,12,12);fill-rule:nonzero;"/>
            </g>
            <g transform="matrix(1.48057,0,0,1.48057,439.441,369.068)">
                <path d="M0,0.001C0,1.833 -1.484,3.317 -3.316,3.317C-5.148,3.317 -6.634,1.833 -6.634,0.001C-6.634,-1.831 -5.148,-3.316 -3.316,-3.316C-1.484,-3.316 0,-1.831 0,0.001" style="fill:rgb(155,155,155);fill-rule:nonzero;"/>
            </g>
            <g transform="matrix(1.48057,0,0,1.48057,205.108,393.894)">
                <path d="M0,28.44C-13.02,51.94 -41.97,51.98 -43.67,51.95C-52.91,51.8 -59.63,48.91 -61.26,48.17C-77.15,41.001 -83.57,26.26 -85.22,22.1C-86.73,19.14 -88.51,14.81 -89.31,9.34C-90.21,3.27 -89.58,-2.01 -88.67,-5.94C-88.27,-7.7 -87.8,-9.18 -87.4,-10.35C-87.4,-10.35 -87.16,-10.789 -86.6,-11.53C-86.35,-11.85 -86.04,-12.23 -85.65,-12.65C-84.78,-13.61 -83.53,-14.8 -81.82,-16.08C-75.93,-20.45 -64.52,-25.83 -43.68,-26.419C-8,-27.45 2.97,-8.81 2.97,-8.81C4.08,-5.43 9.27,11.7 0,28.44M15.47,-10.23C6.8,-34.59 -50.56,-32.72 -56.72,-32.53C-63.7,-32.3 -72.31,-31.539 -82.14,-29.55C-84.04,-29.169 -85.99,-28.74 -87.98,-28.26C-90.7,-27.61 -93.5,-26.86 -96.38,-25.999C-96.55,-25.93 -96.72,-25.85 -96.88,-25.78C-97.95,-25.249 -98.82,-24.53 -99.51,-23.749C-101.62,-21.39 -102.2,-18.45 -102.2,-18.45C-104.3,-9.73 -101.34,-8.68 -101.34,-8.68C-96.36,-6.68 -96.65,-1.7 -96.65,-1.7C-96.87,3.26 -96.62,10.94 -93.78,19.65C-91.67,26.13 -86.39,38.55 -74.83,47.51C-58.18,60.4 -32.1,63.03 -11.68,50.84C14.16,35.44 15.88,5.331 16.16,0.55C16.45,-4.539 16.59,-7.08 15.47,-10.23" style="fill:rgb(12,12,12);fill-rule:nonzero;"/>
            </g>
            <g transform="matrix(1.48057,0,0,1.48057,61.1831,369.685)">
                <path d="M0,-0.001C0,1.831 1.485,3.316 3.317,3.316C5.149,3.316 6.634,1.831 6.634,-0.001C6.634,-1.833 5.149,-3.317 3.317,-3.317C1.485,-3.317 0,-1.833 0,-0.001" style="fill:rgb(155,155,155);fill-rule:nonzero;"/>
            </g>
        </g>
    </g>
</svg>
