<?xml version="1.0" encoding="UTF-8" standalone="no"?><!DOCTYPE svg PUBLIC "-//W3C//DTD SVG 1.1//EN" "http://www.w3.org/Graphics/SVG/1.1/DTD/svg11.dtd"><svg width="100%" height="100%" viewBox="0 0 500 375" version="1.1" xmlns="http://www.w3.org/2000/svg" xmlns:xlink="http://www.w3.org/1999/xlink" xml:space="preserve" xmlns:serif="http://www.serif.com/" style="fill-rule:evenodd;clip-rule:evenodd;stroke-linejoin:round;stroke-miterlimit:2;"><path d="M367.75,270.29l0,2.45c0,0.83 0,1.5 -0.06,2.27l0,0.21c-0.974,-1.344 -2.105,-2.566 -3.37,-3.64c-0.067,-4.972 -0.441,-9.934 -1.12,-14.86c-1.47,-10.22 -4.33,-18.43 -8.39,-23.82l-0.14,-0.18c-1.376,-1.841 -3.069,-3.423 -5,-4.67c-0.543,-0.354 -1.111,-0.668 -1.7,-0.94c-0.589,-0.272 -0.69,-0.32 -1.4,-0.58c-1.18,-0.42 -5.69,-0.7 -11.77,0c0.955,-4.645 1.245,-9.403 0.86,-14.13c-1.45,-17.6 -12.73,-36.35 -27.68,-45.15c6.69,3.228 12.684,7.737 17.64,13.27c4.726,5.213 8.497,11.219 11.14,17.74c2.17,5.483 3.485,11.267 3.9,17.15c0.18,2.4 0.18,4.5 0.14,6.22c3.042,-0.779 6.243,-0.679 9.23,0.29c0.47,0.16 0.94,0.36 1.4,0.57c0.592,0.272 1.163,0.586 1.71,0.94c1.929,1.249 3.622,2.831 5,4.67l0.14,0.19c0.22,0.29 0.44,0.59 0.65,0.9c0.21,0.31 0.32,0.47 0.47,0.71c0.15,0.24 0.27,0.41 0.4,0.63l0.26,0.43c0.14,0.22 0.27,0.45 0.4,0.69c0.896,1.61 1.678,3.281 2.34,5c0.14,0.36 0.28,0.72 0.42,1.1c0.14,0.38 0.23,0.64 0.35,1c0.023,0.051 0.039,0.105 0.05,0.16c0.24,0.71 0.47,1.44 0.7,2.19c0,0.14 0.08,0.27 0.11,0.4c0.22,0.74 0.42,1.49 0.61,2.26l0.24,1c0.11,0.46 0.21,0.92 0.31,1.39c0.18,0.833 0.35,1.683 0.51,2.55c0.26,1.4 0.49,2.85 0.68,4.33c0.1,0.76 0.2,1.52 0.28,2.3c0.08,0.78 0.17,1.57 0.24,2.37l0.12,1.39c0.07,0.93 0.14,1.87 0.19,2.82c0.05,0.95 0.08,1.63 0.11,2.46l0,1.66c0.03,1.34 0.04,2.79 0.03,4.26Z" style="fill:#98519e;fill-rule:nonzero;"/><path d="M293.43,71.52c-0.3,2.12 -0.62,4.25 -0.93,6.38c-1.45,-2.2 -3.28,-4.77 -5.51,-7.56c-3.239,-4.032 -6.769,-7.822 -10.56,-11.34c-13.073,-12.096 -29.034,-20.636 -46.35,-24.8c0.17,-0.67 0.37,-1.35 0.55,-2c25.046,4.971 47.408,18.987 62.8,39.36l0,-0.04Z" style="fill:#c47037;fill-rule:nonzero;"/><path d="M335.41,105.57l-0.32,0.49c-0.86,1.293 -1.713,2.607 -2.56,3.94c-1.35,-2.55 -2.81,-5.2 -4.38,-7.9c-3.68,-6.37 -7.95,-13.11 -12.89,-20.07c-1.64,-2.32 -3.287,-4.557 -4.94,-6.71c-3.733,-4.9 -7.4,-9.407 -11,-13.52l0.78,-5.45c13.691,14.964 25.555,31.504 35.34,49.27l-0.03,-0.05Z" style="fill:#c47037;fill-rule:nonzero;"/><path d="M369.35,152.3c-0.08,0.09 -0.15,0.2 -0.23,0.29c-1.473,1.86 -2.953,3.713 -4.44,5.56c0.189,-4.127 0.019,-8.263 -0.51,-12.36c-1.076,-8.822 -3.832,-17.356 -8.12,-25.14c-3.823,-6.85 -8.76,-13.014 -14.61,-18.24l2.15,-3.25c6.962,5.638 12.777,12.56 17.13,20.39c1.12,2 2.1,4.05 3,6.05c0.006,0.02 0.006,0.04 0,0.06c3.578,8.433 5.49,17.48 5.63,26.64Z" style="fill:#c47037;fill-rule:nonzero;"/><path d="M385.21,205.3c-1.532,0.758 -3.221,1.145 -4.93,1.13c-0.152,-0.014 -0.303,-0.041 -0.45,-0.08c-1.1,-0.26 -2.44,-1.07 -3.87,-3.19c0.2,-0.83 0.42,-1.7 0.63,-2.65c3.578,-16.012 2.275,-32.735 -3.74,-48l3.36,-4.2c1,2.2 2,4.72 2.91,7.62c4.846,14.882 5.349,30.842 1.45,46c1.63,2.4 3.13,3.13 4.32,3.27l0.32,0.1Z" style="fill:#c47037;fill-rule:nonzero;"/><path d="M390.09,237.21c-0.71,10.5 -3.86,24.71 -14.31,41.67c0.053,-2.113 0.053,-4.173 -0,-6.18l-0,-0.88c2.112,-4.113 3.93,-8.37 5.44,-12.74c2.32,-6.691 3.753,-13.657 4.26,-20.72c0.7,-10.44 -0,-31.4 -0.08,-33.05c1.603,-0.119 3.169,-0.547 4.61,-1.26c1.441,-0.713 0.13,3.33 0.23,8c0.18,7.51 0.3,18.48 -0.15,25.16Z" style="fill:#c47037;fill-rule:nonzero;"/><path d="M157.07,196.39c-2.83,8.557 -3.684,17.645 -2.5,26.58c-6.427,5.531 -11.347,12.602 -14.3,20.55c-1.551,4.365 -2.503,8.92 -2.83,13.54c-0.328,4.49 -0.221,9.001 0.32,13.47c-1.383,1.019 -2.665,2.167 -3.83,3.43c-0.62,-1.61 -1.25,-3.31 -1.89,-5c-0.411,-3.504 -0.558,-7.034 -0.44,-10.56c0.176,-5.853 1.339,-11.634 3.44,-17.1c0.22,-0.57 0.46,-1.12 0.7,-1.67c0,-0.1 0.08,-0.19 0.13,-0.29c0.24,-0.54 0.49,-1.07 0.74,-1.59l0,-0.07c0.24,-0.5 0.5,-1 0.76,-1.47c0.26,-0.47 0.65,-1.17 1,-1.74c0.16,-0.27 0.32,-0.54 0.49,-0.8c0.26,-0.42 0.53,-0.84 0.8,-1.25c2.057,-3.085 4.429,-5.947 7.08,-8.54c0.32,-0.33 0.65,-0.64 1,-1c0.52,-0.49 1,-1 1.54,-1.41c0.54,-0.41 0.74,-0.64 1.1,-0.95l1.1,-0.91c-1.08,-4.74 -3,-16.4 2.88,-28c0.21,-0.41 0.42,-0.8 0.63,-1.19c0.21,-0.39 0.43,-0.77 0.65,-1.14l0.45,-0.73l0.34,-0.53c0.2,-0.31 0.41,-0.61 0.61,-0.9c0.775,-1.116 1.62,-2.182 2.53,-3.19c0.147,-0.18 0.307,-0.36 0.48,-0.54c0.45,-0.49 0.91,-1 1.39,-1.41l0.51,-0.49c1.236,-1.15 2.546,-2.219 3.92,-3.2l0.71,-0.5c0.27,-0.19 0.54,-0.38 0.82,-0.56l1.27,-0.81c-5.105,5.856 -9.042,12.635 -11.6,19.97Z" style="fill:#37bc4a;fill-rule:nonzero;"/><path d="M325.58,180.52c-3.785,-2.582 -7.831,-4.761 -12.07,-6.5c-10.968,-4.418 -22.814,-6.226 -34.6,-5.28c-0.779,2.722 -2.378,5.139 -4.58,6.92c-6.47,5.26 -15.7,3.72 -16.6,3.56c-1.65,-3.09 -3.3,-6.16 -5,-9.24c-6.959,-1.525 -14.022,-2.528 -21.13,-3c-21.904,-1.335 -43.836,2.175 -64.23,10.28c2.634,-1.728 5.376,-3.285 8.21,-4.66c12.63,-6.3 34.2,-14.6 60.75,-12.6c6.212,0.468 12.371,1.472 18.41,3c1.44,3.08 2.89,6.15 4.32,9.23c0.78,0.16 8.83,1.71 14.46,-3.55c1.976,-1.874 3.366,-4.282 4,-6.93c10.334,-0.94 20.734,0.886 30.13,5.29c6.82,3.245 12.918,7.83 17.93,13.48Z" style="fill:#1baacc;fill-rule:nonzero;"/><path d="M276.39,59c-14.101,-13.05 -31.545,-21.944 -50.39,-25.69c-0.76,2.8 -1.45,5.36 -2.1,7.7c-0.56,2.09 -1.08,4 -1.55,5.71c-2.15,7.89 -3.27,12 -3.27,12l-2.46,-1.72l-1.68,-1.2l-8.41,-6c-1.49,3 -3.18,6.11 -5.14,9.38c-3.005,5.085 -6.314,9.984 -9.91,14.67c-7.867,10.288 -17.029,19.518 -27.26,27.46c-0.58,-1.11 -1.16,-2.22 -1.75,-3.33c-0.69,-1.31 -1.38,-2.64 -2.09,-4c4.79,-3.836 9.339,-7.963 13.62,-12.36c4.173,-4.301 8.084,-8.849 11.71,-13.62c5.744,-7.528 10.766,-15.58 15,-24.05c4.187,2.98 8.373,5.96 12.56,8.94c4.187,2.98 2.4,-8.78 6.92,-25.39c21.592,4.286 41.276,15.319 56.2,31.5Z" style="fill:#c45757;fill-rule:nonzero;"/><path d="M156.65,92.08c-3.572,3.945 -6.911,8.096 -10,12.43c-11.852,16.585 -19.723,35.681 -23,55.8l-9.88,-6.77c-3.795,20.816 -2.914,42.217 2.58,62.65l-11.82,-2.73c3.56,10.36 7.56,21.15 12.08,32.3c0.94,2.34 1.91,4.71 2.9,7.09c2.9,6.93 6.11,15.19 8.87,21.8c0.82,3.74 1.36,6.05 0.69,6.24c-0.32,0.09 -0.77,-0.33 -1.33,-1.18c-3,-4.5 -8.92,-20.53 -14,-32.6c-5.71,-13.67 -10.67,-26.85 -15,-39.39l11.82,2.73c-5.494,-20.433 -6.375,-41.834 -2.58,-62.65c3.28,2.26 6.59,4.51 9.87,6.77c4.321,-26.333 16.467,-50.767 34.85,-70.11l3.95,7.62Z" style="fill:#c45757;fill-rule:nonzero;"/><path d="M385.48,238.36c-0.503,7.064 -1.935,14.031 -4.26,20.72c-0.37,1.06 -0.76,2.15 -1.18,3.25c-0.173,0.453 -0.353,0.903 -0.54,1.35c-0.18,0.46 -0.37,0.93 -0.57,1.4c-0.1,0.24 -0.2,0.48 -0.31,0.72c-0.33,0.78 -0.69,1.57 -1.06,2.37c-0.07,0.17 -0.15,0.34 -0.23,0.5c-0.23,0.49 -0.46,1 -0.71,1.48c-0.25,0.48 -0.54,1.11 -0.83,1.67c-1.833,3.603 -3.852,7.108 -6.05,10.5c-0.395,-2.198 -0.963,-4.362 -1.7,-6.47c-0.121,-0.218 -0.255,-0.428 -0.4,-0.63l0,-0.21c0,-0.77 0.05,-1.52 0.06,-2.27c0.01,-0.75 0,-1.64 0,-2.45l0,-6c0,-0.83 -0.06,-1.65 -0.11,-2.46c-0.05,-0.81 -0.12,-1.89 -0.19,-2.82l-0.12,-1.39c-0.073,-0.8 -0.153,-1.59 -0.24,-2.37c-0.08,-0.78 -0.18,-1.54 -0.28,-2.3c-0.2,-1.49 -0.43,-2.93 -0.68,-4.33c-0.16,-0.873 -0.33,-1.723 -0.51,-2.55c-0.1,-0.47 -0.2,-0.93 -0.31,-1.39c-0.11,-0.46 -0.15,-0.64 -0.24,-1c-0.19,-0.77 -0.39,-1.52 -0.61,-2.26c0,-0.13 -0.07,-0.26 -0.11,-0.4c-0.22,-0.75 -0.46,-1.48 -0.7,-2.19c-0.011,-0.055 -0.027,-0.109 -0.05,-0.16c-0.11,-0.33 -0.23,-0.65 -0.35,-1c-0.12,-0.35 -0.27,-0.74 -0.42,-1.1c-0.662,-1.719 -1.444,-3.39 -2.34,-5c-0.13,-0.23 -0.26,-0.46 -0.4,-0.69l-0.26,-0.43c-0.13,-0.22 -0.26,-0.43 -0.4,-0.63c-0.14,-0.2 -0.31,-0.48 -0.47,-0.71c-0.16,-0.23 -0.43,-0.61 -0.65,-0.9l-0.14,-0.19c-1.378,-1.839 -3.071,-3.421 -5,-4.67c-0.547,-0.354 -1.118,-0.668 -1.71,-0.94c-0.46,-0.21 -0.93,-0.41 -1.4,-0.57c-2.987,-0.969 -6.188,-1.069 -9.23,-0.29c0,-1.72 0,-3.82 -0.14,-6.22c-0.415,-5.883 -1.73,-11.667 -3.9,-17.15c-2.643,-6.521 -6.414,-12.527 -11.14,-17.74c-4.956,-5.533 -10.95,-10.042 -17.64,-13.27c-0.096,-0.058 -0.196,-0.108 -0.3,-0.15c-5.296,-2.511 -10.944,-4.197 -16.75,-5c-2.983,-0.396 -5.991,-0.573 -9,-0.53c-1.67,0 -3.12,0.12 -4.35,0.22c-0.304,1.256 -0.772,2.466 -1.39,3.6c-0.547,0.998 -1.219,1.922 -2,2.75c-0.18,0.2 -0.37,0.39 -0.57,0.58l-0.43,0.38c-1.096,0.943 -2.339,1.7 -3.68,2.24c-3.298,1.243 -6.874,1.561 -10.34,0.92c-0.84,-1.82 -1.7,-3.63 -2.55,-5.45c-0.58,-1.25 -1.18,-2.52 -1.77,-3.78c-1.12,-0.29 -2.27,-0.56 -3.45,-0.82c-4.958,-1.059 -9.983,-1.77 -15.04,-2.13c-2.32,-0.167 -4.607,-0.267 -6.86,-0.3c-8.788,-0.09 -17.555,0.86 -26.12,2.83c-9.611,2.219 -18.924,5.576 -27.74,10c-2.381,1.158 -4.697,2.443 -6.94,3.85l-1.27,0.81c-0.55,0.37 -1.1,0.74 -1.63,1.13c-0.31,0.23 -0.62,0.45 -0.92,0.69c-0.54,0.41 -1.07,0.83 -1.58,1.27l-0.4,0.33l-0.92,0.84l-0.51,0.49c-0.19,0.17 -0.37,0.35 -0.54,0.53c-0.17,0.18 -0.23,0.22 -0.34,0.34l-0.51,0.54c-0.173,0.18 -0.333,0.36 -0.48,0.54c-0.23,0.25 -0.45,0.5 -0.66,0.76c-0.21,0.26 -0.26,0.3 -0.38,0.46c-0.12,0.16 -0.39,0.48 -0.58,0.73c-0.31,0.41 -0.61,0.82 -0.91,1.24c-0.3,0.42 -0.39,0.56 -0.58,0.85c-0.19,0.29 -0.25,0.38 -0.37,0.58c-0.38,0.6 -0.75,1.22 -1.1,1.87c-0.11,0.19 -0.22,0.39 -0.32,0.59c-0.1,0.2 -0.21,0.4 -0.31,0.6c-5.88,11.59 -4,23.25 -2.88,28c-0.36,0.29 -0.73,0.59 -1.1,0.91c-0.87,0.73 -1.75,1.51 -2.64,2.36c-0.33,0.31 -0.66,0.62 -1,1c-0.34,0.38 -0.39,0.38 -0.58,0.58c-0.92,0.92 -1.82,1.9 -2.72,3l-0.11,0.13c-0.2,0.24 -0.41,0.48 -0.61,0.74l-0.56,0.69c-0.25,0.32 -0.51,0.65 -0.76,1l-0.15,0.21c-0.26,0.34 -0.51,0.68 -0.76,1c-0.25,0.32 -0.56,0.8 -0.83,1.21c-0.44,0.66 -0.87,1.35 -1.29,2c-0.42,0.65 -0.64,1.11 -1,1.68c-0.36,0.57 -0.57,1.06 -0.84,1.6c-0.27,0.54 -0.5,1 -0.73,1.57c-0.13,0.26 -0.24,0.52 -0.35,0.79c-0.11,0.27 -0.33,0.79 -0.49,1.19c-0.29,0.73 -0.55,1.45 -0.79,2.18l-0.21,0.62l-0,0.13c-0.09,0.27 -0.17,0.53 -0.25,0.81c-0.08,0.28 -0.24,0.83 -0.35,1.24c-0.06,0.2 -0.12,0.41 -0.17,0.62l-0.15,0.62c-0.05,0.19 -0.1,0.38 -0.14,0.57c-0.04,0.19 -0.08,0.38 -0.13,0.57c-0.1,0.44 -0.18,0.87 -0.27,1.31c-0.09,0.44 -0.15,0.81 -0.21,1.22c-0.14,0.83 -0.26,1.67 -0.36,2.5c-0.05,0.39 -0.09,0.79 -0.13,1.18l-0,0.42c-0.06,0.66 -0.11,1.32 -0.14,2c-0,0.38 -0,0.76 -0.06,1.14c-0.118,3.526 0.029,7.056 0.44,10.56c0.15,1.28 0.32,2.51 0.51,3.68c0.14,0.86 0.28,1.69 0.43,2.49c-0.293,0.375 -0.56,0.769 -0.8,1.18c-0.502,1.446 -0.926,2.918 -1.27,4.41c-0.62,-1.35 -1.29,-2.87 -2,-4.52c-0.19,-0.49 -0.4,-1 -0.62,-1.5c-1.09,-2.62 -2.26,-5.51 -3.45,-8.46l-0.93,-2.32c-0.41,-1 -0.81,-2 -1.22,-3c-1.11,-2.74 -2.21,-5.45 -3.26,-8c-1,-2.38 -2,-4.75 -2.91,-7.09c-1.14,-2.82 -2.25,-5.617 -3.33,-8.39c-0.52,-1.34 -1,-2.67 -1.53,-4c-0.53,-1.33 -1,-2.71 -1.53,-4.06c-0.53,-1.35 -1,-2.68 -1.49,-4c-0.727,-2 -1.44,-3.983 -2.14,-5.95c-0.7,-1.967 -1.383,-3.927 -2.05,-5.88l2.73,0.63l1.41,0.33l1.32,0.3l1.48,0.34l2.44,0.57l2.43,0.56c-0.2,-0.76 -0.4,-1.56 -0.61,-2.36c-0.029,-0.102 -0.053,-0.205 -0.07,-0.31c-0.18,-0.69 -0.35,-1.39 -0.51,-2.11c-0.1,-0.44 -0.2,-0.88 -0.3,-1.34c-0.1,-0.46 -0.2,-0.9 -0.3,-1.36l-0.42,-2c-0.27,-1.38 -0.53,-2.81 -0.77,-4.27c-0.12,-0.73 -0.24,-1.48 -0.35,-2.23c-0.11,-0.75 -0.22,-1.52 -0.32,-2.29c-0.08,-0.607 -0.16,-1.227 -0.24,-1.86c-0.08,-0.633 -0,-0.07 -0,-0.1c-0,-0.32 -0.07,-0.64 -0.11,-1c-0.07,-0.6 -0.13,-1.21 -0.19,-1.82c-0.06,-0.61 -0.1,-1 -0.15,-1.56c-0.005,-0.087 -0.005,-0.173 -0,-0.26c-0,-0.46 -0.08,-0.94 -0.11,-1.41c-0.06,-0.65 -0.1,-1.32 -0.14,-2l-0,-0.31c-0,-0.38 -0,-0.76 -0.06,-1.15l-0,-0.98c-0,-0.83 -0.07,-1.67 -0.09,-2.51c-0.02,-0.84 -0,-1.78 -0.05,-2.68l-0,-6.5c-0,-0.58 -0,-1.17 0.08,-1.74c0.08,-0.57 -0,-1 0.08,-1.51l-0,-0.61c-0,-0.43 -0,-0.85 0.09,-1.27c0.07,-1 0.16,-2.06 0.25,-3.06c-0,-0.22 -0,-0.43 0.07,-0.65c0.09,-0.9 0.18,-1.78 0.28,-2.65c-0,-0.2 -0,-0.39 0.07,-0.59c0.08,-0.63 0.17,-1.24 0.25,-1.85c0.3,-2.22 0.633,-4.323 1,-6.31l4,2.72l3.63,2.48l2.29,1.57c0.05,-0.31 0.11,-0.62 0.16,-0.93c0.05,-0.31 0.11,-0.63 0.17,-0.95c0.11,-0.64 0.23,-1.3 0.36,-2c0.38,-2 0.82,-4 1.35,-6.17c0.09,-0.4 0.2,-0.81 0.3,-1.22c0.26,-1 0.54,-2.08 0.85,-3.15c0.147,-0.553 0.307,-1.113 0.48,-1.68c0.573,-1.94 1.207,-3.94 1.9,-6c0.2,-0.55 0.39,-1.11 0.6,-1.67c0.21,-0.56 0.44,-1.21 0.67,-1.82c0.17,-0.45 0.35,-0.91 0.53,-1.37c0.08,-0.22 0.17,-0.43 0.25,-0.65c0.14,-0.373 0.29,-0.743 0.45,-1.11l0.29,-0.72c0.227,-0.567 0.467,-1.137 0.72,-1.71c3.771,-8.719 8.464,-17.01 14,-24.73l0.13,-0.2c0.39,-0.54 0.78,-1.08 1.17,-1.6c0.39,-0.52 0.86,-1.16 1.3,-1.72c0.44,-0.56 0.86,-1.12 1.29,-1.66c0.43,-0.54 0.85,-1.07 1.27,-1.59c0.14,-0.17 0.27,-0.34 0.41,-0.5l0.09,-0.11c0.27,-0.33 0.54,-0.66 0.81,-1c1.227,-1.46 2.417,-2.82 3.57,-4.08c0.6,-0.66 1.19,-1.27 1.75,-1.87c0.43,0.83 0.87,1.65 1.29,2.47c0.23,0.43 0.45,0.87 0.68,1.29c0.71,1.33 1.4,2.66 2.09,4l1.76,3.33c1.19,-0.93 2.41,-1.89 3.67,-3c8.452,-6.99 16.112,-14.888 22.84,-23.55c6.728,-8.662 0.07,-0.07 0.08,-0.1l0.67,-0.86c3.59,-4.688 6.896,-9.587 9.9,-14.67c0.87,-1.44 1.67,-2.85 2.43,-4.23c1,-1.77 1.89,-3.49 2.72,-5.15l2.94,2.1l5.46,3.89l1.68,1.2l0.63,0.44l1.84,1.31c-0,-0 0.35,-1.25 1,-3.71c0.53,-2 1.29,-4.76 2.25,-8.27c0.47,-1.71 1,-3.62 1.56,-5.71l0.72,-2.64c0.433,-1.587 0.893,-3.273 1.38,-5.06c1.23,0.25 2.59,0.55 4.06,0.89c17.307,4.195 33.25,12.763 46.3,24.88c3.809,3.516 7.355,7.306 10.61,11.34c1.18,1.48 2.25,2.883 3.21,4.21c0.85,1.19 1.62,2.31 2.31,3.35c0.313,-2.133 0.62,-4.26 0.92,-6.38l1,-6.77l1,-6.63l0.09,-0.66c1.273,1.38 2.55,2.81 3.83,4.29c3.61,4.12 7.31,8.62 11,13.52c1.65,2.15 3.3,4.39 4.93,6.71c4.94,7 9.21,13.7 12.9,20.07c1.5,2.58 2.89,5.1 4.19,7.55c-0,0.12 0.12,0.23 0.18,0.35l2.56,-3.89c0.11,-0.16 0.21,-0.33 0.33,-0.49l0.31,-0.47c1,-1.62 2.11,-3.23 3.18,-4.85c0.78,0.63 1.61,1.32 2.47,2.1c0.86,0.78 -0,-0 -0,-0c5.85,5.226 10.787,11.39 14.61,18.24c4.29,7.784 7.05,16.318 8.13,25.14c0.521,4.098 0.689,8.233 0.5,12.36c1.493,-1.853 2.977,-3.707 4.45,-5.56c0.08,-0.09 0.15,-0.2 0.23,-0.29l2.24,-2.8c0.41,0.94 0.84,2 1.25,3c6.015,15.265 7.318,31.988 3.74,48c-0.2,1 -0.42,1.82 -0.63,2.65c1.43,2.12 2.77,2.93 3.88,3.19c0.147,0.039 0.298,0.066 0.45,0.08c1.706,0.014 3.391,-0.373 4.92,-1.13l0.19,-0.09l-0,0.1c0.09,1.76 0.81,22.68 0.11,33.12Z" style="fill:#4c3c2e;fill-rule:nonzero;"/><path d="M237.6,55c23.951,7.614 44.127,24.069 56.4,46c1.819,-1.44 3.304,-3.259 4.35,-5.33c1.133,-2.278 1.699,-4.796 1.65,-7.34c14.058,15.094 20.149,35.997 16.4,56.28c-6.663,-1.671 -13.572,-2.142 -20.4,-1.39c-10.595,1.234 -20.658,5.324 -29.11,11.83c-10.17,-2.618 -19.146,-8.636 -25.43,-17.05c-4.39,-6.07 -7.195,-13.141 -8.16,-20.57c7.639,-19.91 9.137,-41.66 4.3,-62.43Z" style="fill:#544133;fill-rule:nonzero;"/><path d="M208.27,66c0,0 -5.75,14.39 -12.38,25c-4.631,7.368 -10.303,14.027 -16.84,19.77c8.134,21.459 28.391,36.063 51.32,37c-5.32,-6.282 -9.229,-13.636 -11.46,-21.56c-4.53,-16.58 3.05,-20.61 -2.6,-33.88c0.01,0.07 -9.58,-22.49 -8.04,-26.33Z" style="fill:#594536;fill-rule:nonzero;"/><path d="M341.38,115.74c9.446,13.529 14.107,29.833 13.24,46.31c-2.213,4.754 -2.507,10.185 -0.82,15.15c3.22,9.13 12,12.08 13,12.4c-4.27,0.327 -8.342,1.938 -11.68,4.62c-2.669,2.153 -4.77,4.928 -6.12,8.08c-0.397,-15.823 -7.712,-30.703 -20,-40.68c2.457,-14.473 1.116,-29.34 -3.89,-43.14c2.115,3.159 5.206,5.541 8.8,6.78c4.001,-1.622 6.855,-5.25 7.49,-9.52l-0.02,-0Z" style="fill:#453529;fill-rule:nonzero;"/><path d="M154.71,111c9.855,15.873 22.655,29.716 37.71,40.78c-14.372,3.363 -27.531,10.655 -38,21.06c-4.677,4.742 -8.712,10.078 -12,15.87c-7.072,-26.463 -2.603,-54.721 12.29,-77.71Z" style="fill:#453529;fill-rule:nonzero;"/><path d="M118.55,170.12c0.666,1.944 2.505,3.258 4.56,3.258c2.055,0 3.894,-1.314 4.56,-3.258c1.902,15.763 7.622,30.826 16.66,43.88c-4.319,0.165 -8.605,-0.829 -12.41,-2.88c-11.31,-6.31 -16.73,-22.69 -13.37,-41Z" style="fill:#3f3127;fill-rule:nonzero;"/><path d="M380.77,265.44c0,0 -1.08,-5.61 -5.66,-7.55c-12.48,-3.875 -25.42,-6.071 -38.48,-6.53c-6,-0.2 -61.65,-2.07 -70.06,22.3c-1.08,3.15 -0.95,5.69 -0.67,10.77c0.27,4.78 1.94,34.89 27,50.3c19.83,12.19 45.13,9.56 61.29,-3.33c11.22,-9 16.34,-21.38 18.39,-27.86c2.162,-6.904 3.107,-14.132 2.79,-21.36c-0.073,-3.042 1.74,-5.831 4.55,-7c2.81,-1.169 2.88,-1.03 0.85,-9.74Zm-12.51,27.79c-0.646,4.436 -1.996,8.74 -4,12.75c-1.6,4.17 -7.83,18.91 -23.25,26.07c-5.352,2.411 -11.141,3.701 -17.01,3.79c-1.65,0 -29.75,0 -42.38,-23.51c-9,-16.75 -3.95,-33.87 -2.88,-37.25c0,0 10.64,-18.64 45.27,-17.62c34.63,1.02 42.43,16.08 42.43,16.08c2.13,6.332 2.754,13.075 1.82,19.69Z" style="fill:#6ec9e5;fill-rule:nonzero;"/><path d="M226.73,267.66c15.198,-5.898 32.038,-6.051 47.34,-0.43l-6.42,9c-10.9,-5.127 -23.54,-5.127 -34.44,0l-6.48,-8.57Z" style="fill:#cecece;fill-opacity:0.2;fill-rule:nonzero;"/><path d="M230.19,270c12.54,-5.896 27.045,-6.053 39.71,-0.43c-1.8,2.98 -3.593,5.98 -5.38,9c-8.934,-5.132 -19.956,-5.132 -28.89,0l-5.44,-8.57Z" style="fill:#9b9b9b;fill-rule:nonzero;"/><path d="M237.35,277.54c-8.67,-24.37 -66,-22.5 -72.19,-22.3c-13.447,0.456 -26.778,2.655 -39.66,6.54c-4.71,1.93 -5.82,7.54 -5.82,7.54c-2.1,8.71 0.86,9.76 0.86,9.76c2.87,1.118 4.752,3.92 4.7,7c-0.332,7.231 0.64,14.463 2.87,21.35c2.1,6.48 7.38,18.9 18.94,27.85c16.66,12.9 42.73,15.53 63.16,3.34c25.84,-15.41 27.56,-45.52 27.83,-50.29c0.29,-5.1 0.44,-7.64 -0.69,-10.79Zm-14.35,39.82c-13,23.5 -42,23.53 -43.66,23.51c-6.058,-0.074 -12.039,-1.363 -17.59,-3.79c-15.89,-7.16 -22.31,-21.9 -24,-26.07c-2.055,-3.993 -3.44,-8.297 -4.1,-12.74c-0.956,-6.624 -0.301,-13.383 1.91,-19.7c2.211,-6.317 8,-15.06 43.73,-16.07c35.73,-1.01 46.71,17.61 46.71,17.61c1.11,3.38 6.3,20.52 -3,37.25Z" style="fill:#85a50f;fill-rule:nonzero;"/><path d="M153.855,332.429c-12.655,-7.65 -18.003,-19.973 -19.525,-23.719c-2.054,-3.998 -3.439,-8.305 -4.1,-12.75c-0.953,-6.624 -0.301,-13.381 1.9,-19.7c2.201,-6.319 8.05,-15.06 43.73,-16.07c20.177,-0.571 32.452,5.135 39.308,10.201c-7.265,-4.333 -18.717,-8.376 -35.878,-7.891c-35.73,1.01 -41.519,9.753 -43.73,16.07c-2.211,6.317 -2.866,13.076 -1.91,19.7c0.66,4.443 2.045,8.747 4.1,12.74c1.377,3.396 5.891,13.805 16.105,21.419Z" style="fill:#e58a6e;fill-rule:nonzero;"/><path d="M275.256,291.36c0.228,6.021 1.676,12.952 5.694,19.82c13.75,23.5 44.35,23.5 46.14,23.5c6.38,-0.069 12.689,-1.352 18.59,-3.78c2.957,-1.263 5.603,-2.76 7.966,-4.394c-3.165,2.966 -7.037,5.739 -11.736,7.854c-5.552,2.424 -11.533,3.713 -17.59,3.79c-1.7,0 -30.65,0 -43.67,-23.51c-4.552,-8.226 -5.618,-16.543 -5.394,-23.28Z" style="fill:#ffde6a;fill-rule:nonzero;"/><path d="M382.85,267.75c-0.102,-0.454 -0.233,-0.902 -0.39,-1.34c-0.532,-1.502 -1.354,-2.885 -2.42,-4.07c-0.832,-0.921 -1.856,-1.648 -3,-2.13c-3.36,-1 -6.63,-1.86 -9.78,-2.58c-1.39,-0.33 -2.75,-0.63 -4.09,-0.9c-8.492,-1.743 -17.116,-2.763 -25.78,-3.05c-6.17,-0.2 -63.53,-2.07 -72.19,22.29c-1.12,3.15 -1,5.69 -0.7,10.78c0.28,4.78 2,34.89 27.84,50.3c20.43,12.19 46.5,9.55 63.15,-3.34c11.57,-8.95 16.84,-21.37 18.95,-27.86c2.233,-6.886 3.209,-14.118 2.88,-21.35c-0.063,-3.077 1.812,-5.883 4.68,-7c2.868,-1.117 3,-1.04 0.85,-9.75Zm-12.85,27.79c-0.663,4.445 -2.048,8.752 -4.1,12.75c-1.65,4.17 -8.07,18.9 -24,26.07c-5.551,2.425 -11.533,3.714 -17.59,3.79c-1.69,-0 -30.65,-0 -43.67,-23.51c-9.27,-16.75 -4.07,-33.88 -3,-37.26c-0,-0 11,-18.64 46.64,-17.61c23.23,0.66 34.75,7.28 39.95,11.81c1.265,1.074 2.396,2.296 3.37,3.64c0.145,0.202 0.279,0.412 0.4,0.63c0.737,2.108 1.305,4.272 1.7,6.47c0.811,4.362 0.912,8.826 0.3,13.22Z" style="fill:#0c0c0c;fill-rule:nonzero;"/><circle cx="374.53" cy="269.84" r="3.32" style="fill:#9b9b9b;"/><path d="M235.05,276.38c-8.67,-24.36 -66,-22.49 -72.19,-22.3c-8.542,0.289 -17.045,1.293 -25.42,3c-1.9,0.38 -3.847,0.81 -5.84,1.29c-2.72,0.667 -5.52,1.42 -8.4,2.26l-0.5,0.22c-0.997,0.491 -1.89,1.17 -2.63,2c-1.309,1.525 -2.232,3.343 -2.69,5.3c-2.1,8.72 0.86,9.77 0.86,9.77c2.874,1.112 4.755,3.92 4.69,7c-0.333,7.231 0.64,14.463 2.87,21.35c2.11,6.48 7.39,18.9 19,27.86c16.65,12.89 42.73,15.52 63.15,3.33c25.84,-15.4 27.56,-45.51 27.84,-50.29c0.21,-5.1 0.38,-7.64 -0.74,-10.79Zm-15.47,38.67c-13,23.5 -42,23.54 -43.67,23.51c-6.056,-0.076 -12.037,-1.361 -17.59,-3.78c-15.89,-7.17 -22.31,-21.91 -24,-26.07c-4.425,-8.629 -5.648,-18.555 -3.45,-28c0.344,-1.492 0.768,-2.964 1.27,-4.41c0.24,-0.411 0.507,-0.805 0.8,-1.18c0.25,-0.32 0.56,-0.7 1,-1.12c1.165,-1.263 2.447,-2.411 3.83,-3.43c5.89,-4.37 17.3,-9.75 38.14,-10.34c35.68,-1 46.65,17.61 46.65,17.61c1.1,3.34 6.29,20.47 -2.98,37.21Z" style="fill:#0c0c0c;fill-rule:nonzero;"/><circle cx="125.68" cy="270.26" r="3.32" style="fill:#9b9b9b;"/></svg>