<svg xmlns="http://www.w3.org/2000/svg" viewBox="0 0 500 375"><defs><style>.a{fill:#98519e;}.b{fill:#c47037;}.c{fill:#37bc4a;}.d{fill:#1baacc;}.e{fill:#c45757;}.f{fill:#4c3c2e;}.g{fill:#544133;}.h{fill:#594536;}.i{fill:#453529;}.j{fill:#3f3127;}.k{fill:#6ec9e5;}.l{fill:#ffde6a;}.m{fill:#85a50f;}.n{fill:#e58a6e;}.o{fill:#cecece;}.p{fill:#9b9b9b;}.q{fill:#e5e5e5;}.r{fill:#0c0c0c;}</style></defs><title>profileArtboard 5</title><path class="a" d="M367.75,270.29c0,.81,0,1.62,0,2.45s0,1.5-.06,2.27c0,.07,0,.14,0,.21a20.73,20.73,0,0,0-3.37-3.64,120.67,120.67,0,0,0-1.12-14.86c-1.47-10.22-4.33-18.43-8.39-23.82l-.14-.18a19.35,19.35,0,0,0-5-4.67,13.5,13.5,0,0,0-1.7-.94s-.69-.32-1.4-.58c-1.18-.42-5.69-.7-11.77,0a50,50,0,0,0,.86-14.13c-1.45-17.6-12.73-36.35-27.68-45.15a56.85,56.85,0,0,1,17.64,13.27,59.92,59.92,0,0,1,11.14,17.74,57.62,57.62,0,0,1,3.9,17.15c.18,2.4.18,4.5.14,6.22a16.58,16.58,0,0,1,9.23.29c.47.16.94.36,1.4.57a13.62,13.62,0,0,1,1.71.94,19.48,19.48,0,0,1,5,4.67l.14.19c.22.29.44.59.65.9s.32.47.47.71.27.41.4.63l.26.43c.14.22.27.45.4.69a39.28,39.28,0,0,1,2.34,5c.14.36.28.72.42,1.1s.23.64.35,1a.75.75,0,0,1,.05.16c.24.71.47,1.44.7,2.19,0,.14.08.27.11.4.22.74.42,1.49.61,2.26l.24,1c.11.46.21.92.31,1.39q.27,1.25.51,2.55c.26,1.4.49,2.85.68,4.33.1.76.2,1.52.28,2.3s.17,1.57.24,2.37l.12,1.39c.07.93.14,1.87.19,2.82s.08,1.63.11,2.46c0,.55,0,1.1,0,1.66C367.75,267.37,367.76,268.82,367.75,270.29Z"/><path class="b" d="M293.43,71.52c-.3,2.12-.62,4.25-.93,6.38-1.45-2.2-3.28-4.77-5.51-7.56A106.21,106.21,0,0,0,276.43,59l0,0A104.08,104.08,0,0,0,230.08,34.2c.17-.67.37-1.35.55-2a104.11,104.11,0,0,1,62.8,39.36Z"/><path class="b" d="M335.41,105.57l-.32.49Q333.8,108,332.53,110c-1.35-2.55-2.81-5.2-4.38-7.9-3.68-6.37-7.95-13.11-12.89-20.07q-2.46-3.48-4.94-6.71-5.6-7.35-11-13.52l.78-5.45a255.82,255.82,0,0,1,35.34,49.27Z"/><path class="b" d="M369.35,152.3c-.08.09-.15.2-.23.29q-2.21,2.79-4.44,5.56a71.1,71.1,0,0,0-.51-12.36,69.56,69.56,0,0,0-8.12-25.14,70.58,70.58,0,0,0-14.61-18.24l0,0,0,0,2.15-3.25a70,70,0,0,1,17.13,20.39c1.12,2,2.1,4.05,3,6.05a.11.11,0,0,1,0,.06A71,71,0,0,1,369.35,152.3Z"/><path class="b" d="M385.21,205.3a10.9,10.9,0,0,1-4.93,1.13,2.67,2.67,0,0,1-.45-.08c-1.1-.26-2.44-1.07-3.87-3.19.2-.83.42-1.7.63-2.65a82.09,82.09,0,0,0-3.74-48l3.36-4.2c1,2.2,2,4.72,2.91,7.62h0a82.32,82.32,0,0,1,1.45,46c1.63,2.4,3.13,3.13,4.32,3.27h0Z"/><path class="b" d="M390.09,237.21c-.71,10.5-3.86,24.71-14.31,41.67q.08-3.17,0-6.18c0-.29,0-.59,0-.88a97.79,97.79,0,0,0,5.44-12.74,80.94,80.94,0,0,0,4.26-20.72c.7-10.44,0-31.4-.08-33.05a12.49,12.49,0,0,0,4.61-1.26s.13,3.33.23,8C390.42,219.56,390.54,230.53,390.09,237.21Z"/><path class="c" d="M157.07,196.39a59.68,59.68,0,0,0-2.5,26.58,50.16,50.16,0,0,0-14.3,20.55,51.25,51.25,0,0,0-2.83,13.54,69.78,69.78,0,0,0,.32,13.47,27,27,0,0,0-3.83,3.43c-.62-1.61-1.25-3.31-1.89-5a70.4,70.4,0,0,1-.44-10.56,52,52,0,0,1,3.44-17.1c.22-.57.46-1.12.7-1.67,0-.1.08-.19.13-.29.24-.54.49-1.07.74-1.59l0-.07c.24-.5.5-1,.76-1.47s.65-1.17,1-1.74c.16-.27.32-.54.49-.8.26-.42.53-.84.8-1.25a53.3,53.3,0,0,1,7.08-8.54c.32-.33.65-.64,1-1,.52-.49,1-1,1.54-1.41s.74-.64,1.1-.95l1.1-.91c-1.08-4.74-3-16.4,2.88-28,.21-.41.42-.8.63-1.19s.43-.77.65-1.14l.45-.73.34-.53c.2-.31.41-.61.61-.9a31.94,31.94,0,0,1,2.53-3.19q.22-.27.48-.54c.45-.49.91-1,1.39-1.41l.51-.49a39.05,39.05,0,0,1,3.92-3.2l.71-.5c.27-.19.54-.38.82-.56l1.27-.81A60.91,60.91,0,0,0,157.07,196.39Z"/><path class="d" d="M325.58,180.52a65.59,65.59,0,0,0-12.07-6.5,76.28,76.28,0,0,0-34.6-5.28,13.77,13.77,0,0,1-4.58,6.92c-6.47,5.26-15.7,3.72-16.6,3.56-1.65-3.09-3.3-6.16-5-9.24a142.89,142.89,0,0,0-21.13-3,149.32,149.32,0,0,0-64.23,10.28,73.19,73.19,0,0,1,8.21-4.66C188.21,166.3,209.78,158,236.33,160a108.14,108.14,0,0,1,18.41,3c1.44,3.08,2.89,6.15,4.32,9.23.78.16,8.83,1.71,14.46-3.55a14.06,14.06,0,0,0,4-6.93,58.51,58.51,0,0,1,30.13,5.29A56.31,56.31,0,0,1,325.58,180.52Z"/><path class="e" d="M276.39,59A104.06,104.06,0,0,0,226,33.31c-.76,2.8-1.45,5.36-2.1,7.7-.56,2.09-1.08,4-1.55,5.71-2.15,7.89-3.27,12-3.27,12L216.62,57l-1.68-1.2-8.41-6c-1.49,3-3.18,6.11-5.14,9.38a146.5,146.5,0,0,1-9.91,14.67,150.46,150.46,0,0,1-27.26,27.46c-.58-1.11-1.16-2.22-1.75-3.33-.69-1.31-1.38-2.64-2.09-4A149,149,0,0,0,174,81.62,149.23,149.23,0,0,0,185.71,68a150.85,150.85,0,0,0,15-24.05q6.28,4.47,12.56,8.94s2.4-8.78,6.92-25.39A104,104,0,0,1,276.39,59Z"/><path class="e" d="M156.65,92.08a136.73,136.73,0,0,0-10,12.43,132.64,132.64,0,0,0-23,55.8l-9.88-6.77a142.7,142.7,0,0,0,2.58,62.65l-11.82-2.73c3.56,10.36,7.56,21.15,12.08,32.3.94,2.34,1.91,4.71,2.9,7.09,2.9,6.93,6.11,15.19,8.87,21.8.82,3.74,1.36,6.05.69,6.24-.32.09-.77-.33-1.33-1.18l0,0c-3-4.5-8.92-20.53-14-32.6-5.71-13.67-10.67-26.85-15-39.39l11.82,2.73a142.7,142.7,0,0,1-2.58-62.65c3.28,2.26,6.59,4.51,9.87,6.77a133.05,133.05,0,0,1,34.85-70.11Z"/><path class="f" d="M385.48,238.36a80.51,80.51,0,0,1-4.26,20.72c-.37,1.06-.76,2.15-1.18,3.25q-.26.68-.54,1.35c-.18.46-.37.93-.57,1.4-.1.24-.2.48-.31.72-.33.78-.69,1.57-1.06,2.37-.07.17-.15.34-.23.5-.23.49-.46,1-.71,1.48s-.54,1.11-.83,1.67a116.21,116.21,0,0,1-6.05,10.5,42.22,42.22,0,0,0-1.7-6.47,6.42,6.42,0,0,0-.4-.63c0-.07,0-.14,0-.21,0-.77.05-1.52.06-2.27s0-1.64,0-2.45c0-1.47,0-2.92,0-4.34,0-.56,0-1.11,0-1.66,0-.83-.06-1.65-.11-2.46s-.12-1.89-.19-2.82l-.12-1.39q-.11-1.2-.24-2.37c-.08-.78-.18-1.54-.28-2.3-.2-1.49-.43-2.93-.68-4.33q-.24-1.31-.51-2.55c-.1-.47-.2-.93-.31-1.39s-.15-.64-.24-1c-.19-.77-.39-1.52-.61-2.26,0-.13-.07-.26-.11-.4-.22-.75-.46-1.48-.7-2.19a.75.75,0,0,0-.05-.16c-.11-.33-.23-.65-.35-1s-.27-.74-.42-1.1a39.28,39.28,0,0,0-2.34-5c-.13-.23-.26-.46-.4-.69l-.26-.43c-.13-.22-.26-.43-.4-.63s-.31-.48-.47-.71-.43-.61-.65-.9l-.14-.19a19.48,19.48,0,0,0-5-4.67,13.62,13.62,0,0,0-1.71-.94c-.46-.21-.93-.41-1.4-.57a16.58,16.58,0,0,0-9.23-.29c0-1.72,0-3.82-.14-6.22a57.62,57.62,0,0,0-3.9-17.15,59.92,59.92,0,0,0-11.14-17.74,56.85,56.85,0,0,0-17.64-13.27,2.1,2.1,0,0,0-.3-.15,57.48,57.48,0,0,0-16.75-5,61.66,61.66,0,0,0-9-.53c-1.67,0-3.12.12-4.35.22a14.8,14.8,0,0,1-1.39,3.6,13.4,13.4,0,0,1-2,2.75c-.18.2-.37.39-.57.58l-.43.38a13.22,13.22,0,0,1-3.68,2.24h0a19.34,19.34,0,0,1-10.34.92c-.84-1.82-1.7-3.63-2.55-5.45-.58-1.25-1.18-2.52-1.77-3.78-1.12-.29-2.27-.56-3.45-.82A109.12,109.12,0,0,0,236.34,160q-3.48-.25-6.86-.3a111.41,111.41,0,0,0-26.12,2.83,124.11,124.11,0,0,0-27.74,10,73.84,73.84,0,0,0-6.94,3.85l-1.27.81c-.55.37-1.1.74-1.63,1.13-.31.23-.62.45-.92.69-.54.41-1.07.83-1.58,1.27l-.4.33-.92.84-.51.49c-.19.17-.37.35-.54.53s-.23.22-.34.34l-.51.54q-.26.27-.48.54c-.23.25-.45.5-.66.76s-.26.3-.38.46-.39.48-.58.73c-.31.41-.61.82-.91,1.24s-.39.56-.58.85-.25.38-.37.58c-.38.6-.75,1.22-1.1,1.87-.11.19-.22.39-.32.59s-.21.4-.31.6c-5.88,11.59-4,23.25-2.88,28-.36.29-.73.59-1.1.91-.87.73-1.75,1.51-2.64,2.36-.33.31-.66.62-1,1s-.39.38-.58.58c-.92.92-1.82,1.9-2.72,3l-.11.13c-.2.24-.41.48-.61.74l-.56.69c-.25.32-.51.65-.76,1l-.15.21c-.26.34-.51.68-.76,1s-.56.8-.83,1.21c-.44.66-.87,1.35-1.29,2s-.64,1.11-1,1.68-.57,1.06-.84,1.6-.5,1-.73,1.57c-.13.26-.24.52-.35.79s-.33.79-.49,1.19c-.29.73-.55,1.45-.79,2.18l-.21.62,0,.13c-.09.27-.17.53-.25.81s-.24.83-.35,1.24c-.06.2-.12.41-.17.62l-.15.62c-.05.19-.1.38-.14.57s-.08.38-.13.57c-.1.44-.18.87-.27,1.31s-.15.81-.21,1.22c-.14.83-.26,1.67-.36,2.5-.05.39-.09.79-.13,1.18,0,.14,0,.28,0,.42-.06.66-.11,1.32-.14,2,0,.38,0,.76-.06,1.14a70.4,70.4,0,0,0,.44,10.56c.15,1.28.32,2.51.51,3.68.14.86.28,1.69.43,2.49a10.72,10.72,0,0,0-.8,1.18,42.66,42.66,0,0,0-1.27,4.41c-.62-1.35-1.29-2.87-2-4.52-.19-.49-.4-1-.62-1.5-1.09-2.62-2.26-5.51-3.45-8.46l-.93-2.32c-.41-1-.81-2-1.22-3-1.11-2.74-2.21-5.45-3.26-8-1-2.38-2-4.75-2.91-7.09q-1.71-4.23-3.33-8.39c-.52-1.34-1-2.67-1.53-4s-1-2.71-1.53-4.06-1-2.68-1.49-4q-1.09-3-2.14-5.95t-2.05-5.88l2.73.63,1.41.33,1.32.3,1.48.34,2.44.57,2.43.56c-.2-.76-.4-1.56-.61-2.36a2.82,2.82,0,0,1-.07-.31c-.18-.69-.35-1.39-.51-2.11-.1-.44-.2-.88-.3-1.34s-.2-.9-.3-1.36l-.42-2h0c-.27-1.38-.53-2.81-.77-4.27-.12-.73-.24-1.48-.35-2.23s-.22-1.52-.32-2.29q-.12-.91-.24-1.86s0-.07,0-.1c0-.32-.07-.64-.11-1-.07-.6-.13-1.21-.19-1.82s-.1-1-.15-1.56a2.28,2.28,0,0,1,0-.26c0-.46-.08-.94-.11-1.41-.06-.65-.1-1.32-.14-2,0-.1,0-.21,0-.31,0-.38,0-.76-.06-1.15,0-.14,0-.27,0-.41l0-.57c0-.83-.07-1.67-.09-2.51s0-1.78-.05-2.68c0-.64,0-1.28,0-1.9,0-.13,0-.25,0-.38v-.27c0-.21,0-.43,0-.64,0-.52,0-1,0-1.55s0-1.18,0-1.76,0-1.17.08-1.74,0-1,.08-1.51c0-.21,0-.41,0-.61,0-.43,0-.85.09-1.27.07-1,.16-2.06.25-3.06,0-.22,0-.43.07-.65.09-.9.18-1.78.28-2.65,0-.2,0-.39.07-.59.08-.63.17-1.24.25-1.85q.45-3.33,1-6.31l4,2.72,3.63,2.48,2.29,1.57c.05-.31.11-.62.16-.93s.11-.63.17-.95c.11-.64.23-1.3.36-2,.38-2,.82-4,1.35-6.17.09-.4.2-.81.3-1.22.26-1,.54-2.08.85-3.15q.22-.83.48-1.68.86-2.91,1.9-6c.2-.55.39-1.11.6-1.67s.44-1.21.67-1.82c.17-.45.35-.91.53-1.37.08-.22.17-.43.25-.65q.21-.56.45-1.11l.29-.72q.34-.85.72-1.71a133.08,133.08,0,0,1,14-24.73l.13-.2c.39-.54.78-1.08,1.17-1.6s.86-1.16,1.3-1.72.86-1.12,1.29-1.66.85-1.07,1.27-1.59c.14-.17.27-.34.41-.5l.09-.11c.27-.33.54-.66.81-1q1.84-2.19,3.57-4.08c.6-.66,1.19-1.27,1.75-1.87.43.83.87,1.65,1.29,2.47.23.43.45.87.68,1.29.71,1.33,1.4,2.66,2.09,4l1.76,3.33c1.19-.93,2.41-1.89,3.67-3a149.81,149.81,0,0,0,22.84-23.55s.07-.07.08-.1l.67-.86a148,148,0,0,0,9.9-14.67c.87-1.44,1.67-2.85,2.43-4.23,1-1.77,1.89-3.49,2.72-5.15l2.94,2.1,5.46,3.89,1.68,1.2.63.44,1.84,1.31s.35-1.25,1-3.71c.53-2,1.29-4.76,2.25-8.27.47-1.71,1-3.62,1.56-5.71l.72-2.64q.65-2.38,1.38-5.06c1.23.25,2.59.55,4.06.89A104.08,104.08,0,0,1,276.39,59l0,0A106.21,106.21,0,0,1,287,70.34q1.77,2.22,3.21,4.21c.85,1.19,1.62,2.31,2.31,3.35q.47-3.2.92-6.38l1-6.77,1-6.63.09-.66q1.91,2.07,3.83,4.29c3.61,4.12,7.31,8.62,11,13.52,1.65,2.15,3.3,4.39,4.93,6.71,4.94,7,9.21,13.7,12.9,20.07,1.5,2.58,2.89,5.1,4.19,7.55,0,.12.12.23.18.35l2.56-3.89c.11-.16.21-.33.33-.49l.31-.47c1-1.62,2.11-3.23,3.18-4.85.78.63,1.61,1.32,2.47,2.1l0,0s0,0,0,0a70.58,70.58,0,0,1,14.61,18.24,69.6,69.6,0,0,1,8.13,25.14,71.92,71.92,0,0,1,.5,12.36q2.24-2.78,4.45-5.56c.08-.09.15-.2.23-.29l2.24-2.8c.41.94.84,2,1.25,3a82.09,82.09,0,0,1,3.74,48c-.2,1-.42,1.82-.63,2.65,1.43,2.12,2.77,2.93,3.88,3.19a2.67,2.67,0,0,0,.45.08,10.88,10.88,0,0,0,4.92-1.13l.19-.09v.1C385.46,207,386.18,227.92,385.48,238.36Z"/><path class="g" d="M237.6,55A99,99,0,0,1,294,101a16,16,0,0,0,4.35-5.33A15.81,15.81,0,0,0,300,88.33a65.19,65.19,0,0,1,16.4,56.28A57.85,57.85,0,0,0,296,143.22a58.89,58.89,0,0,0-29.11,11.83A46.07,46.07,0,0,1,241.46,138a45,45,0,0,1-8.16-20.57A106.71,106.71,0,0,0,237.6,55Z"/><path class="h" d="M208.27,66v0s-5.75,14.39-12.38,25a90.23,90.23,0,0,1-16.84,19.77,57.39,57.39,0,0,0,51.32,37,57.46,57.46,0,0,1-11.46-21.56c-4.53-16.58,3.05-20.61-2.6-33.88C216.32,92.4,206.73,69.84,208.27,66Z"/><path class="i" d="M341.38,115.74a74.09,74.09,0,0,1,13.24,46.31,20.37,20.37,0,0,0-.82,15.15c3.22,9.13,12,12.08,13,12.4a21.24,21.24,0,0,0-11.68,4.62A21,21,0,0,0,349,202.3,54.15,54.15,0,0,0,329,161.62a84.86,84.86,0,0,0-3.89-43.14,17.43,17.43,0,0,0,8.8,6.78,12.21,12.21,0,0,0,7.49-9.52Z"/><path class="i" d="M154.71,111a146.51,146.51,0,0,0,37.71,40.78,79.65,79.65,0,0,0-38,21.06,76.1,76.1,0,0,0-12,15.87A96.91,96.91,0,0,1,154.71,111Z"/><path class="j" d="M118.55,170.12a4.82,4.82,0,0,0,9.12,0A97.63,97.63,0,0,0,144.33,214a24.21,24.21,0,0,1-12.41-2.88C120.61,204.81,115.19,188.43,118.55,170.12Z"/><path class="k" d="M380.77,265.44s-1.08-5.61-5.66-7.55a147.21,147.21,0,0,0-38.48-6.53c-6-.2-61.65-2.07-70.06,22.3-1.08,3.15-.95,5.69-.67,10.77.27,4.78,1.94,34.89,27,50.3,19.83,12.19,45.13,9.56,61.29-3.33,11.22-9,16.34-21.38,18.39-27.86a62.34,62.34,0,0,0,2.79-21.36,7.39,7.39,0,0,1,4.55-7S382.8,274.15,380.77,265.44Zm-12.51,27.79a42.1,42.1,0,0,1-4,12.75c-1.6,4.17-7.83,18.91-23.25,26.07A43,43,0,0,1,324,335.84c-1.65,0-29.75,0-42.38-23.51-9-16.75-3.95-33.87-2.88-37.25,0,0,10.64-18.64,45.27-17.62s42.43,16.08,42.43,16.08A42.93,42.93,0,0,1,368.26,293.23Z"/><path class="l" d="M370,295.54a41,41,0,0,1-4.09,12.75c-1.65,4.17-8.07,18.9-24,26.07a45.4,45.4,0,0,1-17.59,3.79c-1.7,0-30.65,0-43.67-23.51-9.27-16.75-4.08-33.88-3-37.26,0,0,11-18.64,46.65-17.61S368,275.85,368,275.85A41.57,41.57,0,0,1,370,295.54Z"/><path class="m" d="M237.35,277.54c-8.67-24.37-66-22.5-72.19-22.3a155.62,155.62,0,0,0-39.66,6.54c-4.71,1.93-5.82,7.54-5.82,7.54-2.1,8.71.86,9.76.86,9.76a7.38,7.38,0,0,1,4.7,7,60.33,60.33,0,0,0,2.87,21.35c2.1,6.48,7.38,18.9,18.94,27.85,16.66,12.9,42.73,15.53,63.16,3.34,25.84-15.41,27.56-45.52,27.83-50.29C238.33,283.23,238.48,280.69,237.35,277.54Z"/><path class="n" d="M219.57,315.05c-13,23.5-42,23.54-43.65,23.51a45.31,45.31,0,0,1-17.59-3.78c-15.9-7.17-22.31-21.91-24-26.07a41.16,41.16,0,0,1-4.1-12.75,41.79,41.79,0,0,1,1.9-19.7s8.05-15.06,43.73-16.07,46.65,17.61,46.65,17.61C223.65,281.18,228.84,298.32,219.57,315.05Z"/><path class="o" d="M226.73,267.66a67,67,0,0,1,47.34-.43l-6.42,9a40.46,40.46,0,0,0-34.44,0Z"/><path class="p" d="M230.19,270a47.77,47.77,0,0,1,39.71-.43q-2.7,4.47-5.38,9a29,29,0,0,0-28.89,0Z"/><path class="q" d="M223,317.36c-13,23.5-42,23.53-43.66,23.51a45.29,45.29,0,0,1-17.59-3.79c-15.89-7.16-22.31-21.9-24-26.07a41,41,0,0,1-4.1-12.74,41.63,41.63,0,0,1,1.91-19.7s8-15.06,43.73-16.07S226,280.11,226,280.11C227.11,283.49,232.3,300.63,223,317.36Z"/><path class="q" d="M375.33,292.07A40,40,0,0,1,371,304.83c-1.75,4.16-8.53,18.9-25.32,26.07a50.28,50.28,0,0,1-18.59,3.78c-1.79,0-32.39,0-46.14-23.5-9.8-16.75-4.31-33.88-3.14-37.26,0,0,11.59-18.64,49.29-17.61s46.2,16.08,46.2,16.08A39.52,39.52,0,0,1,375.33,292.07Z"/><path class="r" d="M382.85,267.75a11.38,11.38,0,0,0-.39-1.34h0a12.16,12.16,0,0,0-2.42-4.07,8.48,8.48,0,0,0-3-2.13c-3.36-1-6.63-1.86-9.78-2.58-1.39-.33-2.75-.63-4.09-.9a153.48,153.48,0,0,0-25.78-3.05c-6.17-.2-63.53-2.07-72.19,22.29-1.12,3.15-1,5.69-.7,10.78.28,4.78,2,34.89,27.84,50.3,20.43,12.19,46.5,9.55,63.15-3.34,11.57-8.95,16.84-21.37,18.95-27.86a60.33,60.33,0,0,0,2.88-21.35,7.35,7.35,0,0,1,4.68-7S385,276.46,382.85,267.75ZM370,295.54a41.24,41.24,0,0,1-4.1,12.75c-1.65,4.17-8.07,18.9-24,26.07a45.35,45.35,0,0,1-17.59,3.79c-1.69,0-30.65,0-43.67-23.51-9.27-16.75-4.07-33.88-3-37.26,0,0,11-18.64,46.64-17.61,23.23.66,34.75,7.28,39.95,11.81a20.73,20.73,0,0,1,3.37,3.64,6.42,6.42,0,0,1,.4.63,42.22,42.22,0,0,1,1.7,6.47A41.23,41.23,0,0,1,370,295.54Z"/><circle class="p" cx="374.53" cy="269.84" r="3.32"/><path class="r" d="M235.05,276.38c-8.67-24.36-66-22.49-72.19-22.3a153.23,153.23,0,0,0-25.42,3q-2.85.57-5.84,1.29-4.08,1-8.4,2.26l-.5.22a8.63,8.63,0,0,0-2.63,2,12.52,12.52,0,0,0-2.69,5.3c-2.1,8.72.86,9.77.86,9.77a7.34,7.34,0,0,1,4.69,7,60.3,60.3,0,0,0,2.87,21.35c2.11,6.48,7.39,18.9,19,27.86,16.65,12.89,42.73,15.52,63.15,3.33,25.84-15.4,27.56-45.51,27.84-50.29C236,282.07,236.17,279.53,235.05,276.38Zm-15.47,38.67c-13,23.5-42,23.54-43.67,23.51a45.47,45.47,0,0,1-17.59-3.78c-15.89-7.17-22.31-21.91-24-26.07a41,41,0,0,1-3.45-28,42.66,42.66,0,0,1,1.27-4.41,10.72,10.72,0,0,1,.8-1.18c.25-.32.56-.7,1-1.12a27,27,0,0,1,3.83-3.43c5.89-4.37,17.3-9.75,38.14-10.34,35.68-1,46.65,17.61,46.65,17.61C223.66,281.18,228.85,298.31,219.58,315.05Z"/><circle class="p" cx="125.68" cy="270.26" r="3.32"/></svg>