<?xml version="1.0" encoding="UTF-8" standalone="no"?>
<!DOCTYPE svg PUBLIC "-//W3C//DTD SVG 1.1//EN" "http://www.w3.org/Graphics/SVG/1.1/DTD/svg11.dtd">
<svg width="100%" height="100%" viewBox="0 0 800 800" version="1.1" xmlns="http://www.w3.org/2000/svg" xmlns:xlink="http://www.w3.org/1999/xlink" xml:space="preserve" xmlns:serif="http://www.serif.com/" style="fill-rule:evenodd;clip-rule:evenodd;stroke-linejoin:round;stroke-miterlimit:2;">
    <g transform="matrix(3.3321,0,0,3.12776,-108.033,-533.742)">
        <g transform="matrix(0.625781,0,0,0.666664,0.738875,112.089)">
            <circle cx="242.461" cy="279.67" r="161.858" style="fill:url(#_Radial1);"/>
        </g>
        <g transform="matrix(0.625781,0,0,0.666664,-145.316,124.148)">
            <path d="M461.007,422.765C378.625,415.258 313.999,345.907 313.999,261.581C313.999,172.249 386.525,99.723 475.857,99.723C565.189,99.723 637.715,172.249 637.715,261.581C637.715,294.004 628.161,324.213 611.717,349.543C594.906,322.285 561.88,290.678 560.859,273.117C559.458,249.003 525.065,223.242 525.065,223.242C543.661,224.37 587.773,183.247 591.721,175.714C595.669,168.18 574.839,167.893 575.714,167.893C576.589,167.893 570.888,149.06 570.888,149.06C570.888,149.06 529.833,171.089 519.32,168.836C508.807,166.583 531.961,129.477 531.961,129.477C514.268,126.177 476.945,173.646 476.945,173.646C465.417,173.008 477.172,142.768 477.172,142.768C452.883,144.745 458.602,184.344 448.323,187.513C438.044,190.682 444.753,157 444.753,157C428.195,159.036 426.38,208.745 426.38,208.745C420.328,207.115 417.542,190.273 417.542,190.273C411.94,187.633 402.862,200.036 406.445,210.904C410.029,221.771 401.826,218.422 401.826,218.422C384.174,225.437 411.063,280.242 411.063,280.242C411.063,282.498 422.299,281.05 424.234,280.784C424.327,280.77 424.421,280.757 424.516,280.745C424.516,280.745 424.416,280.759 424.234,280.784C419.212,281.567 416.598,286.189 415.254,291.283C408.213,297.204 402.617,304.901 407.645,312.368C407.645,312.368 408.843,308.516 413.931,305.62C413.948,306.008 413.964,306.221 413.964,306.221C413.956,306 413.972,305.785 414.01,305.576C417.478,303.625 422.73,302.123 430.6,302.557C392.717,371.689 449.281,387.448 449.281,387.448C453.891,410.586 466.766,401.932 466.766,401.932C463.745,407.49 461.953,414.752 461.007,422.765Z" style="fill:rgb(235,235,235);"/>
        </g>
        <g transform="matrix(0.625781,0,0,0.666664,-145.316,124.148)">
            <path d="M489.125,263.122C489.125,263.122 494.781,245.409 517.138,252.435C539.495,259.461 487.187,293.323 489.125,263.122Z" style="fill:rgb(235,235,235);"/>
        </g>
    </g>
    <defs>
        <radialGradient id="_Radial1" cx="0" cy="0" r="1" gradientUnits="userSpaceOnUse" gradientTransform="matrix(323.716,0,0,323.716,80.6034,279.67)"><stop offset="0" style="stop-color:rgb(255,134,61);stop-opacity:1"/><stop offset="1" style="stop-color:rgb(250,83,93);stop-opacity:1"/></radialGradient>
    </defs>
</svg>
