<?xml version="1.0" encoding="UTF-8" standalone="no"?><!DOCTYPE svg PUBLIC "-//W3C//DTD SVG 1.1//EN" "http://www.w3.org/Graphics/SVG/1.1/DTD/svg11.dtd"><svg width="100%" height="100%" viewBox="0 0 300 75" version="1.1" xmlns="http://www.w3.org/2000/svg" xmlns:xlink="http://www.w3.org/1999/xlink" xml:space="preserve" xmlns:serif="http://www.serif.com/" style="fill-rule:evenodd;clip-rule:evenodd;stroke-linejoin:round;stroke-miterlimit:1.41421;"><g transform="matrix(0.446932,0,0,0.446932,-529.459,-874.894)"><path d="M1219.22,2002.63c0,-2.214 -0.781,-3.913 -2.344,-5.098c-1.562,-1.185 -4.375,-2.435 -8.437,-3.75c-4.063,-1.315 -7.279,-2.61 -9.648,-3.886c-6.459,-3.49 -9.688,-8.19 -9.688,-14.102c0,-3.073 0.866,-5.814 2.598,-8.223c1.731,-2.408 4.218,-4.29 7.461,-5.644c3.242,-1.354 6.881,-2.031 10.918,-2.031c4.062,0 7.682,0.735 10.859,2.207c3.177,1.471 5.645,3.548 7.402,6.23c1.758,2.682 2.637,5.729 2.637,9.141l-11.719,0c0,-2.604 -0.82,-4.629 -2.461,-6.074c-1.64,-1.446 -3.945,-2.168 -6.914,-2.168c-2.864,0 -5.091,0.605 -6.679,1.816c-1.589,1.211 -2.383,2.806 -2.383,4.785c0,1.849 0.931,3.399 2.793,4.649c1.862,1.25 4.603,2.421 8.222,3.515c6.667,2.005 11.524,4.492 14.571,7.461c3.047,2.969 4.57,6.667 4.57,11.094c0,4.922 -1.862,8.782 -5.586,11.582c-3.724,2.799 -8.737,4.199 -15.039,4.199c-4.375,0 -8.359,-0.801 -11.953,-2.402c-3.594,-1.602 -6.335,-3.796 -8.223,-6.582c-1.888,-2.787 -2.832,-6.016 -2.832,-9.688l11.758,0c0,6.276 3.75,9.414 11.25,9.414c2.787,0 4.961,-0.566 6.523,-1.699c1.563,-1.133 2.344,-2.715 2.344,-4.746Z" style="fill:url(#_Linear1);fill-rule:nonzero;"/><path d="M1262.66,2017.55c-0.521,-1.016 -0.899,-2.279 -1.133,-3.789c-2.734,3.047 -6.289,4.57 -10.664,4.57c-4.141,0 -7.572,-1.198 -10.293,-3.594c-2.721,-2.395 -4.082,-5.416 -4.082,-9.062c0,-4.479 1.66,-7.917 4.98,-10.313c3.321,-2.395 8.119,-3.606 14.395,-3.632l5.195,0l0,-2.422c0,-1.953 -0.501,-3.516 -1.504,-4.688c-1.002,-1.172 -2.584,-1.758 -4.746,-1.758c-1.901,0 -3.392,0.456 -4.472,1.368c-1.081,0.911 -1.622,2.161 -1.622,3.75l-11.289,0c0,-2.448 0.756,-4.714 2.266,-6.797c1.51,-2.084 3.646,-3.718 6.406,-4.903c2.761,-1.185 5.86,-1.777 9.297,-1.777c5.208,0 9.343,1.309 12.402,3.926c3.06,2.617 4.59,6.295 4.59,11.035l0,18.32c0.026,4.011 0.586,7.045 1.68,9.102l0,0.664l-11.406,0Zm-9.336,-7.852c1.666,0 3.203,-0.371 4.609,-1.113c1.406,-0.742 2.448,-1.738 3.125,-2.988l0,-7.266l-4.219,0c-5.651,0 -8.658,1.953 -9.023,5.86l-0.039,0.664c0,1.406 0.495,2.565 1.484,3.476c0.99,0.912 2.344,1.367 4.063,1.367Z" style="fill:url(#_Linear2);fill-rule:nonzero;"/><rect x="1281.64" y="1957.55" width="11.328" height="60" style="fill:url(#_Linear3);fill-rule:nonzero;"/><path d="M1315.78,1964.9l0,10.39l7.226,0l0,8.282l-7.226,0l0,21.093c0,1.563 0.299,2.683 0.898,3.36c0.599,0.677 1.745,1.015 3.438,1.015c1.25,0 2.356,-0.091 3.32,-0.273l0,8.555c-2.214,0.677 -4.492,1.015 -6.836,1.015c-7.917,0 -11.953,-3.997 -12.109,-11.992l0,-22.773l-6.172,0l0,-8.282l6.172,0l0,-10.39l11.289,0Z" style="fill:url(#_Linear4);fill-rule:nonzero;"/><path d="M1361.68,2008.14l24.883,0l0,9.414l-36.602,0l0,-56.875l11.719,0l0,47.461Z" style="fill:url(#_Linear5);fill-rule:nonzero;"/><path d="M1417.03,2017.55c-0.521,-1.016 -0.899,-2.279 -1.133,-3.789c-2.734,3.047 -6.289,4.57 -10.664,4.57c-4.141,0 -7.572,-1.198 -10.293,-3.594c-2.721,-2.395 -4.082,-5.416 -4.082,-9.062c0,-4.479 1.66,-7.917 4.98,-10.313c3.321,-2.395 8.119,-3.606 14.395,-3.632l5.195,0l0,-2.422c0,-1.953 -0.501,-3.516 -1.504,-4.688c-1.002,-1.172 -2.584,-1.758 -4.746,-1.758c-1.901,0 -3.392,0.456 -4.472,1.368c-1.081,0.911 -1.622,2.161 -1.622,3.75l-11.289,0c0,-2.448 0.756,-4.714 2.266,-6.797c1.51,-2.084 3.646,-3.718 6.406,-4.903c2.761,-1.185 5.86,-1.777 9.297,-1.777c5.208,0 9.343,1.309 12.402,3.926c3.06,2.617 4.59,6.295 4.59,11.035l0,18.32c0.026,4.011 0.586,7.045 1.68,9.102l0,0.664l-11.406,0Zm-9.336,-7.852c1.666,0 3.203,-0.371 4.609,-1.113c1.406,-0.742 2.448,-1.738 3.125,-2.988l0,-7.266l-4.219,0c-5.651,0 -8.658,1.953 -9.023,5.86l-0.039,0.664c0,1.406 0.495,2.565 1.484,3.476c0.99,0.912 2.344,1.367 4.063,1.367Z" style="fill:url(#_Linear6);fill-rule:nonzero;"/><path d="M1450.78,2000.6l-4.063,4.062l0,12.891l-11.289,0l0,-60l11.289,0l0,33.242l2.188,-2.812l10.82,-12.696l13.555,0l-15.274,17.617l16.602,24.649l-12.969,0l-10.859,-16.953Z" style="fill:url(#_Linear7);fill-rule:nonzero;"/><path d="M1497.62,2018.34c-6.198,0 -11.244,-1.901 -15.137,-5.703c-3.893,-3.802 -5.84,-8.867 -5.84,-15.195l0,-1.094c0,-4.245 0.82,-8.04 2.461,-11.387c1.641,-3.346 3.965,-5.924 6.973,-7.734c3.008,-1.81 6.439,-2.715 10.293,-2.715c5.781,0 10.332,1.823 13.652,5.469c3.32,3.646 4.98,8.815 4.98,15.508l0,4.609l-26.914,0c0.365,2.76 1.465,4.974 3.301,6.641c1.836,1.666 4.16,2.5 6.973,2.5c4.349,0 7.747,-1.576 10.195,-4.727l5.547,6.211c-1.693,2.396 -3.984,4.264 -6.875,5.605c-2.891,1.342 -6.094,2.012 -9.609,2.012Zm-1.289,-34.687c-2.24,0 -4.056,0.755 -5.45,2.265c-1.393,1.511 -2.285,3.672 -2.675,6.485l15.703,0l0,-0.899c-0.052,-2.5 -0.729,-4.433 -2.032,-5.801c-1.302,-1.367 -3.151,-2.05 -5.546,-2.05Z" style="fill:url(#_Linear8);fill-rule:nonzero;"/><path d="M1586.72,1998.61c-0.442,6.119 -2.702,10.937 -6.777,14.453c-4.076,3.515 -9.447,5.273 -16.113,5.273c-7.292,0 -13.028,-2.454 -17.207,-7.363c-4.18,-4.909 -6.27,-11.647 -6.27,-20.215l0,-3.477c0,-5.468 0.964,-10.286 2.891,-14.453c1.927,-4.166 4.681,-7.363 8.261,-9.589c3.581,-2.227 7.741,-3.34 12.481,-3.34c6.562,0 11.849,1.757 15.859,5.273c4.011,3.516 6.328,8.451 6.953,14.805l-11.718,0c-0.287,-3.672 -1.309,-6.335 -3.067,-7.988c-1.758,-1.654 -4.433,-2.481 -8.027,-2.481c-3.906,0 -6.83,1.4 -8.77,4.199c-1.94,2.8 -2.936,7.142 -2.988,13.028l0,4.296c0,6.146 0.931,10.638 2.793,13.477c1.862,2.839 4.798,4.258 8.809,4.258c3.619,0 6.321,-0.827 8.105,-2.481c1.784,-1.653 2.806,-4.212 3.066,-7.675l11.719,0Z" style="fill:url(#_Linear9);fill-rule:nonzero;"/><path d="M1605.59,2017.55l-11.328,0l0,-42.266l11.328,0l0,42.266Zm-11.992,-53.203c0,-1.693 0.567,-3.086 1.699,-4.18c1.133,-1.094 2.676,-1.641 4.629,-1.641c1.927,0 3.464,0.547 4.61,1.641c1.146,1.094 1.718,2.487 1.718,4.18c0,1.719 -0.579,3.125 -1.738,4.219c-1.159,1.093 -2.689,1.64 -4.59,1.64c-1.901,0 -3.431,-0.547 -4.589,-1.64c-1.159,-1.094 -1.739,-2.5 -1.739,-4.219Z" style="fill:url(#_Linear10);fill-rule:nonzero;"/><path d="M1628.4,1964.9l0,10.39l7.226,0l0,8.282l-7.226,0l0,21.093c0,1.563 0.299,2.683 0.898,3.36c0.599,0.677 1.745,1.015 3.438,1.015c1.25,0 2.357,-0.091 3.32,-0.273l0,8.555c-2.213,0.677 -4.492,1.015 -6.836,1.015c-7.916,0 -11.953,-3.997 -12.109,-11.992l0,-22.773l-6.172,0l0,-8.282l6.172,0l0,-10.39l11.289,0Z" style="fill:url(#_Linear11);fill-rule:nonzero;"/><path d="M1657.7,2001.58l7.812,-26.289l12.11,0l-16.993,48.828l-0.937,2.227c-2.526,5.521 -6.693,8.281 -12.5,8.281c-1.641,0 -3.307,-0.247 -5,-0.742l0,-8.555l1.719,0.039c2.135,0 3.73,-0.325 4.785,-0.976c1.055,-0.651 1.881,-1.732 2.48,-3.242l1.328,-3.477l-14.804,-42.383l12.148,0l7.852,26.289Z" style="fill:url(#_Linear12);fill-rule:nonzero;"/><path d="M1234.38,2089.22c-0.442,6.12 -2.701,10.938 -6.777,14.454c-4.075,3.515 -9.446,5.273 -16.113,5.273c-7.292,0 -13.027,-2.454 -17.207,-7.363c-4.18,-4.909 -6.27,-11.647 -6.27,-20.215l0,-3.477c0,-5.468 0.964,-10.286 2.891,-14.453c1.927,-4.166 4.681,-7.363 8.262,-9.59c3.58,-2.226 7.741,-3.339 12.48,-3.339c6.563,0 11.849,1.757 15.859,5.273c4.011,3.516 6.329,8.451 6.954,14.805l-11.719,0c-0.287,-3.672 -1.309,-6.335 -3.067,-7.989c-1.757,-1.653 -4.433,-2.48 -8.027,-2.48c-3.906,0 -6.829,1.4 -8.769,4.199c-1.941,2.8 -2.937,7.142 -2.989,13.027l0,4.297c0,6.146 0.931,10.638 2.793,13.477c1.862,2.838 4.798,4.258 8.809,4.258c3.62,0 6.321,-0.827 8.105,-2.481c1.784,-1.653 2.806,-4.212 3.067,-7.676l11.718,0Z" style="fill:url(#_Linear13);fill-rule:nonzero;"/><path d="M1265.08,2076.49c-1.537,-0.208 -2.891,-0.312 -4.063,-0.312c-4.271,0 -7.07,1.445 -8.398,4.336l0,27.656l-11.289,0l0,-42.266l10.664,0l0.312,5.039c2.266,-3.88 5.404,-5.82 9.414,-5.82c1.25,0 2.422,0.169 3.516,0.508l-0.156,10.859Z" style="fill:url(#_Linear14);fill-rule:nonzero;"/><path d="M1282.42,2108.17l-11.328,0l0,-42.266l11.328,0l0,42.266Zm-11.992,-53.203c0,-1.693 0.567,-3.086 1.699,-4.18c1.133,-1.094 2.676,-1.641 4.629,-1.641c1.927,0 3.464,0.547 4.61,1.641c1.146,1.094 1.718,2.487 1.718,4.18c0,1.718 -0.579,3.125 -1.738,4.218c-1.159,1.094 -2.689,1.641 -4.59,1.641c-1.901,0 -3.431,-0.547 -4.59,-1.641c-1.158,-1.093 -1.738,-2.5 -1.738,-4.218Z" style="fill:url(#_Linear15);fill-rule:nonzero;"/><path d="M1302.31,2065.9l0.352,4.727c2.995,-3.672 7.044,-5.508 12.148,-5.508c5.443,0 9.18,2.148 11.211,6.445c2.969,-4.297 7.201,-6.445 12.695,-6.445c4.584,0 7.995,1.335 10.235,4.004c2.239,2.669 3.359,6.686 3.359,12.051l0,26.992l-11.328,0l0,-26.953c0,-2.396 -0.469,-4.147 -1.406,-5.254c-0.938,-1.107 -2.591,-1.66 -4.961,-1.66c-3.386,0 -5.729,1.614 -7.031,4.843l0.039,29.024l-11.289,0l0,-26.914c0,-2.448 -0.482,-4.219 -1.446,-5.313c-0.963,-1.094 -2.604,-1.64 -4.922,-1.64c-3.203,0 -5.52,1.328 -6.953,3.984l0,29.883l-11.289,0l0,-42.266l10.586,0Z" style="fill:url(#_Linear16);fill-rule:nonzero;"/><path d="M1380.43,2108.95c-6.198,0 -11.243,-1.901 -15.137,-5.703c-3.893,-3.802 -5.839,-8.867 -5.839,-15.195l0,-1.094c0,-4.245 0.82,-8.04 2.461,-11.387c1.64,-3.346 3.964,-5.924 6.972,-7.734c3.008,-1.81 6.439,-2.715 10.293,-2.715c5.781,0 10.332,1.823 13.653,5.469c3.32,3.646 4.98,8.815 4.98,15.507l0,4.61l-26.914,0c0.365,2.76 1.465,4.974 3.301,6.64c1.836,1.667 4.16,2.5 6.972,2.5c4.349,0 7.748,-1.575 10.196,-4.726l5.547,6.211c-1.693,2.396 -3.985,4.264 -6.875,5.605c-2.891,1.341 -6.094,2.012 -9.61,2.012Zm-1.289,-34.687c-2.239,0 -4.056,0.755 -5.449,2.265c-1.393,1.511 -2.285,3.672 -2.676,6.485l15.703,0l0,-0.899c-0.052,-2.5 -0.729,-4.433 -2.031,-5.801c-1.302,-1.367 -3.151,-2.05 -5.547,-2.05Z" style="fill:url(#_Linear17);fill-rule:nonzero;"/><path d="M1471.17,2108.17l-11.718,0l0,-24.375l-22.852,0l0,24.375l-11.719,0l0,-56.875l11.719,0l0,23.047l22.852,0l0,-23.047l11.718,0l0,56.875Z" style="fill:url(#_Linear18);fill-rule:nonzero;"/><path d="M1500.12,2108.95c-6.198,0 -11.244,-1.901 -15.137,-5.703c-3.893,-3.802 -5.84,-8.867 -5.84,-15.195l0,-1.094c0,-4.245 0.82,-8.04 2.461,-11.387c1.641,-3.346 3.965,-5.924 6.973,-7.734c3.008,-1.81 6.439,-2.715 10.293,-2.715c5.781,0 10.332,1.823 13.652,5.469c3.32,3.646 4.98,8.815 4.98,15.507l0,4.61l-26.914,0c0.365,2.76 1.465,4.974 3.301,6.64c1.836,1.667 4.16,2.5 6.973,2.5c4.349,0 7.747,-1.575 10.195,-4.726l5.547,6.211c-1.693,2.396 -3.984,4.264 -6.875,5.605c-2.891,1.341 -6.094,2.012 -9.609,2.012Zm-1.289,-34.687c-2.24,0 -4.056,0.755 -5.45,2.265c-1.393,1.511 -2.285,3.672 -2.675,6.485l15.703,0l0,-0.899c-0.052,-2.5 -0.729,-4.433 -2.032,-5.801c-1.302,-1.367 -3.151,-2.05 -5.546,-2.05Z" style="fill:url(#_Linear19);fill-rule:nonzero;"/><path d="M1548.4,2108.17c-0.521,-1.016 -0.899,-2.279 -1.133,-3.789c-2.734,3.047 -6.289,4.57 -10.664,4.57c-4.141,0 -7.572,-1.198 -10.293,-3.594c-2.721,-2.396 -4.082,-5.416 -4.082,-9.062c0,-4.479 1.66,-7.917 4.981,-10.313c3.32,-2.396 8.118,-3.606 14.394,-3.633l5.195,0l0,-2.421c0,-1.954 -0.501,-3.516 -1.504,-4.688c-1.002,-1.172 -2.584,-1.758 -4.746,-1.758c-1.901,0 -3.392,0.456 -4.472,1.367c-1.081,0.912 -1.621,2.162 -1.621,3.75l-11.289,0c0,-2.447 0.755,-4.713 2.265,-6.796c1.511,-2.084 3.646,-3.718 6.406,-4.903c2.761,-1.185 5.86,-1.777 9.297,-1.777c5.209,0 9.343,1.309 12.403,3.926c3.06,2.617 4.589,6.295 4.589,11.035l0,18.32c0.027,4.011 0.586,7.044 1.68,9.102l0,0.664l-11.406,0Zm-9.336,-7.852c1.667,0 3.203,-0.371 4.609,-1.113c1.407,-0.742 2.448,-1.738 3.125,-2.988l0,-7.266l-4.218,0c-5.651,0 -8.659,1.953 -9.024,5.859l-0.039,0.664c0,1.407 0.495,2.566 1.484,3.477c0.99,0.912 2.344,1.367 4.063,1.367Z" style="fill:url(#_Linear20);fill-rule:nonzero;"/><path d="M1580.32,2055.51l0,10.39l7.227,0l0,8.281l-7.227,0l0,21.094c0,1.563 0.299,2.682 0.898,3.36c0.599,0.677 1.745,1.015 3.438,1.015c1.25,0 2.357,-0.091 3.32,-0.273l0,8.554c-2.213,0.678 -4.492,1.016 -6.836,1.016c-7.916,0 -11.953,-3.997 -12.109,-11.992l0,-22.774l-6.172,0l0,-8.281l6.172,0l0,-10.39l11.289,0Z" style="fill:url(#_Linear21);fill-rule:nonzero;"/><path d="M1604.42,2065.9l0.351,4.727c2.995,-3.672 7.044,-5.508 12.149,-5.508c5.442,0 9.179,2.148 11.21,6.445c2.969,-4.297 7.201,-6.445 12.696,-6.445c4.583,0 7.995,1.335 10.234,4.004c2.24,2.669 3.36,6.686 3.36,12.051l0,26.992l-11.329,0l0,-26.953c0,-2.396 -0.468,-4.147 -1.406,-5.254c-0.937,-1.107 -2.591,-1.66 -4.961,-1.66c-3.385,0 -5.729,1.614 -7.031,4.843l0.039,29.024l-11.289,0l0,-26.914c0,-2.448 -0.482,-4.219 -1.445,-5.313c-0.964,-1.094 -2.604,-1.64 -4.922,-1.64c-3.203,0 -5.521,1.328 -6.953,3.984l0,29.883l-11.289,0l0,-42.266l10.586,0Z" style="fill:url(#_Linear22);fill-rule:nonzero;"/><path d="M1687.58,2108.17c-0.521,-1.016 -0.899,-2.279 -1.133,-3.789c-2.735,3.047 -6.289,4.57 -10.664,4.57c-4.141,0 -7.572,-1.198 -10.293,-3.594c-2.722,-2.396 -4.082,-5.416 -4.082,-9.062c0,-4.479 1.66,-7.917 4.98,-10.313c3.321,-2.396 8.119,-3.606 14.395,-3.633l5.195,0l0,-2.421c0,-1.954 -0.501,-3.516 -1.504,-4.688c-1.002,-1.172 -2.584,-1.758 -4.746,-1.758c-1.901,0 -3.392,0.456 -4.473,1.367c-1.08,0.912 -1.621,2.162 -1.621,3.75l-11.289,0c0,-2.447 0.755,-4.713 2.266,-6.796c1.51,-2.084 3.646,-3.718 6.406,-4.903c2.761,-1.185 5.859,-1.777 9.297,-1.777c5.208,0 9.342,1.309 12.402,3.926c3.06,2.617 4.59,6.295 4.59,11.035l0,18.32c0.026,4.011 0.586,7.044 1.68,9.102l0,0.664l-11.406,0Zm-9.336,-7.852c1.666,0 3.203,-0.371 4.609,-1.113c1.406,-0.742 2.448,-1.738 3.125,-2.988l0,-7.266l-4.219,0c-5.651,0 -8.659,1.953 -9.023,5.859l-0.039,0.664c0,1.407 0.495,2.566 1.484,3.477c0.99,0.912 2.344,1.367 4.063,1.367Z" style="fill:url(#_Linear23);fill-rule:nonzero;"/><path d="M1744.03,2087.43c0,6.51 -1.478,11.725 -4.434,15.644c-2.955,3.919 -6.946,5.879 -11.972,5.879c-4.271,0 -7.722,-1.484 -10.352,-4.453l0,19.922l-11.289,0l0,-58.516l10.469,0l0.39,4.141c2.735,-3.281 6.303,-4.922 10.704,-4.922c5.208,0 9.257,1.927 12.148,5.781c2.891,3.854 4.336,9.167 4.336,15.938l0,0.586Zm-11.289,-0.821c0,-3.932 -0.697,-6.966 -2.09,-9.101c-1.393,-2.136 -3.418,-3.203 -6.074,-3.203c-3.542,0 -5.977,1.354 -7.305,4.062l0,17.305c1.38,2.786 3.841,4.179 7.383,4.179c5.391,0 8.086,-4.414 8.086,-13.242Z" style="fill:url(#_Linear24);fill-rule:nonzero;"/></g><defs><linearGradient id="_Linear1" x1="0" y1="0" x2="1" y2="0" gradientUnits="userSpaceOnUse" gradientTransform="matrix(527.164,0,0,225.969,1184.65,2070.54)"><stop offset="0" style="stop-color:#d64d40;stop-opacity:1"/><stop offset="1" style="stop-color:#ff841d;stop-opacity:1"/></linearGradient><linearGradient id="_Linear2" x1="0" y1="0" x2="1" y2="0" gradientUnits="userSpaceOnUse" gradientTransform="matrix(527.164,0,0,225.969,1184.65,2070.54)"><stop offset="0" style="stop-color:#d64d40;stop-opacity:1"/><stop offset="1" style="stop-color:#ff841d;stop-opacity:1"/></linearGradient><linearGradient id="_Linear3" x1="0" y1="0" x2="1" y2="0" gradientUnits="userSpaceOnUse" gradientTransform="matrix(527.164,0,0,225.969,1184.65,2070.54)"><stop offset="0" style="stop-color:#d64d40;stop-opacity:1"/><stop offset="1" style="stop-color:#ff841d;stop-opacity:1"/></linearGradient><linearGradient id="_Linear4" x1="0" y1="0" x2="1" y2="0" gradientUnits="userSpaceOnUse" gradientTransform="matrix(527.164,0,0,225.969,1184.65,2070.54)"><stop offset="0" style="stop-color:#d64d40;stop-opacity:1"/><stop offset="1" style="stop-color:#ff841d;stop-opacity:1"/></linearGradient><linearGradient id="_Linear5" x1="0" y1="0" x2="1" y2="0" gradientUnits="userSpaceOnUse" gradientTransform="matrix(527.164,0,0,225.969,1184.65,2070.54)"><stop offset="0" style="stop-color:#d64d40;stop-opacity:1"/><stop offset="1" style="stop-color:#ff841d;stop-opacity:1"/></linearGradient><linearGradient id="_Linear6" x1="0" y1="0" x2="1" y2="0" gradientUnits="userSpaceOnUse" gradientTransform="matrix(527.164,0,0,225.969,1184.65,2070.54)"><stop offset="0" style="stop-color:#d64d40;stop-opacity:1"/><stop offset="1" style="stop-color:#ff841d;stop-opacity:1"/></linearGradient><linearGradient id="_Linear7" x1="0" y1="0" x2="1" y2="0" gradientUnits="userSpaceOnUse" gradientTransform="matrix(527.164,0,0,225.969,1184.65,2070.54)"><stop offset="0" style="stop-color:#d64d40;stop-opacity:1"/><stop offset="1" style="stop-color:#ff841d;stop-opacity:1"/></linearGradient><linearGradient id="_Linear8" x1="0" y1="0" x2="1" y2="0" gradientUnits="userSpaceOnUse" gradientTransform="matrix(527.164,0,0,225.969,1184.65,2070.54)"><stop offset="0" style="stop-color:#d64d40;stop-opacity:1"/><stop offset="1" style="stop-color:#ff841d;stop-opacity:1"/></linearGradient><linearGradient id="_Linear9" x1="0" y1="0" x2="1" y2="0" gradientUnits="userSpaceOnUse" gradientTransform="matrix(527.164,0,0,225.969,1184.65,2070.54)"><stop offset="0" style="stop-color:#d64d40;stop-opacity:1"/><stop offset="1" style="stop-color:#ff841d;stop-opacity:1"/></linearGradient><linearGradient id="_Linear10" x1="0" y1="0" x2="1" y2="0" gradientUnits="userSpaceOnUse" gradientTransform="matrix(527.164,0,0,225.969,1184.65,2070.54)"><stop offset="0" style="stop-color:#d64d40;stop-opacity:1"/><stop offset="1" style="stop-color:#ff841d;stop-opacity:1"/></linearGradient><linearGradient id="_Linear11" x1="0" y1="0" x2="1" y2="0" gradientUnits="userSpaceOnUse" gradientTransform="matrix(527.164,0,0,225.969,1184.65,2070.54)"><stop offset="0" style="stop-color:#d64d40;stop-opacity:1"/><stop offset="1" style="stop-color:#ff841d;stop-opacity:1"/></linearGradient><linearGradient id="_Linear12" x1="0" y1="0" x2="1" y2="0" gradientUnits="userSpaceOnUse" gradientTransform="matrix(527.164,0,0,225.969,1184.65,2070.54)"><stop offset="0" style="stop-color:#d64d40;stop-opacity:1"/><stop offset="1" style="stop-color:#ff841d;stop-opacity:1"/></linearGradient><linearGradient id="_Linear13" x1="0" y1="0" x2="1" y2="0" gradientUnits="userSpaceOnUse" gradientTransform="matrix(527.164,0,0,225.969,1184.65,2070.54)"><stop offset="0" style="stop-color:#d64d40;stop-opacity:1"/><stop offset="1" style="stop-color:#ff841d;stop-opacity:1"/></linearGradient><linearGradient id="_Linear14" x1="0" y1="0" x2="1" y2="0" gradientUnits="userSpaceOnUse" gradientTransform="matrix(527.164,0,0,225.969,1184.65,2070.54)"><stop offset="0" style="stop-color:#d64d40;stop-opacity:1"/><stop offset="1" style="stop-color:#ff841d;stop-opacity:1"/></linearGradient><linearGradient id="_Linear15" x1="0" y1="0" x2="1" y2="0" gradientUnits="userSpaceOnUse" gradientTransform="matrix(527.164,0,0,225.969,1184.65,2070.54)"><stop offset="0" style="stop-color:#d64d40;stop-opacity:1"/><stop offset="1" style="stop-color:#ff841d;stop-opacity:1"/></linearGradient><linearGradient id="_Linear16" x1="0" y1="0" x2="1" y2="0" gradientUnits="userSpaceOnUse" gradientTransform="matrix(527.164,0,0,225.969,1184.65,2070.54)"><stop offset="0" style="stop-color:#d64d40;stop-opacity:1"/><stop offset="1" style="stop-color:#ff841d;stop-opacity:1"/></linearGradient><linearGradient id="_Linear17" x1="0" y1="0" x2="1" y2="0" gradientUnits="userSpaceOnUse" gradientTransform="matrix(527.164,0,0,225.969,1184.65,2070.54)"><stop offset="0" style="stop-color:#d64d40;stop-opacity:1"/><stop offset="1" style="stop-color:#ff841d;stop-opacity:1"/></linearGradient><linearGradient id="_Linear18" x1="0" y1="0" x2="1" y2="0" gradientUnits="userSpaceOnUse" gradientTransform="matrix(527.164,0,0,225.969,1184.65,2070.54)"><stop offset="0" style="stop-color:#d64d40;stop-opacity:1"/><stop offset="1" style="stop-color:#ff841d;stop-opacity:1"/></linearGradient><linearGradient id="_Linear19" x1="0" y1="0" x2="1" y2="0" gradientUnits="userSpaceOnUse" gradientTransform="matrix(527.164,0,0,225.969,1184.65,2070.54)"><stop offset="0" style="stop-color:#d64d40;stop-opacity:1"/><stop offset="1" style="stop-color:#ff841d;stop-opacity:1"/></linearGradient><linearGradient id="_Linear20" x1="0" y1="0" x2="1" y2="0" gradientUnits="userSpaceOnUse" gradientTransform="matrix(527.164,0,0,225.969,1184.65,2070.54)"><stop offset="0" style="stop-color:#d64d40;stop-opacity:1"/><stop offset="1" style="stop-color:#ff841d;stop-opacity:1"/></linearGradient><linearGradient id="_Linear21" x1="0" y1="0" x2="1" y2="0" gradientUnits="userSpaceOnUse" gradientTransform="matrix(527.164,0,0,225.969,1184.65,2070.54)"><stop offset="0" style="stop-color:#d64d40;stop-opacity:1"/><stop offset="1" style="stop-color:#ff841d;stop-opacity:1"/></linearGradient><linearGradient id="_Linear22" x1="0" y1="0" x2="1" y2="0" gradientUnits="userSpaceOnUse" gradientTransform="matrix(527.164,0,0,225.969,1184.65,2070.54)"><stop offset="0" style="stop-color:#d64d40;stop-opacity:1"/><stop offset="1" style="stop-color:#ff841d;stop-opacity:1"/></linearGradient><linearGradient id="_Linear23" x1="0" y1="0" x2="1" y2="0" gradientUnits="userSpaceOnUse" gradientTransform="matrix(527.164,0,0,225.969,1184.65,2070.54)"><stop offset="0" style="stop-color:#d64d40;stop-opacity:1"/><stop offset="1" style="stop-color:#ff841d;stop-opacity:1"/></linearGradient><linearGradient id="_Linear24" x1="0" y1="0" x2="1" y2="0" gradientUnits="userSpaceOnUse" gradientTransform="matrix(527.164,0,0,225.969,1184.65,2070.54)"><stop offset="0" style="stop-color:#d64d40;stop-opacity:1"/><stop offset="1" style="stop-color:#ff841d;stop-opacity:1"/></linearGradient></defs></svg>