<?xml version="1.0" encoding="UTF-8" standalone="no"?><!DOCTYPE svg PUBLIC "-//W3C//DTD SVG 1.1//EN" "http://www.w3.org/Graphics/SVG/1.1/DTD/svg11.dtd"><svg width="100%" height="100%" viewBox="0 0 225 35" version="1.1" xmlns="http://www.w3.org/2000/svg" xmlns:xlink="http://www.w3.org/1999/xlink" xml:space="preserve" xmlns:serif="http://www.serif.com/" style="fill-rule:evenodd;clip-rule:evenodd;stroke-linejoin:round;stroke-miterlimit:1.41421;"><path d="M21.554,5.678l-7.841,0l0,21.326l-5.274,0l0,-21.326l-7.736,0l0,-4.272l20.851,0l0,4.272Z" style="fill:url(#_Radial1);fill-rule:nonzero;"/><path d="M35.618,25.07c-1.254,1.523 -2.989,2.285 -5.204,2.285c-2.039,0 -3.595,-0.586 -4.667,-1.758c-1.073,-1.172 -1.621,-2.889 -1.644,-5.151l0,-12.464l5.081,0l0,12.288c0,1.981 0.902,2.971 2.707,2.971c1.723,0 2.907,-0.597 3.551,-1.793l0,-13.466l5.099,0l0,19.022l-4.782,0l-0.141,-1.934Z" style="fill:url(#_Radial2);fill-rule:nonzero;"/><path d="M49.05,7.982l0.158,2.197c1.359,-1.699 3.182,-2.549 5.467,-2.549c2.016,0 3.516,0.592 4.501,1.776c0.984,1.183 1.488,2.953 1.512,5.309l0,12.289l-5.081,0l0,-12.166c0,-1.078 -0.234,-1.861 -0.703,-2.347c-0.469,-0.486 -1.248,-0.73 -2.338,-0.73c-1.43,0 -2.503,0.61 -3.218,1.829l0,13.414l-5.08,0l0,-19.022l4.782,0Z" style="fill:url(#_Radial3);fill-rule:nonzero;"/><path d="M63.8,17.352c0,-2.918 0.694,-5.268 2.083,-7.05c1.389,-1.781 3.261,-2.672 5.617,-2.672c2.086,0 3.709,0.715 4.87,2.145l0.211,-1.793l4.606,0l0,18.389c0,1.664 -0.378,3.111 -1.134,4.342c-0.756,1.231 -1.82,2.168 -3.191,2.813c-1.371,0.645 -2.977,0.967 -4.817,0.967c-1.395,0 -2.754,-0.278 -4.079,-0.835c-1.324,-0.557 -2.326,-1.275 -3.006,-2.154l2.25,-3.094c1.266,1.418 2.801,2.127 4.606,2.127c1.348,0 2.397,-0.36 3.147,-1.081c0.75,-0.721 1.125,-1.743 1.125,-3.068l0,-1.019c-1.172,1.324 -2.713,1.986 -4.623,1.986c-2.286,0 -4.135,-0.893 -5.547,-2.681c-1.412,-1.787 -2.118,-4.158 -2.118,-7.111l0,-0.211Zm5.08,0.369c0,1.723 0.346,3.074 1.038,4.052c0.691,0.979 1.64,1.468 2.848,1.468c1.547,0 2.654,-0.58 3.322,-1.74l0,-7.999c-0.679,-1.161 -1.775,-1.741 -3.287,-1.741c-1.219,0 -2.177,0.498 -2.875,1.495c-0.697,0.996 -1.046,2.484 -1.046,4.465Z" style="fill:url(#_Radial4);fill-rule:nonzero;"/><path d="M95.392,21.747c0,-0.621 -0.308,-1.11 -0.923,-1.468c-0.616,-0.357 -1.603,-0.677 -2.963,-0.958c-4.524,-0.949 -6.786,-2.872 -6.786,-5.766c0,-1.688 0.701,-3.098 2.101,-4.229c1.401,-1.131 3.232,-1.696 5.494,-1.696c2.414,0 4.345,0.568 5.793,1.705c1.447,1.137 2.171,2.614 2.171,4.431l-5.081,0c0,-0.727 -0.234,-1.328 -0.703,-1.802c-0.469,-0.475 -1.201,-0.712 -2.197,-0.712c-0.856,0 -1.518,0.193 -1.987,0.58c-0.469,0.386 -0.703,0.879 -0.703,1.476c0,0.563 0.266,1.017 0.8,1.363c0.533,0.346 1.432,0.645 2.698,0.897c1.266,0.252 2.333,0.536 3.2,0.852c2.684,0.985 4.026,2.69 4.026,5.116c0,1.735 -0.744,3.138 -2.233,4.211c-1.488,1.072 -3.411,1.608 -5.766,1.608c-1.594,0 -3.01,-0.284 -4.246,-0.852c-1.236,-0.569 -2.206,-1.348 -2.91,-2.339c-0.703,-0.99 -1.054,-2.059 -1.054,-3.208l4.817,0c0.047,0.902 0.381,1.594 1.002,2.074c0.621,0.481 1.453,0.721 2.496,0.721c0.973,0 1.708,-0.184 2.207,-0.554c0.498,-0.369 0.747,-0.852 0.747,-1.45Z" style="fill:url(#_Radial5);fill-rule:nonzero;"/><path d="M109.685,3.305l0,4.677l3.252,0l0,3.727l-3.252,0l0,9.493c0,0.703 0.134,1.207 0.404,1.512c0.27,0.305 0.785,0.457 1.547,0.457c0.563,0 1.061,-0.041 1.494,-0.123l0,3.85c-0.996,0.305 -2.021,0.457 -3.076,0.457c-3.563,0 -5.38,-1.799 -5.45,-5.397l0,-10.249l-2.778,0l0,-3.727l2.778,0l0,-4.677l5.081,0Z" style="fill:url(#_Radial6);fill-rule:nonzero;"/><path d="M124.523,27.355c-2.79,0 -5.061,-0.855 -6.813,-2.567c-1.752,-1.711 -2.628,-3.99 -2.628,-6.838l0,-0.493c0,-1.91 0.369,-3.618 1.107,-5.124c0.739,-1.506 1.785,-2.667 3.139,-3.481c1.353,-0.815 2.897,-1.222 4.632,-1.222c2.602,0 4.65,0.82 6.144,2.461c1.495,1.641 2.242,3.968 2.242,6.98l0,2.074l-12.113,0c0.164,1.242 0.659,2.239 1.485,2.989c0.827,0.75 1.873,1.125 3.139,1.125c1.957,0 3.486,-0.709 4.588,-2.127l2.497,2.795c-0.762,1.078 -1.794,1.919 -3.095,2.523c-1.301,0.603 -2.742,0.905 -4.324,0.905Zm-0.581,-15.611c-1.008,0 -1.825,0.34 -2.452,1.019c-0.627,0.68 -1.029,1.653 -1.204,2.919l7.067,0l0,-0.405c-0.023,-1.125 -0.328,-1.995 -0.914,-2.61c-0.586,-0.616 -1.418,-0.923 -2.497,-0.923Z" style="fill:url(#_Radial7);fill-rule:nonzero;"/><path d="M139.905,7.982l0.159,2.197c1.359,-1.699 3.182,-2.549 5.467,-2.549c2.016,0 3.516,0.592 4.501,1.776c0.984,1.183 1.488,2.953 1.512,5.309l0,12.289l-5.081,0l0,-12.166c0,-1.078 -0.234,-1.861 -0.703,-2.347c-0.469,-0.486 -1.248,-0.73 -2.338,-0.73c-1.43,0 -2.503,0.61 -3.218,1.829l0,13.414l-5.08,0l0,-19.022l4.781,0Z" style="fill:url(#_Radial8);fill-rule:nonzero;"/><path d="M155.658,24.507c0,-0.809 0.272,-1.465 0.817,-1.969c0.545,-0.504 1.228,-0.756 2.048,-0.756c0.832,0 1.521,0.252 2.066,0.756c0.545,0.504 0.817,1.16 0.817,1.969c0,0.797 -0.269,1.445 -0.808,1.943c-0.539,0.498 -1.231,0.747 -2.075,0.747c-0.832,0 -1.518,-0.249 -2.057,-0.747c-0.539,-0.498 -0.808,-1.146 -0.808,-1.943Z" style="fill:url(#_Radial9);fill-rule:nonzero;"/><path d="M173.765,23.259c0.938,0 1.7,-0.258 2.286,-0.774c0.586,-0.515 0.891,-1.201 0.914,-2.056l4.764,0c-0.011,1.289 -0.363,2.47 -1.054,3.542c-0.692,1.072 -1.638,1.905 -2.84,2.496c-1.201,0.592 -2.528,0.888 -3.982,0.888c-2.719,0 -4.864,-0.864 -6.434,-2.593c-1.571,-1.729 -2.356,-4.117 -2.356,-7.164l0,-0.334c0,-2.93 0.78,-5.268 2.338,-7.015c1.559,-1.746 3.698,-2.619 6.417,-2.619c2.379,0 4.287,0.677 5.723,2.03c1.435,1.354 2.165,3.156 2.188,5.406l-4.764,0c-0.023,-0.984 -0.328,-1.784 -0.914,-2.399c-0.586,-0.616 -1.36,-0.923 -2.321,-0.923c-1.183,0 -2.077,0.43 -2.681,1.292c-0.603,0.861 -0.905,2.259 -0.905,4.193l0,0.527c0,1.958 0.299,3.364 0.897,4.22c0.597,0.855 1.506,1.283 2.724,1.283Z" style="fill:url(#_Radial10);fill-rule:nonzero;"/><path d="M194.932,21.747c0,-0.621 -0.307,-1.11 -0.923,-1.468c-0.615,-0.357 -1.602,-0.677 -2.962,-0.958c-4.524,-0.949 -6.786,-2.872 -6.786,-5.766c0,-1.688 0.7,-3.098 2.101,-4.229c1.4,-1.131 3.232,-1.696 5.494,-1.696c2.414,0 4.345,0.568 5.793,1.705c1.447,1.137 2.171,2.614 2.171,4.431l-5.081,0c0,-0.727 -0.234,-1.328 -0.703,-1.802c-0.469,-0.475 -1.202,-0.712 -2.198,-0.712c-0.855,0 -1.518,0.193 -1.986,0.58c-0.469,0.386 -0.704,0.879 -0.704,1.476c0,0.563 0.267,1.017 0.8,1.363c0.534,0.346 1.433,0.645 2.699,0.897c1.266,0.252 2.332,0.536 3.2,0.852c2.684,0.985 4.026,2.69 4.026,5.116c0,1.735 -0.745,3.138 -2.233,4.211c-1.489,1.072 -3.411,1.608 -5.767,1.608c-1.594,0 -3.009,-0.284 -4.245,-0.852c-1.237,-0.569 -2.207,-1.348 -2.91,-2.339c-0.703,-0.99 -1.055,-2.059 -1.055,-3.208l4.817,0c0.047,0.902 0.381,1.594 1.002,2.074c0.622,0.481 1.454,0.721 2.497,0.721c0.973,0 1.708,-0.184 2.206,-0.554c0.498,-0.369 0.747,-0.852 0.747,-1.45Z" style="fill:url(#_Radial11);fill-rule:nonzero;"/><path d="M213.445,21.747c0,-0.621 -0.308,-1.11 -0.923,-1.468c-0.616,-0.357 -1.603,-0.677 -2.963,-0.958c-4.524,-0.949 -6.786,-2.872 -6.786,-5.766c0,-1.688 0.701,-3.098 2.101,-4.229c1.401,-1.131 3.232,-1.696 5.494,-1.696c2.414,0 4.345,0.568 5.793,1.705c1.447,1.137 2.171,2.614 2.171,4.431l-5.081,0c0,-0.727 -0.234,-1.328 -0.703,-1.802c-0.469,-0.475 -1.201,-0.712 -2.198,-0.712c-0.855,0 -1.517,0.193 -1.986,0.58c-0.469,0.386 -0.703,0.879 -0.703,1.476c0,0.563 0.266,1.017 0.8,1.363c0.533,0.346 1.432,0.645 2.698,0.897c1.266,0.252 2.333,0.536 3.2,0.852c2.684,0.985 4.026,2.69 4.026,5.116c0,1.735 -0.744,3.138 -2.233,4.211c-1.488,1.072 -3.411,1.608 -5.766,1.608c-1.594,0 -3.01,-0.284 -4.246,-0.852c-1.237,-0.569 -2.206,-1.348 -2.91,-2.339c-0.703,-0.99 -1.054,-2.059 -1.054,-3.208l4.817,0c0.046,0.902 0.381,1.594 1.002,2.074c0.621,0.481 1.453,0.721 2.496,0.721c0.973,0 1.708,-0.184 2.206,-0.554c0.499,-0.369 0.748,-0.852 0.748,-1.45Z" style="fill:url(#_Radial12);fill-rule:nonzero;"/><defs><radialGradient id="_Radial1" cx="0" cy="0" r="1" gradientUnits="userSpaceOnUse" gradientTransform="matrix(214.542,0,0,214.542,0,50.8498)"><stop offset="0" style="stop-color:#269cff;stop-opacity:1"/><stop offset="1" style="stop-color:#d64de5;stop-opacity:1"/></radialGradient><radialGradient id="_Radial2" cx="0" cy="0" r="1" gradientUnits="userSpaceOnUse" gradientTransform="matrix(214.542,0,0,214.542,0,50.8498)"><stop offset="0" style="stop-color:#269cff;stop-opacity:1"/><stop offset="1" style="stop-color:#d64de5;stop-opacity:1"/></radialGradient><radialGradient id="_Radial3" cx="0" cy="0" r="1" gradientUnits="userSpaceOnUse" gradientTransform="matrix(214.542,0,0,214.542,0,50.8498)"><stop offset="0" style="stop-color:#269cff;stop-opacity:1"/><stop offset="1" style="stop-color:#d64de5;stop-opacity:1"/></radialGradient><radialGradient id="_Radial4" cx="0" cy="0" r="1" gradientUnits="userSpaceOnUse" gradientTransform="matrix(214.542,0,0,214.542,0,50.8498)"><stop offset="0" style="stop-color:#269cff;stop-opacity:1"/><stop offset="1" style="stop-color:#d64de5;stop-opacity:1"/></radialGradient><radialGradient id="_Radial5" cx="0" cy="0" r="1" gradientUnits="userSpaceOnUse" gradientTransform="matrix(214.542,0,0,214.542,0,50.8498)"><stop offset="0" style="stop-color:#269cff;stop-opacity:1"/><stop offset="1" style="stop-color:#d64de5;stop-opacity:1"/></radialGradient><radialGradient id="_Radial6" cx="0" cy="0" r="1" gradientUnits="userSpaceOnUse" gradientTransform="matrix(214.542,0,0,214.542,0,50.8498)"><stop offset="0" style="stop-color:#269cff;stop-opacity:1"/><stop offset="1" style="stop-color:#d64de5;stop-opacity:1"/></radialGradient><radialGradient id="_Radial7" cx="0" cy="0" r="1" gradientUnits="userSpaceOnUse" gradientTransform="matrix(214.542,0,0,214.542,0,50.8498)"><stop offset="0" style="stop-color:#269cff;stop-opacity:1"/><stop offset="1" style="stop-color:#d64de5;stop-opacity:1"/></radialGradient><radialGradient id="_Radial8" cx="0" cy="0" r="1" gradientUnits="userSpaceOnUse" gradientTransform="matrix(214.542,0,0,214.542,0,50.8498)"><stop offset="0" style="stop-color:#269cff;stop-opacity:1"/><stop offset="1" style="stop-color:#d64de5;stop-opacity:1"/></radialGradient><radialGradient id="_Radial9" cx="0" cy="0" r="1" gradientUnits="userSpaceOnUse" gradientTransform="matrix(214.542,0,0,214.542,0,50.8498)"><stop offset="0" style="stop-color:#269cff;stop-opacity:1"/><stop offset="1" style="stop-color:#d64de5;stop-opacity:1"/></radialGradient><radialGradient id="_Radial10" cx="0" cy="0" r="1" gradientUnits="userSpaceOnUse" gradientTransform="matrix(214.542,0,0,214.542,0,50.8498)"><stop offset="0" style="stop-color:#269cff;stop-opacity:1"/><stop offset="1" style="stop-color:#d64de5;stop-opacity:1"/></radialGradient><radialGradient id="_Radial11" cx="0" cy="0" r="1" gradientUnits="userSpaceOnUse" gradientTransform="matrix(214.542,0,0,214.542,0,50.8498)"><stop offset="0" style="stop-color:#269cff;stop-opacity:1"/><stop offset="1" style="stop-color:#d64de5;stop-opacity:1"/></radialGradient><radialGradient id="_Radial12" cx="0" cy="0" r="1" gradientUnits="userSpaceOnUse" gradientTransform="matrix(214.542,0,0,214.542,0,50.8498)"><stop offset="0" style="stop-color:#269cff;stop-opacity:1"/><stop offset="1" style="stop-color:#d64de5;stop-opacity:1"/></radialGradient></defs></svg>