<?xml version="1.0" encoding="UTF-8" standalone="no"?>
<!DOCTYPE svg PUBLIC "-//W3C//DTD SVG 1.1//EN" "http://www.w3.org/Graphics/SVG/1.1/DTD/svg11.dtd">
<svg width="100%" height="100%" viewBox="0 0 2084 1667" version="1.1" xmlns="http://www.w3.org/2000/svg" xmlns:xlink="http://www.w3.org/1999/xlink" xml:space="preserve" xmlns:serif="http://www.serif.com/" style="fill-rule:evenodd;clip-rule:evenodd;stroke-linecap:square;stroke-miterlimit:1.5;">
    <g transform="matrix(2.9706,0,0,7.22302,-6983.66,-5113.27)">
        <g transform="matrix(0.73923,0,0,0.294583,875.271,207.359)">
            <rect x="2319.57" y="1847.25" width="515.281" height="515.281" style="fill:none;stroke:url(#_Linear1);stroke-width:40px;"/>
        </g>
        <g transform="matrix(0.73923,0,0,0.294583,875.271,207.359)">
            <rect x="2319.57" y="1847.25" width="515.281" height="515.281" style="fill:none;stroke:url(#_Linear2);stroke-width:40px;"/>
        </g>
        <g id="Layer-1" serif:id="Layer 1" transform="matrix(-1.29442,0,0,0.515828,3489.2,696.165)">
            <g transform="matrix(-0.412201,0,0,0.397008,879.366,-191.578)">
                <path d="M730.026,752.516L841.259,637.026L929.07,732.153L1020.74,637.026L1103.69,723.303L1186.79,637.026L1183.65,919.539L1128.6,947.029L1196.5,1089.08L1196.6,1089.22L1196.6,1089.22L1196.6,1089.22L1196.6,1089.22L1195.77,1090.09L641.484,1666.67L0.006,1666.67C0.006,1666.67 0,1510.49 0,1510.49L729.995,752.445L730.026,752.516Z" style="fill:url(#_Linear3);"/>
            </g>
            <g transform="matrix(-0.412201,0,0,0.397008,879.366,-191.578)">
                <path d="M730.026,752.516L841.259,637.026L929.07,732.153L1020.74,637.026L1103.69,723.303L1186.79,637.026L1183.65,919.539L1128.6,947.029L1196.5,1089.08L1196.6,1089.22L1196.6,1089.22L1196.6,1089.22L1196.6,1089.22L1195.77,1090.09L804.966,1494.12L448.015,1494.12C448.015,1494.12 448.015,1045.26 448.015,1045.26L729.995,752.445L730.026,752.516Z" style="fill:url(#_Linear4);"/>
            </g>
            <g transform="matrix(1.9629,0,0,1.9629,479.701,128.031)">
                <path d="M0,23.494L8.668,-33.982L26.947,-33.982L10.678,57.476L-7.853,57.476L-18.531,3.582L-29.084,57.476L-47.677,57.476L-64.009,-33.982L-45.604,-33.982L-36.998,23.432L-26.257,-33.982L-10.742,-33.982L0,23.494Z" style="fill:url(#_Linear5);fill-rule:nonzero;"/>
            </g>
        </g>
        <g transform="matrix(0.956114,0,0,0.39322,206.302,166.126)">
            <path d="M2570.78,1545.76L2543.99,1545.76L2543.99,1538.1L2584.45,1538.1L2550.21,1594.24L2543.71,1590.13L2570.78,1545.76Z" style="fill:rgb(93,112,124);fill-rule:nonzero;"/>
            <path d="M2611.21,1577.23L2616.97,1577.23L2616.97,1584.68L2611.21,1584.68L2611.21,1592.38L2603.02,1592.38L2603.02,1584.68L2576.37,1584.68L2611.21,1534.05L2611.21,1577.23ZM2603.02,1577.23L2603.02,1559.05L2590.5,1577.23L2603.02,1577.23Z" style="fill:rgb(93,112,124);fill-rule:nonzero;"/>
        </g>
        <g transform="matrix(0.878666,0,0,0.337243,601.756,102.555)">
            <path d="M2279.84,2083.31L2244.7,2118.45L2244.7,2391.23L2463.4,2391.23L2496.91,2357.72L2280.09,2357.72L2279.84,2083.31Z" style="fill:white;"/>
        </g>
    </g>
    <defs>
        <linearGradient id="_Linear1" x1="0" y1="0" x2="1" y2="0" gradientUnits="userSpaceOnUse" gradientTransform="matrix(515.281,0,0,515.281,2319.57,2104.89)"><stop offset="0" style="stop-color:rgb(64,188,255);stop-opacity:1"/><stop offset="0.5" style="stop-color:rgb(155,154,247);stop-opacity:1"/><stop offset="1" style="stop-color:rgb(225,98,237);stop-opacity:1"/></linearGradient>
        <linearGradient id="_Linear2" x1="0" y1="0" x2="1" y2="0" gradientUnits="userSpaceOnUse" gradientTransform="matrix(515.281,0,0,515.281,2319.57,2104.89)"><stop offset="0" style="stop-color:rgb(231,237,239);stop-opacity:0.2"/><stop offset="0.55" style="stop-color:rgb(216,224,226);stop-opacity:0.2"/><stop offset="1" style="stop-color:rgb(161,175,180);stop-opacity:0.2"/></linearGradient>
        <linearGradient id="_Linear3" x1="0" y1="0" x2="1" y2="0" gradientUnits="userSpaceOnUse" gradientTransform="matrix(-1173.09,1029.64,-960.902,-1257.01,1173.09,637.026)"><stop offset="0" style="stop-color:rgb(142,215,254);stop-opacity:1"/><stop offset="0.58" style="stop-color:rgb(203,192,251);stop-opacity:1"/><stop offset="1" style="stop-color:rgb(239,139,245);stop-opacity:1"/></linearGradient>
        <linearGradient id="_Linear4" x1="0" y1="0" x2="1" y2="0" gradientUnits="userSpaceOnUse" gradientTransform="matrix(-1196.6,1.46541e-13,-1.46541e-13,-1196.6,1196.6,1011.13)"><stop offset="0" style="stop-color:rgb(64,188,255);stop-opacity:0.9"/><stop offset="0.5" style="stop-color:rgb(155,154,247);stop-opacity:0.9"/><stop offset="1" style="stop-color:rgb(225,98,237);stop-opacity:0.9"/></linearGradient>
        <linearGradient id="_Linear5" x1="0" y1="0" x2="1" y2="0" gradientUnits="userSpaceOnUse" gradientTransform="matrix(91.8762,48.5553,47.0478,-94.8201,-72.0466,-1.6028)"><stop offset="0" style="stop-color:rgb(231,237,239);stop-opacity:1"/><stop offset="0.55" style="stop-color:rgb(216,224,226);stop-opacity:1"/><stop offset="1" style="stop-color:rgb(161,175,180);stop-opacity:1"/></linearGradient>
    </defs>
</svg>
