<?xml version="1.0" encoding="UTF-8" standalone="no"?><!DOCTYPE svg PUBLIC "-//W3C//DTD SVG 1.1//EN" "http://www.w3.org/Graphics/SVG/1.1/DTD/svg11.dtd"><svg width="100%" height="100%" viewBox="0 0 500 400" version="1.1" xmlns="http://www.w3.org/2000/svg" xmlns:xlink="http://www.w3.org/1999/xlink" xml:space="preserve" xmlns:serif="http://www.serif.com/" style="fill-rule:evenodd;clip-rule:evenodd;stroke-linecap:square;stroke-miterlimit:1.5;"><g><rect x="170.425" y="75.609" width="271.569" height="263.137" style="fill:none;stroke:url(#_Linear1);stroke-width:20.76px;"/><rect x="170.425" y="75.609" width="271.569" height="263.137" style="fill:none;stroke:url(#_Linear2);stroke-width:20.76px;"/><g id="Layer-1" serif:id="Layer 1"><path d="M277.703,75.471l42.313,-40.999l33.403,33.771l34.871,-33.771l31.555,30.629l31.611,-30.629l-1.196,100.294l-20.941,9.759l25.832,50.427l0.036,0.053l0,-0.001l0,0.001l0,0l-0.316,0.306l-210.85,204.689l-244.019,0l-0.002,-55.443l277.691,-269.111l0.012,0.025Z" style="fill:url(#_Linear3);"/><path d="M277.703,75.471l42.313,-40.999l33.403,33.771l34.871,-33.771l31.555,30.629l31.611,-30.629l-1.196,100.294l-20.941,9.759l25.832,50.427l0.036,0.053l0,-0.001l0,0.001l0,0l-0.316,0.306l-148.661,143.436l-135.785,0l0,-159.349l107.266,-103.952l0.012,0.025Z" style="fill:url(#_Linear4);"/><path d="M368.833,135.357l-15.702,-100.883l-33.112,0l29.471,160.529l33.568,0l19.343,-94.596l19.116,94.596l33.681,0l29.585,-160.529l-33.34,0l-15.59,100.774l-19.457,-100.774l-28.104,0l-19.459,100.883Z" style="fill:url(#_Linear5);fill-rule:nonzero;"/></g><text x="202.589px" y="146.253px" style="font-family:'Futura-Medium', 'Futura', sans-serif;font-weight:500;font-size:49.079px;fill:#5d707c;">7<tspan x="226.745px " y="146.253px ">4</tspan></text><path d="M181.121,168.542l-22.013,20.543l0,159.472l137.001,0l20.992,-19.59l-135.822,0l-0.158,-160.425Z" style="fill:#fff;"/></g><defs><linearGradient id="_Linear1" x1="0" y1="0" x2="1" y2="0" gradientUnits="userSpaceOnUse" gradientTransform="matrix(271.569,0,0,263.137,170.425,207.178)"><stop offset="0" style="stop-color:#40bcff;stop-opacity:1"/><stop offset="0.5" style="stop-color:#9b9af7;stop-opacity:1"/><stop offset="1" style="stop-color:#e162ed;stop-opacity:1"/></linearGradient><linearGradient id="_Linear2" x1="0" y1="0" x2="1" y2="0" gradientUnits="userSpaceOnUse" gradientTransform="matrix(271.569,0,0,263.137,170.425,207.178)"><stop offset="0" style="stop-color:#e7edef;stop-opacity:0.2"/><stop offset="0.55" style="stop-color:#d8e0e2;stop-opacity:0.2"/><stop offset="1" style="stop-color:#a1afb4;stop-opacity:0.2"/></linearGradient><linearGradient id="_Linear3" x1="0" y1="0" x2="1" y2="0" gradientUnits="userSpaceOnUse" gradientTransform="matrix(-446.246,365.528,-365.528,-446.246,446.246,34.4721)"><stop offset="0" style="stop-color:#8ed7fe;stop-opacity:1"/><stop offset="0.58" style="stop-color:#cbc0fb;stop-opacity:1"/><stop offset="1" style="stop-color:#ef8bf5;stop-opacity:1"/></linearGradient><linearGradient id="_Linear4" x1="0" y1="0" x2="1" y2="0" gradientUnits="userSpaceOnUse" gradientTransform="matrix(-455.187,5.20229e-14,-5.57444e-14,-424.799,455.187,167.281)"><stop offset="0" style="stop-color:#40bcff;stop-opacity:0.9"/><stop offset="0.5" style="stop-color:#9b9af7;stop-opacity:0.9"/><stop offset="1" style="stop-color:#e162ed;stop-opacity:0.9"/></linearGradient><linearGradient id="_Linear5" x1="0" y1="0" x2="1" y2="0" gradientUnits="userSpaceOnUse" gradientTransform="matrix(-166.431,85.2255,-85.2255,-166.431,499.343,91.3063)"><stop offset="0" style="stop-color:#e7edef;stop-opacity:1"/><stop offset="0.55" style="stop-color:#d8e0e2;stop-opacity:1"/><stop offset="1" style="stop-color:#a1afb4;stop-opacity:1"/></linearGradient></defs></svg>